<?xml version="1.0" standalone="no"?>
<!DOCTYPE svg PUBLIC "-//W3C//DTD SVG 20010904//EN"
 "http://www.w3.org/TR/2001/REC-SVG-20010904/DTD/svg10.dtd">
<svg version="1.0" xmlns="http://www.w3.org/2000/svg"
 width="1141.000000pt" height="1141.000000pt" viewBox="0 0 1141.000000 1141.000000"
 preserveAspectRatio="xMidYMid meet">
<metadata>
Created by potrace 1.11, written by Peter Selinger 2001-2013
</metadata>
<g transform="translate(0.000000,1141.000000) scale(0.100000,-0.100000)"
fill="#000000" stroke="none">
<path d="M5389 11406 c-2 -2 -57 -7 -122 -10 -65 -4 -123 -9 -130 -11 -7 -2
-41 -6 -77 -9 -36 -3 -76 -8 -90 -10 -14 -3 -63 -10 -110 -16 -46 -6 -87 -13
-90 -15 -4 -2 -29 -7 -56 -11 -27 -3 -87 -15 -134 -25 -47 -11 -96 -22 -110
-25 -14 -3 -43 -10 -65 -16 -22 -5 -49 -12 -60 -14 -98 -19 -553 -168 -650
-214 -11 -5 -69 -30 -130 -56 -382 -163 -852 -447 -1151 -695 -23 -19 -53 -43
-66 -54 -150 -118 -503 -471 -609 -610 -13 -16 -26 -32 -29 -35 -3 -3 -21 -25
-40 -50 -19 -25 -37 -47 -40 -50 -12 -11 -139 -190 -195 -275 -183 -279 -343
-591 -454 -888 -92 -244 -177 -544 -215 -757 -8 -47 -18 -98 -21 -115 -8 -41
-14 -81 -20 -140 -3 -27 -8 -63 -11 -80 -20 -115 -29 -299 -29 -565 0 -255 5
-348 25 -517 5 -43 12 -98 15 -123 3 -25 7 -54 10 -66 3 -12 7 -39 10 -60 8
-52 31 -165 61 -294 166 -711 538 -1434 1028 -2000 41 -47 84 -96 96 -110 71
-82 276 -283 424 -415 55 -49 233 -193 266 -215 12 -8 28 -20 34 -25 11 -11
72 -54 166 -120 30 -21 57 -39 59 -41 4 -4 6 -15 15 -104 4 -30 9 -71 11 -90
3 -19 7 -48 10 -65 40 -305 126 -679 217 -950 11 -33 24 -68 29 -77 5 -10 9
-23 9 -29 0 -26 90 -239 170 -404 73 -150 188 -343 246 -414 7 -9 34 -43 60
-76 161 -202 351 -353 534 -424 60 -24 76 -26 137 -20 103 11 122 16 199 55
182 90 307 281 384 584 20 79 47 221 55 290 2 19 7 58 10 85 3 28 8 68 10 90
5 41 14 328 19 585 l3 145 34 -1 c32 0 134 -10 204 -19 188 -25 570 -34 810
-19 66 4 138 7 160 8 l39 1 2 -170 c3 -187 12 -423 18 -470 3 -16 7 -55 10
-85 8 -75 14 -113 31 -190 8 -36 16 -79 19 -96 6 -31 56 -199 74 -244 5 -14
10 -28 11 -32 1 -4 18 -40 38 -80 55 -114 136 -229 207 -294 87 -79 86 -79
142 -107 113 -57 214 -64 320 -22 195 78 382 222 539 415 20 25 44 54 53 65
77 93 199 302 266 456 48 111 147 451 181 622 3 15 7 39 10 55 3 15 12 61 20
102 8 41 17 93 20 115 3 22 10 65 15 95 5 30 12 80 15 110 4 30 9 69 11 85 3
17 7 46 9 65 7 70 18 195 18 208 0 8 17 24 37 35 19 12 45 27 55 34 11 7 40
24 65 39 119 71 388 255 436 299 7 5 24 19 39 29 14 11 34 27 44 35 11 9 35
30 56 46 281 229 567 531 797 841 67 91 105 146 224 329 127 196 323 597 411
840 37 104 103 306 108 329 2 12 4 21 5 21 1 0 3 7 5 15 1 8 14 58 28 110 36
132 77 341 102 520 2 14 6 52 10 85 3 33 8 74 10 90 24 196 24 633 1 850 -2
17 -7 59 -10 95 -6 57 -15 120 -32 225 -10 65 -46 243 -61 300 -8 33 -17 69
-19 79 -2 10 -15 60 -30 110 -14 50 -27 96 -29 101 -1 6 -5 17 -8 25 -3 8 -18
53 -33 100 -104 326 -317 763 -531 1087 -71 109 -278 389 -338 458 -14 17 -49
57 -78 90 -134 154 -319 338 -487 485 -35 30 -68 60 -74 65 -6 6 -67 54 -136
108 -69 53 -129 100 -135 105 -42 34 -290 197 -406 267 -126 76 -469 253 -574
297 -22 9 -74 31 -115 49 -273 116 -750 257 -1025 303 -70 12 -93 16 -155 25
-36 6 -87 13 -115 17 -27 3 -57 7 -65 9 -8 2 -55 6 -105 10 -49 4 -99 9 -110
12 -24 5 -641 14 -646 9z"/>
</g>
</svg>
