<svg width="40" height="40" viewBox="0 0 40 40" fill="none" xmlns="http://www.w3.org/2000/svg">
<g clip-path="url(#clip0)">
<path d="M35.999 25.0459V24.0013C35.999 22.8969 35.1036 22.0012 33.9989 22.0012H32.6657C31.5631 22.0012 30.6686 22.8936 30.6656 23.9961C29.3552 23.824 27.999 23.69 26.6658 23.5899V22.668C26.6658 21.5636 25.7704 20.668 24.666 20.668H23.3327C22.228 20.668 21.3327 21.5636 21.3327 22.668V23.3461C20.8661 23.3388 20.4221 23.3348 19.9994 23.3348C19.5768 23.3348 19.1327 23.3388 18.6661 23.3461V22.668C18.6661 21.5636 17.7708 20.668 16.6661 20.668H15.3328C14.2284 20.668 13.333 21.5636 13.333 22.668V23.5899C11.9998 23.69 10.643 23.824 9.33291 23.9961C9.33017 22.8936 8.43542 22.0012 7.33316 22.0012H5.99988C4.89518 22.0012 3.99982 22.8969 3.99982 24.0013V25.0459C1.61189 25.7472 0 26.7066 0 28.0011V33.3345C0.00152584 33.8085 0.255425 34.2461 0.666484 34.4823V35.3343C0.666484 36.439 1.56215 37.3343 2.66655 37.3343H3.45601C3.73738 38.1305 4.4887 38.664 5.33309 38.6676H7.33316C7.67769 38.6655 8.01551 38.5736 8.31366 38.4009C8.67833 38.9807 9.31491 39.3329 9.9997 39.3341H12.6663C13.0108 39.3323 13.3489 39.2404 13.6471 39.0677C14.0114 39.6472 14.648 39.9997 15.3328 40.0009H18.6661C19.1596 39.9991 19.635 39.8138 19.9994 39.4809C20.3638 39.8138 20.8392 39.9991 21.3327 40.0009H24.666C25.3508 39.9997 25.9871 39.6472 26.3518 39.0677C26.6499 39.2404 26.988 39.3323 27.3326 39.3341H29.9991C30.6839 39.3329 31.3205 38.9807 31.6852 38.4009C31.983 38.5736 32.3211 38.6655 32.6657 38.6676H34.6657C35.5101 38.664 36.2614 38.1305 36.5428 37.3343H37.3323C38.4367 37.3343 39.332 36.439 39.332 35.3343V34.4823C39.7434 34.2461 39.9973 33.8085 39.9988 33.3345V28.0011C39.9988 26.7066 38.3869 25.7472 35.999 25.0459ZM31.9992 24.0013C31.9992 23.6333 32.2976 23.3348 32.6657 23.3348H33.9989C34.3673 23.3348 34.6657 23.6333 34.6657 24.0013V24.6974C33.8311 24.5039 32.9324 24.3345 31.9992 24.1881V24.0013ZM22.666 22.668C22.666 22.3 22.9644 22.0012 23.3327 22.0012H24.666C25.034 22.0012 25.3325 22.3 25.3325 22.668V23.4999C24.4146 23.4447 23.5192 23.4053 22.666 23.3788V22.668ZM14.6663 22.668C14.6663 22.3 14.9648 22.0012 15.3328 22.0012H16.6661C17.0344 22.0012 17.3329 22.3 17.3329 22.668V23.3788C16.4796 23.4053 15.5843 23.4453 14.6663 23.4999V22.668ZM5.33309 24.0013C5.33309 23.6333 5.63155 23.3348 5.99988 23.3348H7.33316C7.70119 23.3348 7.99964 23.6333 7.99964 24.0013V24.1881C7.06644 24.3345 6.16772 24.5039 5.33309 24.6974V24.0013ZM19.9994 24.6681C32.077 24.6681 38.6655 26.868 38.6655 28.0011V31.9524C38.3418 31.6586 37.9179 31.4993 37.4809 31.5072C37.0518 31.5084 36.6347 31.6488 36.2923 31.907C35.8119 31.0595 34.8983 30.5517 33.9251 30.5911C33.0135 30.5932 32.145 30.9792 31.5323 31.6546C30.9875 30.7656 30.0009 30.245 28.9597 30.2972C27.9017 30.2969 26.8965 30.7598 26.2086 31.5636C25.6197 30.5438 24.5089 29.9402 23.3327 30.0012C21.9912 30.0021 20.7394 30.6756 19.9994 31.7944C19.2594 30.6756 18.0076 30.0021 16.6661 30.0012C15.4887 29.9399 14.3767 30.5447 13.7883 31.5664C13.1005 30.7623 12.095 30.2996 11.037 30.2999C9.99696 30.2481 9.01157 30.7672 8.46655 31.6546C7.85377 30.9808 6.98618 30.596 6.07587 30.5938C5.10178 30.5535 4.18719 31.0616 3.70656 31.9097C3.36416 31.6512 2.947 31.5109 2.51793 31.5096C2.08124 31.5014 1.65736 31.6595 1.33327 31.9524V28.0011C1.33327 26.868 7.92182 24.6681 19.9994 24.6681ZM2.00006 35.3343V33.5564C2.00006 33.4371 2.02448 32.8405 2.51793 32.8405C3.02756 32.9235 3.3846 33.3885 3.33334 33.9024V36.0011H2.66655C2.29852 36.0011 2.00006 35.7026 2.00006 35.3343ZM7.33316 37.3343H5.33309C4.96506 37.3343 4.66661 37.0359 4.66661 36.6676V33.3345C4.64189 32.9543 4.78227 32.5817 5.05173 32.3122C5.32119 32.0428 5.6935 31.9024 6.07373 31.9271C7.13693 31.9283 7.99872 32.7898 7.99964 33.853V36.6676C7.99964 37.0359 7.70119 37.3343 7.33316 37.3343ZM12.6663 38.0008H9.9997C9.63137 38.0008 9.33291 37.7024 9.33291 37.3343V33.3345C9.31064 32.8759 9.48306 32.4294 9.80745 32.105C10.1321 31.7803 10.5786 31.6082 11.037 31.6305C12.3046 31.632 13.3318 32.6595 13.333 33.9272V37.3343C13.333 37.7024 13.0346 38.0008 12.6663 38.0008ZM18.6661 38.6676H15.3328C14.9648 38.6676 14.6663 38.3692 14.6663 38.0008V33.3345C14.6401 32.7965 14.8427 32.2725 15.2232 31.8917C15.6041 31.5109 16.1281 31.3085 16.6661 31.3345C18.1388 31.3345 19.3326 32.5283 19.3326 34.001V38.0008C19.3326 38.3692 19.0342 38.6676 18.6661 38.6676ZM25.3325 38.0008C25.3325 38.3692 25.034 38.6676 24.666 38.6676H21.3327C20.9646 38.6676 20.6659 38.3692 20.6659 38.0008V34.001C20.6659 32.5283 21.86 31.3345 23.3327 31.3345C23.8704 31.3085 24.3944 31.5109 24.7753 31.8917C25.1561 32.2725 25.3584 32.7965 25.3325 33.3345V38.0008ZM30.6656 37.3343C30.6656 37.7024 30.3671 38.0008 29.9991 38.0008H27.3326C26.9642 38.0008 26.6658 37.7024 26.6658 37.3343V33.9272C26.667 32.6595 27.6942 31.632 28.9618 31.6305C29.4202 31.6082 29.8667 31.7803 30.1914 32.105C30.5158 32.4294 30.6882 32.8759 30.6656 33.3345V37.3343ZM35.3322 36.6676C35.3322 37.0359 35.0338 37.3343 34.6657 37.3343H32.6657C32.2976 37.3343 31.9992 37.0359 31.9992 36.6676V33.853C32.0001 32.7898 32.8619 31.9283 33.9251 31.9271C34.3053 31.9024 34.6776 32.0428 34.9471 32.3122C35.2165 32.5817 35.3569 32.9543 35.3322 33.3345V36.6676ZM37.9988 35.3343C37.9988 35.7026 37.7003 36.0011 37.3323 36.0011H36.6655V33.9024C36.6142 33.3885 36.9713 32.9235 37.4809 32.8405C37.9743 32.8405 37.9988 33.4404 37.9988 33.5564V35.3343Z" fill="black"/>
<path d="M39.7446 1.4558L39.9555 0.908634C40.0876 0.564711 39.9161 0.178675 39.5722 0.0465375C39.2283 -0.0855997 38.8423 0.085904 38.7101 0.429827L38.5002 0.977296C36.7012 5.59813 32.2592 8.64888 27.3006 8.66902H12.7008C7.7418 8.64949 3.29888 5.59874 1.49992 0.977296L1.28997 0.429827C1.15783 0.085904 0.771797 -0.0855997 0.427874 0.0465375C0.083951 0.178675 -0.0875528 0.564711 0.0445844 0.908634L0.255149 1.4558C2.2543 6.59023 7.18976 9.97971 12.6995 10.0023H27.299C32.8094 9.98032 37.7455 6.59053 39.7446 1.4558Z" fill="black"/>
<path d="M16.0003 19.3342C16.3683 19.3342 16.6668 19.0357 16.6668 18.6677V13.6105L17.5289 14.4726C17.7904 14.7249 18.2063 14.7216 18.4633 14.4643C18.7205 14.2071 18.7242 13.7914 18.4715 13.5299L16.4715 11.5298C16.4657 11.5237 16.4574 11.5219 16.4516 11.5164C16.3946 11.4606 16.3283 11.4157 16.2554 11.3831C16.2502 11.3831 16.2435 11.3831 16.2383 11.3791C16.1709 11.3541 16.1001 11.34 16.0281 11.3379C16.0058 11.3379 15.9838 11.3394 15.9615 11.3419C15.9057 11.3452 15.8505 11.3559 15.7977 11.3739C15.7748 11.3803 15.7525 11.3879 15.7308 11.3971C15.6567 11.4288 15.5889 11.4743 15.5309 11.5305L13.5309 13.5305C13.2782 13.792 13.2819 14.2077 13.5391 14.4649C13.7961 14.7222 14.212 14.7259 14.4735 14.4732L15.3335 13.6105V18.6677C15.3335 19.0357 15.632 19.3342 16.0003 19.3342Z" fill="black"/>
<path d="M24 19.3342C24.3684 19.3342 24.6668 19.0357 24.6668 18.6677V13.6105L25.5286 14.4726C25.7901 14.7249 26.2061 14.7216 26.4633 14.4643C26.7203 14.2071 26.7239 13.7914 26.4713 13.5299L24.4715 11.5298C24.4654 11.5237 24.4575 11.5219 24.4514 11.5164C24.3946 11.4606 24.3281 11.4157 24.2554 11.3831C24.25 11.3831 24.2432 11.3831 24.238 11.3791C24.1709 11.3541 24.0998 11.34 24.0281 11.3379C24.0058 11.3379 23.9835 11.3394 23.9613 11.3419C23.9054 11.3452 23.8505 11.3559 23.7974 11.3739C23.7748 11.3803 23.7525 11.3879 23.7309 11.3971C23.6564 11.4288 23.5887 11.4743 23.5307 11.5305L21.5309 13.5305C21.2782 13.792 21.2819 14.2077 21.5389 14.4649C21.7961 14.7222 22.2117 14.7259 22.4736 14.4732L23.3335 13.6105V18.6677C23.3335 19.0357 23.632 19.3342 24 19.3342Z" fill="black"/>
<path d="M33.3329 20.6682C33.701 20.6682 33.9994 20.3697 33.9994 20.0017V14.9445L34.8615 15.8065C35.123 16.0589 35.5387 16.0556 35.7959 15.7983C36.0532 15.5411 36.0568 15.1254 35.8042 14.8639L33.8041 12.8638C33.798 12.8577 33.7901 12.8559 33.7843 12.8504C33.7272 12.7949 33.661 12.7497 33.5881 12.717C33.5823 12.717 33.5761 12.717 33.57 12.7131C33.5029 12.6884 33.4324 12.6743 33.3607 12.6719C33.3384 12.6719 33.3161 12.6734 33.2942 12.6758C33.238 12.6792 33.1828 12.6899 33.1294 12.7079C33.1074 12.7152 33.0861 12.7213 33.0629 12.7305C32.9887 12.7625 32.921 12.8077 32.863 12.8638L30.8629 14.8639C30.6102 15.1254 30.6139 15.5411 30.8712 15.7983C31.1281 16.0556 31.544 16.0589 31.8056 15.8065L32.6661 14.9445V20.0017C32.6661 20.3697 32.9646 20.6682 33.3329 20.6682Z" fill="black"/>
<path d="M6.0009 20.6676C6.36893 20.6676 6.66738 20.3692 6.66738 20.0011V14.9439L7.52948 15.806C7.79101 16.0584 8.20695 16.055 8.4639 15.7978C8.72116 15.5405 8.72482 15.1249 8.47214 14.8633L6.47208 12.8633C6.46628 12.8572 6.45804 12.8553 6.45224 12.8498C6.39518 12.7943 6.32895 12.7491 6.25602 12.7165C6.25083 12.7165 6.24412 12.7165 6.23802 12.7125C6.17118 12.6875 6.10039 12.6738 6.02867 12.6719C6.0067 12.6716 5.98442 12.6725 5.96214 12.6753C5.90599 12.6786 5.85076 12.6893 5.79735 12.7073C5.69726 12.7363 5.60571 12.7894 5.53094 12.8621L3.53088 14.8618C3.2782 15.1233 3.28187 15.5393 3.53912 15.7965C3.79607 16.0535 4.21201 16.0571 4.47354 15.8045L5.33411 14.9439V20.0011C5.33411 20.3692 5.63256 20.6676 6.0009 20.6676Z" fill="black"/>
</g>
<defs>
<clipPath id="clip0">
<rect width="40" height="40" fill="white"/>
</clipPath>
</defs>
</svg>
