<svg width="1133" height="732" viewBox="0 0 1133 732" fill="none" xmlns="http://www.w3.org/2000/svg">
<rect x="0.210938" y="3.29492" width="1132.79" height="757.691" fill="white"/>
<path d="M489.583 553.443L478.352 568.268L516.86 703.334L614.736 675.333L662.871 652.273L731.865 632.507L691.752 490.852L489.583 553.443Z" fill="#6F9890"/>
<path d="M101.294 647.331L17.8594 197.658L613.135 14.8242L627.576 28.0014V44.473C612.172 65.5565 616.879 100.476 621.158 115.301L683.734 462.85L476.751 525.442L455.893 518.853L252.119 583.092L101.294 647.331Z" fill="#9D8C9B" fill-opacity="0.42"/>
<path d="M696.572 194.364L648.437 202.6L667.691 312.959L715.827 304.723L696.572 194.364Z" fill="#A494A3" fill-opacity="0.42"/>
<path d="M696.572 459.556L670.9 326.136L791.239 304.723L802.47 370.61C808.888 377.198 812.632 372.257 813.702 368.962L765.567 69.1804L847.397 44.4731L861.838 95.5349L877.883 196.011C883.017 201.282 886.44 197.109 887.51 194.364L869.86 93.8877L857.024 41.1788L871.465 36.2374L895.532 177.893L917.996 194.364L945.273 196.011L958.109 268.486L945.273 270.133L948.482 280.016L985.385 275.075L1006.24 281.663L1019.08 298.135L1035.13 355.785L696.572 459.556Z" fill="#A494A3" fill-opacity="0.42"/>
<path d="M646.832 192.717L632.392 102.124L661.273 100.476L754.335 70.8276L789.634 293.193L725.454 304.723C719.57 271.231 707.483 201.941 706.199 192.717C704.916 183.493 698.177 182.285 694.968 182.834L646.832 192.717Z" fill="#A494A3" fill-opacity="0.42"/>
<path d="M632.392 88.9463C631.322 83.4558 631.108 67.8627 638.81 49.4146C646.511 30.9665 653.248 7.68672 654.851 1.64715H765.567H945.273L773.586 51.0618L686.942 77.4162C675.712 81.2596 649.082 88.9463 632.392 88.9463Z" fill="#A494A3" fill-opacity="0.42"/>
<path d="M117.338 759.338L107.711 703.334C220.669 644.037 294.905 620.428 317.903 616.035L341.97 759.338H117.338Z" fill="#A494A3" fill-opacity="0.42"/>
<path d="M353.202 759.338L327.53 611.094L462.309 571.562L515.258 759.338H353.202Z" fill="#A494A3" fill-opacity="0.42"/>
<path d="M529.699 759.338L520.072 719.806L619.552 691.804L664.478 670.391L738.286 647.331C754.973 684.228 807.28 737.376 831.348 759.338H529.699Z" fill="#A494A3" fill-opacity="0.42"/>
<path d="M722.241 556.738L702.987 487.557L1044.75 382.14L1088.07 540.266L1124.97 601.211L1041.54 625.918L1017.47 604.505C981.531 586.057 958.64 616.584 951.687 634.154L905.156 647.331L869.857 652.273L813.698 691.804V696.746L804.071 701.687C778.399 676.651 764.493 652.822 760.749 644.037H751.122L727.055 566.621L812.094 540.266L808.885 530.383L722.241 556.738Z" fill="#A494A3" fill-opacity="0.42"/>
<path d="M818.512 701.687L808.885 706.629L850.602 721.453L863.438 708.276C872.424 699.052 873.6 683.569 873.066 676.98L869.857 663.803L821.721 701.687H818.512Z" fill="#A494A3" fill-opacity="0.42"/>
<path d="M848.998 724.747L802.467 709.923L848.998 759.338H873.066L871.461 746.161L848.998 724.747Z" fill="#A494A3" fill-opacity="0.42"/>
<path d="M877.879 672.039C883.014 689.169 872.531 706.629 866.648 713.217L855.985 724.164L877.879 742.866L879.484 759.338H1067.21L1036.73 635.801L1019.08 620.977C992.121 594.622 966.128 625.369 956.5 644.037L940.455 648.978L958.105 714.865C955.538 721.453 949.548 719.806 946.873 718.159L927.619 650.626L874.67 660.509L877.879 672.039Z" fill="#A494A3" fill-opacity="0.42"/>
<path d="M1078.44 759.338L1047.96 635.801L1128.18 611.094L1133 625.918V759.338H1078.44Z" fill="#A494A3" fill-opacity="0.42"/>
<path d="M900.342 172.951L876.275 34.5902L988.591 0L1133 1.64715V326.136L1047.96 352.491L1030.31 291.546L1014.26 271.78L985.385 263.545L964.523 266.839L950.082 187.775L917.996 186.128L900.342 172.951Z" fill="#A494A3" fill-opacity="0.42"/>
<path d="M1054.38 378.845L1133 355.785V592.975L1097.7 533.678L1054.38 378.845Z" fill="#A494A3" fill-opacity="0.42"/>
<path d="M171.892 123.536L576.231 0L-3 1.64715V60.9447L17.8587 181.187L151.034 138.361L162.265 126.831L125.361 14.8244L147.825 6.58861L151.034 16.4715L138.198 21.413L171.892 123.536Z" fill="#A494A3" fill-opacity="0.42"/>
<path d="M64.3897 757.69L57.9717 724.747L-1.39548 749.455V757.69H64.3897Z" fill="#A494A3" fill-opacity="0.42"/>
<path d="M49.9491 675.333L-1.39548 695.099V540.266L29.0903 532.031L49.9491 675.333Z" fill="#A494A3" fill-opacity="0.42"/>
<path d="M27.4907 520.5L-1.39062 528.735V444.731L13.05 439.789L27.4907 520.5Z" fill="#A494A3" fill-opacity="0.42"/>
<path d="M439 263.732C426.863 263.732 417 273.51 417 285.54C417 289.611 418.137 293.573 420.3 296.99L437.509 324.906C437.802 325.378 438.242 325.669 438.756 325.742C439.452 325.851 440.222 325.56 440.626 324.869L457.883 296.699C459.937 293.355 461 289.466 461 285.54C461 273.51 451.137 263.732 439 263.732ZM439 296.444C432.84 296.444 428 291.501 428 285.54C428 279.543 432.95 274.636 439 274.636C445.05 274.636 450 279.543 450 285.54C450 291.465 445.233 296.444 439 296.444Z" fill="#464646"/>
<path d="M439 263.732V274.637C445.05 274.637 450 279.543 450 285.541C450 291.465 445.233 296.445 439 296.445V325.763C439.626 325.778 440.269 325.481 440.626 324.87L457.883 296.699C459.937 293.355 461 289.466 461 285.541C461 273.51 451.137 263.732 439 263.732Z" fill="black"/>
<path d="M110.891 288.725V260.287H120.637C123.853 260.287 126.301 260.932 127.98 262.221C129.66 263.51 130.5 265.43 130.5 267.982C130.5 269.285 130.148 270.456 129.445 271.498C128.742 272.54 127.714 273.347 126.359 273.92C127.896 274.337 129.081 275.124 129.914 276.283C130.76 277.429 131.184 278.809 131.184 280.424C131.184 283.093 130.324 285.144 128.605 286.576C126.9 288.008 124.452 288.725 121.262 288.725H110.891ZM115.832 275.893V284.779H121.32C122.87 284.779 124.081 284.395 124.953 283.627C125.826 282.859 126.262 281.791 126.262 280.424C126.262 277.468 124.751 275.958 121.73 275.893H115.832ZM115.832 272.26H120.676C122.212 272.26 123.41 271.915 124.27 271.225C125.142 270.521 125.578 269.532 125.578 268.256C125.578 266.85 125.174 265.834 124.367 265.209C123.573 264.584 122.329 264.271 120.637 264.271H115.832V272.26ZM148.293 288.725C148.085 288.321 147.902 287.663 147.746 286.752C146.236 288.327 144.387 289.115 142.199 289.115C140.077 289.115 138.345 288.51 137.004 287.299C135.663 286.088 134.992 284.59 134.992 282.807C134.992 280.554 135.826 278.829 137.492 277.631C139.172 276.42 141.568 275.814 144.68 275.814H147.59V274.428C147.59 273.334 147.284 272.462 146.672 271.811C146.06 271.146 145.129 270.814 143.879 270.814C142.798 270.814 141.913 271.088 141.223 271.635C140.533 272.169 140.188 272.852 140.188 273.686H135.441C135.441 272.527 135.826 271.446 136.594 270.443C137.362 269.428 138.404 268.633 139.719 268.061C141.047 267.488 142.525 267.201 144.152 267.201C146.626 267.201 148.599 267.826 150.07 269.076C151.542 270.313 152.297 272.058 152.336 274.311V283.842C152.336 285.743 152.603 287.26 153.137 288.393V288.725H148.293ZM143.078 285.307C144.016 285.307 144.895 285.079 145.715 284.623C146.548 284.167 147.173 283.555 147.59 282.787V278.803H145.031C143.273 278.803 141.952 279.109 141.066 279.721C140.181 280.333 139.738 281.199 139.738 282.318C139.738 283.23 140.038 283.959 140.637 284.506C141.249 285.04 142.062 285.307 143.078 285.307ZM164.387 281.928L168.684 267.592H173.742L165.344 291.928C164.055 295.482 161.867 297.26 158.781 297.26C158.091 297.26 157.329 297.143 156.496 296.908V293.236L157.395 293.295C158.592 293.295 159.491 293.074 160.09 292.631C160.702 292.201 161.184 291.472 161.535 290.443L162.219 288.627L154.797 267.592H159.914L164.387 281.928ZM183.938 282.709L188.41 267.592H193.312L185.988 288.725H181.867L174.484 267.592H179.406L183.938 282.709ZM201.34 288.725H196.594V267.592H201.34V288.725ZM196.301 262.104C196.301 261.374 196.529 260.769 196.984 260.287C197.453 259.805 198.117 259.564 198.977 259.564C199.836 259.564 200.5 259.805 200.969 260.287C201.438 260.769 201.672 261.374 201.672 262.104C201.672 262.82 201.438 263.419 200.969 263.9C200.5 264.369 199.836 264.604 198.977 264.604C198.117 264.604 197.453 264.369 196.984 263.9C196.529 263.419 196.301 262.82 196.301 262.104ZM215.832 289.115C212.824 289.115 210.383 288.171 208.508 286.283C206.646 284.382 205.715 281.856 205.715 278.705V278.119C205.715 276.01 206.118 274.128 206.926 272.475C207.746 270.808 208.892 269.512 210.363 268.588C211.835 267.663 213.475 267.201 215.285 267.201C218.163 267.201 220.383 268.119 221.945 269.955C223.521 271.791 224.309 274.389 224.309 277.748V279.662H210.5C210.643 281.407 211.223 282.787 212.238 283.803C213.267 284.818 214.556 285.326 216.105 285.326C218.28 285.326 220.051 284.447 221.418 282.689L223.977 285.131C223.13 286.394 221.997 287.377 220.578 288.08C219.172 288.77 217.59 289.115 215.832 289.115ZM215.266 271.01C213.964 271.01 212.909 271.465 212.102 272.377C211.307 273.288 210.799 274.558 210.578 276.186H219.621V275.834C219.517 274.245 219.094 273.048 218.352 272.24C217.609 271.42 216.581 271.01 215.266 271.01ZM246.574 282.182L249.934 267.592H254.562L248.801 288.725H244.895L240.363 274.213L235.91 288.725H232.004L226.223 267.592H230.852L234.27 282.025L238.605 267.592H242.18L246.574 282.182ZM278.176 282.533L285.402 260.287H290.832L280.598 288.725H275.812L265.617 260.287H271.027L278.176 282.533ZM298.645 288.725H293.898V267.592H298.645V288.725ZM293.605 262.104C293.605 261.374 293.833 260.769 294.289 260.287C294.758 259.805 295.422 259.564 296.281 259.564C297.141 259.564 297.805 259.805 298.273 260.287C298.742 260.769 298.977 261.374 298.977 262.104C298.977 262.82 298.742 263.419 298.273 263.9C297.805 264.369 297.141 264.604 296.281 264.604C295.422 264.604 294.758 264.369 294.289 263.9C293.833 263.419 293.605 262.82 293.605 262.104ZM308.879 288.725H304.133V258.725H308.879V288.725ZM319.113 288.725H314.367V258.725H319.113V288.725ZM336.926 288.725C336.717 288.321 336.535 287.663 336.379 286.752C334.868 288.327 333.02 289.115 330.832 289.115C328.71 289.115 326.978 288.51 325.637 287.299C324.296 286.088 323.625 284.59 323.625 282.807C323.625 280.554 324.458 278.829 326.125 277.631C327.805 276.42 330.201 275.814 333.312 275.814H336.223V274.428C336.223 273.334 335.917 272.462 335.305 271.811C334.693 271.146 333.762 270.814 332.512 270.814C331.431 270.814 330.546 271.088 329.855 271.635C329.165 272.169 328.82 272.852 328.82 273.686H324.074C324.074 272.527 324.458 271.446 325.227 270.443C325.995 269.428 327.036 268.633 328.352 268.061C329.68 267.488 331.158 267.201 332.785 267.201C335.259 267.201 337.232 267.826 338.703 269.076C340.174 270.313 340.93 272.058 340.969 274.311V283.842C340.969 285.743 341.236 287.26 341.77 288.393V288.725H336.926ZM331.711 285.307C332.648 285.307 333.527 285.079 334.348 284.623C335.181 284.167 335.806 283.555 336.223 282.787V278.803H333.664C331.906 278.803 330.585 279.109 329.699 279.721C328.814 280.333 328.371 281.199 328.371 282.318C328.371 283.23 328.671 283.959 329.27 284.506C329.882 285.04 330.695 285.307 331.711 285.307ZM345.109 278.002C345.109 274.721 345.878 272.104 347.414 270.15C348.964 268.184 351.014 267.201 353.566 267.201C355.975 267.201 357.87 268.041 359.25 269.721L359.465 267.592H363.742V288.08C363.742 290.854 362.876 293.041 361.145 294.643C359.426 296.244 357.102 297.045 354.172 297.045C352.622 297.045 351.105 296.719 349.621 296.068C348.15 295.43 347.03 294.59 346.262 293.549L348.508 290.697C349.966 292.429 351.763 293.295 353.898 293.295C355.474 293.295 356.717 292.865 357.629 292.006C358.54 291.16 358.996 289.91 358.996 288.256V286.83C357.629 288.354 355.806 289.115 353.527 289.115C351.053 289.115 349.029 288.132 347.453 286.166C345.891 284.2 345.109 281.479 345.109 278.002ZM349.836 278.412C349.836 280.535 350.266 282.208 351.125 283.432C351.997 284.643 353.202 285.248 354.738 285.248C356.652 285.248 358.072 284.428 358.996 282.787V273.49C358.098 271.889 356.691 271.088 354.777 271.088C353.215 271.088 351.997 271.706 351.125 272.943C350.266 274.18 349.836 276.003 349.836 278.412ZM377.941 289.115C374.934 289.115 372.492 288.171 370.617 286.283C368.755 284.382 367.824 281.856 367.824 278.705V278.119C367.824 276.01 368.228 274.128 369.035 272.475C369.855 270.808 371.001 269.512 372.473 268.588C373.944 267.663 375.585 267.201 377.395 267.201C380.272 267.201 382.492 268.119 384.055 269.955C385.63 271.791 386.418 274.389 386.418 277.748V279.662H372.609C372.753 281.407 373.332 282.787 374.348 283.803C375.376 284.818 376.665 285.326 378.215 285.326C380.389 285.326 382.16 284.447 383.527 282.689L386.086 285.131C385.24 286.394 384.107 287.377 382.688 288.08C381.281 288.77 379.699 289.115 377.941 289.115ZM377.375 271.01C376.073 271.01 375.018 271.465 374.211 272.377C373.417 273.288 372.909 274.558 372.688 276.186H381.73V275.834C381.626 274.245 381.203 273.048 380.461 272.24C379.719 271.42 378.69 271.01 377.375 271.01ZM125.754 328.4C125.754 327.15 125.311 326.187 124.426 325.51C123.553 324.833 121.971 324.149 119.68 323.459C117.388 322.769 115.565 322.001 114.211 321.154C111.62 319.527 110.324 317.404 110.324 314.787C110.324 312.495 111.255 310.607 113.117 309.123C114.992 307.639 117.421 306.896 120.402 306.896C122.382 306.896 124.146 307.261 125.695 307.99C127.245 308.719 128.462 309.761 129.348 311.115C130.233 312.456 130.676 313.947 130.676 315.588H125.754C125.754 314.104 125.285 312.945 124.348 312.111C123.423 311.265 122.095 310.842 120.363 310.842C118.749 310.842 117.492 311.187 116.594 311.877C115.708 312.567 115.266 313.531 115.266 314.768C115.266 315.809 115.747 316.682 116.711 317.385C117.674 318.075 119.263 318.752 121.477 319.416C123.69 320.067 125.467 320.816 126.809 321.662C128.15 322.495 129.133 323.459 129.758 324.553C130.383 325.633 130.695 326.903 130.695 328.361C130.695 330.731 129.784 332.619 127.961 334.025C126.151 335.419 123.69 336.115 120.578 336.115C118.521 336.115 116.626 335.738 114.895 334.982C113.176 334.214 111.835 333.16 110.871 331.818C109.921 330.477 109.445 328.915 109.445 327.131H114.387C114.387 328.745 114.921 329.995 115.988 330.881C117.056 331.766 118.586 332.209 120.578 332.209C122.297 332.209 123.586 331.864 124.445 331.174C125.318 330.471 125.754 329.546 125.754 328.4ZM139.25 316.896C140.799 315.1 142.759 314.201 145.129 314.201C149.634 314.201 151.919 316.773 151.984 321.916V335.725H147.238V322.092C147.238 320.633 146.919 319.605 146.281 319.006C145.656 318.394 144.732 318.088 143.508 318.088C141.607 318.088 140.188 318.934 139.25 320.627V335.725H134.504V305.725H139.25V316.896ZM155.91 324.963C155.91 322.893 156.32 321.031 157.141 319.377C157.961 317.71 159.113 316.434 160.598 315.549C162.082 314.65 163.788 314.201 165.715 314.201C168.566 314.201 170.878 315.119 172.648 316.955C174.432 318.791 175.396 321.226 175.539 324.26L175.559 325.373C175.559 327.456 175.155 329.318 174.348 330.959C173.553 332.6 172.408 333.869 170.91 334.768C169.426 335.666 167.707 336.115 165.754 336.115C162.772 336.115 160.383 335.126 158.586 333.146C156.802 331.154 155.91 328.505 155.91 325.197V324.963ZM160.656 325.373C160.656 327.548 161.105 329.253 162.004 330.49C162.902 331.714 164.152 332.326 165.754 332.326C167.355 332.326 168.599 331.701 169.484 330.451C170.383 329.201 170.832 327.372 170.832 324.963C170.832 322.827 170.37 321.135 169.445 319.885C168.534 318.635 167.29 318.01 165.715 318.01C164.165 318.01 162.935 318.628 162.023 319.865C161.112 321.089 160.656 322.925 160.656 325.373ZM198.078 325.373C198.078 328.641 197.336 331.252 195.852 333.205C194.367 335.145 192.375 336.115 189.875 336.115C187.557 336.115 185.702 335.354 184.309 333.83V343.85H179.562V314.592H183.938L184.133 316.74C185.526 315.048 187.421 314.201 189.816 314.201C192.395 314.201 194.413 315.165 195.871 317.092C197.342 319.006 198.078 321.669 198.078 325.08V325.373ZM193.352 324.963C193.352 322.854 192.928 321.18 192.082 319.943C191.249 318.706 190.051 318.088 188.488 318.088C186.548 318.088 185.155 318.889 184.309 320.49V329.865C185.168 331.506 186.574 332.326 188.527 332.326C190.038 332.326 191.216 331.721 192.062 330.51C192.922 329.286 193.352 327.437 193.352 324.963ZM220.617 325.373C220.617 328.641 219.875 331.252 218.391 333.205C216.906 335.145 214.914 336.115 212.414 336.115C210.096 336.115 208.241 335.354 206.848 333.83V343.85H202.102V314.592H206.477L206.672 316.74C208.065 315.048 209.96 314.201 212.355 314.201C214.934 314.201 216.952 315.165 218.41 317.092C219.882 319.006 220.617 321.669 220.617 325.08V325.373ZM215.891 324.963C215.891 322.854 215.467 321.18 214.621 319.943C213.788 318.706 212.59 318.088 211.027 318.088C209.087 318.088 207.694 318.889 206.848 320.49V329.865C207.707 331.506 209.113 332.326 211.066 332.326C212.577 332.326 213.755 331.721 214.602 330.51C215.461 329.286 215.891 327.437 215.891 324.963ZM229.699 335.725H224.953V314.592H229.699V335.725ZM224.66 309.104C224.66 308.374 224.888 307.769 225.344 307.287C225.812 306.805 226.477 306.564 227.336 306.564C228.195 306.564 228.859 306.805 229.328 307.287C229.797 307.769 230.031 308.374 230.031 309.104C230.031 309.82 229.797 310.419 229.328 310.9C228.859 311.369 228.195 311.604 227.336 311.604C226.477 311.604 225.812 311.369 225.344 310.9C224.888 310.419 224.66 309.82 224.66 309.104ZM239.289 314.592L239.426 317.033C240.988 315.145 243.039 314.201 245.578 314.201C249.979 314.201 252.219 316.721 252.297 321.76V335.725H247.551V322.033C247.551 320.692 247.258 319.702 246.672 319.064C246.099 318.413 245.155 318.088 243.84 318.088C241.926 318.088 240.5 318.954 239.562 320.686V335.725H234.816V314.592H239.289ZM256.32 325.002C256.32 321.721 257.089 319.104 258.625 317.15C260.174 315.184 262.225 314.201 264.777 314.201C267.186 314.201 269.081 315.041 270.461 316.721L270.676 314.592H274.953V335.08C274.953 337.854 274.087 340.041 272.355 341.643C270.637 343.244 268.312 344.045 265.383 344.045C263.833 344.045 262.316 343.719 260.832 343.068C259.361 342.43 258.241 341.59 257.473 340.549L259.719 337.697C261.177 339.429 262.974 340.295 265.109 340.295C266.685 340.295 267.928 339.865 268.84 339.006C269.751 338.16 270.207 336.91 270.207 335.256V333.83C268.84 335.354 267.017 336.115 264.738 336.115C262.264 336.115 260.24 335.132 258.664 333.166C257.102 331.2 256.32 328.479 256.32 325.002ZM261.047 325.412C261.047 327.535 261.477 329.208 262.336 330.432C263.208 331.643 264.413 332.248 265.949 332.248C267.863 332.248 269.283 331.428 270.207 329.787V320.49C269.309 318.889 267.902 318.088 265.988 318.088C264.426 318.088 263.208 318.706 262.336 319.943C261.477 321.18 261.047 323.003 261.047 325.412ZM311.965 326.467C311.678 329.501 310.559 331.87 308.605 333.576C306.652 335.269 304.055 336.115 300.812 336.115C298.547 336.115 296.548 335.581 294.816 334.514C293.098 333.433 291.77 331.903 290.832 329.924C289.895 327.945 289.406 325.646 289.367 323.029V320.373C289.367 317.691 289.842 315.327 290.793 313.283C291.743 311.239 293.104 309.663 294.875 308.557C296.659 307.45 298.716 306.896 301.047 306.896C304.185 306.896 306.711 307.749 308.625 309.455C310.539 311.161 311.652 313.57 311.965 316.682H307.043C306.809 314.637 306.21 313.166 305.246 312.268C304.296 311.356 302.896 310.9 301.047 310.9C298.898 310.9 297.245 311.688 296.086 313.264C294.94 314.826 294.354 317.124 294.328 320.158V322.678C294.328 325.751 294.875 328.094 295.969 329.709C297.076 331.324 298.69 332.131 300.812 332.131C302.753 332.131 304.211 331.695 305.188 330.822C306.164 329.95 306.783 328.498 307.043 326.467H311.965ZM325.246 336.115C322.238 336.115 319.797 335.171 317.922 333.283C316.06 331.382 315.129 328.856 315.129 325.705V325.119C315.129 323.01 315.533 321.128 316.34 319.475C317.16 317.808 318.306 316.512 319.777 315.588C321.249 314.663 322.889 314.201 324.699 314.201C327.577 314.201 329.797 315.119 331.359 316.955C332.935 318.791 333.723 321.389 333.723 324.748V326.662H319.914C320.057 328.407 320.637 329.787 321.652 330.803C322.681 331.818 323.97 332.326 325.52 332.326C327.694 332.326 329.465 331.447 330.832 329.689L333.391 332.131C332.544 333.394 331.411 334.377 329.992 335.08C328.586 335.77 327.004 336.115 325.246 336.115ZM324.68 318.01C323.378 318.01 322.323 318.465 321.516 319.377C320.721 320.288 320.214 321.558 319.992 323.186H329.035V322.834C328.931 321.245 328.508 320.048 327.766 319.24C327.023 318.42 325.995 318.01 324.68 318.01ZM341.828 314.592L341.965 317.033C343.527 315.145 345.578 314.201 348.117 314.201C352.518 314.201 354.758 316.721 354.836 321.76V335.725H350.09V322.033C350.09 320.692 349.797 319.702 349.211 319.064C348.638 318.413 347.694 318.088 346.379 318.088C344.465 318.088 343.039 318.954 342.102 320.686V335.725H337.355V314.592H341.828ZM365.637 309.455V314.592H369.367V318.107H365.637V329.904C365.637 330.712 365.793 331.298 366.105 331.662C366.431 332.014 367.004 332.189 367.824 332.189C368.371 332.189 368.924 332.124 369.484 331.994V335.666C368.404 335.965 367.362 336.115 366.359 336.115C362.714 336.115 360.891 334.104 360.891 330.08V318.107H357.414V314.592H360.891V309.455H365.637ZM382.316 336.115C379.309 336.115 376.867 335.171 374.992 333.283C373.13 331.382 372.199 328.856 372.199 325.705V325.119C372.199 323.01 372.603 321.128 373.41 319.475C374.23 317.808 375.376 316.512 376.848 315.588C378.319 314.663 379.96 314.201 381.77 314.201C384.647 314.201 386.867 315.119 388.43 316.955C390.005 318.791 390.793 321.389 390.793 324.748V326.662H376.984C377.128 328.407 377.707 329.787 378.723 330.803C379.751 331.818 381.04 332.326 382.59 332.326C384.764 332.326 386.535 331.447 387.902 329.689L390.461 332.131C389.615 333.394 388.482 334.377 387.062 335.08C385.656 335.77 384.074 336.115 382.316 336.115ZM381.75 318.01C380.448 318.01 379.393 318.465 378.586 319.377C377.792 320.288 377.284 321.558 377.062 323.186H386.105V322.834C386.001 321.245 385.578 320.048 384.836 319.24C384.094 318.42 383.065 318.01 381.75 318.01ZM405.559 318.928C404.934 318.824 404.289 318.771 403.625 318.771C401.451 318.771 399.986 319.605 399.23 321.271V335.725H394.484V314.592H399.016L399.133 316.955C400.279 315.119 401.867 314.201 403.898 314.201C404.576 314.201 405.135 314.292 405.578 314.475L405.559 318.928Z" fill="black"/>
<path d="M574.599 523.991L538.109 502.586H574.599V523.991Z" fill="#6F9890"/>
<path d="M136.82 406.463H574.696V502.787H508.233H136.82V406.463Z" fill="#6F9890"/>
<path fill-rule="evenodd" clip-rule="evenodd" d="M194.032 418.826C208.844 420.009 221.072 432.352 222.431 447.575C223.882 463.865 212.515 479.796 194.839 481.211C175.976 482.714 160.213 466.396 161.672 447.168C163.059 429.055 178.459 417.585 194.032 418.826Z" fill="#DFD3C1"/>
<path d="M214.944 444.789C214.792 440.361 213.863 435.371 210.94 432.756C208.433 430.513 205.386 430.455 201.926 431.312C196.097 432.756 194.633 434.2 190.15 433.237L181.317 431.312C185.972 432.026 181.447 431.338 181.317 431.312C178.178 430.831 176.207 430.641 173.695 432.756C170.786 435.204 169.354 440.284 169.211 444.789C169.211 444.655 169.211 444.943 169.211 444.789C169.211 444.616 169.211 444.953 169.211 444.789C169.211 451.162 171.459 454.135 173.695 459.152C175.488 463.176 175.494 464.04 175.488 470.531C175.479 479.541 177.757 485.173 179.075 487.589C180.447 490.054 182.213 491.96 184.007 492.441C185.8 492.441 188.491 491.478 188.491 482.333C188.491 473.669 190.284 472.225 190.284 472.225C191.181 471.263 192.257 471.263 192.257 471.263C192.257 471.263 193.423 471.263 194.319 472.225C194.319 472.225 196.113 473.669 196.113 482.333C196.113 490.997 199.538 492.922 201.045 492.441C202.764 491.892 204.479 490.294 205.977 487.589C207.286 485.202 208.667 479.458 208.667 470.531C208.667 465.005 208.51 463.176 210.303 459.152C212.096 455.128 214.944 451.431 214.944 444.789C214.953 444.992 214.926 444.587 214.944 444.789ZM191.145 444.096C191.181 443.576 191.575 443.172 192.024 443.172H192.481C192.92 443.172 193.315 443.576 193.351 444.096L194.355 453.145H190.15L191.145 444.096ZM199.538 463.176C199.278 463.455 197.252 465.621 197.252 465.621H198.543C198.543 465.621 199.278 465.506 199.278 466.324C199.278 467.152 199.269 468.365 199.269 468.365C199.269 468.365 199.341 468.952 198.57 468.952C197.799 468.952 192.257 468.952 192.257 468.952C192.257 468.952 186.715 468.952 185.953 468.952C185.182 468.952 185.253 468.365 185.253 468.365C185.253 468.365 185.236 467.152 185.236 466.324C185.236 465.496 185.98 465.621 185.98 465.621H187.271C187.271 465.621 185.253 463.455 184.993 463.176C184.715 462.887 184.742 462.579 184.742 462.579V462.185C184.742 462.185 184.724 461.857 184.993 461.569C185.253 461.299 187.289 459.152 187.289 459.152C187.289 459.152 187.289 458.199 187.289 456.717C187.289 455.234 188.338 454.859 189.414 454.859C190.49 454.859 192.275 454.859 192.275 454.859C192.275 454.859 194.05 454.859 195.117 454.859C196.202 454.859 197.243 455.244 197.243 456.717C197.243 458.199 197.243 459.152 197.243 459.152C197.243 459.152 199.287 461.289 199.538 461.569C199.807 461.857 199.789 462.185 199.789 462.185V462.579C199.771 462.579 199.807 462.887 199.538 463.176Z" fill="white"/>
<path fill-rule="evenodd" clip-rule="evenodd" d="M580.16 534.916C588.905 535.541 596.124 542.07 596.927 550.121C597.783 558.737 591.072 567.162 580.637 567.911C569.5 568.706 560.194 560.075 561.055 549.906C561.874 540.326 570.966 534.259 580.16 534.916Z" fill="#DFD3C1"/>
<path d="M592.508 548.649C592.418 546.306 591.87 543.667 590.144 542.284C588.664 541.098 586.865 541.067 584.822 541.52C581.381 542.284 580.517 543.048 577.87 542.539L572.655 541.52C575.403 541.898 572.732 541.534 572.655 541.52C570.802 541.266 569.638 541.165 568.155 542.284C566.438 543.579 565.593 546.266 565.508 548.649C565.508 548.577 565.508 548.73 565.508 548.649C565.508 548.557 565.508 548.735 565.508 548.649C565.508 552.019 566.835 553.592 568.155 556.245C569.214 558.373 569.218 558.83 569.214 562.263C569.208 567.029 570.553 570.007 571.331 571.285C572.141 572.589 573.184 573.597 574.243 573.851C575.302 573.851 576.89 573.342 576.89 568.505C576.89 563.923 577.949 563.159 577.949 563.159C578.478 562.65 579.114 562.65 579.114 562.65C579.114 562.65 579.802 562.65 580.331 563.159C580.331 563.159 581.39 563.923 581.39 568.505C581.39 573.088 583.413 574.106 584.302 573.851C585.317 573.561 586.33 572.716 587.214 571.285C587.987 570.023 588.802 566.985 588.802 562.263C588.802 559.341 588.709 558.373 589.768 556.245C590.827 554.117 592.508 552.161 592.508 548.649C592.513 548.755 592.497 548.542 592.508 548.649ZM578.457 548.282C578.478 548.007 578.711 547.793 578.976 547.793H579.246C579.505 547.793 579.738 548.007 579.76 548.282L580.353 553.068H577.87L578.457 548.282ZM583.413 558.373C583.259 558.521 582.063 559.667 582.063 559.667H582.825C582.825 559.667 583.259 559.605 583.259 560.038C583.259 560.476 583.254 561.118 583.254 561.118C583.254 561.118 583.296 561.428 582.841 561.428C582.385 561.428 579.114 561.428 579.114 561.428C579.114 561.428 575.842 561.428 575.392 561.428C574.937 561.428 574.979 561.118 574.979 561.118C574.979 561.118 574.968 560.476 574.968 560.038C574.968 559.6 575.408 559.667 575.408 559.667H576.17C576.17 559.667 574.979 558.521 574.825 558.373C574.661 558.221 574.677 558.058 574.677 558.058V557.849C574.677 557.849 574.667 557.676 574.825 557.523C574.979 557.38 576.181 556.245 576.181 556.245C576.181 556.245 576.181 555.741 576.181 554.957C576.181 554.173 576.8 553.974 577.435 553.974C578.071 553.974 579.124 553.974 579.124 553.974C579.124 553.974 580.173 553.974 580.803 553.974C581.443 553.974 582.057 554.178 582.057 554.957C582.057 555.741 582.057 556.245 582.057 556.245C582.057 556.245 583.264 557.375 583.413 557.523C583.571 557.676 583.561 557.849 583.561 557.849V558.058C583.55 558.058 583.571 558.221 583.413 558.373Z" fill="white"/>
<path d="M247.808 458.157C241.43 458.157 236.706 452.974 236.706 445.869C236.706 438.854 241.346 433.581 247.611 433.581C251.377 433.581 254.228 435.201 256.247 438.005L258.224 436.475C255.81 433.079 252.199 431.079 247.642 431.079C239.994 431.079 234 437.29 234 445.869C233.959 454.459 239.983 460.659 247.715 460.659C252.553 460.659 256.32 458.615 258.973 454.884L256.955 453.354C254.822 456.414 251.69 458.157 247.808 458.157ZM281.127 448.338H266.424V431.426H263.843V460.324H266.424V450.807H281.127V460.324H283.707V431.426H281.127V448.338ZM307.598 442.306C307.598 436.061 303.79 431.426 296.454 431.426H290.585V460.324H293.166V453.097H296.454C297.245 453.097 297.963 453.052 298.67 452.929L304.019 460.324H307.151L301.282 452.292C305.455 450.717 307.598 446.942 307.598 442.306ZM296.298 450.684H293.166V433.894H296.298C302.406 433.894 304.903 437.469 304.903 442.306C304.903 447.143 302.448 450.684 296.298 450.684ZM325.236 431.09C317.588 431.09 311.396 437.335 311.396 445.88C311.396 454.426 317.577 460.67 325.236 460.67C332.884 460.67 339.075 454.426 339.075 445.88C339.065 437.335 332.884 431.09 325.236 431.09ZM325.236 458.157C318.815 458.157 314.091 452.884 314.091 445.869C314.091 438.854 318.805 433.581 325.236 433.581C331.666 433.581 336.38 438.854 336.38 445.869C336.37 452.896 331.656 458.157 325.236 458.157ZM366.681 430.834L356.411 450.516L346.182 430.834H345.984L342.967 460.335H345.381L347.597 438.273L356.275 455.186H356.39L365.11 438.273L367.326 460.335H369.865L366.847 430.834H366.681ZM385.265 430.744L373.923 460.324H376.504L378.408 455.308H392.32L394.183 460.324H396.836L385.463 430.744H385.265ZM379.313 452.851L385.379 436.821C385.379 436.821 391.404 452.851 391.363 452.851H379.313ZM415.42 431.426H408.677V460.324H415.42C424.379 460.324 429.655 454.415 429.655 445.869C429.644 437.335 424.338 431.426 415.42 431.426ZM415.181 457.822H411.258V433.939H415.181C423.151 433.939 426.949 438.865 426.949 445.88C426.949 452.896 423.141 457.822 415.181 457.822ZM437.449 450.762H449.654V448.338H437.449V433.883H451.121V431.414H434.868V460.313H451.673V457.844H437.438V450.762H437.449ZM475.533 454.169L457.375 430.834H457.136V460.335H459.55V437.592L477.707 460.927H477.947V431.426H475.533V454.169ZM501.64 431.426H482.38V433.894H490.746V460.335H493.326V433.894H501.651V431.426H501.64ZM511.786 430.744L500.443 460.324H503.024L504.928 455.308H518.84L520.703 460.324H523.356L511.983 430.744H511.786ZM505.844 452.851L511.91 436.821C511.91 436.821 517.935 452.851 517.894 452.851H505.844ZM530.567 457.866V431.426H527.987V460.324H543.085V457.855H530.567V457.866Z" fill="white"/>
<path d="M374.054 470.659L373.045 470.145C371.526 469.374 370.839 468.905 370.839 467.632C370.839 466.447 371.661 465.61 372.899 465.61C374.034 465.61 374.804 466.079 375.376 467.084L376.292 466.459C375.522 465.118 374.439 464.493 372.879 464.493C371.047 464.493 369.663 465.766 369.663 467.676C369.663 469.542 370.745 470.413 372.546 471.307L373.555 471.821C375.064 472.569 375.907 473.239 375.907 474.714C375.907 476.11 374.897 477.015 373.191 477.015C371.724 477.015 370.579 476.244 369.923 474.915L368.914 475.484C369.726 477.115 371.172 478.177 373.212 478.177C375.542 478.177 377.103 476.881 377.103 474.68C377.103 472.669 376.052 471.686 374.054 470.659ZM390.308 464.381L385.552 473.474L380.818 464.381H380.724L379.33 478.02H380.454L381.484 467.821L385.5 475.641H385.552L389.59 467.821L390.62 478.02H391.796L390.401 464.381H390.308ZM394.782 478.009H395.989V464.649H394.782V478.009ZM400.453 464.649H399.257V478.009H406.249V476.87H400.443V464.649H400.453ZM409.662 473.597H415.312V472.48H409.662V465.8H415.999V464.66H408.476V478.02H416.259V476.881H409.672V473.597H409.662ZM419.152 476.289C418.715 476.289 418.288 476.68 418.288 477.216C418.288 477.741 418.715 478.143 419.152 478.143C419.61 478.143 420.015 477.752 420.015 477.216C420.015 476.68 419.61 476.289 419.152 476.289ZM419.672 474.434L419.797 464.649H418.527L418.652 474.434H419.672ZM429.464 478.009H430.671V464.649H429.464V478.009ZM432.804 465.788H436.675V478.009H437.871V465.788H441.732V464.649H432.814V465.788H432.804ZM451.19 470.659L450.181 470.145C448.662 469.374 447.975 468.905 447.975 467.632C447.975 466.447 448.797 465.61 450.035 465.61C451.17 465.61 451.94 466.079 452.512 467.084L453.428 466.459C452.658 465.118 451.575 464.493 450.015 464.493C448.183 464.493 446.799 465.766 446.799 467.676C446.799 469.542 447.881 470.413 449.682 471.307L450.691 471.821C452.2 472.569 453.043 473.239 453.043 474.714C453.043 476.11 452.033 477.015 450.327 477.015C448.86 477.015 447.715 476.244 447.059 474.915L446.05 475.484C446.862 477.115 448.308 478.177 450.348 478.177C452.678 478.177 454.239 476.881 454.239 474.68C454.239 472.669 453.199 471.686 451.19 470.659ZM464.28 473.373C464.28 475.786 463.032 477.004 461.065 477.004C459.119 477.004 457.85 475.786 457.85 473.373V464.649H456.653V473.474C456.653 476.579 458.547 478.165 461.055 478.165C463.573 478.165 465.456 476.579 465.456 473.474V464.649H464.26V473.373H464.28ZM468.64 478.009H469.847V464.649H468.64V478.009ZM471.981 465.788H475.851V478.009H477.048V465.788H480.908V464.649H471.991V465.788H471.981ZM487.027 470.659L486.018 470.145C484.498 469.374 483.812 468.905 483.812 467.632C483.812 466.447 484.634 465.61 485.872 465.61C487.006 465.61 487.776 466.079 488.348 467.084L489.264 466.459C488.494 465.118 487.412 464.493 485.851 464.493C484.02 464.493 482.636 465.766 482.636 467.676C482.636 469.542 483.718 470.413 485.518 471.307L486.527 471.821C488.036 472.569 488.879 473.239 488.879 474.714C488.879 476.11 487.87 477.015 486.163 477.015C484.696 477.015 483.551 476.244 482.896 474.915L481.887 475.484C482.698 477.115 484.145 478.177 486.184 478.177C488.515 478.177 490.076 476.881 490.076 474.68C490.076 472.669 489.035 471.686 487.027 470.659ZM500.169 472.535L496.153 464.66H494.831L499.545 473.831V478.02H500.752V473.831L505.413 464.66H504.165L500.169 472.535ZM513.072 464.493C509.524 464.493 506.662 467.386 506.662 471.329C506.662 475.272 509.524 478.165 513.072 478.165C516.62 478.165 519.482 475.272 519.482 471.329C519.482 467.386 516.61 464.493 513.072 464.493ZM513.072 477.015C510.096 477.015 507.911 474.58 507.911 471.34C507.911 468.101 510.096 465.665 513.072 465.665C516.048 465.665 518.233 468.101 518.233 471.34C518.233 474.58 516.048 477.015 513.072 477.015ZM529.367 464.649V473.373C529.367 475.786 528.118 477.004 526.152 477.004C524.206 477.004 522.936 475.786 522.936 473.373V464.649H521.75V473.474C521.75 476.579 523.644 478.165 526.152 478.165C528.67 478.165 530.553 476.579 530.553 473.474V464.649H529.367Z" fill="white"/>
<path d="M111.464 670.168C110.168 670.168 108.912 669.984 107.696 669.616C106.496 669.248 105.544 668.76 104.84 668.152L105.92 665.728C106.608 666.272 107.448 666.72 108.44 667.072C109.448 667.408 110.456 667.576 111.464 667.576C112.712 667.576 113.64 667.376 114.248 666.976C114.872 666.576 115.184 666.048 115.184 665.392C115.184 664.912 115.008 664.52 114.656 664.216C114.32 663.896 113.888 663.648 113.36 663.472C112.832 663.296 112.112 663.096 111.2 662.872C109.92 662.568 108.88 662.264 108.08 661.96C107.296 661.656 106.616 661.184 106.04 660.544C105.48 659.888 105.2 659.008 105.2 657.904C105.2 656.976 105.448 656.136 105.944 655.384C106.456 654.616 107.216 654.008 108.224 653.56C109.248 653.112 110.496 652.888 111.968 652.888C112.992 652.888 114 653.016 114.992 653.272C115.984 653.528 116.84 653.896 117.56 654.376L116.576 656.8C115.84 656.368 115.072 656.04 114.272 655.816C113.472 655.592 112.696 655.48 111.944 655.48C110.712 655.48 109.792 655.688 109.184 656.104C108.592 656.52 108.296 657.072 108.296 657.76C108.296 658.24 108.464 658.632 108.8 658.936C109.152 659.24 109.592 659.48 110.12 659.656C110.648 659.832 111.368 660.032 112.28 660.256C113.528 660.544 114.552 660.848 115.352 661.168C116.152 661.472 116.832 661.944 117.392 662.584C117.968 663.224 118.256 664.088 118.256 665.176C118.256 666.104 118 666.944 117.488 667.696C116.992 668.448 116.232 669.048 115.208 669.496C114.184 669.944 112.936 670.168 111.464 670.168ZM128.766 669.232C128.414 669.52 127.982 669.736 127.47 669.88C126.974 670.024 126.446 670.096 125.886 670.096C124.478 670.096 123.39 669.728 122.622 668.992C121.854 668.256 121.47 667.184 121.47 665.776V659.608H119.358V657.208H121.47V654.28H124.47V657.208H127.902V659.608H124.47V665.704C124.47 666.328 124.622 666.808 124.926 667.144C125.23 667.464 125.67 667.624 126.246 667.624C126.918 667.624 127.478 667.448 127.926 667.096L128.766 669.232ZM142.86 663.592C142.86 663.8 142.844 664.096 142.812 664.48H132.756C132.932 665.424 133.388 666.176 134.124 666.736C134.876 667.28 135.804 667.552 136.908 667.552C138.316 667.552 139.476 667.088 140.388 666.16L141.996 668.008C141.42 668.696 140.692 669.216 139.812 669.568C138.932 669.92 137.94 670.096 136.836 670.096C135.428 670.096 134.188 669.816 133.116 669.256C132.044 668.696 131.212 667.92 130.62 666.928C130.044 665.92 129.756 664.784 129.756 663.52C129.756 662.272 130.036 661.152 130.596 660.16C131.172 659.152 131.964 658.368 132.972 657.808C133.98 657.248 135.116 656.968 136.38 656.968C137.628 656.968 138.74 657.248 139.716 657.808C140.708 658.352 141.476 659.128 142.02 660.136C142.58 661.128 142.86 662.28 142.86 663.592ZM136.38 659.368C135.42 659.368 134.604 659.656 133.932 660.232C133.276 660.792 132.876 661.544 132.732 662.488H140.004C139.876 661.56 139.484 660.808 138.828 660.232C138.172 659.656 137.356 659.368 136.38 659.368ZM152.845 656.968C154.093 656.968 155.205 657.24 156.181 657.784C157.173 658.328 157.949 659.096 158.509 660.088C159.069 661.08 159.349 662.224 159.349 663.52C159.349 664.816 159.069 665.968 158.509 666.976C157.949 667.968 157.173 668.736 156.181 669.28C155.205 669.824 154.093 670.096 152.845 670.096C151.117 670.096 149.749 669.52 148.741 668.368V674.584H145.741V657.112H148.597V658.792C149.093 658.184 149.701 657.728 150.421 657.424C151.157 657.12 151.965 656.968 152.845 656.968ZM152.509 667.528C153.613 667.528 154.517 667.16 155.221 666.424C155.941 665.688 156.301 664.72 156.301 663.52C156.301 662.32 155.941 661.352 155.221 660.616C154.517 659.88 153.613 659.512 152.509 659.512C151.789 659.512 151.141 659.68 150.565 660.016C149.989 660.336 149.533 660.8 149.197 661.408C148.861 662.016 148.693 662.72 148.693 663.52C148.693 664.32 148.861 665.024 149.197 665.632C149.533 666.24 149.989 666.712 150.565 667.048C151.141 667.368 151.789 667.528 152.509 667.528ZM166.155 670.096C165.115 670.096 164.099 669.96 163.107 669.688C162.115 669.416 161.323 669.072 160.731 668.656L161.883 666.376C162.459 666.76 163.147 667.072 163.947 667.312C164.763 667.536 165.563 667.648 166.347 667.648C168.139 667.648 169.035 667.176 169.035 666.232C169.035 665.784 168.803 665.472 168.339 665.296C167.891 665.12 167.163 664.952 166.155 664.792C165.099 664.632 164.235 664.448 163.563 664.24C162.907 664.032 162.331 663.672 161.835 663.16C161.355 662.632 161.115 661.904 161.115 660.976C161.115 659.76 161.619 658.792 162.627 658.072C163.651 657.336 165.027 656.968 166.755 656.968C167.635 656.968 168.515 657.072 169.395 657.28C170.275 657.472 170.995 657.736 171.555 658.072L170.403 660.352C169.315 659.712 168.091 659.392 166.731 659.392C165.851 659.392 165.179 659.528 164.715 659.8C164.267 660.056 164.043 660.4 164.043 660.832C164.043 661.312 164.283 661.656 164.763 661.864C165.259 662.056 166.019 662.24 167.043 662.416C168.067 662.576 168.907 662.76 169.563 662.968C170.219 663.176 170.779 663.528 171.243 664.024C171.723 664.52 171.963 665.224 171.963 666.136C171.963 667.336 171.443 668.296 170.403 669.016C169.363 669.736 167.947 670.096 166.155 670.096ZM184.587 655.744V660.856H192.699V663.496H184.587V669.928H181.467V653.128H193.731V655.744H184.587ZM199.082 658.984C199.946 657.64 201.466 656.968 203.642 656.968V659.824C203.386 659.776 203.154 659.752 202.946 659.752C201.778 659.752 200.866 660.096 200.21 660.784C199.554 661.456 199.226 662.432 199.226 663.712V669.928H196.226V657.112H199.082V658.984ZM211.83 670.096C210.534 670.096 209.366 669.816 208.326 669.256C207.286 668.696 206.47 667.92 205.878 666.928C205.302 665.92 205.014 664.784 205.014 663.52C205.014 662.256 205.302 661.128 205.878 660.136C206.47 659.144 207.286 658.368 208.326 657.808C209.366 657.248 210.534 656.968 211.83 656.968C213.142 656.968 214.318 657.248 215.358 657.808C216.398 658.368 217.206 659.144 217.782 660.136C218.374 661.128 218.67 662.256 218.67 663.52C218.67 664.784 218.374 665.92 217.782 666.928C217.206 667.92 216.398 668.696 215.358 669.256C214.318 669.816 213.142 670.096 211.83 670.096ZM211.83 667.528C212.934 667.528 213.846 667.16 214.566 666.424C215.286 665.688 215.646 664.72 215.646 663.52C215.646 662.32 215.286 661.352 214.566 660.616C213.846 659.88 212.934 659.512 211.83 659.512C210.726 659.512 209.814 659.88 209.094 660.616C208.39 661.352 208.038 662.32 208.038 663.52C208.038 664.72 208.39 665.688 209.094 666.424C209.814 667.16 210.726 667.528 211.83 667.528ZM237.714 656.968C239.33 656.968 240.61 657.44 241.554 658.384C242.498 659.312 242.97 660.712 242.97 662.584V669.928H239.97V662.968C239.97 661.848 239.722 661.008 239.226 660.448C238.73 659.872 238.018 659.584 237.09 659.584C236.082 659.584 235.274 659.92 234.666 660.592C234.058 661.248 233.754 662.192 233.754 663.424V669.928H230.754V662.968C230.754 661.848 230.506 661.008 230.01 660.448C229.514 659.872 228.802 659.584 227.874 659.584C226.85 659.584 226.034 659.912 225.426 660.568C224.834 661.224 224.538 662.176 224.538 663.424V669.928H221.538V657.112H224.394V658.744C224.874 658.168 225.474 657.728 226.194 657.424C226.914 657.12 227.714 656.968 228.594 656.968C229.554 656.968 230.402 657.152 231.138 657.52C231.89 657.872 232.482 658.4 232.914 659.104C233.442 658.432 234.122 657.912 234.954 657.544C235.786 657.16 236.706 656.968 237.714 656.968ZM257.133 655.768H251.565V653.128H265.821V655.768H260.253V669.928H257.133V655.768ZM275.146 656.968C276.762 656.968 278.058 657.44 279.034 658.384C280.01 659.328 280.498 660.728 280.498 662.584V669.928H277.498V662.968C277.498 661.848 277.234 661.008 276.706 660.448C276.178 659.872 275.426 659.584 274.45 659.584C273.346 659.584 272.474 659.92 271.834 660.592C271.194 661.248 270.874 662.2 270.874 663.448V669.928H267.874V652.12H270.874V658.6C271.37 658.072 271.978 657.672 272.698 657.4C273.434 657.112 274.25 656.968 275.146 656.968ZM296.469 663.592C296.469 663.8 296.453 664.096 296.421 664.48H286.365C286.541 665.424 286.997 666.176 287.733 666.736C288.485 667.28 289.413 667.552 290.517 667.552C291.925 667.552 293.085 667.088 293.997 666.16L295.605 668.008C295.029 668.696 294.301 669.216 293.421 669.568C292.541 669.92 291.549 670.096 290.445 670.096C289.037 670.096 287.797 669.816 286.725 669.256C285.653 668.696 284.821 667.92 284.229 666.928C283.653 665.92 283.365 664.784 283.365 663.52C283.365 662.272 283.645 661.152 284.205 660.16C284.781 659.152 285.573 658.368 286.581 657.808C287.589 657.248 288.725 656.968 289.989 656.968C291.237 656.968 292.349 657.248 293.325 657.808C294.317 658.352 295.085 659.128 295.629 660.136C296.189 661.128 296.469 662.28 296.469 663.592ZM289.989 659.368C289.029 659.368 288.213 659.656 287.541 660.232C286.885 660.792 286.485 661.544 286.341 662.488H293.613C293.485 661.56 293.093 660.808 292.437 660.232C291.781 659.656 290.965 659.368 289.989 659.368ZM321.2 653.128V669.928H318.632L309.368 658.552V669.928H306.272V653.128H308.84L318.104 664.504V653.128H321.2ZM337.461 663.592C337.461 663.8 337.445 664.096 337.413 664.48H327.357C327.533 665.424 327.989 666.176 328.725 666.736C329.477 667.28 330.405 667.552 331.509 667.552C332.917 667.552 334.077 667.088 334.989 666.16L336.597 668.008C336.021 668.696 335.293 669.216 334.413 669.568C333.533 669.92 332.541 670.096 331.437 670.096C330.029 670.096 328.789 669.816 327.717 669.256C326.645 668.696 325.813 667.92 325.221 666.928C324.645 665.92 324.357 664.784 324.357 663.52C324.357 662.272 324.637 661.152 325.197 660.16C325.773 659.152 326.565 658.368 327.573 657.808C328.581 657.248 329.717 656.968 330.981 656.968C332.229 656.968 333.341 657.248 334.317 657.808C335.309 658.352 336.077 659.128 336.621 660.136C337.181 661.128 337.461 662.28 337.461 663.592ZM330.981 659.368C330.021 659.368 329.205 659.656 328.533 660.232C327.877 660.792 327.477 661.544 327.333 662.488H334.605C334.477 661.56 334.085 660.808 333.429 660.232C332.773 659.656 331.957 659.368 330.981 659.368ZM360.101 657.112L355.373 669.928H352.493L349.181 661.096L345.821 669.928H342.941L338.237 657.112H341.069L344.453 666.568L347.981 657.112H350.501L353.957 666.616L357.437 657.112H360.101ZM118.16 690.192C119.088 690.496 119.824 691.008 120.368 691.728C120.912 692.432 121.184 693.312 121.184 694.368C121.184 695.824 120.624 696.952 119.504 697.752C118.384 698.536 116.752 698.928 114.608 698.928H106.256V682.128H114.128C116.112 682.128 117.64 682.52 118.712 683.304C119.784 684.072 120.32 685.136 120.32 686.496C120.32 687.328 120.128 688.064 119.744 688.704C119.36 689.344 118.832 689.84 118.16 690.192ZM109.376 684.576V689.208H113.792C114.88 689.208 115.712 689.016 116.288 688.632C116.88 688.232 117.176 687.656 117.176 686.904C117.176 686.136 116.88 685.56 116.288 685.176C115.712 684.776 114.88 684.576 113.792 684.576H109.376ZM114.416 696.48C116.832 696.48 118.04 695.672 118.04 694.056C118.04 692.44 116.832 691.632 114.416 691.632H109.376V696.48H114.416ZM129.122 685.968C131.01 685.968 132.45 686.424 133.442 687.336C134.45 688.232 134.954 689.592 134.954 691.416V698.928H132.122V697.368C131.754 697.928 131.226 698.36 130.538 698.664C129.866 698.952 129.05 699.096 128.09 699.096C127.13 699.096 126.29 698.936 125.57 698.616C124.85 698.28 124.29 697.824 123.89 697.248C123.506 696.656 123.314 695.992 123.314 695.256C123.314 694.104 123.738 693.184 124.586 692.496C125.45 691.792 126.802 691.44 128.642 691.44H131.954V691.248C131.954 690.352 131.682 689.664 131.138 689.184C130.61 688.704 129.818 688.464 128.762 688.464C128.042 688.464 127.33 688.576 126.626 688.8C125.938 689.024 125.354 689.336 124.874 689.736L123.698 687.552C124.37 687.04 125.178 686.648 126.122 686.376C127.066 686.104 128.066 685.968 129.122 685.968ZM128.714 696.912C129.466 696.912 130.13 696.744 130.706 696.408C131.298 696.056 131.714 695.56 131.954 694.92V693.432H128.858C127.13 693.432 126.266 694 126.266 695.136C126.266 695.68 126.482 696.112 126.914 696.432C127.346 696.752 127.946 696.912 128.714 696.912ZM150.57 686.112L144.57 699.96C144.01 701.352 143.33 702.328 142.53 702.888C141.73 703.464 140.762 703.752 139.626 703.752C138.986 703.752 138.354 703.648 137.73 703.44C137.106 703.232 136.594 702.944 136.194 702.576L137.394 700.368C137.682 700.64 138.018 700.856 138.402 701.016C138.802 701.176 139.202 701.256 139.602 701.256C140.13 701.256 140.562 701.12 140.898 700.848C141.25 700.576 141.57 700.12 141.858 699.48L142.074 698.976L136.482 686.112H139.602L143.634 695.592L147.69 686.112H150.57ZM164.21 686.112L158.714 698.928H155.618L150.122 686.112H153.242L157.226 695.616L161.33 686.112H164.21ZM166.085 686.112H169.085V698.928H166.085V686.112ZM167.597 684C167.053 684 166.597 683.832 166.229 683.496C165.861 683.144 165.677 682.712 165.677 682.2C165.677 681.688 165.861 681.264 166.229 680.928C166.597 680.576 167.053 680.4 167.597 680.4C168.141 680.4 168.597 680.568 168.965 680.904C169.333 681.224 169.517 681.632 169.517 682.128C169.517 682.656 169.333 683.104 168.965 683.472C168.613 683.824 168.157 684 167.597 684ZM185.071 692.592C185.071 692.8 185.055 693.096 185.023 693.48H174.967C175.143 694.424 175.599 695.176 176.335 695.736C177.087 696.28 178.015 696.552 179.119 696.552C180.527 696.552 181.687 696.088 182.599 695.16L184.207 697.008C183.631 697.696 182.903 698.216 182.023 698.568C181.143 698.92 180.151 699.096 179.047 699.096C177.639 699.096 176.399 698.816 175.327 698.256C174.255 697.696 173.423 696.92 172.831 695.928C172.255 694.92 171.967 693.784 171.967 692.52C171.967 691.272 172.247 690.152 172.807 689.16C173.383 688.152 174.175 687.368 175.183 686.808C176.191 686.248 177.327 685.968 178.591 685.968C179.839 685.968 180.951 686.248 181.927 686.808C182.919 687.352 183.687 688.128 184.231 689.136C184.791 690.128 185.071 691.28 185.071 692.592ZM178.591 688.368C177.631 688.368 176.815 688.656 176.143 689.232C175.487 689.792 175.087 690.544 174.943 691.488H182.215C182.087 690.56 181.695 689.808 181.039 689.232C180.383 688.656 179.567 688.368 178.591 688.368ZM207.71 686.112L202.982 698.928H200.102L196.79 690.096L193.43 698.928H190.55L185.846 686.112H188.678L192.062 695.568L195.59 686.112H198.11L201.566 695.616L205.046 686.112H207.71ZM221.902 699.168C220.606 699.168 219.35 698.984 218.134 698.616C216.934 698.248 215.982 697.76 215.278 697.152L216.358 694.728C217.046 695.272 217.886 695.72 218.878 696.072C219.886 696.408 220.894 696.576 221.902 696.576C223.15 696.576 224.078 696.376 224.686 695.976C225.31 695.576 225.622 695.048 225.622 694.392C225.622 693.912 225.446 693.52 225.094 693.216C224.758 692.896 224.326 692.648 223.798 692.472C223.27 692.296 222.55 692.096 221.638 691.872C220.358 691.568 219.318 691.264 218.518 690.96C217.734 690.656 217.054 690.184 216.478 689.544C215.918 688.888 215.638 688.008 215.638 686.904C215.638 685.976 215.886 685.136 216.382 684.384C216.894 683.616 217.654 683.008 218.662 682.56C219.686 682.112 220.934 681.888 222.406 681.888C223.43 681.888 224.438 682.016 225.43 682.272C226.422 682.528 227.278 682.896 227.997 683.376L227.014 685.8C226.278 685.368 225.51 685.04 224.71 684.816C223.91 684.592 223.134 684.48 222.382 684.48C221.15 684.48 220.23 684.688 219.622 685.104C219.03 685.52 218.734 686.072 218.734 686.76C218.734 687.24 218.902 687.632 219.238 687.936C219.59 688.24 220.03 688.48 220.558 688.656C221.086 688.832 221.806 689.032 222.718 689.256C223.966 689.544 224.99 689.848 225.79 690.168C226.59 690.472 227.27 690.944 227.83 691.584C228.406 692.224 228.694 693.088 228.694 694.176C228.694 695.104 228.438 695.944 227.926 696.696C227.43 697.448 226.67 698.048 225.646 698.496C224.622 698.944 223.374 699.168 221.902 699.168ZM243.907 686.112V698.928H241.051V697.296C240.571 697.872 239.971 698.32 239.251 698.64C238.531 698.944 237.755 699.096 236.923 699.096C235.211 699.096 233.859 698.624 232.867 697.68C231.891 696.72 231.403 695.304 231.403 693.432V686.112H234.403V693.024C234.403 694.176 234.659 695.04 235.171 695.616C235.699 696.176 236.443 696.456 237.403 696.456C238.475 696.456 239.323 696.128 239.947 695.472C240.587 694.8 240.907 693.84 240.907 692.592V686.112H243.907ZM254.939 685.968C256.187 685.968 257.299 686.24 258.275 686.784C259.267 687.328 260.043 688.096 260.603 689.088C261.163 690.08 261.443 691.224 261.443 692.52C261.443 693.816 261.163 694.968 260.603 695.976C260.043 696.968 259.267 697.736 258.275 698.28C257.299 698.824 256.187 699.096 254.939 699.096C254.059 699.096 253.251 698.944 252.515 698.64C251.795 698.336 251.187 697.88 250.691 697.272V698.928H247.835V681.12H250.835V687.672C251.347 687.112 251.947 686.688 252.635 686.4C253.339 686.112 254.107 685.968 254.939 685.968ZM254.603 696.528C255.707 696.528 256.611 696.16 257.315 695.424C258.035 694.688 258.395 693.72 258.395 692.52C258.395 691.32 258.035 690.352 257.315 689.616C256.611 688.88 255.707 688.512 254.603 688.512C253.883 688.512 253.235 688.68 252.659 689.016C252.083 689.336 251.627 689.8 251.291 690.408C250.955 691.016 250.787 691.72 250.787 692.52C250.787 693.32 250.955 694.024 251.291 694.632C251.627 695.24 252.083 695.712 252.659 696.048C253.235 696.368 253.883 696.528 254.603 696.528ZM283.929 686.112L279.201 698.928H276.321L273.009 690.096L269.649 698.928H266.769L262.065 686.112H264.897L268.281 695.568L271.809 686.112H274.329L277.785 695.616L281.265 686.112H283.929ZM290.489 685.968C292.377 685.968 293.817 686.424 294.809 687.336C295.817 688.232 296.321 689.592 296.321 691.416V698.928H293.489V697.368C293.121 697.928 292.593 698.36 291.905 698.664C291.233 698.952 290.417 699.096 289.457 699.096C288.497 699.096 287.657 698.936 286.937 698.616C286.217 698.28 285.657 697.824 285.257 697.248C284.873 696.656 284.681 695.992 284.681 695.256C284.681 694.104 285.105 693.184 285.953 692.496C286.817 691.792 288.169 691.44 290.009 691.44H293.321V691.248C293.321 690.352 293.049 689.664 292.505 689.184C291.977 688.704 291.185 688.464 290.129 688.464C289.409 688.464 288.697 688.576 287.993 688.8C287.305 689.024 286.721 689.336 286.241 689.736L285.065 687.552C285.737 687.04 286.545 686.648 287.489 686.376C288.433 686.104 289.433 685.968 290.489 685.968ZM290.081 696.912C290.833 696.912 291.497 696.744 292.073 696.408C292.665 696.056 293.081 695.56 293.321 694.92V693.432H290.225C288.497 693.432 287.633 694 287.633 695.136C287.633 695.68 287.849 696.112 288.281 696.432C288.713 696.752 289.313 696.912 290.081 696.912ZM311.937 686.112L305.937 699.96C305.377 701.352 304.697 702.328 303.897 702.888C303.097 703.464 302.129 703.752 300.993 703.752C300.353 703.752 299.721 703.648 299.097 703.44C298.473 703.232 297.961 702.944 297.561 702.576L298.761 700.368C299.049 700.64 299.385 700.856 299.769 701.016C300.169 701.176 300.569 701.256 300.969 701.256C301.497 701.256 301.929 701.12 302.265 700.848C302.617 700.576 302.937 700.12 303.225 699.48L303.441 698.976L297.849 686.112H300.969L305.001 695.592L309.057 686.112H311.937ZM325.941 699.168C324.645 699.168 323.389 698.984 322.173 698.616C320.973 698.248 320.021 697.76 319.317 697.152L320.397 694.728C321.085 695.272 321.925 695.72 322.917 696.072C323.925 696.408 324.933 696.576 325.941 696.576C327.189 696.576 328.117 696.376 328.725 695.976C329.349 695.576 329.661 695.048 329.661 694.392C329.661 693.912 329.485 693.52 329.133 693.216C328.797 692.896 328.365 692.648 327.837 692.472C327.309 692.296 326.589 692.096 325.677 691.872C324.397 691.568 323.357 691.264 322.557 690.96C321.773 690.656 321.093 690.184 320.517 689.544C319.957 688.888 319.677 688.008 319.677 686.904C319.677 685.976 319.925 685.136 320.421 684.384C320.933 683.616 321.693 683.008 322.701 682.56C323.725 682.112 324.973 681.888 326.445 681.888C327.469 681.888 328.477 682.016 329.469 682.272C330.461 682.528 331.317 682.896 332.037 683.376L331.053 685.8C330.317 685.368 329.549 685.04 328.749 684.816C327.949 684.592 327.173 684.48 326.421 684.48C325.189 684.48 324.269 684.688 323.661 685.104C323.069 685.52 322.773 686.072 322.773 686.76C322.773 687.24 322.941 687.632 323.277 687.936C323.629 688.24 324.069 688.48 324.597 688.656C325.125 688.832 325.845 689.032 326.757 689.256C328.005 689.544 329.029 689.848 329.829 690.168C330.629 690.472 331.309 690.944 331.869 691.584C332.445 692.224 332.733 693.088 332.733 694.176C332.733 695.104 332.477 695.944 331.965 696.696C331.469 697.448 330.709 698.048 329.685 698.496C328.661 698.944 327.413 699.168 325.941 699.168ZM343.242 698.232C342.89 698.52 342.458 698.736 341.946 698.88C341.45 699.024 340.922 699.096 340.362 699.096C338.954 699.096 337.866 698.728 337.098 697.992C336.33 697.256 335.946 696.184 335.946 694.776V688.608H333.834V686.208H335.946V683.28H338.946V686.208H342.378V688.608H338.946V694.704C338.946 695.328 339.098 695.808 339.402 696.144C339.706 696.464 340.146 696.624 340.722 696.624C341.394 696.624 341.954 696.448 342.402 696.096L343.242 698.232ZM350.606 685.968C352.494 685.968 353.934 686.424 354.926 687.336C355.934 688.232 356.438 689.592 356.438 691.416V698.928H353.606V697.368C353.238 697.928 352.71 698.36 352.022 698.664C351.35 698.952 350.534 699.096 349.574 699.096C348.614 699.096 347.774 698.936 347.054 698.616C346.334 698.28 345.774 697.824 345.374 697.248C344.99 696.656 344.798 695.992 344.798 695.256C344.798 694.104 345.222 693.184 346.07 692.496C346.934 691.792 348.286 691.44 350.126 691.44H353.438V691.248C353.438 690.352 353.166 689.664 352.622 689.184C352.094 688.704 351.302 688.464 350.246 688.464C349.526 688.464 348.814 688.576 348.11 688.8C347.422 689.024 346.838 689.336 346.358 689.736L345.182 687.552C345.854 687.04 346.662 686.648 347.606 686.376C348.55 686.104 349.55 685.968 350.606 685.968ZM350.198 696.912C350.95 696.912 351.614 696.744 352.19 696.408C352.782 696.056 353.198 695.56 353.438 694.92V693.432H350.342C348.614 693.432 347.75 694 347.75 695.136C347.75 695.68 347.966 696.112 348.398 696.432C348.83 696.752 349.43 696.912 350.198 696.912ZM367.992 698.232C367.64 698.52 367.208 698.736 366.696 698.88C366.2 699.024 365.672 699.096 365.112 699.096C363.704 699.096 362.616 698.728 361.848 697.992C361.08 697.256 360.696 696.184 360.696 694.776V688.608H358.584V686.208H360.696V683.28H363.696V686.208H367.128V688.608H363.696V694.704C363.696 695.328 363.848 695.808 364.152 696.144C364.456 696.464 364.896 696.624 365.472 696.624C366.144 696.624 366.704 696.448 367.152 696.096L367.992 698.232ZM370.46 686.112H373.46V698.928H370.46V686.112ZM371.972 684C371.428 684 370.972 683.832 370.604 683.496C370.236 683.144 370.052 682.712 370.052 682.2C370.052 681.688 370.236 681.264 370.604 680.928C370.972 680.576 371.428 680.4 371.972 680.4C372.516 680.4 372.972 680.568 373.34 680.904C373.708 681.224 373.892 681.632 373.892 682.128C373.892 682.656 373.708 683.104 373.34 683.472C372.988 683.824 372.532 684 371.972 684ZM383.158 699.096C381.862 699.096 380.694 698.816 379.654 698.256C378.614 697.696 377.798 696.92 377.206 695.928C376.63 694.92 376.342 693.784 376.342 692.52C376.342 691.256 376.63 690.128 377.206 689.136C377.798 688.144 378.614 687.368 379.654 686.808C380.694 686.248 381.862 685.968 383.158 685.968C384.47 685.968 385.646 686.248 386.686 686.808C387.726 687.368 388.534 688.144 389.11 689.136C389.702 690.128 389.998 691.256 389.998 692.52C389.998 693.784 389.702 694.92 389.11 695.928C388.534 696.92 387.726 697.696 386.686 698.256C385.646 698.816 384.47 699.096 383.158 699.096ZM383.158 696.528C384.262 696.528 385.174 696.16 385.894 695.424C386.614 694.688 386.974 693.72 386.974 692.52C386.974 691.32 386.614 690.352 385.894 689.616C385.174 688.88 384.262 688.512 383.158 688.512C382.054 688.512 381.142 688.88 380.422 689.616C379.718 690.352 379.366 691.32 379.366 692.52C379.366 693.72 379.718 694.688 380.422 695.424C381.142 696.16 382.054 696.528 383.158 696.528ZM400.138 685.968C401.754 685.968 403.05 686.44 404.026 687.384C405.002 688.328 405.49 689.728 405.49 691.584V698.928H402.49V691.968C402.49 690.848 402.226 690.008 401.698 689.448C401.17 688.872 400.418 688.584 399.442 688.584C398.338 688.584 397.466 688.92 396.826 689.592C396.186 690.248 395.866 691.2 395.866 692.448V698.928H392.866V686.112H395.722V687.768C396.218 687.176 396.842 686.728 397.594 686.424C398.346 686.12 399.194 685.968 400.138 685.968Z" fill="black"/>
<path d="M844.5 528.367C844.5 537.765 836.886 545.378 827.5 545.378C818.114 545.378 810.5 537.765 810.5 528.367C810.5 518.969 818.114 511.355 827.5 511.355C836.886 511.355 844.5 518.969 844.5 528.367Z" stroke="white" stroke-width="11"/>
<path d="M943.5 271.736C943.5 281.41 935.662 289.248 926 289.248C916.338 289.248 908.5 281.41 908.5 271.736C908.5 262.062 916.338 254.225 926 254.225C935.662 254.225 943.5 262.062 943.5 271.736Z" stroke="white" stroke-width="11"/>
<path d="M594.733 510.042C594.026 510.252 593.309 510.347 592.583 510.329C591.864 510.298 591.265 510.165 590.785 509.927L590.972 508.733C591.425 508.949 591.96 509.078 592.576 509.119C593.198 509.149 593.804 509.076 594.395 508.901C595.173 508.67 595.716 508.368 596.024 507.994C596.33 507.612 596.417 507.201 596.288 506.763C596.192 506.441 596.008 506.213 595.735 506.08C595.468 505.935 595.162 505.855 594.817 505.841C594.481 505.824 594.011 505.831 593.408 505.864C592.651 505.904 592.028 505.903 591.539 505.863C591.059 505.821 590.611 505.671 590.194 505.415C589.784 505.147 589.49 504.714 589.312 504.114C589.164 503.613 589.16 503.122 589.3 502.643C589.449 502.161 589.757 501.719 590.222 501.318C590.687 500.917 591.318 500.599 592.115 500.363C592.669 500.198 593.237 500.108 593.816 500.092C594.395 500.076 594.917 500.146 595.381 500.3L595.256 501.505C594.788 501.371 594.312 501.308 593.828 501.315C593.34 501.314 592.882 501.377 592.453 501.504C591.692 501.729 591.16 502.038 590.858 502.429C590.564 502.818 590.482 503.232 590.612 503.67C590.707 503.993 590.893 504.225 591.169 504.367C591.442 504.5 591.752 504.578 592.1 504.602C592.454 504.614 592.922 504.602 593.505 504.565C594.262 504.526 594.881 504.527 595.361 504.57C595.841 504.613 596.284 504.763 596.692 505.022C597.108 505.278 597.404 505.702 597.579 506.292C597.725 506.785 597.724 507.276 597.578 507.768C597.429 508.25 597.117 508.693 596.643 509.096C596.166 509.491 595.529 509.806 594.733 510.042ZM601.783 500.023C602.687 499.755 603.481 499.807 604.166 500.178C604.856 500.538 605.351 501.224 605.651 502.235L606.863 506.33L605.574 506.711L604.406 502.765C604.202 502.076 603.882 501.606 603.448 501.355C603.014 501.104 602.488 501.07 601.87 501.253C601.172 501.46 600.683 501.829 600.402 502.36C600.119 502.882 600.09 503.523 600.315 504.284L601.4 507.949L600.111 508.331L597.162 498.37L598.451 497.988L599.591 501.841C599.759 501.421 600.03 501.054 600.404 500.739C600.787 500.421 601.246 500.182 601.783 500.023ZM614.675 500.188C614.704 500.287 614.734 500.419 614.764 500.585L608.992 502.296C609.258 502.899 609.68 503.324 610.26 503.57C610.845 503.806 611.487 503.82 612.185 503.613C613.035 503.361 613.635 502.872 613.984 502.145L614.942 502.767C614.731 503.238 614.413 503.644 613.989 503.984C613.573 504.321 613.069 504.577 612.479 504.753C611.727 504.975 611.015 505.021 610.344 504.889C609.669 504.748 609.089 504.448 608.602 503.989C608.125 503.527 607.783 502.947 607.576 502.249C607.372 501.56 607.34 500.892 607.48 500.247C607.629 499.6 607.927 499.044 608.373 498.581C608.826 498.106 609.393 497.767 610.073 497.566C610.753 497.364 611.404 497.342 612.024 497.499C612.651 497.644 613.195 497.95 613.654 498.417C614.123 498.882 614.463 499.472 614.675 500.188ZM610.395 498.653C609.778 498.836 609.314 499.178 609.005 499.679C608.705 500.176 608.609 500.74 608.717 501.37L613.281 500.017C613.032 499.439 612.642 499.024 612.11 498.773C611.584 498.51 611.013 498.47 610.395 498.653ZM619.151 494.875C619.84 494.671 620.503 494.64 621.139 494.782C621.774 494.925 622.325 495.224 622.791 495.68C623.266 496.133 623.61 496.717 623.822 497.433C624.034 498.149 624.065 498.831 623.916 499.479C623.774 500.115 623.474 500.666 623.019 501.132C622.563 501.598 621.991 501.933 621.302 502.137C620.791 502.288 620.293 502.329 619.805 502.26C619.326 502.188 618.883 502.007 618.476 501.719L619.566 505.397L618.277 505.779L615.399 496.06L616.634 495.694L616.968 496.822C617.138 496.343 617.413 495.94 617.793 495.613C618.17 495.278 618.623 495.031 619.151 494.875ZM620.86 501.042C621.317 500.906 621.693 500.683 621.99 500.371C622.294 500.047 622.492 499.667 622.587 499.23C622.688 498.782 622.665 498.311 622.52 497.819C622.374 497.327 622.138 496.925 621.812 496.612C621.492 496.289 621.118 496.078 620.69 495.981C620.272 495.881 619.834 495.899 619.378 496.034C618.93 496.167 618.555 496.395 618.251 496.719C617.954 497.031 617.754 497.406 617.651 497.846C617.556 498.283 617.582 498.747 617.728 499.239C617.873 499.732 618.106 500.14 618.426 500.463C618.743 500.778 619.117 500.989 619.547 501.095C619.975 501.192 620.413 501.174 620.86 501.042ZM628.3 492.163C628.99 491.959 629.652 491.928 630.288 492.07C630.924 492.213 631.475 492.512 631.941 492.968C632.416 493.421 632.759 494.005 632.971 494.721C633.183 495.437 633.215 496.119 633.066 496.766C632.923 497.403 632.624 497.954 632.168 498.42C631.712 498.886 631.14 499.221 630.451 499.425C629.941 499.576 629.442 499.617 628.954 499.548C628.475 499.475 628.033 499.295 627.626 499.007L628.715 502.685L627.427 503.067L624.549 493.348L625.783 492.982L626.117 494.11C626.287 493.631 626.562 493.228 626.942 492.901C627.32 492.566 627.773 492.319 628.3 492.163ZM630.01 498.329C630.466 498.194 630.843 497.971 631.14 497.659C631.443 497.335 631.642 496.955 631.736 496.518C631.837 496.07 631.815 495.599 631.669 495.107C631.523 494.615 631.287 494.213 630.961 493.9C630.642 493.577 630.268 493.366 629.84 493.269C629.421 493.169 628.983 493.187 628.527 493.322C628.08 493.455 627.704 493.683 627.401 494.007C627.104 494.319 626.904 494.694 626.8 495.134C626.706 495.571 626.731 496.035 626.877 496.527C627.023 497.02 627.256 497.428 627.575 497.751C627.893 498.066 628.266 498.277 628.697 498.383C629.125 498.48 629.562 498.462 630.01 498.329ZM636.203 489.82C637.188 489.529 638.011 489.547 638.673 489.877C639.344 490.204 639.821 490.846 640.105 491.803L641.377 496.099L640.155 496.461L639.877 495.521C639.76 495.916 639.527 496.263 639.178 496.561C638.834 496.848 638.39 497.072 637.844 497.234C637.047 497.47 636.35 497.467 635.753 497.226C635.165 496.981 634.778 496.546 634.593 495.92C634.407 495.293 634.487 494.724 634.832 494.213C635.174 493.693 635.842 493.286 636.836 492.991L638.876 492.387L638.8 492.132C638.636 491.577 638.349 491.199 637.939 491C637.53 490.8 637.012 490.793 636.386 490.978C635.965 491.103 635.574 491.297 635.214 491.559C634.851 491.813 634.566 492.097 634.357 492.412L633.534 491.605C633.813 491.2 634.186 490.847 634.651 490.543C635.113 490.231 635.631 489.99 636.203 489.82ZM637.764 496.177C638.256 496.031 638.65 495.798 638.944 495.477C639.236 495.147 639.402 494.757 639.444 494.306L639.15 493.313L637.164 493.902C636.072 494.225 635.635 494.754 635.852 495.488C635.958 495.846 636.18 496.087 636.518 496.21C636.857 496.334 637.272 496.323 637.764 496.177ZM643.243 489.106C643.345 488.628 643.584 488.217 643.958 487.872C644.333 487.527 644.834 487.262 645.46 487.076L645.83 488.325C645.756 488.337 645.656 488.362 645.531 488.399C644.833 488.606 644.345 488.979 644.067 489.519C643.795 490.048 643.773 490.697 644.001 491.466L645.05 495.01L643.761 495.392L641.655 488.277L642.89 487.911L643.243 489.106ZM652.871 481.857L655.821 491.817L654.586 492.184L654.252 491.056C654.082 491.535 653.809 491.942 653.431 492.278C653.054 492.613 652.601 492.86 652.073 493.016C651.384 493.22 650.721 493.251 650.086 493.109C649.45 492.966 648.894 492.668 648.419 492.215C647.951 491.751 647.61 491.16 647.398 490.444C647.186 489.729 647.152 489.053 647.294 488.416C647.446 487.778 647.75 487.225 648.205 486.759C648.661 486.293 649.233 485.958 649.923 485.754C650.433 485.603 650.932 485.562 651.419 485.631C651.905 485.692 652.346 485.868 652.744 486.159L651.583 482.239L652.871 481.857ZM651.846 491.857C652.294 491.724 652.671 491.5 652.977 491.186C653.28 490.862 653.479 490.482 653.573 490.045C653.665 489.599 653.638 489.13 653.492 488.638C653.347 488.146 653.115 487.742 652.798 487.428C652.478 487.104 652.105 486.893 651.677 486.796C651.249 486.699 650.811 486.717 650.364 486.85C649.907 486.985 649.526 487.21 649.22 487.524C648.923 487.836 648.724 488.216 648.624 488.665C648.529 489.102 648.555 489.566 648.7 490.059C648.846 490.551 649.079 490.959 649.399 491.283C649.725 491.595 650.099 491.805 650.52 491.914C650.948 492.011 651.39 491.992 651.846 491.857ZM667.343 485.847L662.349 487.327L662.011 489.982L660.629 490.392L662.101 479.734L663.43 479.34L670.481 487.472L669.072 487.89L667.343 485.847ZM666.555 484.912L663.165 480.909L662.501 486.114L666.555 484.912ZM675.516 478.24L674.509 486.278L673.194 486.668L667.973 480.476L669.315 480.078L673.447 485.059L674.255 478.614L675.516 478.24ZM684.017 479.634C684.046 479.732 684.076 479.865 684.106 480.031L678.334 481.742C678.6 482.345 679.022 482.769 679.602 483.016C680.187 483.251 680.829 483.266 681.527 483.059C682.377 482.807 682.977 482.317 683.326 481.591L684.284 482.212C684.073 482.684 683.755 483.089 683.331 483.429C682.915 483.767 682.411 484.023 681.821 484.198C681.069 484.421 680.357 484.467 679.686 484.335C679.011 484.194 678.431 483.894 677.944 483.434C677.467 482.972 677.125 482.392 676.918 481.694C676.714 481.005 676.682 480.338 676.822 479.693C676.971 479.045 677.269 478.49 677.715 478.026C678.168 477.551 678.735 477.213 679.415 477.012C680.095 476.81 680.746 476.788 681.366 476.944C681.993 477.089 682.537 477.396 682.996 477.863C683.465 478.328 683.805 478.918 684.017 479.634ZM679.737 478.099C679.12 478.282 678.656 478.624 678.347 479.124C678.047 479.622 677.951 480.186 678.059 480.816L682.623 479.463C682.374 478.885 681.984 478.47 681.452 478.219C680.926 477.956 680.355 477.916 679.737 478.099ZM688.52 474.313C689.424 474.045 690.218 474.097 690.902 474.468C691.593 474.828 692.088 475.514 692.387 476.525L693.6 480.619L692.311 481.001L691.142 477.055C690.938 476.365 690.619 475.895 690.185 475.645C689.75 475.394 689.224 475.36 688.607 475.543C687.909 475.75 687.419 476.119 687.139 476.65C686.855 477.172 686.826 477.813 687.051 478.574L688.136 482.239L686.848 482.62L684.741 475.506L685.976 475.14L686.294 476.214C686.445 475.77 686.71 475.385 687.091 475.058C687.48 474.728 687.956 474.48 688.52 474.313ZM700.508 470.832L702.615 477.947L701.394 478.309L701.076 477.235C700.925 477.679 700.665 478.067 700.296 478.4C699.934 478.722 699.502 478.957 699.001 479.106C698.053 479.387 697.229 479.349 696.529 478.991C695.827 478.625 695.325 477.932 695.023 476.912L693.81 472.818L695.099 472.436L696.268 476.382C696.472 477.071 696.792 477.546 697.229 477.806C697.664 478.056 698.19 478.09 698.807 477.907C699.487 477.706 699.963 477.341 700.235 476.812C700.507 476.284 700.531 475.644 700.309 474.892L699.22 471.214L700.508 470.832ZM710.456 471.797C710.485 471.895 710.515 472.028 710.545 472.194L704.773 473.905C705.039 474.507 705.462 474.932 706.041 475.179C706.626 475.414 707.268 475.429 707.966 475.222C708.816 474.97 709.416 474.48 709.765 473.754L710.723 474.375C710.512 474.847 710.195 475.252 709.77 475.592C709.354 475.93 708.85 476.186 708.26 476.361C707.508 476.584 706.796 476.629 706.125 476.498C705.45 476.357 704.87 476.057 704.383 475.597C703.906 475.135 703.564 474.555 703.357 473.857C703.153 473.168 703.121 472.501 703.261 471.856C703.41 471.208 703.708 470.653 704.154 470.189C704.608 469.714 705.174 469.376 705.854 469.175C706.534 468.973 707.185 468.95 707.805 469.107C708.432 469.252 708.976 469.559 709.435 470.026C709.904 470.491 710.244 471.081 710.456 471.797ZM706.176 470.262C705.559 470.445 705.095 470.787 704.786 471.287C704.486 471.785 704.39 472.349 704.499 472.979L709.062 471.626C708.813 471.047 708.423 470.633 707.891 470.382C707.365 470.119 706.794 470.079 706.176 470.262ZM723.553 470.47L723.898 471.638L717.08 473.659L714.297 464.263L720.928 462.297L721.274 463.465L715.985 465.033L716.84 467.919L721.551 466.522L721.889 467.663L717.178 469.06L718.076 472.093L723.553 470.47Z" fill="black"/>
<path d="M480.866 604.042C480.855 604.464 480.733 604.825 480.499 605.124C480.271 605.422 479.937 605.626 479.498 605.737C478.909 605.885 478.401 605.776 477.972 605.409C477.545 605.049 477.225 604.446 477.012 603.599L476.198 600.359L482.987 598.652L483.752 601.698C483.947 602.474 483.942 603.111 483.737 603.609C483.534 604.114 483.158 604.435 482.608 604.573C482.252 604.663 481.924 604.656 481.623 604.553C481.324 604.456 481.072 604.286 480.866 604.042ZM482.445 599.82L480.273 600.366L480.772 602.354C480.897 602.852 481.083 603.211 481.331 603.43C481.587 603.655 481.892 603.722 482.248 603.633C482.604 603.543 482.838 603.34 482.951 603.023C483.072 602.711 483.069 602.306 482.944 601.808L482.445 599.82ZM477.788 603.362C477.926 603.912 478.12 604.303 478.371 604.535C478.622 604.768 478.941 604.835 479.329 604.738C480.086 604.548 480.325 603.9 480.047 602.794L479.487 600.563L477.227 601.132L477.788 603.362ZM483.667 608.131C483.845 608.842 483.807 609.429 483.552 609.892C483.299 610.361 482.826 610.683 482.134 610.857L479.031 611.637L478.809 610.755L479.488 610.584C479.21 610.489 478.97 610.312 478.767 610.054C478.573 609.8 478.426 609.476 478.327 609.082C478.183 608.506 478.206 608.009 478.396 607.59C478.588 607.177 478.91 606.914 479.363 606.8C479.815 606.687 480.219 606.76 480.573 607.022C480.934 607.282 481.205 607.77 481.385 608.488L481.755 609.962L481.939 609.916C482.34 609.815 482.618 609.622 482.773 609.335C482.928 609.049 482.948 608.679 482.835 608.227C482.758 607.923 482.632 607.638 482.456 607.373C482.285 607.107 482.091 606.894 481.873 606.736L482.474 606.173C482.754 606.384 482.995 606.66 483.197 607.001C483.406 607.341 483.563 607.717 483.667 608.131ZM479.084 609.056C479.173 609.412 479.328 609.7 479.548 609.919C479.775 610.137 480.048 610.268 480.368 610.311L481.086 610.131L480.725 608.695C480.527 607.906 480.163 607.579 479.633 607.712C479.374 607.777 479.196 607.928 479.097 608.166C478.999 608.404 478.995 608.701 479.084 609.056ZM483.965 613.177C484.303 613.264 484.589 613.446 484.824 613.724C485.059 614.002 485.233 614.367 485.347 614.82L484.445 615.047C484.438 614.993 484.424 614.921 484.401 614.831C484.274 614.326 484.022 613.967 483.645 613.752C483.276 613.543 482.814 613.508 482.258 613.648L479.698 614.291L479.464 613.36L484.604 612.068L484.828 612.96L483.965 613.177ZM486.319 618.693C486.444 619.191 486.447 619.664 486.326 620.114C486.205 620.564 485.975 620.948 485.636 621.267C485.298 621.593 484.871 621.82 484.354 621.95C483.837 622.08 483.349 622.083 482.891 621.957C482.442 621.836 482.058 621.607 481.739 621.267C481.42 620.928 481.198 620.51 481.073 620.012C480.977 619.63 480.964 619.263 481.033 618.908C481.102 618.554 481.253 618.238 481.485 617.959L480.67 618.164L480.446 617.272L487.642 615.463L487.876 616.394L485.044 617.106C485.368 617.244 485.637 617.452 485.85 617.728C486.07 618.003 486.227 618.324 486.319 618.693ZM481.868 619.729C481.951 620.059 482.099 620.335 482.313 620.556C482.534 620.782 482.8 620.935 483.109 621.016C483.426 621.101 483.762 621.099 484.117 621.01C484.473 620.92 484.767 620.764 485 620.54C485.24 620.322 485.402 620.061 485.484 619.759C485.568 619.463 485.568 619.15 485.485 618.82C485.404 618.497 485.256 618.221 485.041 617.993C484.825 617.766 484.56 617.612 484.245 617.534C483.936 617.453 483.603 617.458 483.248 617.547C482.892 617.637 482.594 617.791 482.353 618.009C482.119 618.226 481.958 618.487 481.869 618.791C481.787 619.093 481.787 619.406 481.868 619.729ZM485.815 627.89C485.744 627.908 485.648 627.925 485.529 627.941L484.481 623.771C484.043 623.943 483.727 624.232 483.534 624.638C483.348 625.049 483.319 625.506 483.446 626.011C483.6 626.625 483.931 627.068 484.439 627.339L483.967 628.004C483.637 627.839 483.357 627.6 483.127 627.287C482.899 626.98 482.731 626.613 482.624 626.187C482.487 625.643 482.476 625.134 482.59 624.658C482.711 624.181 482.943 623.776 483.285 623.442C483.629 623.115 484.053 622.888 484.558 622.762C485.055 622.636 485.532 622.633 485.988 622.752C486.446 622.878 486.834 623.107 487.151 623.44C487.476 623.777 487.701 624.192 487.824 624.683C487.947 625.174 487.944 625.639 487.813 626.078C487.691 626.521 487.456 626.9 487.109 627.214C486.763 627.534 486.332 627.76 485.815 627.89ZM487.038 624.881C486.926 624.434 486.696 624.094 486.349 623.858C486.002 623.629 485.603 623.544 485.15 623.602L485.978 626.9C486.399 626.739 486.706 626.473 486.902 626.101C487.105 625.733 487.151 625.327 487.038 624.881ZM488.1 629.638C488.438 629.725 488.724 629.908 488.959 630.186C489.193 630.463 489.368 630.829 489.481 631.281L488.579 631.508C488.573 631.455 488.558 631.383 488.535 631.292C488.409 630.788 488.157 630.428 487.78 630.214C487.411 630.004 486.949 629.969 486.393 630.109L483.832 630.753L483.599 629.822L488.739 628.529L488.963 629.421L488.1 629.638ZM489.082 633.55C489.42 633.637 489.706 633.819 489.941 634.097C490.176 634.375 490.35 634.74 490.464 635.193L489.562 635.42C489.555 635.366 489.541 635.294 489.518 635.204C489.391 634.699 489.14 634.34 488.763 634.125C488.394 633.916 487.931 633.881 487.375 634.021L484.815 634.664L484.581 633.733L489.721 632.441L489.945 633.333L489.082 633.55ZM491.898 641.11L485.618 640.039C485.039 639.951 484.606 639.785 484.318 639.541C484.031 639.303 483.836 638.978 483.732 638.564C483.669 638.312 483.649 638.056 483.673 637.795C483.692 637.543 483.76 637.32 483.876 637.126L484.674 637.348C484.489 637.676 484.44 638.015 484.528 638.364C484.584 638.59 484.693 638.762 484.853 638.88C485.008 639.006 485.247 639.094 485.569 639.144L485.969 639.218L490.529 635.659L490.773 636.629L487.112 639.457L491.669 640.198L491.898 641.11ZM495.119 646.952C495.34 647.832 495.303 648.576 495.01 649.186C494.716 649.796 494.201 650.194 493.464 650.379C492.727 650.565 492.085 650.458 491.538 650.059C490.991 649.661 490.607 649.022 490.386 648.142L489.965 646.464L487.909 646.981L487.665 646.011L494.454 644.304L495.119 646.952ZM491.223 647.901C491.377 648.515 491.624 648.951 491.964 649.21C492.31 649.466 492.729 649.533 493.22 649.409C493.712 649.286 494.046 649.03 494.223 648.642C494.407 648.252 494.422 647.75 494.268 647.135L493.854 645.487L490.808 646.252L491.223 647.901ZM496.585 651.066L496.819 651.997L489.623 653.806L489.389 652.875L496.585 651.066Z" fill="black"/>
<path d="M37.364 428.305C37.3069 428.893 37.0999 429.385 36.7432 429.78C36.3957 430.173 35.9094 430.425 35.2845 430.535C34.4481 430.683 33.7487 430.48 33.1863 429.926C32.6255 429.38 32.2387 428.506 32.0259 427.302L31.2121 422.697L40.8623 420.99L41.6273 425.319C41.8223 426.422 41.7519 427.311 41.4164 427.986C41.0824 428.671 40.5249 429.082 39.7437 429.221C39.2382 429.31 38.7805 429.268 38.3707 429.094C37.9624 428.929 37.6269 428.666 37.364 428.305ZM39.9893 422.566L36.9012 423.112L37.4007 425.939C37.5258 426.646 37.7503 427.166 38.0742 427.497C38.409 427.836 38.8291 427.961 39.3346 427.871C39.8401 427.782 40.1874 427.521 40.3765 427.09C40.5764 426.666 40.6138 426.1 40.4887 425.392L39.9893 422.566ZM33.1328 427.049C33.2709 427.83 33.5035 428.396 33.8307 428.745C34.1579 429.095 34.5972 429.221 35.1487 429.124C36.224 428.933 36.6227 428.052 36.345 426.481L35.7845 423.31L32.5724 423.878L33.1328 427.049ZM40.8678 434.294C41.0465 435.305 40.9348 436.121 40.5327 436.742C40.1323 437.372 39.4403 437.774 38.4569 437.948L34.0454 438.728L33.8237 437.474L34.7887 437.303C34.4097 437.143 34.0917 436.872 33.8348 436.491C33.5887 436.117 33.4161 435.65 33.317 435.09C33.1725 434.272 33.2539 433.579 33.5614 433.013C33.8705 432.456 34.3467 432.121 34.9901 432.007C35.6334 431.893 36.1895 432.036 36.6584 432.437C37.1364 432.836 37.4656 433.545 37.6459 434.565L38.0162 436.661L38.2782 436.615C38.848 436.514 39.2553 436.271 39.5001 435.887C39.7449 435.502 39.8105 434.988 39.6968 434.345C39.6204 433.913 39.4722 433.503 39.252 433.115C39.0411 432.726 38.7909 432.41 38.5016 432.168L39.3968 431.441C39.7666 431.764 40.076 432.174 40.3248 432.67C40.5829 433.164 40.7638 433.706 40.8678 434.294ZM34.3762 435.13C34.4655 435.635 34.653 436.052 34.9385 436.381C35.2333 436.708 35.602 436.917 36.0448 437.01L37.065 436.829L36.7044 434.789C36.5062 433.668 36.0303 433.174 35.2767 433.307C34.9091 433.372 34.6447 433.566 34.4837 433.888C34.3227 434.21 34.2868 434.624 34.3762 435.13ZM42.9038 446.216L34.2404 444.095C33.4407 443.914 32.8519 443.639 32.4739 443.27C32.0975 442.91 31.8573 442.436 31.7534 441.848C31.69 441.489 31.688 441.13 31.7474 440.768C31.7992 440.418 31.9159 440.113 32.0975 439.853L33.19 440.243C32.8982 440.683 32.7961 441.152 32.8838 441.648C32.9407 441.97 33.0751 442.221 33.2871 442.401C33.4915 442.592 33.8159 442.739 34.2604 442.84L34.8119 442.984L41.5344 438.468L41.7781 439.847L36.3836 443.431L42.6748 444.92L42.9038 446.216ZM44.2458 453.809L36.374 451.904L36.1352 450.552L42.8765 446.061L43.1201 447.44L37.7046 450.986L44.0168 452.513L44.2458 453.809ZM44.4641 455.044L44.698 456.368L37.3915 457.661L37.1576 456.337L44.4641 455.044ZM45.9872 455.457C45.9417 455.2 45.9863 454.97 46.1209 454.766C46.2571 454.571 46.4446 454.452 46.6836 454.41C46.9225 454.368 47.1393 454.415 47.334 454.551C47.5395 454.695 47.665 454.895 47.7105 455.153C47.756 455.41 47.7106 455.636 47.5744 455.831C47.449 456.033 47.2669 456.155 47.0279 456.197C46.7798 456.241 46.5529 456.191 46.3475 456.048C46.1528 455.912 46.0327 455.715 45.9872 455.457ZM42.6171 466.152C42.516 466.17 42.3811 466.185 42.2125 466.195L41.1647 460.267C40.536 460.464 40.0663 460.836 39.7556 461.384C39.4556 461.939 39.369 462.575 39.4957 463.292C39.6501 464.165 40.0684 464.817 40.7508 465.246L40.0252 466.127C39.5808 465.865 39.2136 465.503 38.9237 465.043C38.6354 464.591 38.4376 464.062 38.3304 463.456C38.194 462.684 38.2292 461.971 38.4361 461.319C38.6522 460.664 39.0159 460.121 39.5272 459.69C40.0402 459.267 40.6551 458.993 41.372 458.866C42.0797 458.741 42.746 458.784 43.3711 458.995C43.9977 459.216 44.516 459.575 44.926 460.071C45.3467 460.575 45.6188 461.176 45.7423 461.874C45.8658 462.573 45.8146 463.222 45.5887 463.821C45.3737 464.428 45.0081 464.933 44.4919 465.337C43.9773 465.751 43.3524 466.022 42.6171 466.152ZM44.6256 462.072C44.5136 461.438 44.2263 460.939 43.764 460.575C43.3033 460.221 42.7539 460.062 42.116 460.099L42.9444 464.786C43.5472 464.604 44.0034 464.263 44.3131 463.762C44.6335 463.27 44.7377 462.706 44.6256 462.072ZM48.5669 478.258L40.7779 476.821L40.5538 475.553L45.7229 472.463L39.8033 471.307L39.5791 470.039L46.4057 466.03L46.6274 467.285L41.185 470.437L47.3925 471.613L47.5898 472.73L42.1271 475.929L48.3573 477.073L48.5669 478.258ZM45.6854 490.511L44.779 485.383L42.1789 484.748L41.9279 483.328L52.3504 485.991L52.5916 487.356L43.7163 493.447L43.4605 492L45.6854 490.511ZM46.703 489.834L51.0637 486.915L45.9672 485.67L46.703 489.834ZM52.3193 499.49L44.4475 497.584L44.2087 496.233L50.95 491.742L51.1936 493.121L45.7781 496.666L52.0903 498.194L52.3193 499.49ZM49.9744 507.781C49.8733 507.798 49.7384 507.813 49.5697 507.824L48.522 501.896C47.8933 502.092 47.4236 502.464 47.1128 503.012C46.8129 503.568 46.7263 504.204 46.853 504.921C47.0073 505.794 47.4257 506.445 48.1081 506.874L47.3825 507.756C46.938 507.493 46.5709 507.132 46.2809 506.671C45.9927 506.22 45.7949 505.691 45.6877 505.084C45.5513 504.312 45.5865 503.6 45.7934 502.947C46.0095 502.293 46.3732 501.75 46.8845 501.318C47.3975 500.896 48.0124 500.621 48.7293 500.494C49.4369 500.369 50.1033 500.412 50.7283 500.624C51.355 500.845 51.8733 501.203 52.2833 501.699C52.704 502.203 52.9761 502.804 53.0996 503.503C53.223 504.201 53.1718 504.85 52.946 505.449C52.731 506.056 52.3654 506.561 51.8492 506.965C51.3346 507.379 50.7097 507.65 49.9744 507.781ZM51.9829 503.7C51.8708 503.066 51.5836 502.567 51.1213 502.203C50.6605 501.849 50.1112 501.69 49.4733 501.727L50.3017 506.415C50.9045 506.232 51.3607 505.891 51.6703 505.391C51.9908 504.898 52.095 504.334 51.9829 503.7Z" fill="black"/>
</svg>
