<svg width="433" height="82" viewBox="0 0 433 82" fill="none" xmlns="http://www.w3.org/2000/svg">
<path fill-rule="evenodd" clip-rule="evenodd" d="M36.9896 0.103249C53.8709 1.4366 67.8078 15.3494 69.3575 32.5081C71.0105 50.869 58.0551 68.8255 37.9091 70.4211C16.4097 72.1152 -1.55637 53.7215 0.106967 32.049C1.68765 11.6335 19.2405 -1.29568 36.9896 0.103249Z" fill="black"/>
<path d="M60.8119 28.2127C60.6381 23.2214 59.5798 17.5963 56.2488 14.6492C53.3907 12.1204 49.9183 12.0557 45.9747 13.0217C39.3314 14.6491 37.6626 16.2768 32.5524 15.1917L22.4851 13.0217C27.7908 13.8265 22.6336 13.0513 22.4851 13.0217C18.908 12.4791 16.6618 12.2651 13.7978 14.6492C10.4825 17.4089 8.85103 23.1345 8.6875 28.2127C8.6875 28.0608 8.6875 28.3863 8.6875 28.2127C8.6875 28.0174 8.6875 28.3971 8.6875 28.2127C8.6875 35.3959 11.2495 38.7471 13.7978 44.4019C15.8418 48.9375 15.8492 49.9114 15.8418 57.2274C15.8316 67.3837 18.4276 73.7313 19.93 76.4549C21.4938 79.2327 23.5072 81.3811 25.5513 81.9237C27.5954 81.9237 30.6615 80.8386 30.6615 70.5304C30.6615 60.7648 32.7056 59.1372 32.7056 59.1372C33.7276 58.0522 34.9542 58.0522 34.9542 58.0522C34.9542 58.0522 36.2828 58.0522 37.3048 59.1372C37.3048 59.1372 39.3489 60.7648 39.3489 70.5304C39.3489 80.2961 43.2532 82.4662 44.9702 81.9237C46.9293 81.3046 48.8846 79.5039 50.5914 76.4549C52.0836 73.7639 53.6576 67.2898 53.6576 57.2274C53.6576 50.9992 53.4782 48.9375 55.5223 44.4019C57.5664 39.8663 60.8119 35.6984 60.8119 28.2127C60.7915 27.9848 60.8221 28.4405 60.8119 28.2127ZM33.6869 27.4314C33.7278 26.8455 34.1775 26.3898 34.6885 26.3898H35.2097C35.7105 26.3898 36.1602 26.8455 36.2011 27.4314L37.3458 37.6311H32.5524L33.6869 27.4314ZM43.2532 48.9375C42.9568 49.2522 40.647 51.6936 40.647 51.6936H42.1188C42.1188 51.6936 42.9568 51.5634 42.9568 52.4857C42.9568 53.4188 42.9466 54.786 42.9466 54.786C42.9466 54.786 43.0284 55.4479 42.1494 55.4479C41.2705 55.4479 34.9542 55.4479 34.9542 55.4479C34.9542 55.4479 28.638 55.4479 27.7692 55.4479C26.8903 55.4479 26.972 54.786 26.972 54.786C26.972 54.786 26.9516 53.4188 26.9516 52.4857C26.9516 51.5525 27.7999 51.6936 27.7999 51.6936H29.2716C29.2716 51.6936 26.972 49.2522 26.6756 48.9375C26.3588 48.612 26.3895 48.2647 26.3895 48.2647V47.8199C26.3895 47.8199 26.369 47.451 26.6756 47.1254C26.972 46.8216 29.2921 44.4019 29.2921 44.4019C29.2921 44.4019 29.2921 43.3277 29.2921 41.6567C29.2921 39.9857 30.4879 39.5625 31.7143 39.5625C32.9408 39.5625 34.9747 39.5625 34.9747 39.5625C34.9747 39.5625 36.9983 39.5625 38.2145 39.5625C39.4512 39.5625 40.6368 39.9965 40.6368 41.6567C40.6368 43.3277 40.6368 44.4019 40.6368 44.4019C40.6368 44.4019 42.9671 46.8108 43.2532 47.1254C43.5598 47.451 43.5394 47.8199 43.5394 47.8199V48.2647C43.519 48.2647 43.5598 48.612 43.2532 48.9375Z" fill="#DFD3C1"/>
<path d="M96.4568 46.0078C89.1868 46.0078 83.8025 40.1655 83.8025 32.1576C83.8025 24.2505 89.0919 18.3075 96.2315 18.3075C100.525 18.3075 103.774 20.1332 106.075 23.2935L108.328 21.5686C105.577 17.7409 101.462 15.4871 96.2671 15.4871C87.5502 15.4871 80.719 22.4877 80.719 32.1576C80.6716 41.8401 87.5383 48.8281 96.3501 48.8281C101.865 48.8281 106.158 46.524 109.182 42.3186L106.882 40.5936C104.45 44.0436 100.88 46.0078 96.4568 46.0078ZM134.432 34.9403H117.674V15.8774H114.733V48.4504H117.674V37.7229H134.432V48.4504H137.373V15.8774H134.432V34.9403ZM164.603 28.1411C164.603 21.1027 160.262 15.8774 151.901 15.8774H145.212V48.4504H148.153V40.304H151.901C152.802 40.304 153.621 40.2537 154.427 40.1152L160.523 48.4504H164.093L157.404 39.3975C162.16 37.6221 164.603 33.3664 164.603 28.1411ZM151.723 37.5844H148.153V18.66H151.723C158.685 18.66 161.531 22.6892 161.531 28.1411C161.531 33.593 158.732 37.5844 151.723 37.5844ZM184.705 15.4997C175.988 15.4997 168.932 22.5381 168.932 32.1702C168.932 41.8024 175.976 48.8407 184.705 48.8407C193.422 48.8407 200.478 41.8024 200.478 32.1702C200.467 22.5381 193.422 15.4997 184.705 15.4997ZM184.705 46.0078C177.388 46.0078 172.003 40.0648 172.003 32.1576C172.003 24.2505 177.376 18.3075 184.705 18.3075C192.034 18.3075 197.407 24.2505 197.407 32.1576C197.395 40.0774 192.022 46.0078 184.705 46.0078ZM231.942 15.2101L220.237 37.3955L208.579 15.2101H208.353L204.914 48.463H207.665L210.191 23.5957L220.082 42.6585H220.213L230.151 23.5957L232.677 48.463H235.571L232.132 15.2101H231.942ZM253.124 15.1094L240.197 48.4504H243.138L245.308 42.7971H261.165L263.287 48.4504H266.312L253.349 15.1094H253.124ZM246.34 40.027L253.254 21.9589C253.254 21.9589 260.121 40.027 260.073 40.027H246.34ZM287.493 15.8774H279.808V48.4504H287.493C297.704 48.4504 303.717 41.7898 303.717 32.1576C303.705 22.5381 297.657 15.8774 287.493 15.8774ZM287.22 45.63H282.749V18.7104H287.22C296.305 18.7104 300.634 24.2631 300.634 32.1702C300.634 40.0774 296.293 45.63 287.22 45.63ZM312.6 37.6725H326.512V34.9403H312.6V18.6475H328.184V15.8648H309.659V48.4378H328.812V45.6552H312.588V37.6725H312.6ZM356.007 41.5128L335.311 15.2101H335.039V48.463H337.79V22.8277L358.485 49.1303H358.758V15.8774H356.007V41.5128ZM385.763 15.8774H363.81V18.66H373.346V48.463H376.287V18.66H385.775V15.8774H385.763ZM397.326 15.1094L384.399 48.4504H387.34L389.51 42.7971H405.367L407.49 48.4504H410.514L397.551 15.1094H397.326ZM390.554 40.027L397.468 21.9589C397.468 21.9589 404.335 40.027 404.288 40.027H390.554ZM418.733 45.6804V15.8774H415.791V48.4504H433V45.6678H418.733V45.6804Z" fill="black"/>
<path d="M240.359 60.0957L239.208 59.5165C237.477 58.6477 236.694 58.1189 236.694 56.6835C236.694 55.3489 237.631 54.4046 239.042 54.4046C240.335 54.4046 241.213 54.9333 241.865 56.0665L242.909 55.3614C242.031 53.8505 240.798 53.1454 239.019 53.1454C236.931 53.1454 235.354 54.5808 235.354 56.7339C235.354 58.8366 236.587 59.8187 238.639 60.8259L239.789 61.4052C241.509 62.2488 242.47 63.0042 242.47 64.6662C242.47 66.2401 241.319 67.26 239.374 67.26C237.702 67.26 236.398 66.3912 235.65 64.8929L234.5 65.535C235.425 67.3733 237.074 68.5695 239.398 68.5695C242.055 68.5695 243.834 67.1089 243.834 64.6285C243.834 62.3621 242.636 61.2541 240.359 60.0957ZM258.884 53.0195L253.464 63.2686L248.068 53.0195H247.961L246.372 68.3932H247.652L248.827 56.8976L253.404 65.7113H253.464L258.065 56.8976L259.239 68.3932H260.579L258.99 53.0195H258.884ZM263.983 68.3806H265.359V53.3217H263.983V68.3806ZM270.447 53.3217H269.083V68.3806H277.053V67.0963H270.435V53.3217H270.447ZM280.943 63.4071H287.382V62.148H280.943V54.6186H288.165V53.3343H279.591V68.3932H288.462V67.1089H280.955V63.4071H280.943ZM291.759 66.4416C291.261 66.4416 290.774 66.8822 290.774 67.4866C290.774 68.0784 291.261 68.5317 291.759 68.5317C292.281 68.5317 292.743 68.091 292.743 67.4866C292.743 66.8822 292.281 66.4416 291.759 66.4416ZM292.352 64.3515L292.494 53.3217H291.047L291.189 64.3515H292.352ZM303.512 68.3806H304.887V53.3217H303.512V68.3806ZM307.319 54.606H311.73V68.3806H313.094V54.606H317.494V53.3217H307.33V54.606H307.319ZM328.275 60.0957L327.124 59.5165C325.393 58.6477 324.61 58.1189 324.61 56.6835C324.61 55.3489 325.547 54.4046 326.958 54.4046C328.251 54.4046 329.129 54.9333 329.781 56.0665L330.825 55.3614C329.947 53.8505 328.714 53.1454 326.935 53.1454C324.847 53.1454 323.27 54.5808 323.27 56.7339C323.27 58.8366 324.503 59.8187 326.555 60.8259L327.705 61.4052C329.425 62.2488 330.386 63.0042 330.386 64.6662C330.386 66.2401 329.235 67.26 327.29 67.26C325.618 67.26 324.314 66.3912 323.566 64.8929L322.416 65.535C323.341 67.3733 324.99 68.5695 327.314 68.5695C329.971 68.5695 331.75 67.1089 331.75 64.6285C331.75 62.3621 330.564 61.2541 328.275 60.0957ZM343.194 63.1553C343.194 65.875 341.771 67.2474 339.53 67.2474C337.312 67.2474 335.865 65.875 335.865 63.1553V53.3217H334.501V63.2686C334.501 66.7689 336.66 68.5569 339.518 68.5569C342.388 68.5569 344.534 66.7689 344.534 63.2686V53.3217H343.171V63.1553H343.194ZM348.163 68.3806H349.539V53.3217H348.163V68.3806ZM351.97 54.606H356.382V68.3806H357.746V54.606H362.146V53.3217H351.982V54.606H351.97ZM369.12 60.0957L367.969 59.5165C366.238 58.6477 365.455 58.1189 365.455 56.6835C365.455 55.3489 366.392 54.4046 367.803 54.4046C369.096 54.4046 369.973 54.9333 370.626 56.0665L371.669 55.3614C370.792 53.8505 369.558 53.1454 367.779 53.1454C365.692 53.1454 364.115 54.5808 364.115 56.7339C364.115 58.8366 365.348 59.8187 367.4 60.8259L368.55 61.4052C370.27 62.2488 371.231 63.0042 371.231 64.6662C371.231 66.2401 370.08 67.26 368.135 67.26C366.463 67.26 365.158 66.3912 364.411 64.8929L363.261 65.535C364.186 67.3733 365.834 68.5695 368.159 68.5695C370.816 68.5695 372.594 67.1089 372.594 64.6285C372.594 62.3621 371.409 61.2541 369.12 60.0957ZM384.098 62.211L379.521 53.3343H378.014L383.387 63.6715V68.3932H384.763V63.6715L390.076 53.3343H388.653L384.098 62.211ZM398.804 53.1454C394.76 53.1454 391.499 56.4065 391.499 60.8512C391.499 65.2958 394.76 68.5569 398.804 68.5569C402.849 68.5569 406.11 65.2958 406.11 60.8512C406.11 56.4065 402.837 53.1454 398.804 53.1454ZM398.804 67.26C395.413 67.26 392.922 64.5152 392.922 60.8638C392.922 57.2124 395.413 54.4675 398.804 54.4675C402.196 54.4675 404.687 57.2124 404.687 60.8638C404.687 64.5152 402.196 67.26 398.804 67.26ZM417.377 53.3217V63.1553C417.377 65.875 415.954 67.2474 413.712 67.2474C411.494 67.2474 410.047 65.875 410.047 63.1553V53.3217H408.695V63.2686C408.695 66.7689 410.854 68.5569 413.712 68.5569C416.582 68.5569 418.729 66.7689 418.729 63.2686V53.3217H417.377Z" fill="black"/>
</svg>
