<svg width="24" height="24" viewBox="0 0 24 24" fill="none" xmlns="http://www.w3.org/2000/svg">
<g clip-path="url(#clip0)">
<path d="M9.93947 14.0627C7.64871 11.772 7.13147 9.48122 7.01478 8.56343C6.98218 8.30966 7.06951 8.05516 7.25106 7.87488L9.10485 6.02191C9.37755 5.74939 9.42594 5.32466 9.22154 4.99778L6.26996 0.414603C6.04382 0.0526374 5.57952 -0.0779998 5.19782 0.112948L0.459474 2.34453C0.150809 2.49652 -0.0307442 2.82447 0.00430138 3.16674C0.252577 5.52536 1.28085 11.3234 6.97878 17.0218C12.6767 22.7201 18.474 23.748 20.8338 23.9963C21.1761 24.0313 21.504 23.8497 21.656 23.5411L23.8876 18.8027C24.0778 18.4219 23.9481 17.9588 23.5876 17.7323L19.0044 14.7815C18.6777 14.5769 18.253 14.6249 17.9803 14.8974L16.1273 16.7512C15.9471 16.9327 15.6926 17.02 15.4388 16.9874C14.521 16.8707 12.2302 16.3535 9.93947 14.0627Z" fill="black"/>
<path d="M19.0339 12.8283C18.5769 12.8283 18.2064 12.4578 18.2064 12.0007C18.2025 8.57437 15.4258 5.79772 11.9995 5.79384C11.5424 5.79384 11.1719 5.42332 11.1719 4.96626C11.1719 4.50919 11.5424 4.13867 11.9995 4.13867C16.3396 4.14346 19.8567 7.66063 19.8615 12.0007C19.8615 12.4578 19.491 12.8283 19.0339 12.8283Z" fill="black"/>
<path d="M23.1719 12.8276C22.7148 12.8276 22.3443 12.4571 22.3443 12C22.3379 6.28936 17.7101 1.66156 11.9995 1.65517C11.5424 1.65517 11.1719 1.28465 11.1719 0.827586C11.1719 0.370523 11.5424 0 11.9995 0C18.6239 0.0072976 23.9922 5.37561 23.9995 12C23.9995 12.2195 23.9123 12.43 23.7571 12.5852C23.6019 12.7404 23.3914 12.8276 23.1719 12.8276Z" fill="black"/>
</g>
<defs>
<clipPath id="clip0">
<rect width="24" height="24" fill="white"/>
</clipPath>
</defs>
</svg>
