<svg viewBox="0 0 55 63" fill="none" xmlns="http://www.w3.org/2000/svg">
<path d="M27 2H40.5049L46.1785 7.04605L52 12.3437V61H27" stroke="#9CA5A9" stroke-width="4"/>
<path d="M27 2H2V61H27" stroke="#8BBECF" stroke-width="4"/>
<path d="M13.2188 16.3848H27.027V18.3848H13.2188V16.3848Z" fill="#9CA5A9"/>
<path d="M33.9312 46.6543V44.6543H27.4641L26.1641 45.7654L27.4641 46.6543H33.9312Z" fill="#FD7CB7"/>
<path d="M41.6983 37.7695V35.7695H27.5339L26.1641 36.8362L27.5339 37.7695H41.6983Z" fill="#8BBECF"/>
<path d="M41.6983 28.0781V26.0781H27.5339L26.1641 27.0782L27.5339 28.0781H41.6983Z" fill="#9CA5A9"/>
<path d="M20.1211 44.6543H27.8882V46.6543H20.1211V44.6543Z" fill="#9CA5A9"/>
<path d="M13.2188 35.7695H27.89V37.7695H13.2188V35.7695Z" fill="black"/>
<path d="M13.2188 26.0781H27.89V28.0781H13.2188V26.0781Z" fill="black"/>
</svg>
