<svg width="959" height="621" viewBox="0 0 959 621" fill="none" xmlns="http://www.w3.org/2000/svg">
<rect x="3.66016" y="4.08203" width="954.339" height="615.92" fill="white"/>
<path d="M415.943 451.291L406.48 463.341L438.923 573.136L521.38 550.373L561.932 531.628L620.058 515.56L586.264 400.41L415.943 451.291Z" fill="#6F9890"/>
<path d="M88.8186 527.613L18.5273 162.077L520.029 13.4531L532.194 24.1648V37.5544C519.218 54.693 523.183 83.0789 526.787 95.1295L579.506 377.649L405.129 428.53L387.557 423.174L215.884 475.393L88.8186 527.613Z" fill="#9D8C9B" fill-opacity="0.42" stroke="#9CA5A9"/>
<path d="M590.324 159.399L549.771 166.094L565.992 255.804L606.545 249.109L590.324 159.399Z" fill="#A494A3" fill-opacity="0.42"/>
<path d="M590.324 374.971L568.696 266.516L670.077 249.109L679.54 302.668C684.947 308.023 688.101 304.007 689.002 301.329L648.449 57.6385L717.389 37.5542L729.555 79.0619L743.072 160.738C747.398 165.023 750.281 161.631 751.183 159.399L736.313 77.7229L725.499 34.8763L737.665 30.8594L757.941 146.01L776.866 159.399L799.846 160.738L810.66 219.652L799.846 220.991L802.549 229.025L833.64 225.008L851.213 230.364L862.027 243.754L875.544 290.617L590.324 374.971Z" fill="#A494A3" fill-opacity="0.42"/>
<path d="M548.419 158.06L536.254 84.4177L560.585 83.0787L638.987 58.9775L668.726 239.737L614.655 249.109C609.699 221.884 599.516 165.558 598.434 158.06C597.353 150.562 591.676 149.58 588.972 150.027L548.419 158.06Z" fill="#A494A3" fill-opacity="0.42"/>
<path d="M536.254 73.706C535.352 69.2428 535.172 56.5674 541.661 41.5711C548.149 26.5747 553.824 7.65081 555.175 2.7413H648.449H799.846L655.205 42.91L582.21 64.3333C572.75 67.4576 550.314 73.706 536.254 73.706Z" fill="#A494A3" fill-opacity="0.42"/>
<path d="M102.337 618.662L94.2266 573.137C189.39 524.935 251.931 505.743 271.306 502.172L291.583 618.662H102.337Z" fill="#A494A3" fill-opacity="0.42"/>
<path d="M301.045 618.662L279.417 498.155L392.964 466.02L437.572 618.662H301.045Z" fill="#A494A3" fill-opacity="0.42"/>
<path d="M449.738 618.662L441.628 586.527L525.436 563.764L563.286 546.358L625.466 527.612C639.525 557.605 683.592 600.809 703.868 618.662H449.738Z" fill="#A494A3" fill-opacity="0.42"/>
<path d="M611.949 453.97L595.728 397.734L883.652 312.04L920.149 440.58L951.239 490.122L880.948 510.206L860.672 492.8C830.392 477.803 811.107 502.619 805.25 516.901L766.049 527.612L736.31 531.629L688.999 563.764V567.781L680.888 571.798C659.26 551.446 647.545 532.076 644.391 524.935H636.28L616.004 462.004L687.647 440.58L684.944 432.547L611.949 453.97Z" fill="#A494A3" fill-opacity="0.42"/>
<path d="M693.054 571.798L684.944 575.815L720.089 587.866L730.903 577.154C738.473 569.656 739.464 557.07 739.014 551.714L736.31 541.002L695.758 571.798H693.054Z" fill="#A494A3" fill-opacity="0.42"/>
<path d="M718.737 590.543L679.537 578.493L718.737 618.662H739.014L737.662 607.95L718.737 590.543Z" fill="#A494A3" fill-opacity="0.42"/>
<path d="M743.069 547.697C747.395 561.622 738.563 575.815 733.607 581.171L724.624 590.069L743.069 605.272L744.421 618.662H902.576L876.893 518.24L862.023 506.189C839.314 484.766 817.416 509.76 809.305 524.935L795.787 528.951L810.657 582.51C808.494 587.866 803.447 586.527 801.195 585.188L784.973 530.29L740.366 538.324L743.069 547.697Z" fill="#A494A3" fill-opacity="0.42"/>
<path d="M912.038 618.662L886.355 518.24L953.943 498.155L957.998 510.206V618.662H912.038Z" fill="#A494A3" fill-opacity="0.42"/>
<path d="M761.994 141.993L741.717 29.5204L836.34 1.40234L957.998 2.7413V266.516L886.355 287.939L871.486 238.398L857.968 222.33L833.64 215.635L816.064 218.313L803.898 154.043L776.866 152.704L761.994 141.993Z" fill="#A494A3" fill-opacity="0.42"/>
<path d="M891.762 309.362L957.998 290.617V483.427L928.26 435.224L891.762 309.362Z" fill="#A494A3" fill-opacity="0.42"/>
<path d="M648.449 2.7413H555.175C553.824 7.65081 548.149 26.5747 541.661 41.5711C535.172 56.5674 535.352 69.2428 536.254 73.706C550.314 73.706 572.75 67.4576 582.21 64.3333L655.205 42.91M648.449 2.7413L655.205 42.91M648.449 2.7413H799.846L655.205 42.91M724.144 590.543L724.624 590.069M724.624 590.069L733.607 581.171C738.563 575.815 747.395 561.622 743.069 547.697L740.366 538.324L784.973 530.29L801.195 585.188C803.447 586.527 808.494 587.866 810.657 582.51L795.787 528.951L809.305 524.935C817.416 509.76 839.314 484.766 862.023 506.189L876.893 518.24L902.576 618.662H744.421L743.069 605.272L724.624 590.069ZM549.771 166.094L590.324 159.399L606.545 249.109L565.992 255.804L549.771 166.094ZM568.696 266.516L590.324 374.971L875.544 290.617L862.027 243.754L851.213 230.364L833.64 225.008L802.549 229.025L799.846 220.991L810.66 219.652L799.846 160.738L776.866 159.399L757.941 146.01L737.665 30.8594L725.499 34.8763L736.313 77.7229L751.183 159.399C750.281 161.631 747.398 165.023 743.072 160.738L729.555 79.0619L717.389 37.5542L648.449 57.6385L689.002 301.329C688.101 304.007 684.947 308.024 679.54 302.668L670.077 249.109L568.696 266.516ZM536.254 84.4177L548.419 158.06L588.972 150.027C591.676 149.58 597.353 150.562 598.434 158.06C599.516 165.558 609.699 221.884 614.655 249.109L668.726 239.737L638.987 58.9775L560.585 83.0787L536.254 84.4177ZM94.2266 573.137L102.337 618.662H291.583L271.306 502.172C251.931 505.743 189.39 524.935 94.2266 573.137ZM279.417 498.155L301.045 618.662H437.572L392.964 466.02L279.417 498.155ZM441.628 586.527L449.738 618.662H703.868C683.592 600.809 639.525 557.605 625.466 527.612L563.286 546.358L525.436 563.764L441.628 586.527ZM595.728 397.734L611.949 453.97L684.944 432.546L687.647 440.58L616.004 462.004L636.28 524.935H644.391C647.545 532.076 659.26 551.446 680.888 571.798L688.999 567.781V563.764L736.31 531.629L766.049 527.612L805.25 516.901C811.107 502.619 830.392 477.803 860.672 492.8L880.948 510.206L951.239 490.122L920.149 440.58L883.652 312.04L595.728 397.734ZM684.944 575.815L693.054 571.798H695.758L736.31 541.002L739.014 551.714C739.464 557.07 738.473 569.656 730.903 577.154C723.333 584.652 720.54 587.419 720.089 587.866L684.944 575.815ZM679.537 578.493L718.737 590.543L737.662 607.95L739.014 618.662H718.737L679.537 578.493ZM886.355 518.24L912.038 618.662H957.998V510.206L953.943 498.155L886.355 518.24ZM741.717 29.5204L761.994 141.993L776.866 152.704L803.898 154.043L816.064 218.313L833.64 215.635L857.968 222.33L871.486 238.398L886.355 287.939L957.998 266.516V2.7413L836.34 1.40234L741.717 29.5204ZM957.998 290.617L891.762 309.362L928.259 435.224L957.998 483.427V290.617Z" stroke="#9CA5A9"/>
<path d="M148.298 101.824L488.941 1.40234L0.957031 2.7413V50.9437L18.5299 148.688L130.726 113.875L140.188 104.502L109.097 13.453L128.022 6.75817L130.726 14.7919L119.912 18.8088L148.298 101.824Z" fill="#A494A3" fill-opacity="0.42"/>
<path d="M57.7308 617.323L52.3237 590.543L2.30879 610.628V617.323H57.7308Z" fill="#A494A3" fill-opacity="0.42"/>
<path d="M45.565 550.375L2.30879 566.442V440.58L27.9921 433.885L45.565 550.375Z" fill="#A494A3" fill-opacity="0.42"/>
<path d="M73.9518 583.849L80.7106 617.322M488.941 1.40234L148.298 101.824L119.912 18.8088L130.726 14.7919L128.022 6.75817L109.097 13.453L140.188 104.502L130.726 113.875L18.5299 148.688L0.957031 50.9437V2.7413L488.941 1.40234ZM52.3237 590.543L57.7308 617.322H2.30879V610.628L52.3237 590.543ZM2.30879 566.442L45.565 550.375L27.9921 433.885L2.30879 440.58V566.442Z" stroke="#9CA5A9"/>
<path d="M26.648 424.515L2.31641 431.21V362.923L14.4822 358.906L26.648 424.515Z" fill="#A494A3" fill-opacity="0.42" stroke="#9CA5A9"/>
<path d="M488.81 425.283L463.32 410.66H488.81V425.283Z" fill="#6F9890"/>
<path d="M183 345H488.878V410.802H442.45H183V345Z" fill="#6F9890"/>
<path fill-rule="evenodd" clip-rule="evenodd" d="M222.956 353.449C233.302 354.257 241.844 362.689 242.794 373.089C243.807 384.217 235.867 395.1 223.52 396.067C210.343 397.094 199.331 385.946 200.351 372.811C201.32 360.437 212.078 352.601 222.956 353.449Z" fill="#DFD3C1"/>
<path d="M237.568 371.189C237.461 368.164 236.813 364.755 234.771 362.968C233.019 361.436 230.891 361.397 228.474 361.982C224.403 362.968 223.38 363.955 220.248 363.297L214.078 361.982C217.329 362.47 214.169 362 214.078 361.982C211.885 361.653 210.508 361.524 208.753 362.968C206.721 364.641 205.721 368.111 205.621 371.189C205.621 371.097 205.621 371.294 205.621 371.189C205.621 371.071 205.621 371.301 205.621 371.189C205.621 375.542 207.191 377.573 208.753 381.001C210.006 383.75 210.01 384.34 210.006 388.774C210 394.929 211.591 398.776 212.512 400.427C213.47 402.111 214.704 403.413 215.957 403.741C217.21 403.741 219.089 403.084 219.089 396.836C219.089 390.918 220.342 389.931 220.342 389.931C220.968 389.274 221.72 389.274 221.72 389.274C221.72 389.274 222.534 389.274 223.161 389.931C223.161 389.931 224.413 390.918 224.413 396.836C224.413 402.755 226.806 404.07 227.859 403.741C229.059 403.366 230.258 402.275 231.304 400.427C232.218 398.796 233.183 394.872 233.183 388.774C233.183 384.999 233.073 383.75 234.326 381.001C235.579 378.252 237.568 375.726 237.568 371.189C237.555 371.051 237.574 371.327 237.568 371.189ZM220.943 370.715C220.968 370.36 221.244 370.084 221.557 370.084H221.876C222.183 370.084 222.459 370.36 222.484 370.715L223.186 376.897H220.248L220.943 370.715ZM226.806 383.75C226.625 383.94 225.209 385.42 225.209 385.42H226.111C226.111 385.42 226.625 385.341 226.625 385.9C226.625 386.466 226.618 387.294 226.618 387.294C226.618 387.294 226.668 387.695 226.13 387.695C225.591 387.695 221.72 387.695 221.72 387.695C221.72 387.695 217.849 387.695 217.316 387.695C216.777 387.695 216.828 387.294 216.828 387.294C216.828 387.294 216.815 386.466 216.815 385.9C216.815 385.334 217.335 385.42 217.335 385.42H218.237C218.237 385.42 216.828 383.94 216.646 383.75C216.452 383.552 216.471 383.342 216.471 383.342V383.072C216.471 383.072 216.458 382.849 216.646 382.651C216.828 382.467 218.25 381.001 218.25 381.001C218.25 381.001 218.25 380.35 218.25 379.337C218.25 378.324 218.982 378.068 219.734 378.068C220.486 378.068 221.732 378.068 221.732 378.068C221.732 378.068 222.973 378.068 223.718 378.068C224.476 378.068 225.203 378.331 225.203 379.337C225.203 380.35 225.203 381.001 225.203 381.001C225.203 381.001 226.631 382.461 226.806 382.651C226.994 382.849 226.982 383.072 226.982 383.072V383.342C226.969 383.342 226.994 383.552 226.806 383.75Z" fill="white"/>
<path fill-rule="evenodd" clip-rule="evenodd" d="M492.693 432.752C498.801 433.179 503.844 437.639 504.405 443.139C505.003 449.025 500.315 454.781 493.026 455.292C485.246 455.835 478.745 449.939 479.347 442.992C479.919 436.448 486.271 432.303 492.693 432.752Z" fill="#DFD3C1"/>
<path d="M501.314 442.132C501.251 440.532 500.868 438.729 499.663 437.785C498.629 436.974 497.372 436.953 495.945 437.263C493.541 437.785 492.938 438.306 491.088 437.958L487.446 437.263C489.366 437.521 487.499 437.272 487.446 437.263C486.151 437.089 485.339 437.02 484.302 437.785C483.103 438.669 482.512 440.505 482.453 442.132C482.453 442.084 482.453 442.188 482.453 442.132C482.453 442.07 482.453 442.191 482.453 442.132C482.453 444.435 483.38 445.509 484.302 447.322C485.042 448.776 485.045 449.088 485.042 451.433C485.038 454.689 485.978 456.723 486.521 457.596C487.087 458.487 487.816 459.175 488.555 459.349C489.295 459.349 490.404 459.001 490.404 455.697C490.404 452.567 491.144 452.045 491.144 452.045C491.514 451.697 491.958 451.697 491.958 451.697C491.958 451.697 492.438 451.697 492.808 452.045C492.808 452.045 493.548 452.567 493.548 455.697C493.548 458.828 494.96 459.523 495.582 459.349C496.291 459.151 496.998 458.574 497.616 457.596C498.156 456.734 498.725 454.658 498.725 451.433C498.725 449.436 498.66 448.776 499.4 447.322C500.14 445.868 501.314 444.532 501.314 442.132C501.307 442.059 501.318 442.205 501.314 442.132ZM491.499 441.882C491.514 441.694 491.676 441.548 491.861 441.548H492.05C492.231 441.548 492.394 441.694 492.409 441.882L492.823 445.151H491.088L491.499 441.882ZM494.96 448.776C494.853 448.876 494.017 449.659 494.017 449.659H494.55C494.55 449.659 494.853 449.617 494.853 449.913C494.853 450.212 494.85 450.65 494.85 450.65C494.85 450.65 494.879 450.863 494.561 450.863C494.243 450.863 491.958 450.863 491.958 450.863C491.958 450.863 489.672 450.863 489.358 450.863C489.04 450.863 489.069 450.65 489.069 450.65C489.069 450.65 489.062 450.212 489.062 449.913C489.062 449.614 489.369 449.659 489.369 449.659H489.901C489.901 449.659 489.069 448.876 488.962 448.776C488.847 448.671 488.858 448.56 488.858 448.56V448.417C488.858 448.417 488.851 448.299 488.962 448.195C489.069 448.097 489.909 447.322 489.909 447.322C489.909 447.322 489.909 446.977 489.909 446.442C489.909 445.906 490.341 445.77 490.785 445.77C491.229 445.77 491.965 445.77 491.965 445.77C491.965 445.77 492.697 445.77 493.137 445.77C493.585 445.77 494.014 445.91 494.014 446.442C494.014 446.977 494.014 447.322 494.014 447.322C494.014 447.322 494.857 448.094 494.96 448.195C495.071 448.299 495.064 448.417 495.064 448.417V448.56C495.057 448.56 495.071 448.671 494.96 448.776Z" fill="white"/>
<path d="M260.525 380.313C256.069 380.313 252.769 376.772 252.769 371.918C252.769 367.126 256.011 363.524 260.387 363.524C263.018 363.524 265.01 364.631 266.42 366.546L267.801 365.501C266.114 363.181 263.592 361.815 260.408 361.815C255.066 361.815 250.879 366.058 250.879 371.918C250.85 377.787 255.059 382.022 260.459 382.022C263.839 382.022 266.471 380.625 268.324 378.077L266.914 377.031C265.424 379.122 263.236 380.313 260.525 380.313ZM283.799 373.605H273.529V362.051H271.726V381.793H273.529V375.291H283.799V381.793H285.602V362.051H283.799V373.605ZM302.291 369.484C302.291 365.218 299.631 362.051 294.506 362.051H290.407V381.793H292.209V376.856H294.506C295.059 376.856 295.56 376.825 296.054 376.741L299.791 381.793H301.978L297.879 376.306C300.794 375.23 302.291 372.651 302.291 369.484ZM294.397 375.207H292.209V363.738H294.397C298.664 363.738 300.408 366.18 300.408 369.484C300.408 372.788 298.693 375.207 294.397 375.207ZM314.612 361.822C309.269 361.822 304.944 366.088 304.944 371.926C304.944 377.764 309.262 382.029 314.612 382.029C319.954 382.029 324.279 377.764 324.279 371.926C324.272 366.088 319.954 361.822 314.612 361.822ZM314.612 380.313C310.127 380.313 306.827 376.711 306.827 371.918C306.827 367.126 310.12 363.524 314.612 363.524C319.104 363.524 322.396 367.126 322.396 371.918C322.389 376.718 319.096 380.313 314.612 380.313ZM343.563 361.647L336.389 375.093L329.244 361.647H329.106L326.998 381.801H328.684L330.232 366.729L336.294 378.283H336.374L342.466 366.729L344.014 381.801H345.787L343.679 361.647H343.563ZM356.545 361.586L348.622 381.793H350.425L351.755 378.367H361.473L362.774 381.793H364.628L356.683 361.586H356.545ZM352.387 376.688L356.625 365.737C356.625 365.737 360.834 376.688 360.805 376.688H352.387ZM377.61 362.051H372.9V381.793H377.61C383.868 381.793 387.554 377.756 387.554 371.918C387.546 366.088 383.839 362.051 377.61 362.051ZM377.443 380.084H374.703V363.768H377.443C383.011 363.768 385.664 367.134 385.664 371.926C385.664 376.718 383.003 380.084 377.443 380.084ZM392.998 375.261H401.524V373.605H392.998V363.73H402.549V362.044H391.195V381.785H402.934V380.099H392.991V375.261H392.998ZM419.602 377.588L406.918 361.647H406.751V381.801H408.437V366.264L421.121 382.205H421.288V362.051H419.602V377.588ZM437.839 362.051H424.385V363.738H430.229V381.801H432.031V363.738H437.846V362.051H437.839ZM444.926 361.586L437.003 381.793H438.806L440.136 378.367H449.854L451.155 381.793H453.009L445.064 361.586H444.926ZM440.776 376.688L445.013 365.737C445.013 365.737 449.222 376.688 449.193 376.688H440.776ZM458.046 380.114V362.051H456.244V381.793H466.791V380.106H458.046V380.114Z" fill="white"/>
<path d="M348.708 388.847L348.003 388.496C346.942 387.97 346.462 387.649 346.462 386.779C346.462 385.97 347.036 385.398 347.901 385.398C348.693 385.398 349.231 385.718 349.631 386.405L350.271 385.978C349.733 385.062 348.977 384.635 347.887 384.635C346.607 384.635 345.641 385.505 345.641 386.81C345.641 388.084 346.396 388.679 347.654 389.29L348.359 389.641C349.413 390.152 350.002 390.61 350.002 391.617C350.002 392.571 349.297 393.189 348.105 393.189C347.08 393.189 346.28 392.663 345.822 391.755L345.117 392.144C345.684 393.258 346.695 393.983 348.119 393.983C349.747 393.983 350.838 393.098 350.838 391.594C350.838 390.221 350.104 389.549 348.708 388.847ZM360.062 384.559L356.74 390.77L353.433 384.559H353.367L352.393 393.876H353.178L353.898 386.909L356.704 392.251H356.74L359.56 386.909L360.28 393.876H361.101L360.127 384.559H360.062ZM363.187 393.868H364.031V384.742H363.187V393.868ZM367.149 384.742H366.313V393.868H371.198V393.09H367.142V384.742H367.149ZM373.582 390.854H377.529V390.091H373.582V385.528H378.008V384.749H372.753V393.876H378.19V393.098H373.589V390.854H373.582ZM380.211 392.693C379.906 392.693 379.608 392.96 379.608 393.327C379.608 393.685 379.906 393.96 380.211 393.96C380.531 393.96 380.814 393.693 380.814 393.327C380.814 392.96 380.531 392.693 380.211 392.693ZM380.574 391.427L380.661 384.742H379.775L379.862 391.427H380.574ZM387.414 393.868H388.257V384.742H387.414V393.868ZM389.747 385.52H392.451V393.868H393.287V385.52H395.984V384.742H389.755V385.52H389.747ZM402.591 388.847L401.886 388.496C400.825 387.97 400.345 387.649 400.345 386.779C400.345 385.97 400.92 385.398 401.785 385.398C402.577 385.398 403.115 385.718 403.514 386.405L404.154 385.978C403.616 385.062 402.86 384.635 401.77 384.635C400.491 384.635 399.524 385.505 399.524 386.81C399.524 388.084 400.28 388.679 401.537 389.29L402.242 389.641C403.296 390.152 403.885 390.61 403.885 391.617C403.885 392.571 403.18 393.189 401.988 393.189C400.963 393.189 400.164 392.663 399.706 391.755L399.001 392.144C399.568 393.258 400.578 393.983 402.003 393.983C403.631 393.983 404.721 393.098 404.721 391.594C404.721 390.221 403.994 389.549 402.591 388.847ZM411.735 390.702C411.735 392.35 410.863 393.182 409.489 393.182C408.13 393.182 407.243 392.35 407.243 390.702V384.742H406.407V390.77C406.407 392.892 407.73 393.975 409.482 393.975C411.241 393.975 412.557 392.892 412.557 390.77V384.742H411.721V390.702H411.735ZM414.781 393.868H415.624V384.742H414.781V393.868ZM417.114 385.52H419.818V393.868H420.654V385.52H423.351V384.742H417.122V385.52H417.114ZM427.625 388.847L426.92 388.496C425.859 387.97 425.379 387.649 425.379 386.779C425.379 385.97 425.953 385.398 426.818 385.398C427.61 385.398 428.148 385.718 428.548 386.405L429.188 385.978C428.65 385.062 427.894 384.635 426.804 384.635C425.524 384.635 424.558 385.505 424.558 386.81C424.558 388.084 425.314 388.679 426.571 389.29L427.276 389.641C428.33 390.152 428.919 390.61 428.919 391.617C428.919 392.571 428.214 393.189 427.022 393.189C425.997 393.189 425.197 392.663 424.739 391.755L424.034 392.144C424.601 393.258 425.612 393.983 427.036 393.983C428.664 393.983 429.755 393.098 429.755 391.594C429.755 390.221 429.028 389.549 427.625 388.847ZM436.805 390.129L434 384.749H433.077L436.369 391.014V393.876H437.213V391.014L440.469 384.749H439.597L436.805 390.129ZM445.819 384.635C443.34 384.635 441.341 386.611 441.341 389.305C441.341 391.999 443.34 393.975 445.819 393.975C448.297 393.975 450.296 391.999 450.296 389.305C450.296 386.611 448.29 384.635 445.819 384.635ZM445.819 393.189C443.74 393.189 442.213 391.526 442.213 389.313C442.213 387.1 443.74 385.436 445.819 385.436C447.898 385.436 449.424 387.1 449.424 389.313C449.424 391.526 447.898 393.189 445.819 393.189ZM457.202 384.742V390.702C457.202 392.35 456.329 393.182 454.956 393.182C453.596 393.182 452.71 392.35 452.71 390.702V384.742H451.881V390.77C451.881 392.892 453.204 393.975 454.956 393.975C456.715 393.975 458.03 392.892 458.03 390.77V384.742H457.202Z" fill="white"/>
<path d="M37.3646 354.494C37.3075 355.082 37.1006 355.573 36.7439 355.968C36.3964 356.361 35.9101 356.613 35.2851 356.724C34.4488 356.872 33.7494 356.668 33.1869 356.114C32.626 355.569 32.2391 354.694 32.0262 353.49L31.212 348.885L40.8623 347.179L41.6278 351.508C41.8228 352.611 41.7525 353.5 41.417 354.175C41.0831 354.86 40.5256 355.271 39.7444 355.409C39.2389 355.499 38.7812 355.456 38.3713 355.282C37.963 355.118 37.6275 354.855 37.3646 354.494ZM39.9894 348.755L36.9013 349.301L37.4011 352.127C37.5262 352.835 37.7508 353.354 38.0747 353.686C38.4095 354.025 38.8297 354.149 39.3352 354.06C39.8406 353.971 40.1879 353.71 40.377 353.279C40.5769 352.855 40.6143 352.289 40.4892 351.581L39.9894 348.755ZM33.1332 353.237C33.2713 354.018 33.504 354.584 33.8312 354.934C34.1584 355.283 34.5978 355.409 35.1492 355.312C36.2245 355.122 36.6232 354.241 36.3453 352.669L35.7846 349.498L32.5725 350.066L33.1332 353.237ZM40.869 360.483C41.0477 361.494 40.9361 362.31 40.5341 362.93C40.1336 363.56 39.4417 363.962 38.4583 364.136L34.0468 364.916L33.8249 363.662L34.7899 363.491C34.4109 363.331 34.0929 363.06 33.8359 362.679C33.5898 362.305 33.4172 361.838 33.318 361.278C33.1734 360.46 33.2548 359.768 33.5622 359.201C33.8713 358.644 34.3475 358.309 34.9909 358.195C35.6342 358.081 36.1903 358.225 36.6592 358.625C37.1373 359.024 37.4666 359.734 37.647 360.754L38.0175 362.849L38.2794 362.803C38.8493 362.702 39.2566 362.46 39.5014 362.075C39.7461 361.691 39.8117 361.177 39.6979 360.533C39.6215 360.101 39.4732 359.692 39.253 359.304C39.042 358.915 38.7919 358.599 38.5025 358.356L39.3976 357.629C39.7676 357.952 40.077 358.362 40.3258 358.858C40.5839 359.353 40.7649 359.894 40.869 360.483ZM34.3772 361.318C34.4666 361.823 34.6541 362.24 34.9397 362.569C35.2344 362.896 35.6032 363.106 36.0461 363.198L37.0663 363.018L36.7055 360.977C36.5072 359.856 36.0312 359.362 35.2776 359.495C34.91 359.56 34.6456 359.754 34.4846 360.076C34.3236 360.398 34.2878 360.812 34.3772 361.318ZM42.906 372.405L34.2422 370.283C33.4425 370.102 32.8536 369.827 32.4755 369.458C32.0991 369.098 31.8589 368.624 31.7549 368.036C31.6915 367.677 31.6895 367.317 31.7488 366.956C31.8006 366.606 31.9173 366.301 32.0989 366.041L33.1914 366.431C32.8996 366.871 32.7976 367.339 32.8853 367.836C32.9422 368.157 33.0767 368.408 33.2887 368.589C33.4931 368.78 33.8176 368.927 34.262 369.028L34.8135 369.172L41.536 364.657L41.7797 366.035L36.3854 369.619L42.6768 371.109L42.906 372.405ZM44.2487 379.998L36.3765 378.091L36.1376 376.74L42.8786 372.25L43.1224 373.629L37.707 377.174L44.0195 378.702L44.2487 379.998ZM44.4671 381.233L44.7011 382.556L37.3945 383.848L37.1604 382.525L44.4671 381.233ZM45.9903 381.646C45.9448 381.389 45.9893 381.158 46.1239 380.954C46.26 380.759 46.4476 380.641 46.6866 380.599C46.9255 380.556 47.1423 380.603 47.337 380.74C47.5425 380.883 47.668 381.084 47.7135 381.341C47.7591 381.599 47.7137 381.825 47.5775 382.019C47.4522 382.221 47.27 382.344 47.031 382.386C46.7829 382.43 46.5561 382.38 46.3506 382.236C46.1559 382.1 46.0358 381.903 45.9903 381.646ZM42.621 392.34C42.5199 392.358 42.385 392.372 42.2163 392.383L41.168 386.455C40.5393 386.652 40.0696 387.024 39.7589 387.572C39.459 388.127 39.3725 388.763 39.4992 389.48C39.6536 390.353 40.0721 391.004 40.7545 391.433L40.029 392.315C39.5845 392.052 39.2172 391.691 38.9273 391.23C38.639 390.779 38.4412 390.25 38.3339 389.643C38.1974 388.871 38.2325 388.159 38.4394 387.506C38.6554 386.852 39.0191 386.309 39.5304 385.878C40.0434 385.455 40.6583 385.181 41.3752 385.054C42.0829 384.929 42.7492 384.972 43.3743 385.184C44.001 385.405 44.5194 385.763 44.9294 386.259C45.3502 386.763 45.6224 387.364 45.7459 388.063C45.8694 388.761 45.8182 389.41 45.5925 390.009C45.3775 390.616 45.0119 391.121 44.4957 391.525C43.9811 391.938 43.3562 392.21 42.621 392.34ZM44.6292 388.26C44.5171 387.626 44.2298 387.127 43.7674 386.763C43.3066 386.409 42.7573 386.25 42.1193 386.287L42.9481 390.974C43.5509 390.792 44.0071 390.451 44.3167 389.95C44.6372 389.458 44.7413 388.894 44.6292 388.26ZM48.5719 404.446L40.7826 403.009L40.5583 401.74L45.7273 398.651L39.8075 397.494L39.5832 396.226L46.4096 392.218L46.6314 393.473L41.1891 396.624L47.3969 397.802L47.5943 398.918L42.1318 402.116L48.3622 403.261L48.5719 404.446ZM45.6913 416.699L44.7845 411.57L42.1842 410.935L41.9331 409.515L52.3562 412.179L52.5975 413.544L43.7224 419.634L43.4665 418.187L45.6913 416.699ZM46.7089 416.021L51.0694 413.103L45.9727 411.858L46.7089 416.021ZM52.3262 425.678L44.454 423.771L44.2151 422.42L50.9561 417.93L51.1999 419.309L45.7845 422.854L52.097 424.382L52.3262 425.678ZM49.9819 433.968C49.8808 433.986 49.7459 434 49.5772 434.011L48.529 428.083C47.9002 428.279 47.4305 428.651 47.1198 429.199C46.82 429.755 46.7334 430.391 46.8602 431.108C47.0146 431.981 47.433 432.632 48.1155 433.061L47.3899 433.943C46.9454 433.68 46.5782 433.319 46.2882 432.858C45.9999 432.407 45.8021 431.878 45.6948 431.271C45.5583 430.499 45.5935 429.787 45.8003 429.134C46.0164 428.48 46.38 427.937 46.8914 427.505C47.4043 427.083 48.0192 426.808 48.7361 426.681C49.4438 426.556 50.1102 426.6 50.7352 426.811C51.362 427.032 51.8803 427.391 52.2903 427.887C52.7111 428.391 52.9833 428.992 53.1068 429.69C53.2303 430.389 53.1792 431.038 52.9534 431.637C52.7384 432.243 52.3728 432.749 51.8566 433.153C51.3421 433.566 50.7171 433.838 49.9819 433.968ZM51.9901 429.888C51.878 429.254 51.5907 428.755 51.1283 428.391C50.6675 428.036 50.1182 427.878 49.4802 427.915L50.309 432.602C50.9118 432.42 51.368 432.078 51.6777 431.578C51.9981 431.085 52.1023 430.522 51.9901 429.888Z" fill="black"/>
<circle cx="710.5" cy="456.5" r="17" stroke="white" stroke-width="11"/>
<circle cx="809" cy="200" r="17.5" stroke="white" stroke-width="11"/>
<path d="M521.71 410.9C521 411.096 520.281 411.178 519.556 411.145C518.837 411.101 518.241 410.956 517.766 410.709L517.975 409.519C518.424 409.744 518.956 409.883 519.571 409.936C520.193 409.977 520.8 409.916 521.394 409.753C522.177 409.537 522.726 409.245 523.041 408.878C523.353 408.501 523.449 408.092 523.327 407.651C523.238 407.327 523.058 407.096 522.787 406.958C522.523 406.808 522.219 406.722 521.874 406.701C521.539 406.678 521.069 406.676 520.465 406.698C519.707 406.723 519.084 406.711 518.596 406.661C518.117 406.609 517.671 406.451 517.26 406.187C516.855 405.912 516.569 405.473 516.403 404.87C516.264 404.366 516.269 403.876 516.418 403.399C516.577 402.919 516.892 402.484 517.365 402.092C517.838 401.7 518.475 401.394 519.275 401.173C519.833 401.019 520.402 400.94 520.982 400.935C521.561 400.93 522.082 401.009 522.543 401.173L522.395 402.375C521.93 402.232 521.455 402.16 520.97 402.158C520.483 402.147 520.024 402.201 519.592 402.32C518.827 402.531 518.29 402.829 517.98 403.215C517.679 403.598 517.589 404.01 517.71 404.451C517.8 404.775 517.981 405.011 518.254 405.158C518.524 405.296 518.833 405.381 519.18 405.411C519.534 405.43 520.003 405.426 520.586 405.401C521.344 405.376 521.963 405.389 522.442 405.441C522.921 405.493 523.362 405.652 523.764 405.919C524.176 406.183 524.464 406.612 524.627 407.206C524.764 407.701 524.754 408.192 524.598 408.68C524.44 409.16 524.12 409.597 523.638 409.991C523.154 410.376 522.511 410.679 521.71 410.9ZM528.95 401.018C529.858 400.768 530.651 400.835 531.329 401.219C532.012 401.592 532.494 402.287 532.775 403.304L533.91 407.42L532.614 407.777L531.52 403.809C531.329 403.117 531.019 402.641 530.589 402.382C530.159 402.122 529.634 402.078 529.013 402.25C528.311 402.443 527.815 402.803 527.524 403.328C527.231 403.845 527.19 404.485 527.401 405.25L528.417 408.935L527.121 409.292L524.36 399.278L525.655 398.92L526.723 402.794C526.899 402.378 527.177 402.015 527.557 401.707C527.945 401.397 528.41 401.167 528.95 401.018ZM541.837 401.43C541.864 401.529 541.891 401.662 541.918 401.829L536.114 403.429C536.369 404.036 536.783 404.469 537.358 404.727C537.939 404.973 538.581 405 539.282 404.806C540.137 404.57 540.746 404.093 541.109 403.373L542.055 404.013C541.835 404.48 541.51 404.879 541.079 405.211C540.656 405.541 540.148 405.787 539.554 405.951C538.799 406.159 538.086 406.191 537.417 406.047C536.745 405.893 536.171 405.582 535.693 405.113C535.224 404.642 534.893 404.056 534.7 403.354C534.509 402.661 534.489 401.994 534.641 401.351C534.802 400.707 535.111 400.157 535.566 399.702C536.028 399.236 536.601 398.909 537.285 398.72C537.969 398.532 538.619 398.522 539.237 398.69C539.861 398.847 540.399 399.164 540.85 399.64C541.309 400.113 541.638 400.71 541.837 401.43ZM537.586 399.813C536.965 399.985 536.496 400.317 536.177 400.812C535.867 401.304 535.761 401.866 535.858 402.497L540.446 401.232C540.208 400.649 539.825 400.227 539.298 399.966C538.778 399.693 538.207 399.642 537.586 399.813ZM546.413 396.204C547.105 396.012 547.768 395.994 548.402 396.149C549.035 396.303 549.58 396.613 550.037 397.078C550.504 397.54 550.836 398.13 551.034 398.85C551.233 399.57 551.251 400.252 551.09 400.897C550.936 401.53 550.626 402.075 550.162 402.533C549.697 402.99 549.119 403.314 548.426 403.505C547.913 403.646 547.413 403.678 546.927 403.599C546.449 403.518 546.01 403.329 545.609 403.033L546.628 406.731L545.333 407.088L542.639 397.317L543.88 396.974L544.193 398.108C544.372 397.633 544.654 397.235 545.041 396.916C545.424 396.587 545.882 396.35 546.413 396.204ZM548.005 402.401C548.464 402.275 548.845 402.058 549.148 401.752C549.457 401.434 549.663 401.058 549.766 400.623C549.875 400.177 549.862 399.706 549.725 399.211C549.589 398.716 549.36 398.31 549.04 397.991C548.727 397.662 548.357 397.444 547.931 397.339C547.514 397.231 547.076 397.24 546.617 397.367C546.167 397.491 545.788 397.712 545.478 398.03C545.175 398.336 544.968 398.707 544.856 399.145C544.754 399.58 544.771 400.045 544.907 400.54C545.043 401.035 545.268 401.447 545.582 401.777C545.893 402.098 546.263 402.315 546.691 402.429C547.117 402.535 547.555 402.525 548.005 402.401ZM555.612 393.667C556.305 393.476 556.968 393.458 557.601 393.612C558.235 393.767 558.78 394.077 559.237 394.541C559.703 395.003 560.036 395.594 560.234 396.314C560.432 397.034 560.451 397.716 560.29 398.361C560.135 398.994 559.826 399.539 559.361 399.996C558.897 400.453 558.318 400.778 557.625 400.969C557.113 401.11 556.613 401.141 556.126 401.062C555.649 400.981 555.21 400.792 554.809 400.496L555.828 404.194L554.532 404.552L551.838 394.78L553.08 394.438L553.393 395.572C553.571 395.096 553.854 394.699 554.24 394.379C554.624 394.051 555.081 393.813 555.612 393.667ZM557.205 399.865C557.664 399.738 558.045 399.522 558.347 399.216C558.657 398.898 558.863 398.522 558.966 398.087C559.075 397.64 559.061 397.17 558.925 396.675C558.788 396.18 558.56 395.773 558.24 395.455C557.926 395.125 557.557 394.908 557.131 394.802C556.714 394.695 556.276 394.704 555.817 394.831C555.367 394.955 554.987 395.175 554.678 395.493C554.375 395.799 554.168 396.171 554.056 396.608C553.953 397.043 553.97 397.508 554.107 398.003C554.243 398.498 554.468 398.91 554.782 399.24C555.093 399.561 555.463 399.779 555.891 399.893C556.317 399.998 556.755 399.989 557.205 399.865ZM563.558 391.476C564.548 391.203 565.371 391.238 566.027 391.58C566.692 391.919 567.157 392.57 567.422 393.533L568.613 397.852L567.385 398.191L567.124 397.246C567 397.638 566.76 397.98 566.405 398.272C566.056 398.552 565.608 398.768 565.059 398.919C564.258 399.14 563.561 399.124 562.969 398.871C562.385 398.616 562.007 398.173 561.833 397.543C561.659 396.913 561.75 396.346 562.104 395.842C562.457 395.328 563.132 394.934 564.131 394.659L566.182 394.093L566.112 393.836C565.958 393.279 565.678 392.896 565.272 392.688C564.866 392.481 564.349 392.464 563.719 392.637C563.296 392.754 562.902 392.94 562.537 393.196C562.169 393.442 561.878 393.721 561.663 394.032L560.856 393.209C561.143 392.81 561.522 392.464 561.992 392.169C562.461 391.866 562.983 391.635 563.558 391.476ZM564.999 397.861C565.494 397.724 565.892 397.499 566.192 397.183C566.49 396.859 566.664 396.472 566.714 396.023L566.439 395.024L564.442 395.575C563.344 395.878 562.897 396.398 563.1 397.136C563.199 397.495 563.417 397.74 563.753 397.87C564.089 398.001 564.504 397.997 564.999 397.861ZM570.611 390.897C570.722 390.421 570.968 390.014 571.35 389.677C571.731 389.339 572.236 389.084 572.866 388.91L573.212 390.165C573.138 390.176 573.038 390.199 572.912 390.233C572.21 390.427 571.715 390.791 571.427 391.325C571.145 391.849 571.111 392.497 571.324 393.271L572.306 396.834L571.011 397.191L569.038 390.038L570.28 389.696L570.611 390.897ZM580.375 383.833L583.136 393.848L581.895 394.19L581.582 393.056C581.403 393.532 581.122 393.934 580.738 394.262C580.354 394.591 579.897 394.828 579.366 394.974C578.673 395.165 578.01 395.184 577.377 395.029C576.744 394.874 576.194 394.566 575.728 394.104C575.268 393.631 574.939 393.034 574.741 392.314C574.542 391.594 574.52 390.918 574.675 390.285C574.838 389.649 575.153 389.102 575.617 388.645C576.082 388.188 576.66 387.864 577.353 387.673C577.866 387.531 578.366 387.5 578.852 387.579C579.336 387.649 579.774 387.833 580.166 388.132L579.08 384.191L580.375 383.833ZM579.162 393.811C579.611 393.687 579.992 393.471 580.304 393.162C580.613 392.844 580.82 392.468 580.922 392.033C581.023 391.589 581.004 391.12 580.868 390.625C580.732 390.13 580.508 389.722 580.197 389.401C579.883 389.071 579.513 388.854 579.087 388.749C578.661 388.643 578.223 388.653 577.774 388.777C577.315 388.903 576.929 389.121 576.617 389.43C576.315 389.736 576.109 390.112 575.999 390.558C575.897 390.993 575.913 391.458 576.05 391.953C576.186 392.448 576.411 392.86 576.725 393.19C577.045 393.509 577.415 393.726 577.834 393.843C578.26 393.948 578.703 393.937 579.162 393.811ZM594.769 388.099L589.749 389.483L589.361 392.132L587.971 392.515L589.644 381.888L590.98 381.519L597.877 389.784L596.46 390.174L594.769 388.099ZM593.999 387.149L590.685 383.082L589.923 388.273L593.999 387.149ZM603.086 380.651L601.927 388.667L600.604 389.032L595.501 382.742L596.851 382.37L600.888 387.428L601.817 381L603.086 380.651ZM611.559 382.206C611.587 382.305 611.614 382.438 611.64 382.605L605.837 384.205C606.092 384.813 606.506 385.245 607.081 385.503C607.662 385.75 608.303 385.776 609.005 385.583C609.86 385.347 610.469 384.869 610.832 384.15L611.778 384.789C611.558 385.256 611.233 385.656 610.801 385.988C610.379 386.317 609.871 386.564 609.277 386.728C608.521 386.936 607.809 386.968 607.14 386.823C606.468 386.669 605.893 386.358 605.416 385.89C604.947 385.419 604.616 384.832 604.422 384.131C604.231 383.438 604.212 382.77 604.364 382.128C604.525 381.483 604.833 380.934 605.289 380.479C605.751 380.013 606.324 379.685 607.008 379.497C607.691 379.308 608.342 379.298 608.96 379.467C609.584 379.624 610.121 379.94 610.572 380.416C611.032 380.89 611.361 381.486 611.559 382.206ZM607.309 380.59C606.688 380.761 606.218 381.094 605.9 381.588C605.59 382.08 605.483 382.642 605.58 383.274L610.169 382.009C609.931 381.426 609.548 381.004 609.021 380.742C608.501 380.47 607.93 380.419 607.309 380.59ZM616.162 376.973C617.071 376.722 617.864 376.789 618.541 377.174C619.225 377.547 619.707 378.241 619.987 379.258L621.122 383.375L619.827 383.732L618.733 379.764C618.542 379.071 618.231 378.595 617.802 378.336C617.372 378.077 616.847 378.033 616.226 378.204C615.524 378.398 615.028 378.757 614.737 379.283C614.444 379.799 614.402 380.44 614.613 381.205L615.629 384.889L614.334 385.246L612.361 378.093L613.603 377.751L613.901 378.831C614.06 378.39 614.333 378.01 614.719 377.69C615.114 377.368 615.595 377.129 616.162 376.973ZM628.215 373.722L630.187 380.875L628.959 381.214L628.661 380.134C628.502 380.575 628.235 380.958 627.86 381.284C627.492 381.599 627.056 381.826 626.552 381.965C625.598 382.228 624.775 382.174 624.082 381.803C623.387 381.424 622.898 380.721 622.615 379.695L621.48 375.579L622.776 375.222L623.87 379.19C624.061 379.883 624.373 380.363 624.805 380.631C625.234 380.89 625.76 380.934 626.381 380.763C627.064 380.574 627.547 380.219 627.829 379.696C628.111 379.173 628.147 378.533 627.939 377.777L626.919 374.079L628.215 373.722ZM638.144 374.877C638.171 374.976 638.198 375.109 638.225 375.276L632.421 376.876C632.676 377.483 633.09 377.916 633.665 378.174C634.246 378.42 634.887 378.447 635.589 378.253C636.444 378.017 637.053 377.54 637.416 376.82L638.362 377.46C638.142 377.927 637.817 378.326 637.386 378.658C636.963 378.988 636.455 379.234 635.861 379.398C635.106 379.606 634.393 379.638 633.724 379.494C633.052 379.34 632.478 379.029 632 378.56C631.531 378.089 631.2 377.503 631.006 376.801C630.815 376.108 630.796 375.441 630.948 374.798C631.109 374.154 631.418 373.604 631.873 373.149C632.335 372.683 632.908 372.356 633.592 372.167C634.276 371.979 634.926 371.969 635.544 372.137C636.168 372.294 636.706 372.611 637.156 373.087C637.616 373.56 637.945 374.157 638.144 374.877ZM633.893 373.26C633.272 373.431 632.803 373.764 632.484 374.259C632.174 374.751 632.068 375.313 632.164 375.944L636.753 374.679C636.515 374.096 636.132 373.674 635.605 373.413C635.085 373.14 634.514 373.089 633.893 373.26ZM651.264 373.801L651.587 374.975L644.731 376.865L642.126 367.418L648.794 365.58L649.117 366.754L643.8 368.22L644.6 371.122L649.337 369.815L649.653 370.963L644.916 372.269L645.757 375.319L651.264 373.801Z" fill="black"/>
<path d="M406.245 481.315C406.246 481.737 406.133 482.101 405.908 482.407C405.688 482.711 405.36 482.924 404.924 483.046C404.34 483.21 403.828 483.115 403.39 482.761C402.953 482.412 402.616 481.818 402.38 480.977L401.477 477.762L408.216 475.869L409.065 478.892C409.281 479.662 409.294 480.299 409.103 480.803C408.914 481.313 408.547 481.645 408.001 481.798C407.648 481.897 407.32 481.899 407.016 481.804C406.714 481.716 406.457 481.553 406.245 481.315ZM407.707 477.051L405.55 477.656L406.104 479.63C406.243 480.124 406.439 480.478 406.693 480.69C406.955 480.908 407.262 480.967 407.615 480.868C407.968 480.768 408.197 480.559 408.301 480.239C408.413 479.923 408.4 479.519 408.261 479.024L407.707 477.051ZM403.149 480.72C403.302 481.265 403.507 481.651 403.764 481.876C404.022 482.102 404.343 482.161 404.728 482.052C405.479 481.841 405.7 481.187 405.392 480.09L404.77 477.875L402.527 478.505L403.149 480.72ZM409.158 485.325C409.356 486.031 409.334 486.619 409.092 487.088C408.852 487.564 408.388 487.899 407.702 488.092L404.621 488.957L404.375 488.081L405.049 487.891C404.768 487.804 404.523 487.634 404.313 487.381C404.112 487.133 403.957 486.813 403.847 486.422C403.686 485.851 403.695 485.353 403.874 484.929C404.054 484.511 404.369 484.239 404.819 484.113C405.268 483.987 405.673 484.05 406.035 484.301C406.403 484.551 406.687 485.032 406.887 485.745L407.298 487.208L407.481 487.157C407.879 487.045 408.151 486.844 408.298 486.553C408.445 486.263 408.455 485.893 408.329 485.443C408.244 485.142 408.11 484.861 407.926 484.601C407.749 484.339 407.549 484.132 407.326 483.98L407.911 483.4C408.197 483.604 408.445 483.873 408.657 484.209C408.876 484.542 409.042 484.914 409.158 485.325ZM404.602 486.376C404.701 486.729 404.864 487.012 405.09 487.225C405.323 487.437 405.6 487.56 405.921 487.595L406.633 487.395L406.233 485.97C406.013 485.187 405.64 484.869 405.114 485.017C404.857 485.089 404.683 485.245 404.591 485.486C404.499 485.726 404.503 486.023 404.602 486.376ZM409.596 490.361C409.936 490.438 410.227 490.612 410.47 490.884C410.712 491.155 410.896 491.515 411.023 491.965L410.127 492.216C410.119 492.163 410.103 492.091 410.077 492.001C409.937 491.501 409.675 491.148 409.292 490.944C408.918 490.745 408.454 490.723 407.902 490.878L405.361 491.591L405.101 490.667L410.204 489.234L410.453 490.12L409.596 490.361ZM412.102 495.809C412.241 496.303 412.256 496.777 412.148 497.23C412.04 497.682 411.821 498.073 411.49 498.401C411.162 498.736 410.741 498.975 410.227 499.119C409.714 499.263 409.227 499.279 408.766 499.166C408.313 499.058 407.922 498.839 407.594 498.508C407.266 498.178 407.033 497.766 406.894 497.272C406.787 496.893 406.764 496.526 406.823 496.17C406.882 495.814 407.024 495.494 407.249 495.209L406.44 495.436L406.192 494.55L413.335 492.544L413.595 493.468L410.784 494.258C411.111 494.387 411.385 494.587 411.607 494.858C411.834 495.126 412 495.443 412.102 495.809ZM407.681 496.968C407.773 497.295 407.929 497.566 408.148 497.782C408.376 498.001 408.646 498.147 408.957 498.219C409.276 498.296 409.612 498.284 409.965 498.185C410.318 498.086 410.608 497.922 410.834 497.692C411.069 497.467 411.223 497.202 411.297 496.897C411.372 496.599 411.364 496.286 411.272 495.959C411.182 495.638 411.026 495.367 410.804 495.145C410.583 494.923 410.313 494.778 409.996 494.707C409.685 494.636 409.353 494.649 409 494.748C408.647 494.847 408.353 495.01 408.119 495.235C407.89 495.458 407.736 495.723 407.656 496.029C407.583 496.334 407.591 496.647 407.681 496.968ZM411.852 505.016C411.782 505.036 411.687 505.055 411.568 505.075L410.405 500.935C409.972 501.119 409.664 501.417 409.482 501.828C409.308 502.244 409.291 502.702 409.432 503.203C409.603 503.813 409.947 504.246 410.462 504.503L410.008 505.181C409.674 505.025 409.387 504.794 409.149 504.487C408.912 504.187 408.734 503.825 408.615 503.401C408.464 502.862 408.439 502.353 408.54 501.875C408.647 501.394 408.867 500.983 409.2 500.64C409.535 500.304 409.953 500.065 410.454 499.924C410.948 499.786 411.425 499.769 411.884 499.876C412.345 499.989 412.738 500.207 413.065 500.531C413.399 500.859 413.635 501.268 413.772 501.755C413.909 502.243 413.919 502.708 413.8 503.15C413.69 503.596 413.466 503.981 413.128 504.305C412.791 504.635 412.366 504.872 411.852 505.016ZM412.992 501.974C412.868 501.531 412.629 501.197 412.274 500.971C411.922 500.752 411.52 500.677 411.069 500.749L411.989 504.022C412.404 503.85 412.705 503.575 412.889 503.198C413.082 502.825 413.117 502.417 412.992 501.974ZM414.185 506.701C414.525 506.779 414.817 506.953 415.059 507.224C415.301 507.495 415.486 507.856 415.612 508.305L414.716 508.556C414.708 508.503 414.692 508.432 414.667 508.342C414.526 507.841 414.264 507.489 413.881 507.285C413.507 507.085 413.044 507.063 412.492 507.218L409.95 507.932L409.69 507.008L414.793 505.575L415.042 506.46L414.185 506.701ZM415.275 510.584C415.616 510.662 415.907 510.836 416.149 511.107C416.392 511.378 416.576 511.739 416.702 512.188L415.807 512.439C415.799 512.386 415.782 512.315 415.757 512.225C415.616 511.724 415.355 511.372 414.972 511.168C414.597 510.968 414.134 510.946 413.582 511.101L411.04 511.815L410.781 510.891L415.884 509.458L416.132 510.343L415.275 510.584ZM418.3 518.063L411.993 517.165C411.411 517.093 410.973 516.939 410.679 516.703C410.386 516.474 410.182 516.153 410.066 515.743C409.996 515.492 409.969 515.237 409.986 514.976C409.998 514.723 410.059 514.498 410.17 514.301L410.974 514.501C410.798 514.834 410.758 515.174 410.856 515.521C410.919 515.746 411.032 515.915 411.195 516.028C411.354 516.15 411.595 516.231 411.918 516.272L412.32 516.335L416.781 512.652L417.051 513.615L413.469 516.542L418.046 517.158L418.3 518.063ZM421.681 523.814C421.926 524.687 421.911 525.433 421.634 526.05C421.358 526.668 420.853 527.08 420.122 527.285C419.39 527.491 418.745 527.402 418.188 527.018C417.63 526.635 417.228 526.007 416.983 525.134L416.515 523.468L414.474 524.041L414.204 523.079L420.943 521.186L421.681 523.814ZM417.813 524.87C417.984 525.479 418.243 525.909 418.59 526.157C418.943 526.404 419.364 526.459 419.851 526.322C420.339 526.185 420.666 525.92 420.833 525.527C421.006 525.133 421.007 524.63 420.836 524.021L420.376 522.384L417.353 523.233L417.813 524.87ZM423.261 527.886L423.521 528.81L416.377 530.816L416.117 529.892L423.261 527.886Z" fill="black"/>
</svg>
