<svg width="89" height="40" viewBox="0 0 89 40" fill="none" xmlns="http://www.w3.org/2000/svg">
<path d="M3.0642 23.5189C2.23087 23.1856 0.664204 20.8189 1.0642 14.0189C1.39697 11.1856 2.9625 6.41894 6.5625 10.0189C8.62562 12.0821 9.5 19 8.62562 22.5184M3.0642 23.5189C4.66557 21.9194 6.87783 23.5188 7.7838 24.5184M3.0642 23.5189C1.89697 26.0188 0.0625 31.4184 2.0625 33.0184C4.0625 34.6184 5.81004 34.5922 6.4338 34.3791M16.0625 21.0196C14.4625 18.6196 15.3958 11.0196 16.0625 7.51955C17.0625 4.35289 20.4625 0.0195518 26.0625 8.01955M16.0625 21.0196C18.8625 20.2205 20.5625 21.6858 21.0625 22.5184M16.0625 21.0196C15.2931 21.7339 14.357 22.8468 13.5625 24.2329M26.0625 8.01955C26.625 5.5391 27.5 3.00081 35.5 1.01917C41.9 -0.566134 43.875 6.35863 44.0625 10.0192M26.0625 8.01955C26.0625 11 26.0625 14.5 27.0737 17.5M44.0625 10.0192C44.0625 6.85251 45.2625 0.619174 50.0625 1.01917C56.0625 1.51917 59.5625 1.51839 60.5625 6.51839C60.6837 7.12432 60.7988 7.7991 60.9074 8.51839M44.0625 10.0192C44.0625 12.4136 44.1034 14.7311 44.5181 16.6816M60.0625 20.0184C61.2176 17.5184 61.5157 12.5474 60.9074 8.51839M60.0625 20.0184C61.7292 19.6851 67.0625 20.3184 67.0625 23.5184M60.0625 20.0184C59.7635 20.2177 59.3573 20.7507 57.5398 21.2326M60.9074 8.51839C62.9591 5.01839 67.6625 -0.581614 70.0625 5.01839C70.5186 6.08271 70.8857 7.16389 71.1787 8.2331M72.0625 19.0184C72.3325 17.1285 72.4275 12.7896 71.1787 8.2331M72.0625 19.0184C73.2948 19.4222 75.92 20.9874 76.5625 24.0184M72.0625 19.0184C70.3958 19.3517 67.0625 20.7184 67.0625 23.5184M71.1787 8.2331C73.4733 4.82819 78.3625 -0.681613 79.5625 4.51839C79.9286 6.1047 80.1755 7.81012 80.3252 9.51839M79.5625 22.0184C80.3185 20.1285 80.7887 14.8098 80.3252 9.51839M79.5625 22.0184C77.9625 21.6184 76.8958 23.1851 76.5625 24.0184M79.5625 22.0184C80.1303 22.6851 81.3252 24.1184 81.5625 24.5184M80.3252 9.51839C81.4043 8.51839 83.6625 7.11839 84.0625 9.51839C84.2062 10.3806 84.3499 11.6145 84.4343 13.0184M83.0625 23.5184C84.4877 21.0243 84.6434 16.4991 84.4343 13.0184M83.0625 23.5184C83.4625 23.5184 84.1437 24.1851 84.4343 24.5184M83.0625 23.5184C82.9121 23.4877 81.9998 24.1723 81.5625 24.5184M84.4343 13.0184C85.8103 11.6851 88.4625 9.91839 88.0625 13.5184C87.5625 18.0184 87.806 23.0184 84.4343 24.5184M84.4343 24.5184C85.6437 28.1851 87.0625 35.4184 83.0625 35.0184M83.0625 35.0184C84.6625 31.0184 82.7292 26.3517 81.5625 24.5184M83.0625 35.0184C82.5625 36.3517 81.0625 38.5184 79.0625 36.5184C77.0625 34.5184 75.5625 34.3517 75.0625 34.5184M75.0625 34.5184C76.3958 33.1851 78.5625 29.2184 76.5625 24.0184M75.0625 34.5184C74.3958 35.6851 71.9625 36.9184 67.5625 32.5184M67.5625 32.5184C67.5625 28.5184 67.0625 27.0184 67.0625 23.5184M67.5625 32.5184C65.2292 35.3517 59.6625 39.0184 56.0625 31.0184M56.0625 31.0184C56.3958 28.8517 56.9625 24.2184 56.5625 23.0184M56.0625 31.0184C56.0625 33.5184 54.8625 38.6184 50.0625 39.0184C46.7369 38.7808 44.9913 36.2863 44.0749 33.5184M56.5625 23.0184C56.3516 22.3856 56.8525 21.7528 57.5398 21.2326M56.5625 23.0184C56.0625 22.0184 55.0625 22.0184 54.5625 22.0184C54.0625 22.0184 48.5625 22.5184 46.5625 22.5184C44.9625 22.5184 43.8958 23.1851 43.5625 23.5184M57.5398 21.2326C56.3177 21.5566 54.4574 21.8576 51.5625 22.0184C47.0223 22.2706 45.2258 20.0108 44.5181 16.6816M26.5625 21.5184C25.3625 21.5184 23.7292 21.5184 23.0625 21.5184C22.3958 21.5184 21.0625 21.7184 21.0625 22.5184M26.5625 21.5184C28.4628 21.4639 32.3934 21.7714 32.913 23.4367M26.5625 21.5184C27.0861 21.5184 27.1845 19.8052 27.0737 17.5M21.0625 22.5184C21.0625 23.2508 19.9897 30.6881 21.969 34.8126M32.0625 30.5184C32.0625 33.0184 30.7625 37.9184 25.5625 37.5184C23.823 37.3846 22.6923 36.3198 21.969 34.8126M32.0625 30.5184C31.8147 28.536 31.7695 25.0799 32.913 23.4367M32.0625 30.5184C32.0625 33.3517 33.1625 38.9184 37.5625 38.5184C41.9625 38.1184 43.7375 35.0184 44.0749 33.5184M34.5625 22.5184C33.844 22.5184 33.3077 22.8696 32.913 23.4367M34.5625 22.5184C29.4361 22.5184 27.434 19.1728 27.0737 17.5M34.5625 22.5184C35.9773 22.5184 37.5556 22.4367 39 22.4384M43.5625 23.5184C43.3958 23.6851 43.0625 24.4184 43.0625 26.0184C43.0625 27.0682 43.0625 30.4601 44.0749 33.5184M43.5625 23.5184C42.9667 22.6247 41.1287 22.441 39 22.4384M13.0625 35.0184C13.8958 36.3517 16.0625 38.6184 18.0625 37.0184C20.0625 35.4184 21.5002 34.8812 21.969 34.8126M13.0625 35.0184C10.9177 30.9968 11.9475 27.0505 13.5625 24.2329M13.0625 35.0184C12.5625 34.8517 11.3625 34.9184 10.5625 36.5184C9.7625 38.1184 8.89583 38.1851 8.5625 38.0184C7.2314 37.5192 6.6201 36.1341 6.4338 34.3791M13.5625 24.2329C12.3064 23.0569 9.85839 21.3868 8.62562 22.5184M7.7838 24.5184C7.88411 24.1485 7.97859 23.8126 8.0625 23.5189C8.19261 23.0636 8.38619 22.7382 8.62562 22.5184M7.7838 24.5184C7.0865 27.0896 6.10725 31.3027 6.4338 34.3791M39 22.4384C40.6787 22.2467 44.1325 20.8268 44.5181 16.6816" stroke="black"/>
</svg>
