<svg viewBox="0 0 64 64" fill="none" xmlns="http://www.w3.org/2000/svg">
<g clip-path="url(#clip0)">
<path d="M31.9998 0L24.2734 32L31.9998 64C49.6729 64 63.9998 49.6731 63.9998 32C63.9998 14.3269 49.6729 0 31.9998 0Z" fill="#9CA5A9"/>
<path d="M0 32C0 49.6731 14.3269 64 32 64V0C14.3269 0 0 14.3269 0 32Z" fill="#8BBECF"/>
<path d="M32 3.86328V60.1369C47.5395 60.1369 60.1369 47.5397 60.1369 32C60.1369 16.4604 47.5395 3.86328 32 3.86328Z" fill="#C6E8FF"/>
<path d="M56.2738 32.0002C56.2738 16.4607 45.4062 3.86328 32.0002 3.86328C16.4607 3.86328 3.86328 16.4607 3.86328 32.0002C3.86328 47.5397 16.4607 60.137 32.0002 60.137C45.4062 60.137 56.2738 47.5397 56.2738 32.0002Z" fill="white"/>
<path d="M31.9993 7.46279C31.4659 7.46279 31.0335 7.89504 31.0335 8.42854V32.4433L20.9576 49.895C20.691 50.3569 20.8493 50.9477 21.3111 51.2143C21.773 51.4808 22.3638 51.3227 22.6304 50.8608L32.965 32.9609V8.42842C32.965 7.89504 32.5328 7.46279 31.9993 7.46279Z" fill="black"/>
<path d="M32.0009 8.69127C32.5343 8.69127 32.9667 8.25888 32.9667 7.72552C32.9667 7.19215 32.5343 6.75977 32.0009 6.75977C31.4675 6.75977 31.0352 7.19215 31.0352 7.72552C31.0352 8.25888 31.4675 8.69127 32.0009 8.69127Z" fill="#8BBECF"/>
<path d="M19.8642 11.9432C20.3976 11.9432 20.8299 11.5108 20.8299 10.9775C20.8299 10.4441 20.3976 10.0117 19.8642 10.0117C19.3308 10.0117 18.8984 10.4441 18.8984 10.9775C18.8984 11.5108 19.3308 11.9432 19.8642 11.9432Z" fill="#8BBECF"/>
<path d="M10.9775 20.828C11.5108 20.828 11.9432 20.3956 11.9432 19.8622C11.9432 19.3289 11.5108 18.8965 10.9775 18.8965C10.4441 18.8965 10.0117 19.3289 10.0117 19.8622C10.0117 20.3956 10.4441 20.828 10.9775 20.828Z" fill="#8BBECF"/>
<path d="M7.72747 32.9647C8.26084 32.9647 8.69322 32.5323 8.69322 31.999C8.69322 31.4656 8.26084 31.0332 7.72747 31.0332C7.1941 31.0332 6.76172 31.4656 6.76172 31.999C6.76172 32.5323 7.1941 32.9647 7.72747 32.9647Z" fill="#8BBECF"/>
<path d="M10.9775 45.1014C11.5108 45.1014 11.9432 44.669 11.9432 44.1357C11.9432 43.6023 11.5108 43.1699 10.9775 43.1699C10.4441 43.1699 10.0117 43.6023 10.0117 44.1357C10.0117 44.669 10.4441 45.1014 10.9775 45.1014Z" fill="#8BBECF"/>
<path d="M19.8642 53.9862C20.3976 53.9862 20.8299 53.5538 20.8299 53.0204C20.8299 52.4871 20.3976 52.0547 19.8642 52.0547C19.3308 52.0547 18.8984 52.4871 18.8984 53.0204C18.8984 53.5538 19.3308 53.9862 19.8642 53.9862Z" fill="#8BBECF"/>
<path d="M44.1376 53.9862C44.671 53.9862 45.1034 53.5538 45.1034 53.0204C45.1034 52.4871 44.671 52.0547 44.1376 52.0547C43.6043 52.0547 43.1719 52.4871 43.1719 53.0204C43.1719 53.5538 43.6043 53.9862 44.1376 53.9862Z" fill="#8BBECF"/>
<path d="M53.0243 45.1014C53.5577 45.1014 53.9901 44.669 53.9901 44.1357C53.9901 43.6023 53.5577 43.1699 53.0243 43.1699C52.491 43.1699 52.0586 43.6023 52.0586 44.1357C52.0586 44.669 52.491 45.1014 53.0243 45.1014Z" fill="#8BBECF"/>
<path d="M56.2743 32.9647C56.8077 32.9647 57.2401 32.5323 57.2401 31.999C57.2401 31.4656 56.8077 31.0332 56.2743 31.0332C55.741 31.0332 55.3086 31.4656 55.3086 31.999C55.3086 32.5323 55.741 32.9647 56.2743 32.9647Z" fill="#8BBECF"/>
<path d="M53.0243 20.828C53.5577 20.828 53.9901 20.3956 53.9901 19.8622C53.9901 19.3289 53.5577 18.8965 53.0243 18.8965C52.491 18.8965 52.0586 19.3289 52.0586 19.8622C52.0586 20.3956 52.491 20.828 53.0243 20.828Z" fill="#8BBECF"/>
<path d="M44.1376 11.9432C44.671 11.9432 45.1034 11.5108 45.1034 10.9775C45.1034 10.4441 44.671 10.0117 44.1376 10.0117C43.6043 10.0117 43.1719 10.4441 43.1719 10.9775C43.1719 11.5108 43.6043 11.9432 44.1376 11.9432Z" fill="#8BBECF"/>
<path d="M31.998 33.9316C33.0648 33.9316 33.9297 33.0668 33.9297 32C33.9297 30.9332 33.0648 30.0684 31.998 30.0684C30.9312 30.0684 30.0664 30.9332 30.0664 32C30.0664 33.0668 30.9312 33.9316 31.998 33.9316Z" fill="#919DA2"/>
</g>
<defs>
<clipPath id="clip0">
<rect width="64" height="64" fill="white"/>
</clipPath>
</defs>
</svg>
