<svg viewBox="0 0 60 70" fill="none" xmlns="http://www.w3.org/2000/svg">
<path d="M27 9H40.5049L46.1785 14.0461L52 19.3437V68H27" stroke="#9CA5A9" stroke-width="4"/>
<path d="M27 9H2V68H27" stroke="#8BBECF" stroke-width="4"/>
<path d="M33.5342 34.6914V32.6914H19.3699L18 33.7581L19.3699 34.6914H33.5342Z" fill="#8BBECF"/>
<path d="M33.5342 44V42H19.3699L18 43.0667L19.3699 44H33.5342Z" fill="#8BBECF"/>
<path d="M33.5342 53V51H19.3699L18 52.0667L19.3699 53H33.5342Z" fill="#8BBECF"/>
<path d="M33.5342 25V23H19.3699L18 24.0001L19.3699 25H33.5342Z" fill="#9CA5A9"/>
<rect x="10" y="22" width="4" height="4" fill="black"/>
<rect x="10" y="32" width="4" height="4" fill="black"/>
<rect x="10" y="41" width="4" height="4" fill="black"/>
<rect x="10" y="50" width="4" height="4" fill="black"/>
<circle cx="45" cy="15" r="13" fill="white" stroke="#9CA5A9" stroke-width="4"/>
<path d="M49.28 17.944C49.28 18.7867 48.96 19.5013 48.32 20.088C47.6907 20.6747 46.7733 21.016 45.568 21.112V22.92H44.544V21.112C43.7653 21.0693 43.024 20.9253 42.32 20.68C41.6267 20.424 41.072 20.104 40.656 19.72L41.248 18.472C41.632 18.824 42.1173 19.1173 42.704 19.352C43.2907 19.576 43.904 19.7093 44.544 19.752V16.04C43.7973 15.8587 43.1733 15.6613 42.672 15.448C42.1813 15.2347 41.7653 14.92 41.424 14.504C41.0933 14.088 40.928 13.544 40.928 12.872C40.928 12.0293 41.232 11.3147 41.84 10.728C42.4587 10.1413 43.36 9.8 44.544 9.704V7.88H45.568V9.688C46.176 9.70933 46.7627 9.80533 47.328 9.976C47.904 10.1467 48.4 10.376 48.816 10.664L48.288 11.944C47.424 11.4 46.5173 11.1013 45.568 11.048V14.776C46.3467 14.968 46.9867 15.1707 47.488 15.384C47.9893 15.5867 48.4107 15.896 48.752 16.312C49.104 16.7173 49.28 17.2613 49.28 17.944ZM42.496 12.808C42.496 13.2667 42.672 13.624 43.024 13.88C43.376 14.136 43.8827 14.3493 44.544 14.52V11.064C43.8613 11.1493 43.3493 11.352 43.008 11.672C42.6667 11.9813 42.496 12.36 42.496 12.808ZM45.568 19.736C46.2827 19.672 46.816 19.4907 47.168 19.192C47.5307 18.8827 47.712 18.4987 47.712 18.04C47.712 17.5707 47.5253 17.2133 47.152 16.968C46.7893 16.712 46.2613 16.488 45.568 16.296V19.736Z" fill="black"/>
</svg>
