<svg width="24" height="24" viewBox="0 0 24 24" fill="none" xmlns="http://www.w3.org/2000/svg">
<path d="M23.2969 4.92188H20.2031V11.25C20.2031 11.6383 19.8883 11.9531 19.5 11.9531H10.5C10.1117 11.9531 9.79688 11.6383 9.79688 11.25V4.92188H8.20312V20.25C8.20312 20.6383 7.88831 20.9531 7.5 20.9531H3.75C3.36169 20.9531 3.04688 20.6383 3.04688 20.25V4.92188H0.703125C0.314812 4.92188 0 5.23669 0 5.625V23.2969C0 23.6852 0.314812 24 0.703125 24H23.2969C23.6852 24 24 23.6852 24 23.2969V5.625C24 5.23669 23.6852 4.92188 23.2969 4.92188ZM11.25 20.9531H10.5C10.1117 20.9531 9.79688 20.6383 9.79688 20.25C9.79688 19.8617 10.1117 19.5469 10.5 19.5469H11.25C11.6383 19.5469 11.9531 19.8617 11.9531 20.25C11.9531 20.6383 11.6383 20.9531 11.25 20.9531ZM11.25 17.9531H10.5C10.1117 17.9531 9.79688 17.6383 9.79688 17.25C9.79688 16.8617 10.1117 16.5469 10.5 16.5469H11.25C11.6383 16.5469 11.9531 16.8617 11.9531 17.25C11.9531 17.6383 11.6383 17.9531 11.25 17.9531ZM11.25 14.9531H10.5C10.1117 14.9531 9.79688 14.6383 9.79688 14.25C9.79688 13.8617 10.1117 13.5469 10.5 13.5469H11.25C11.6383 13.5469 11.9531 13.8617 11.9531 14.25C11.9531 14.6383 11.6383 14.9531 11.25 14.9531ZM15.375 20.9531H14.625C14.2367 20.9531 13.9219 20.6383 13.9219 20.25C13.9219 19.8617 14.2367 19.5469 14.625 19.5469H15.375C15.7633 19.5469 16.0781 19.8617 16.0781 20.25C16.0781 20.6383 15.7633 20.9531 15.375 20.9531ZM15.375 17.9531H14.625C14.2367 17.9531 13.9219 17.6383 13.9219 17.25C13.9219 16.8617 14.2367 16.5469 14.625 16.5469H15.375C15.7633 16.5469 16.0781 16.8617 16.0781 17.25C16.0781 17.6383 15.7633 17.9531 15.375 17.9531ZM15.375 14.9531H14.625C14.2367 14.9531 13.9219 14.6383 13.9219 14.25C13.9219 13.8617 14.2367 13.5469 14.625 13.5469H15.375C15.7633 13.5469 16.0781 13.8617 16.0781 14.25C16.0781 14.6383 15.7633 14.9531 15.375 14.9531ZM19.5 20.9531H18.75C18.3617 20.9531 18.0469 20.6383 18.0469 20.25C18.0469 19.8617 18.3617 19.5469 18.75 19.5469H19.5C19.8883 19.5469 20.2031 19.8617 20.2031 20.25C20.2031 20.6383 19.8883 20.9531 19.5 20.9531ZM19.5 17.9531H18.75C18.3617 17.9531 18.0469 17.6383 18.0469 17.25C18.0469 16.8617 18.3617 16.5469 18.75 16.5469H19.5C19.8883 16.5469 20.2031 16.8617 20.2031 17.25C20.2031 17.6383 19.8883 17.9531 19.5 17.9531ZM19.5 14.9531H18.75C18.3617 14.9531 18.0469 14.6383 18.0469 14.25C18.0469 13.8617 18.3617 13.5469 18.75 13.5469H19.5C19.8883 13.5469 20.2031 13.8617 20.2031 14.25C20.2031 14.6383 19.8883 14.9531 19.5 14.9531Z" fill="black"/>
<path d="M6.09375 3.42188H5.15625C4.76794 3.42188 4.45312 3.73669 4.45312 4.125V18.8438C4.45312 19.2321 4.76794 19.5469 5.15625 19.5469H6.09375C6.48206 19.5469 6.79688 19.2321 6.79688 18.8438V4.125C6.79688 3.73669 6.48206 3.42188 6.09375 3.42188Z" fill="black"/>
<path d="M18.7969 2.81203V10.5469H11.2031V2.81203C11.2031 1.25897 12.4621 0 14.0152 0H19.4866C19.8575 0 20.0157 0.463875 19.7277 0.6975C19.2174 1.11145 18.7969 1.76902 18.7969 2.81203Z" fill="black"/>
</svg>
