<svg width="269" height="48" viewBox="0 0 269 48" fill="none" xmlns="http://www.w3.org/2000/svg">
<path fill-rule="evenodd" clip-rule="evenodd" d="M22.9331 0.0602949C33.3993 0.838941 42.04 8.96367 43.0008 18.984C44.0256 29.7063 35.9934 40.1925 23.5032 41.1243C10.1738 42.1136 -0.964929 31.3721 0.0663179 18.7159C1.04632 6.79366 11.9289 -0.756645 22.9331 0.0602949Z" fill="white"/>
<path d="M37.7032 16.4754C37.5955 13.5605 36.9393 10.2757 34.8741 8.55458C33.1021 7.07784 30.9493 7.04003 28.5043 7.60418C24.3856 8.55454 23.3509 9.50506 20.1827 8.8714L13.9411 7.60418C17.2305 8.07417 14.0331 7.62144 13.9411 7.60418C11.7233 7.28731 10.3307 7.16236 8.55507 8.55457C6.49962 10.1662 5.4881 13.5098 5.38672 16.4754C5.38672 16.3866 5.38672 16.5767 5.38672 16.4754C5.38672 16.3613 5.38672 16.5831 5.38672 16.4754C5.38672 20.6702 6.9751 22.6272 8.55507 25.9295C9.82232 28.5782 9.82688 29.1469 9.82232 33.4193C9.81598 39.3503 11.4255 43.0572 12.3569 44.6477C13.3264 46.2698 14.5747 47.5245 15.842 47.8413C17.1094 47.8413 19.0103 47.2076 19.0103 41.1879C19.0103 35.485 20.2776 34.5346 20.2776 34.5346C20.9113 33.9009 21.6717 33.9009 21.6717 33.9009C21.6717 33.9009 22.4954 33.9009 23.1291 34.5346C23.1291 34.5346 24.3964 35.485 24.3964 41.1879C24.3964 46.8908 26.817 48.1581 27.8815 47.8413C29.0962 47.4798 30.3084 46.4282 31.3666 44.6477C32.2918 43.0762 33.2676 39.2955 33.2676 33.4193C33.2676 29.7821 33.1564 28.5782 34.4237 25.9295C35.691 23.2808 37.7032 20.8469 37.7032 16.4754C37.6905 16.3423 37.7095 16.6084 37.7032 16.4754ZM20.886 16.0191C20.9114 15.6769 21.1902 15.4108 21.507 15.4108H21.8302C22.1406 15.4108 22.4195 15.6769 22.4448 16.0191L23.1545 21.9755H20.1827L20.886 16.0191ZM26.817 28.5782C26.6333 28.7619 25.2012 30.1876 25.2012 30.1876H26.1137C26.1137 30.1876 26.6333 30.1116 26.6333 30.6502C26.6333 31.1952 26.6269 31.9936 26.6269 31.9936C26.6269 31.9936 26.6776 32.3801 26.1327 32.3801C25.5877 32.3801 21.6717 32.3801 21.6717 32.3801C21.6717 32.3801 17.7557 32.3801 17.2171 32.3801C16.6722 32.3801 16.7229 31.9936 16.7229 31.9936C16.7229 31.9936 16.7102 31.1952 16.7102 30.6502C16.7102 30.1053 17.2362 30.1876 17.2362 30.1876H18.1486C18.1486 30.1876 16.7229 28.7619 16.5391 28.5782C16.3427 28.3881 16.3617 28.1853 16.3617 28.1853V27.9255C16.3617 27.9255 16.349 27.7101 16.5391 27.52C16.7229 27.3425 18.1613 25.9295 18.1613 25.9295C18.1613 25.9295 18.1613 25.3022 18.1613 24.3263C18.1613 23.3505 18.9027 23.1034 19.6631 23.1034C20.4234 23.1034 21.6844 23.1034 21.6844 23.1034C21.6844 23.1034 22.9391 23.1034 23.6931 23.1034C24.4598 23.1034 25.1949 23.3568 25.1949 24.3263C25.1949 25.3022 25.1949 25.9295 25.1949 25.9295C25.1949 25.9295 26.6396 27.3362 26.817 27.52C27.0071 27.7101 26.9945 27.9255 26.9945 27.9255V28.1853C26.9818 28.1853 27.0071 28.3881 26.817 28.5782Z" fill="#CDD4D6"/>
<path d="M59.7965 26.8682C55.2892 26.8682 51.951 23.4564 51.951 18.78C51.951 14.1624 55.2303 10.6918 59.6568 10.6918C62.3185 10.6918 64.3332 11.758 65.7596 13.6036L67.1567 12.5962C65.4508 10.361 62.8994 9.04481 59.6788 9.04481C54.2745 9.04481 50.0392 13.133 50.0392 18.78C50.0098 24.4344 54.2671 28.5152 59.7303 28.5152C63.1494 28.5152 65.8111 27.1696 67.6861 24.7138L66.2596 23.7064C64.7523 25.7211 62.5391 26.8682 59.7965 26.8682ZM83.3404 20.405H72.9507V9.27274H71.1272V28.2946H72.9507V22.03H83.3404V28.2946H85.1639V9.27274H83.3404V20.405ZM102.046 16.4344C102.046 12.3242 99.3549 9.27274 94.1711 9.27274H90.0241V28.2946H91.8476V23.5373H94.1711C94.7299 23.5373 95.2373 23.5079 95.7373 23.427L99.5167 28.2946H101.73L97.5829 23.0079C100.531 21.9711 102.046 19.4859 102.046 16.4344ZM94.0608 21.9491H91.8476V10.8977H94.0608C98.377 10.8977 100.142 13.2506 100.142 16.4344C100.142 19.6182 98.4064 21.9491 94.0608 21.9491ZM114.509 9.05216C109.105 9.05216 104.73 13.1624 104.73 18.7874C104.73 24.4123 109.097 28.5225 114.509 28.5225C119.914 28.5225 124.288 24.4123 124.288 18.7874C124.281 13.1624 119.914 9.05216 114.509 9.05216ZM114.509 26.8682C109.972 26.8682 106.634 23.3976 106.634 18.78C106.634 14.1624 109.965 10.6918 114.509 10.6918C119.053 10.6918 122.384 14.1624 122.384 18.78C122.377 23.405 119.046 26.8682 114.509 26.8682ZM143.796 8.88304L136.538 21.8388L129.31 8.88304H129.171L127.038 28.302H128.744L130.31 13.78L136.443 24.9123H136.524L142.685 13.78L144.252 28.302H146.046L143.913 8.88304H143.796ZM156.928 8.82422L148.913 28.2946H150.737L152.082 24.9932H161.913L163.229 28.2946H165.104L157.068 8.82422H156.928ZM152.722 23.3755L157.009 12.8242C157.009 12.8242 161.266 23.3755 161.237 23.3755H152.722ZM178.236 9.27274H173.472V28.2946H178.236C184.567 28.2946 188.295 24.4049 188.295 18.78C188.288 13.1624 184.538 9.27274 178.236 9.27274ZM178.067 26.6476H175.295V10.9271H178.067C183.7 10.9271 186.383 14.1698 186.383 18.7874C186.383 23.405 183.692 26.6476 178.067 26.6476ZM193.803 22.0006H202.427V20.405H193.803V10.8904H203.464V9.26538H191.979V28.2873H203.854V26.6623H193.795V22.0006H193.803ZM220.714 24.2432L207.883 8.88304H207.714V28.302H209.42V13.3315L222.251 28.6917H222.42V9.27274H220.714V24.2432ZM239.162 9.27274H225.552V10.8977H231.464V28.302H233.287V10.8977H239.17V9.27274H239.162ZM246.331 8.82422L238.317 28.2946H240.14L241.486 24.9932H251.317L252.633 28.2946H254.508L246.471 8.82422H246.331ZM242.133 23.3755L246.42 12.8242C246.42 12.8242 250.677 23.3755 250.648 23.3755H242.133ZM259.603 26.677V9.27274H257.78V28.2946H268.449V26.6696H259.603V26.677Z" fill="#CDD4D6"/>
<path d="M149.011 35.0952L148.298 34.757C147.224 34.2496 146.739 33.9408 146.739 33.1026C146.739 32.3232 147.32 31.7717 148.195 31.7717C148.997 31.7717 149.541 32.0805 149.945 32.7423L150.592 32.3305C150.048 31.4482 149.283 31.0364 148.18 31.0364C146.886 31.0364 145.908 31.8746 145.908 33.132C145.908 34.3599 146.673 34.9334 147.945 35.5217L148.658 35.8599C149.724 36.3525 150.32 36.7937 150.32 37.7643C150.32 38.6834 149.607 39.279 148.401 39.279C147.364 39.279 146.555 38.7716 146.092 37.8966L145.379 38.2716C145.952 39.3452 146.974 40.0437 148.416 40.0437C150.063 40.0437 151.166 39.1908 151.166 37.7422C151.166 36.4187 150.423 35.7717 149.011 35.0952ZM160.496 30.9629L157.136 36.9481L153.791 30.9629H153.724L152.739 39.9407H153.533L154.261 33.2276L157.099 38.3746H157.136L159.989 33.2276L160.717 39.9407H161.548L160.563 30.9629H160.496ZM163.658 39.9334H164.511V31.1394H163.658V39.9334ZM167.665 31.1394H166.82V39.9334H171.761V39.1834H167.658V31.1394H167.665ZM174.173 37.029H178.165V36.2937H174.173V31.8967H178.651V31.1467H173.335V39.9407H178.834V39.1908H174.18V37.029H174.173ZM180.879 38.8011C180.57 38.8011 180.268 39.0584 180.268 39.4113C180.268 39.7569 180.57 40.0216 180.879 40.0216C181.202 40.0216 181.489 39.7643 181.489 39.4113C181.489 39.0584 181.202 38.8011 180.879 38.8011ZM181.246 37.5805L181.334 31.1394H180.437L180.526 37.5805H181.246ZM188.165 39.9334H189.018V31.1394H188.165V39.9334ZM190.526 31.8894H193.261V39.9334H194.106V31.8894H196.834V31.1394H190.533V31.8894H190.526ZM203.518 35.0952L202.805 34.757C201.731 34.2496 201.246 33.9408 201.246 33.1026C201.246 32.3232 201.827 31.7717 202.702 31.7717C203.503 31.7717 204.047 32.0805 204.452 32.7423L205.099 32.3305C204.555 31.4482 203.79 31.0364 202.687 31.0364C201.393 31.0364 200.415 31.8746 200.415 33.132C200.415 34.3599 201.18 34.9334 202.452 35.5217L203.165 35.8599C204.231 36.3525 204.827 36.7937 204.827 37.7643C204.827 38.6834 204.114 39.279 202.908 39.279C201.871 39.279 201.062 38.7716 200.599 37.8966L199.886 38.2716C200.459 39.3452 201.481 40.0437 202.922 40.0437C204.57 40.0437 205.672 39.1908 205.672 37.7422C205.672 36.4187 204.937 35.7717 203.518 35.0952ZM212.768 36.8819C212.768 38.4702 211.886 39.2716 210.496 39.2716C209.121 39.2716 208.224 38.4702 208.224 36.8819V31.1394H207.378V36.9481C207.378 38.9922 208.717 40.0363 210.489 40.0363C212.268 40.0363 213.599 38.9922 213.599 36.9481V31.1394H212.753V36.8819H212.768ZM215.849 39.9334H216.702V31.1394H215.849V39.9334ZM218.209 31.8894H220.944V39.9334H221.79V31.8894H224.518V31.1394H218.216V31.8894H218.209ZM228.841 35.0952L228.128 34.757C227.055 34.2496 226.569 33.9408 226.569 33.1026C226.569 32.3232 227.15 31.7717 228.025 31.7717C228.827 31.7717 229.371 32.0805 229.775 32.7423L230.422 32.3305C229.878 31.4482 229.113 31.0364 228.01 31.0364C226.716 31.0364 225.738 31.8746 225.738 33.132C225.738 34.3599 226.503 34.9334 227.775 35.5217L228.488 35.8599C229.555 36.3525 230.15 36.7937 230.15 37.7643C230.15 38.6834 229.437 39.279 228.231 39.279C227.194 39.279 226.385 38.7716 225.922 37.8966L225.209 38.2716C225.783 39.3452 226.805 40.0437 228.246 40.0437C229.893 40.0437 230.996 39.1908 230.996 37.7422C230.996 36.4187 230.26 35.7717 228.841 35.0952ZM238.128 36.3305L235.29 31.1467H234.356L237.687 37.1834V39.9407H238.54V37.1834L241.834 31.1467H240.952L238.128 36.3305ZM247.246 31.0364C244.738 31.0364 242.716 32.9408 242.716 35.5364C242.716 38.1319 244.738 40.0363 247.246 40.0363C249.753 40.0363 251.775 38.1319 251.775 35.5364C251.775 32.9408 249.746 31.0364 247.246 31.0364ZM247.246 39.279C245.143 39.279 243.599 37.6761 243.599 35.5437C243.599 33.4114 245.143 31.8085 247.246 31.8085C249.348 31.8085 250.893 33.4114 250.893 35.5437C250.893 37.6761 249.348 39.279 247.246 39.279ZM258.76 31.1394V36.8819C258.76 38.4702 257.878 39.2716 256.488 39.2716C255.113 39.2716 254.216 38.4702 254.216 36.8819V31.1394H253.378V36.9481C253.378 38.9922 254.716 40.0363 256.488 40.0363C258.268 40.0363 259.598 38.9922 259.598 36.9481V31.1394H258.76Z" fill="#CDD4D6"/>
</svg>
