<svg viewBox="0 0 251 42" xmlns="http://www.w3.org/2000/svg">
    <path fill-rule="evenodd" clip-rule="evenodd" d="M21.4418 0.0517708C31.2275 0.720337 39.3063 7.69645 40.2046 16.3001C41.1628 25.5066 33.6529 34.5103 21.9748 35.3104C9.51225 36.1598 -0.902184 26.9369 0.0620055 16.07C0.978285 5.83322 11.1532 -0.649676 21.4418 0.0517708Z" fill="#DFD3C1"/>
    <path d="M34.7697 15.0291C34.669 12.5263 34.0555 9.70586 32.1246 8.2281C30.4679 6.96013 28.455 6.92767 26.169 7.41206C22.3181 8.22807 21.3508 9.04421 18.3885 8.50013L12.5528 7.41206C15.6283 7.81561 12.6389 7.42688 12.5528 7.41206C10.4792 7.13999 9.17714 7.03271 7.51701 8.2281C5.59522 9.61189 4.64948 12.4828 4.55469 15.0291C4.55469 14.9529 4.55469 15.1161 4.55469 15.0291C4.55469 14.9312 4.55469 15.1216 4.55469 15.0291C4.55469 18.6309 6.03978 20.3112 7.51701 23.1467C8.70186 25.4209 8.70612 25.9092 8.70186 29.5776C8.69593 34.6701 10.2008 37.853 11.0717 39.2186C11.9781 40.6114 13.1452 41.6887 14.3301 41.9608C15.5151 41.9608 17.2924 41.4167 17.2924 36.248C17.2924 31.3513 18.4773 30.5352 18.4773 30.5352C19.0698 29.9911 19.7808 29.9911 19.7808 29.9911C19.7808 29.9911 20.5509 29.9911 21.1433 30.5352C21.1433 30.5352 22.3282 31.3513 22.3282 36.248C22.3283 41.1446 24.5915 42.2328 25.5867 41.9608C26.7224 41.6504 27.8558 40.7474 28.8452 39.2186C29.7102 37.8693 30.6226 34.6231 30.6226 29.5776C30.6226 26.4546 30.5186 25.4209 31.7035 23.1467C32.8884 20.8724 34.7697 18.7826 34.7697 15.0291C34.7579 14.9148 34.7757 15.1433 34.7697 15.0291ZM19.0461 14.6373C19.0698 14.3435 19.3305 14.115 19.6267 14.115H19.9289C20.2192 14.115 20.4799 14.3435 20.5036 14.6373L21.1671 19.7516H18.3885L19.0461 14.6373ZM24.5915 25.4209C24.4197 25.5787 23.0807 26.8028 23.0807 26.8028H23.9339C23.9339 26.8028 24.4197 26.7375 24.4197 27.2C24.4197 27.6679 24.4137 28.3534 24.4137 28.3534C24.4137 28.3534 24.4611 28.6853 23.9516 28.6853C23.4421 28.6853 19.7808 28.6853 19.7808 28.6853C19.7808 28.6853 16.1194 28.6853 15.6158 28.6853C15.1063 28.6853 15.1537 28.3534 15.1537 28.3534C15.1537 28.3534 15.1419 27.6679 15.1419 27.2C15.1419 26.7321 15.6336 26.8028 15.6336 26.8028H16.4867C16.4867 26.8028 15.1537 25.5787 14.9819 25.4209C14.7982 25.2577 14.816 25.0836 14.816 25.0836V24.8605C14.816 24.8605 14.8042 24.6755 14.9819 24.5123C15.1537 24.3599 16.4986 23.1467 16.4986 23.1467C16.4986 23.1467 16.4986 22.608 16.4986 21.7702C16.4986 20.9323 17.1917 20.7201 17.9027 20.7201C18.6136 20.7201 19.7926 20.7201 19.7926 20.7201C19.7926 20.7201 20.9657 20.7201 21.6707 20.7201C22.3876 20.7201 23.0748 20.9377 23.0748 21.7702C23.0748 22.608 23.0748 23.1467 23.0748 23.1467C23.0748 23.1467 24.4256 24.3545 24.5915 24.5123C24.7692 24.6755 24.7574 24.8605 24.7574 24.8605V25.0836C24.7455 25.0836 24.7692 25.2577 24.5915 25.4209Z" fill="white"/>
    <path d="M55.912 23.0692C51.6978 23.0692 48.5766 20.1398 48.5766 16.1245C48.5766 12.1597 51.6428 9.17976 55.7814 9.17976C58.27 9.17976 60.1537 10.0952 61.4874 11.6799L62.7936 10.8149C61.1987 8.89566 58.8131 7.76557 55.802 7.76557C50.7491 7.76557 46.7892 11.2758 46.7892 16.1245C46.7617 20.9794 50.7422 24.4834 55.8501 24.4834C59.0469 24.4834 61.5355 23.328 63.2886 21.2194L61.9549 20.3544C60.5456 22.0843 58.4763 23.0692 55.912 23.0692ZM77.9249 17.5197H68.2109V7.96129H66.506V24.294H68.2109V18.915H77.9249V24.294H79.6298V7.96129H77.9249V17.5197ZM95.4142 14.1105C95.4142 10.5813 92.8981 7.96129 88.0514 7.96129H84.174V24.294H85.879V20.2092H88.0514C88.5739 20.2092 89.0482 20.184 89.5157 20.1145L93.0493 24.294H95.1186L91.2413 19.7547C93.9981 18.8645 95.4142 16.7306 95.4142 14.1105ZM87.9483 18.8455H85.879V9.35654H87.9483C91.9838 9.35654 93.6337 11.3768 93.6337 14.1105C93.6337 16.8442 92.0113 18.8455 87.9483 18.8455ZM107.067 7.77188C102.014 7.77188 97.9235 11.3011 97.9235 16.1308C97.9235 20.9605 102.007 24.4897 107.067 24.4897C112.12 24.4897 116.21 20.9605 116.21 16.1308C116.203 11.3011 112.12 7.77188 107.067 7.77188ZM107.067 23.0692C102.825 23.0692 99.7041 20.0893 99.7041 16.1245C99.7041 12.1597 102.818 9.17976 107.067 9.17976C111.316 9.17976 114.43 12.1597 114.43 16.1245C114.423 20.0956 111.309 23.0692 107.067 23.0692ZM134.449 7.62668L127.664 18.7508L120.906 7.62668H120.775L118.781 24.3003H120.376L121.841 11.8314L127.574 21.3898H127.65L133.411 11.8314L134.875 24.3003H136.553L134.559 7.62668H134.449ZM146.727 7.57617L139.234 24.294H140.939L142.197 21.4593H151.388L152.619 24.294H154.372L146.858 7.57617H146.727ZM142.795 20.0703L146.803 11.0106C146.803 11.0106 150.783 20.0703 150.756 20.0703H142.795ZM166.65 7.96129H162.195V24.294H166.65C172.569 24.294 176.055 20.9542 176.055 16.1245C176.048 11.3011 172.542 7.96129 166.65 7.96129ZM166.492 22.8798H163.9V9.3818H166.492C171.758 9.3818 174.268 12.166 174.268 16.1308C174.268 20.0956 171.751 22.8798 166.492 22.8798ZM181.204 18.8897H189.268V17.5197H181.204V9.35023H190.238V7.95497H179.499V24.2876H190.602V22.8924H181.197V18.8897H181.204ZM206.366 20.8153L194.369 7.62668H194.211V24.3003H195.806V11.4463L207.803 24.6349H207.961V7.96129H206.366V20.8153ZM223.614 7.96129H210.889V9.35654H216.417V24.3003H218.122V9.35654H223.621V7.96129H223.614ZM230.317 7.57617L222.824 24.294H224.529L225.787 21.4593H234.978L236.209 24.294H237.962L230.448 7.57617H230.317ZM226.392 20.0703L230.4 11.0106C230.4 11.0106 234.38 20.0703 234.353 20.0703H226.392ZM242.726 22.905V7.96129H241.021V24.294H250.997V22.8987H242.726V22.905Z" fill="white"/>
    <path d="M139.326 30.134L138.659 29.8436C137.655 29.408 137.202 29.1429 137.202 28.4231C137.202 27.7539 137.745 27.2804 138.563 27.2804C139.312 27.2804 139.821 27.5456 140.199 28.1138L140.804 27.7602C140.295 27.0026 139.58 26.6491 138.549 26.6491C137.339 26.6491 136.425 27.3688 136.425 28.4484C136.425 29.5027 137.14 29.9951 138.329 30.5002L138.996 30.7906C139.993 31.2136 140.55 31.5924 140.55 32.4258C140.55 33.215 139.883 33.7264 138.755 33.7264C137.786 33.7264 137.03 33.2907 136.597 32.5394L135.93 32.8614C136.466 33.7832 137.422 34.383 138.769 34.383C140.309 34.383 141.34 33.6506 141.34 32.4069C141.34 31.2705 140.646 30.7149 139.326 30.134ZM150.064 26.5859L146.922 31.725L143.794 26.5859H143.733L142.811 34.2946H143.554L144.234 28.5304L146.888 32.9498H146.922L149.59 28.5304L150.27 34.2946H151.047L150.126 26.5859H150.064ZM153.02 34.2882H153.818V26.7375H153.02V34.2882ZM156.767 26.7375H155.976V34.2882H160.596V33.6443H156.76V26.7375H156.767ZM162.851 31.7945H166.584V31.1631H162.851V27.3877H167.038V26.7438H162.067V34.2946H167.21V33.6506H162.858V31.7945H162.851ZM169.121 33.316C168.832 33.316 168.55 33.537 168.55 33.84C168.55 34.1367 168.832 34.364 169.121 34.364C169.423 34.364 169.692 34.143 169.692 33.84C169.692 33.537 169.423 33.316 169.121 33.316ZM169.465 32.268L169.547 26.7375H168.708L168.791 32.268H169.465ZM175.934 34.2882H176.731V26.7375H175.934V34.2882ZM178.141 27.3814H180.698V34.2882H181.489V27.3814H184.039V26.7375H178.147V27.3814H178.141ZM190.288 30.134L189.621 29.8436C188.618 29.408 188.164 29.1429 188.164 28.4231C188.164 27.7539 188.707 27.2804 189.525 27.2804C190.275 27.2804 190.783 27.5456 191.161 28.1138L191.766 27.7602C191.258 27.0026 190.543 26.6491 189.511 26.6491C188.301 26.6491 187.387 27.3688 187.387 28.4484C187.387 29.5027 188.102 29.9951 189.291 30.5002L189.958 30.7906C190.955 31.2136 191.512 31.5924 191.512 32.4258C191.512 33.215 190.845 33.7264 189.718 33.7264C188.748 33.7264 187.992 33.2907 187.559 32.5394L186.892 32.8614C187.428 33.7832 188.384 34.383 189.731 34.383C191.271 34.383 192.303 33.6506 192.303 32.4069C192.303 31.2705 191.615 30.7149 190.288 30.134ZM198.937 31.6682C198.937 33.0319 198.112 33.72 196.812 33.72C195.527 33.72 194.688 33.0319 194.688 31.6682V26.7375H193.898V31.725C193.898 33.4801 195.149 34.3766 196.806 34.3766C198.469 34.3766 199.714 33.4801 199.714 31.725V26.7375H198.923V31.6682H198.937ZM201.817 34.2882H202.615V26.7375H201.817V34.2882ZM204.024 27.3814H206.581V34.2882H207.372V27.3814H209.923V26.7375H204.031V27.3814H204.024ZM213.965 30.134L213.298 29.8436C212.294 29.408 211.841 29.1429 211.841 28.4231C211.841 27.7539 212.384 27.2804 213.202 27.2804C213.951 27.2804 214.46 27.5456 214.838 28.1138L215.443 27.7602C214.934 27.0026 214.219 26.6491 213.188 26.6491C211.978 26.6491 211.064 27.3688 211.064 28.4484C211.064 29.5027 211.779 29.9951 212.968 30.5002L213.635 30.7906C214.632 31.2136 215.189 31.5924 215.189 32.4258C215.189 33.215 214.522 33.7264 213.394 33.7264C212.425 33.7264 211.669 33.2907 211.236 32.5394L210.569 32.8614C211.105 33.7832 212.061 34.383 213.408 34.383C214.948 34.383 215.979 33.6506 215.979 32.4069C215.979 31.2705 215.292 30.7149 213.965 30.134ZM222.648 31.1947L219.994 26.7438H219.121L222.235 31.927V34.2946H223.033V31.927L226.113 26.7438H225.288L222.648 31.1947ZM231.172 26.6491C228.828 26.6491 226.938 28.2842 226.938 30.5129C226.938 32.7415 228.828 34.3766 231.172 34.3766C233.517 34.3766 235.407 32.7415 235.407 30.5129C235.407 28.2842 233.51 26.6491 231.172 26.6491ZM231.172 33.7264C229.206 33.7264 227.762 32.35 227.762 30.5192C227.762 28.6883 229.206 27.312 231.172 27.312C233.139 27.312 234.582 28.6883 234.582 30.5192C234.582 32.35 233.139 33.7264 231.172 33.7264ZM241.938 26.7375V31.6682C241.938 33.0319 241.113 33.72 239.814 33.72C238.528 33.72 237.69 33.0319 237.69 31.6682V26.7375H236.906V31.725C236.906 33.4801 238.157 34.3766 239.814 34.3766C241.478 34.3766 242.722 33.4801 242.722 31.725V26.7375H241.938Z" fill="black"/>
</svg>
