<svg width="45" height="41" viewBox="0 0 45 41" fill="none" xmlns="http://www.w3.org/2000/svg">
<path d="M1 23C3.83333 24.1667 10.2 28.3 13 35.5" stroke="black" stroke-width="1.5" stroke-linecap="round"/>
<path d="M44 23C41.1667 24.1667 34.8 28.3 32 35.5" stroke="black" stroke-width="1.5" stroke-linecap="round"/>
<mask id="path-3-inside-1" fill="white">
<path d="M38.3165 9.20777C38.2087 6.29296 37.5526 3.00807 35.4874 1.287C33.7154 -0.189743 31.5626 -0.227548 29.1176 0.336601C24.9988 1.28696 23.9642 2.23748 20.7959 1.60382L14.5544 0.336601C17.8438 0.806587 14.6464 0.35386 14.5544 0.336601C12.3366 0.0197282 10.9439 -0.105217 9.16835 1.28699C7.1129 2.89863 6.10138 6.24226 6 9.20777C6 9.11906 6 9.30916 6 9.20777C6 9.09371 6 9.31549 6 9.20777C6 13.4026 7.58838 15.3596 9.16835 18.6619C10.4356 21.3106 10.4402 21.8793 10.4356 26.1517C10.4293 32.0827 12.0387 35.7896 12.9702 37.3801C13.9397 39.0022 15.188 40.2569 16.4553 40.5737C17.7226 40.5737 19.6236 39.9401 19.6236 33.9203C19.6236 28.2175 20.8909 27.267 20.8909 27.267C21.5246 26.6333 22.285 26.6333 22.285 26.6333C22.285 26.6333 23.1087 26.6333 23.7424 27.267C23.7424 27.267 25.0097 28.2174 25.0097 33.9203C25.0097 39.6232 27.4303 40.8905 28.4948 40.5737C29.7094 40.2122 30.9217 39.1607 31.9799 37.3801C32.905 35.8086 33.8809 32.0279 33.8809 26.1517C33.8809 22.5145 33.7697 21.3106 35.037 18.6619C36.3043 16.0132 38.3165 13.5793 38.3165 9.20777C38.3038 9.07471 38.3228 9.34084 38.3165 9.20777Z"/>
</mask>
<path d="M35.4874 1.287L34.5271 2.4393L35.4874 1.287ZM29.1176 0.336601L28.7804 -1.12499L29.1176 0.336601ZM20.7959 1.60382L20.4975 3.07384L20.5018 3.07469L20.7959 1.60382ZM9.16835 1.28699L8.24281 0.106582V0.106582L9.16835 1.28699ZM6 9.20777H4.5H6ZM9.16835 18.6619L7.81524 19.3093H7.81524L9.16835 18.6619ZM10.4356 26.1517L11.9356 26.1533L10.4356 26.1517ZM12.9702 37.3801L11.6758 38.1382L11.6827 38.1496L12.9702 37.3801ZM16.4553 40.5737L16.0915 42.029L16.2707 42.0737H16.4553V40.5737ZM20.8909 27.267L21.7909 28.467L21.8762 28.403L21.9516 28.3276L20.8909 27.267ZM22.285 26.6333V28.1333V26.6333ZM23.7424 27.267L22.6817 28.3276L22.7571 28.403L22.8424 28.467L23.7424 27.267ZM28.4948 40.5737L28.9227 42.0114L28.4948 40.5737ZM31.9799 37.3801L33.2694 38.1464L33.2725 38.1411L31.9799 37.3801ZM39.8154 9.15238C39.7586 7.61532 39.5564 5.92354 39.0683 4.35425C38.5824 2.79219 37.7797 1.24473 36.4477 0.134692L34.5271 2.4393C35.2603 3.05034 35.8182 4.00586 36.2036 5.24522C36.5869 6.47734 36.7666 7.88541 36.8175 9.26317L39.8154 9.15238ZM36.4477 0.134692C34.1367 -1.79124 31.3943 -1.72813 28.7804 -1.12499L29.4548 1.7982C31.7309 1.27304 33.2941 1.41175 34.5271 2.4393L36.4477 0.134692ZM28.7804 -1.12499C27.7092 -0.877848 26.8404 -0.630972 26.1031 -0.414718C25.3494 -0.193663 24.7894 -0.0221632 24.2544 0.104658C23.2812 0.33534 22.4491 0.40475 21.0901 0.13295L20.5018 3.07469C22.311 3.43655 23.5804 3.34753 24.9463 3.02378C25.5808 2.87338 26.2497 2.66866 26.9475 2.46401C27.6616 2.25455 28.4666 2.02623 29.4548 1.7982L28.7804 -1.12499ZM21.0944 0.133812L14.8528 -1.13341L14.2559 1.80661L20.4975 3.07383L21.0944 0.133812ZM14.2779 1.81091C14.3677 1.82774 15.249 1.95309 15.6121 2.0045C15.7109 2.01848 15.7882 2.02937 15.8207 2.03382C15.825 2.03442 15.8302 2.03512 15.8353 2.03579C15.8377 2.03612 15.8417 2.03664 15.8462 2.03722C15.8471 2.03733 15.8615 2.03918 15.879 2.04103C15.8846 2.04162 15.8988 2.043 15.9074 2.04377C15.922 2.04496 15.967 2.04774 15.9975 2.04885C16.0985 2.04811 17.3808 1.21588 17.3223 -0.223891C16.9742 -0.621845 16.451 -0.892379 16.3917 -0.908093C16.3694 -0.913336 16.3353 -0.920671 16.3235 -0.923018C16.3163 -0.924412 16.3041 -0.926667 16.2991 -0.92756C16.2895 -0.929273 16.2819 -0.930534 16.2786 -0.931067C16.267 -0.932971 16.2564 -0.934556 16.2542 -0.934893C16.2383 -0.93729 16.2093 -0.941515 16.1701 -0.9472C16.007 -0.970829 15.5885 -1.03087 14.7665 -1.14832L14.3422 1.82152C15.1649 1.93907 15.5803 1.99868 15.74 2.02181C15.7814 2.02781 15.8012 2.03072 15.8068 2.03156C15.81 2.03204 15.8031 2.03102 15.7935 2.02945C15.7907 2.029 15.7835 2.02781 15.7742 2.02615C15.7693 2.02528 15.7573 2.02305 15.7501 2.02168C15.7385 2.01935 15.7044 2.01203 15.6822 2.0068C15.623 1.9911 15.0998 1.72058 14.7517 1.32263C14.6932 -0.117138 15.9755 -0.949367 16.0765 -0.950108C16.1069 -0.948997 16.1518 -0.946224 16.1663 -0.945041C16.1748 -0.94428 16.1889 -0.942913 16.1944 -0.942339C16.2227 -0.939343 16.25 -0.935388 16.2277 -0.938443C16.2035 -0.941757 16.1338 -0.951553 16.0327 -0.965868C15.8338 -0.994032 15.5293 -1.03741 15.269 -1.07479C14.9744 -1.1171 14.8121 -1.14122 14.8308 -1.13771L14.2779 1.81091ZM14.7665 -1.14832C13.6827 -1.30318 12.5883 -1.4489 11.5142 -1.31811C10.3663 -1.17832 9.32165 -0.739317 8.24281 0.106582L10.0939 2.46741C10.7906 1.92109 11.3301 1.72647 11.8768 1.65989C12.4974 1.58432 13.2083 1.65951 14.3422 1.82152L14.7665 -1.14832ZM8.24281 0.106582C6.92381 1.14078 6.02538 2.65402 5.4451 4.21785C4.85979 5.79521 4.55635 7.53386 4.50088 9.15652L7.49912 9.25903C7.54503 7.91618 7.79805 6.50026 8.2577 5.26152C8.72238 4.00924 9.35744 3.04484 10.0939 2.46741L8.24281 0.106582ZM4.5 9.20777C4.5 9.20797 4.5 9.20817 4.5 9.20836C4.5 9.20856 4.5 9.20875 4.5 9.20895C4.5 9.20914 4.5 9.20933 4.5 9.20953C4.5 9.20972 4.5 9.20991 4.5 9.2101C4.5 9.21029 4.5 9.21047 4.5 9.21066C4.5 9.21085 4.5 9.21103 4.5 9.21122C4.5 9.2114 4.5 9.21159 4.5 9.21177C4.5 9.21195 4.5 9.21213 4.5 9.21231C4.5 9.21249 4.5 9.21267 4.5 9.21285C4.5 9.21303 4.5 9.21321 4.5 9.21338C4.5 9.21356 4.5 9.21374 4.5 9.21391C4.5 9.21408 4.5 9.21426 4.5 9.21443C4.5 9.2146 4.5 9.21477 4.5 9.21494C4.5 9.21511 4.5 9.21528 4.5 9.21545C4.5 9.21562 4.5 9.21578 4.5 9.21595C4.5 9.21611 4.5 9.21628 4.5 9.21644C4.5 9.21661 4.5 9.21677 4.5 9.21693C4.5 9.21709 4.5 9.21725 4.5 9.21741C4.5 9.21757 4.5 9.21773 4.5 9.21789C4.5 9.21804 4.5 9.2182 4.5 9.21835C4.5 9.21851 4.5 9.21866 4.5 9.21882C4.5 9.21897 4.5 9.21912 4.5 9.21927C4.5 9.21942 4.5 9.21957 4.5 9.21972C4.5 9.21987 4.5 9.22002 4.5 9.22017C4.5 9.22031 4.5 9.22046 4.5 9.22061C4.5 9.22075 4.5 9.22089 4.5 9.22104C4.5 9.22118 4.5 9.22132 4.5 9.22146C4.5 9.22161 4.5 9.22175 4.5 9.22188C4.5 9.22202 4.5 9.22216 4.5 9.2223C4.5 9.22244 4.5 9.22257 4.5 9.22271C4.5 9.22284 4.5 9.22298 4.5 9.22311C4.5 9.22324 4.5 9.22338 4.5 9.22351C4.5 9.22364 4.5 9.22377 4.5 9.2239C4.5 9.22403 4.5 9.22415 4.5 9.22428C4.5 9.22441 4.5 9.22454 4.5 9.22466C4.5 9.22479 4.5 9.22491 4.5 9.22503C4.5 9.22516 4.5 9.22528 4.5 9.2254C4.5 9.22552 4.5 9.22564 4.5 9.22576C4.5 9.22588 4.5 9.226 4.5 9.22612C4.5 9.22624 4.5 9.22635 4.5 9.22647C4.5 9.22659 4.5 9.2267 4.5 9.22682C4.5 9.22693 4.5 9.22704 4.5 9.22715C4.5 9.22727 4.5 9.22738 4.5 9.22749C4.5 9.2276 4.5 9.22771 4.5 9.22782C4.5 9.22792 4.5 9.22803 4.5 9.22814C4.5 9.22824 4.5 9.22835 4.5 9.22845C4.5 9.22856 4.5 9.22866 4.5 9.22877C4.5 9.22887 4.5 9.22897 4.5 9.22907C4.5 9.22917 4.5 9.22927 4.5 9.22937C4.5 9.22947 4.5 9.22957 4.5 9.22967C4.5 9.22976 4.5 9.22986 4.5 9.22996C4.5 9.23005 4.5 9.23015 4.5 9.23024C4.5 9.23034 4.5 9.23043 4.5 9.23052C4.5 9.23061 4.5 9.2307 4.5 9.23079C4.5 9.23088 4.5 9.23097 4.5 9.23106C4.5 9.23115 4.5 9.23124 4.5 9.23133C4.5 9.23141 4.5 9.2315 4.5 9.23158C4.5 9.23167 4.5 9.23175 4.5 9.23184C4.5 9.23192 4.5 9.232 4.5 9.23208C4.5 9.23216 4.5 9.23225 4.5 9.23233C4.5 9.23241 4.5 9.23248 4.5 9.23256C4.5 9.23264 4.5 9.23272 4.5 9.23279C4.5 9.23287 4.5 9.23295 4.5 9.23302C4.5 9.2331 4.5 9.23317 4.5 9.23324C4.5 9.23332 4.5 9.23339 4.5 9.23346C4.5 9.23353 4.5 9.2336 4.5 9.23367C4.5 9.23374 4.5 9.23381 4.5 9.23388C4.5 9.23395 4.5 9.23401 4.5 9.23408C4.5 9.23415 4.5 9.23421 4.5 9.23428C4.5 9.23434 4.5 9.23441 4.5 9.23447C4.5 9.23453 4.5 9.23459 4.5 9.23466C4.5 9.23472 4.5 9.23478 4.5 9.23484C4.5 9.2349 4.5 9.23496 4.5 9.23502C4.5 9.23507 4.5 9.23513 4.5 9.23519C4.5 9.23524 4.5 9.2353 4.5 9.23536C4.5 9.23541 4.5 9.23547 4.5 9.23552C4.5 9.23557 4.5 9.23563 4.5 9.23568C4.5 9.23573 4.5 9.23578 4.5 9.23583C4.5 9.23588 4.5 9.23593 4.5 9.23598C4.5 9.23603 4.5 9.23608 4.5 9.23612C4.5 9.23617 4.5 9.23622 4.5 9.23626C4.5 9.23631 4.5 9.23635 4.5 9.2364C4.5 9.23644 4.5 9.23649 4.5 9.23653C4.5 9.23657 4.5 9.23661 4.5 9.23666C4.5 9.2367 4.5 9.23674 4.5 9.23678C4.5 9.23682 4.5 9.23685 4.5 9.23689C4.5 9.23693 4.5 9.23697 4.5 9.23701C4.5 9.23704 4.5 9.23708 4.5 9.23711C4.5 9.23715 4.5 9.23718 4.5 9.23722C4.5 9.23725 4.5 9.23728 4.5 9.23732C4.5 9.23735 4.5 9.23738 4.5 9.23741C4.5 9.23744 4.5 9.23747 4.5 9.2375C4.5 9.23753 4.5 9.23756 4.5 9.23759C4.5 9.23761 4.5 9.23764 4.5 9.23767C4.5 9.23769 4.5 9.23772 4.5 9.23775C4.5 9.23777 4.5 9.2378 4.5 9.23782C4.5 9.23784 4.5 9.23787 4.5 9.23789C4.5 9.23791 4.5 9.23793 4.5 9.23795C4.5 9.23797 4.5 9.23799 4.5 9.23801C4.5 9.23803 4.5 9.23805 4.5 9.23807C4.5 9.23809 4.5 9.23811 4.5 9.23812C4.5 9.23814 4.5 9.23816 4.5 9.23817C4.5 9.23819 4.5 9.2382 4.5 9.23821C4.5 9.23823 4.5 9.23824 4.5 9.23825C4.5 9.23827 4.5 9.23828 4.5 9.23829C4.5 9.2383 4.5 9.23831 4.5 9.23832C4.5 9.23833 4.5 9.23834 4.5 9.23835C4.5 9.23836 4.5 9.23837 4.5 9.23838C4.5 9.23838 4.5 9.23839 4.5 9.2384C4.5 9.2384 4.5 9.23841 4.5 9.23841C4.5 9.23842 4.5 9.23842 4.5 9.23842C4.5 9.23843 4.5 9.23843 4.5 9.23843C4.5 9.23844 4.5 9.23844 4.5 9.23844C4.5 9.23844 6 9.23844 7.5 9.23844C7.5 9.23844 7.5 9.23844 7.5 9.23844C7.5 9.23843 7.5 9.23843 7.5 9.23843C7.5 9.23843 7.5 9.23842 7.5 9.23842C7.5 9.23842 7.5 9.23841 7.5 9.23841C7.5 9.2384 7.5 9.23839 7.5 9.23839C7.5 9.23838 7.5 9.23837 7.5 9.23837C7.5 9.23836 7.5 9.23835 7.5 9.23834C7.5 9.23833 7.5 9.23832 7.5 9.23831C7.5 9.2383 7.5 9.23829 7.5 9.23828C7.5 9.23827 7.5 9.23826 7.5 9.23825C7.5 9.23823 7.5 9.23822 7.5 9.23821C7.5 9.23819 7.5 9.23818 7.5 9.23816C7.5 9.23815 7.5 9.23814 7.5 9.23812C7.5 9.2381 7.5 9.23809 7.5 9.23807C7.5 9.23805 7.5 9.23804 7.5 9.23802C7.5 9.238 7.5 9.23798 7.5 9.23796C7.5 9.23794 7.5 9.23792 7.5 9.2379C7.5 9.23788 7.5 9.23786 7.5 9.23784C7.5 9.23782 7.5 9.23779 7.5 9.23777C7.5 9.23775 7.5 9.23773 7.5 9.2377C7.5 9.23768 7.5 9.23766 7.5 9.23763C7.5 9.23761 7.5 9.23758 7.5 9.23755C7.5 9.23753 7.5 9.2375 7.5 9.23748C7.5 9.23745 7.5 9.23742 7.5 9.23739C7.5 9.23736 7.5 9.23734 7.5 9.23731C7.5 9.23728 7.5 9.23725 7.5 9.23722C7.5 9.23719 7.5 9.23716 7.5 9.23713C7.5 9.2371 7.5 9.23707 7.5 9.23703C7.5 9.237 7.5 9.23697 7.5 9.23693C7.5 9.2369 7.5 9.23687 7.5 9.23683C7.5 9.2368 7.5 9.23677 7.5 9.23673C7.5 9.2367 7.5 9.23666 7.5 9.23662C7.5 9.23659 7.5 9.23655 7.5 9.23651C7.5 9.23648 7.5 9.23644 7.5 9.2364C7.5 9.23636 7.5 9.23632 7.5 9.23629C7.5 9.23625 7.5 9.23621 7.5 9.23617C7.5 9.23613 7.5 9.23609 7.5 9.23605C7.5 9.236 7.5 9.23596 7.5 9.23592C7.5 9.23588 7.5 9.23584 7.5 9.2358C7.5 9.23575 7.5 9.23571 7.5 9.23567C7.5 9.23562 7.5 9.23558 7.5 9.23553C7.5 9.23549 7.5 9.23544 7.5 9.2354C7.5 9.23535 7.5 9.23531 7.5 9.23526C7.5 9.23521 7.5 9.23517 7.5 9.23512C7.5 9.23507 7.5 9.23502 7.5 9.23498C7.5 9.23493 7.5 9.23488 7.5 9.23483C7.5 9.23478 7.5 9.23473 7.5 9.23468C7.5 9.23463 7.5 9.23458 7.5 9.23453C7.5 9.23448 7.5 9.23443 7.5 9.23438C7.5 9.23433 7.5 9.23427 7.5 9.23422C7.5 9.23417 7.5 9.23412 7.5 9.23406C7.5 9.23401 7.5 9.23396 7.5 9.2339C7.5 9.23385 7.5 9.23379 7.5 9.23374C7.5 9.23368 7.5 9.23363 7.5 9.23357C7.5 9.23352 7.5 9.23346 7.5 9.23341C7.5 9.23335 7.5 9.23329 7.5 9.23323C7.5 9.23318 7.5 9.23312 7.5 9.23306C7.5 9.233 7.5 9.23295 7.5 9.23289C7.5 9.23283 7.5 9.23277 7.5 9.23271C7.5 9.23265 7.5 9.23259 7.5 9.23253C7.5 9.23247 7.5 9.23241 7.5 9.23235C7.5 9.23229 7.5 9.23222 7.5 9.23216C7.5 9.2321 7.5 9.23204 7.5 9.23198C7.5 9.23191 7.5 9.23185 7.5 9.23179C7.5 9.23172 7.5 9.23166 7.5 9.2316C7.5 9.23153 7.5 9.23147 7.5 9.2314C7.5 9.23134 7.5 9.23128 7.5 9.23121C7.5 9.23114 7.5 9.23108 7.5 9.23101C7.5 9.23095 7.5 9.23088 7.5 9.23081C7.5 9.23075 7.5 9.23068 7.5 9.23061C7.5 9.23055 7.5 9.23048 7.5 9.23041C7.5 9.23034 7.5 9.23027 7.5 9.23021C7.5 9.23014 7.5 9.23007 7.5 9.23C7.5 9.22993 7.5 9.22986 7.5 9.22979C7.5 9.22972 7.5 9.22965 7.5 9.22958C7.5 9.22951 7.5 9.22944 7.5 9.22937C7.5 9.2293 7.5 9.22922 7.5 9.22915C7.5 9.22908 7.5 9.22901 7.5 9.22894C7.5 9.22886 7.5 9.22879 7.5 9.22872C7.5 9.22865 7.5 9.22857 7.5 9.2285C7.5 9.22843 7.5 9.22835 7.5 9.22828C7.5 9.2282 7.5 9.22813 7.5 9.22805C7.5 9.22798 7.5 9.22791 7.5 9.22783C7.5 9.22775 7.5 9.22768 7.5 9.2276C7.5 9.22753 7.5 9.22745 7.5 9.22738C7.5 9.2273 7.5 9.22722 7.5 9.22715C7.5 9.22707 7.5 9.22699 7.5 9.22691C7.5 9.22684 7.5 9.22676 7.5 9.22668C7.5 9.2266 7.5 9.22653 7.5 9.22645C7.5 9.22637 7.5 9.22629 7.5 9.22621C7.5 9.22613 7.5 9.22605 7.5 9.22598C7.5 9.2259 7.5 9.22582 7.5 9.22574C7.5 9.22566 7.5 9.22558 7.5 9.2255C7.5 9.22542 7.5 9.22534 7.5 9.22526C7.5 9.22517 7.5 9.22509 7.5 9.22501C7.5 9.22493 7.5 9.22485 7.5 9.22477C7.5 9.22469 7.5 9.2246 7.5 9.22452C7.5 9.22444 7.5 9.22436 7.5 9.22428C7.5 9.22419 7.5 9.22411 7.5 9.22403C7.5 9.22394 7.5 9.22386 7.5 9.22378C7.5 9.22369 7.5 9.22361 7.5 9.22353C7.5 9.22344 7.5 9.22336 7.5 9.22328C7.5 9.22319 7.5 9.22311 7.5 9.22302C7.5 9.22294 7.5 9.22285 7.5 9.22277C7.5 9.22268 7.5 9.2226 7.5 9.22251C7.5 9.22243 7.5 9.22234 7.5 9.22226C7.5 9.22217 7.5 9.22209 7.5 9.222C7.5 9.22192 7.5 9.22183 7.5 9.22174C7.5 9.22166 7.5 9.22157 7.5 9.22148C7.5 9.2214 7.5 9.22131 7.5 9.22122C7.5 9.22114 7.5 9.22105 7.5 9.22096C7.5 9.22087 7.5 9.22079 7.5 9.2207C7.5 9.22061 7.5 9.22052 7.5 9.22044C7.5 9.22035 7.5 9.22026 7.5 9.22017C7.5 9.22008 7.5 9.22 7.5 9.21991C7.5 9.21982 7.5 9.21973 7.5 9.21964C7.5 9.21955 7.5 9.21946 7.5 9.21938C7.5 9.21929 7.5 9.2192 7.5 9.21911C7.5 9.21902 7.5 9.21893 7.5 9.21884C7.5 9.21875 7.5 9.21866 7.5 9.21857C7.5 9.21848 7.5 9.21839 7.5 9.2183C7.5 9.21821 7.5 9.21812 7.5 9.21803C7.5 9.21794 7.5 9.21785 7.5 9.21776C7.5 9.21767 7.5 9.21758 7.5 9.21749C7.5 9.2174 7.5 9.21731 7.5 9.21722C7.5 9.21713 7.5 9.21704 7.5 9.21694C7.5 9.21685 7.5 9.21676 7.5 9.21667C7.5 9.21658 7.5 9.21649 7.5 9.2164C7.5 9.21631 7.5 9.21622 7.5 9.21612C7.5 9.21603 7.5 9.21594 7.5 9.21585C7.5 9.21576 7.5 9.21567 7.5 9.21557C7.5 9.21548 7.5 9.21539 7.5 9.2153C7.5 9.21521 7.5 9.21511 7.5 9.21502C7.5 9.21493 7.5 9.21484 7.5 9.21475C7.5 9.21465 7.5 9.21456 7.5 9.21447C7.5 9.21438 7.5 9.21428 7.5 9.21419C7.5 9.2141 7.5 9.21401 7.5 9.21392C7.5 9.21382 7.5 9.21373 7.5 9.21364C7.5 9.21355 7.5 9.21345 7.5 9.21336C7.5 9.21327 7.5 9.21317 7.5 9.21308C7.5 9.21299 7.5 9.2129 7.5 9.2128C7.5 9.21271 7.5 9.21262 7.5 9.21253C7.5 9.21243 7.5 9.21234 7.5 9.21225C7.5 9.21215 7.5 9.21206 7.5 9.21197C7.5 9.21188 7.5 9.21178 7.5 9.21169C7.5 9.2116 7.5 9.2115 7.5 9.21141C7.5 9.21132 7.5 9.21122 7.5 9.21113C7.5 9.21104 7.5 9.21095 7.5 9.21085C7.5 9.21076 7.5 9.21067 7.5 9.21057C7.5 9.21048 7.5 9.21039 7.5 9.2103C7.5 9.2102 7.5 9.21011 7.5 9.21002C7.5 9.20992 7.5 9.20983 7.5 9.20974C7.5 9.20965 7.5 9.20955 7.5 9.20946C7.5 9.20937 7.5 9.20927 7.5 9.20918C7.5 9.20909 7.5 9.209 7.5 9.2089C7.5 9.20881 7.5 9.20872 7.5 9.20862C7.5 9.20853 7.5 9.20844 7.5 9.20835C7.5 9.20825 7.5 9.20816 7.5 9.20807C7.5 9.20798 7.5 9.20788 7.5 9.20779C7.5 9.2077 7.5 9.20761 7.5 9.20751C7.5 9.20742 7.5 9.20733 7.5 9.20724C7.5 9.20715 7.5 9.20705 7.5 9.20696C7.5 9.20687 7.5 9.20678 7.5 9.20669C7.5 9.20659 7.5 9.2065 7.5 9.20641C7.5 9.20632 7.5 9.20623 7.5 9.20613C7.5 9.20604 7.5 9.20595 7.5 9.20586C7.5 9.20577 7.5 9.20568 7.5 9.20559C7.5 9.20549 7.5 9.2054 7.5 9.20531C7.5 9.20522 7.5 9.20513 7.5 9.20504C7.5 9.20495 7.5 9.20486 7.5 9.20477C7.5 9.20467 7.5 9.20458 7.5 9.20449C7.5 9.2044 7.5 9.20431 7.5 9.20422C7.5 9.20413 7.5 9.20404 7.5 9.20395C7.5 9.20386 7.5 9.20377 7.5 9.20368C7.5 9.20359 7.5 9.2035 7.5 9.20341C7.5 9.20332 7.5 9.20323 7.5 9.20314C7.5 9.20305 7.5 9.20296 7.5 9.20287C7.5 9.20278 7.5 9.20269 7.5 9.20261C7.5 9.20252 7.5 9.20243 7.5 9.20234C7.5 9.20225 7.5 9.20216 7.5 9.20207C7.5 9.20198 7.5 9.2019 7.5 9.20181C7.5 9.20172 7.5 9.20163 7.5 9.20154C7.5 9.20146 7.5 9.20137 7.5 9.20128C7.5 9.20119 7.5 9.2011 7.5 9.20102C7.5 9.20093 7.5 9.20084 7.5 9.20076C7.5 9.20067 7.5 9.20058 7.5 9.20049C7.5 9.20041 7.5 9.20032 7.5 9.20024C7.5 9.20015 7.5 9.20006 7.5 9.19998C7.5 9.19989 7.5 9.1998 7.5 9.19972C7.5 9.19963 7.5 9.19955 7.5 9.19946C7.5 9.19938 7.5 9.19929 7.5 9.19921C7.5 9.19912 7.5 9.19904 7.5 9.19895C7.5 9.19887 7.5 9.19878 7.5 9.1987C7.5 9.19862 7.5 9.19853 7.5 9.19845C7.5 9.19836 7.5 9.19828 7.5 9.1982C7.5 9.19811 7.5 9.19803 7.5 9.19795C7.5 9.19786 7.5 9.19778 7.5 9.1977C7.5 9.19762 7.5 9.19753 7.5 9.19745C7.5 9.19737 7.5 9.19729 7.5 9.1972C7.5 9.19712 7.5 9.19704 7.5 9.19696C7.5 9.19688 7.5 9.1968 7.5 9.19672C7.5 9.19664 7.5 9.19656 7.5 9.19648C7.5 9.19639 7.5 9.19631 7.5 9.19623C7.5 9.19615 7.5 9.19607 7.5 9.196C7.5 9.19592 7.5 9.19584 7.5 9.19576C7.5 9.19568 7.5 9.1956 7.5 9.19552C7.5 9.19544 7.5 9.19536 7.5 9.19529C7.5 9.19521 7.5 9.19513 7.5 9.19505C7.5 9.19497 7.5 9.1949 7.5 9.19482C7.5 9.19474 7.5 9.19467 7.5 9.19459C7.5 9.19451 7.5 9.19444 7.5 9.19436C7.5 9.19429 7.5 9.19421 7.5 9.19414C7.5 9.19406 7.5 9.19398 7.5 9.19391C7.5 9.19384 7.5 9.19376 7.5 9.19369C7.5 9.19361 7.5 9.19354 7.5 9.19346C7.5 9.19339 7.5 9.19332 7.5 9.19324C7.5 9.19317 7.5 9.1931 7.5 9.19303C7.5 9.19295 7.5 9.19288 7.5 9.19281C7.5 9.19274 7.5 9.19267 7.5 9.19259C7.5 9.19252 7.5 9.19245 7.5 9.19238C7.5 9.19231 7.5 9.19224 7.5 9.19217C7.5 9.1921 7.5 9.19203 7.5 9.19196C7.5 9.19189 7.5 9.19182 7.5 9.19175C7.5 9.19168 7.5 9.19162 7.5 9.19155C7.5 9.19148 7.5 9.19141 7.5 9.19134C7.5 9.19128 7.5 9.19121 7.5 9.19114C7.5 9.19107 7.5 9.19101 7.5 9.19094C7.5 9.19088 7.5 9.19081 7.5 9.19074C7.5 9.19068 7.5 9.19061 7.5 9.19055C7.5 9.19048 7.5 9.19042 7.5 9.19036C7.5 9.19029 7.5 9.19023 7.5 9.19016C7.5 9.1901 7.5 9.19004 7.5 9.18997C7.5 9.18991 7.5 9.18985 7.5 9.18979C7.5 9.18972 7.5 9.18966 7.5 9.1896C7.5 9.18954 7.5 9.18948 7.5 9.18942C7.5 9.18936 7.5 9.1893 7.5 9.18924C7.5 9.18918 7.5 9.18912 7.5 9.18906C7.5 9.189 7.5 9.18894 7.5 9.18888C7.5 9.18883 7.5 9.18877 7.5 9.18871C7.5 9.18865 7.5 9.1886 7.5 9.18854C7.5 9.18848 7.5 9.18843 7.5 9.18837C7.5 9.18831 7.5 9.18826 7.5 9.1882C7.5 9.18815 7.5 9.18809 7.5 9.18804C7.5 9.18798 7.5 9.18793 7.5 9.18788C7.5 9.18782 7.5 9.18777 7.5 9.18772C7.5 9.18766 7.5 9.18761 7.5 9.18756C7.5 9.18751 7.5 9.18746 7.5 9.18741C7.5 9.18736 7.5 9.1873 7.5 9.18725C7.5 9.1872 7.5 9.18715 7.5 9.18711C7.5 9.18706 7.5 9.18701 7.5 9.18696C7.5 9.18691 7.5 9.18686 7.5 9.18681C7.5 9.18677 7.5 9.18672 7.5 9.18667C7.5 9.18663 7.5 9.18658 7.5 9.18653C7.5 9.18649 7.5 9.18644 7.5 9.1864C7.5 9.18635 7.5 9.18631 7.5 9.18626C7.5 9.18622 7.5 9.18618 7.5 9.18613C7.5 9.18609 7.5 9.18605 7.5 9.18601C7.5 9.18596 7.5 9.18592 7.5 9.18588C7.5 9.18584 7.5 9.1858 7.5 9.18576C7.5 9.18572 7.5 9.18568 7.5 9.18564C7.5 9.1856 7.5 9.18556 7.5 9.18552C7.5 9.18548 7.5 9.18545 7.5 9.18541C7.5 9.18537 7.5 9.18533 7.5 9.1853C7.5 9.18526 7.5 9.18522 7.5 9.18519C7.5 9.18515 7.5 9.18512 7.5 9.18508C7.5 9.18505 7.5 9.18502 7.5 9.18498C7.5 9.18495 7.5 9.18492 7.5 9.18488C7.5 9.18485 7.5 9.18482 7.5 9.18479C7.5 9.18476 7.5 9.18473 7.5 9.1847C7.5 9.18466 7.5 9.18463 7.5 9.18461C7.5 9.18458 7.5 9.18455 7.5 9.18452C7.5 9.18449 7.5 9.18446 7.5 9.18443C7.5 9.18441 7.5 9.18438 7.5 9.18435C7.5 9.18433 7.5 9.1843 7.5 9.18428C7.5 9.18425 7.5 9.18423 7.5 9.1842C7.5 9.18418 7.5 9.18416 7.5 9.18413C7.5 9.18411 7.5 9.18409 7.5 9.18407C7.5 9.18404 7.5 9.18402 7.5 9.184C7.5 9.18398 7.5 9.18396 7.5 9.18394C7.5 9.18392 7.5 9.1839 7.5 9.18388C7.5 9.18386 7.5 9.18385 7.5 9.18383C7.5 9.18381 7.5 9.18379 7.5 9.18378C7.5 9.18376 7.5 9.18375 7.5 9.18373C7.5 9.18372 7.5 9.1837 7.5 9.18369C7.5 9.18367 7.5 9.18366 7.5 9.18365C7.5 9.18363 7.5 9.18362 7.5 9.18361C7.5 9.1836 7.5 9.18359 7.5 9.18358C7.5 9.18357 7.5 9.18356 7.5 9.18355C7.5 9.18354 7.5 9.18353 7.5 9.18352C7.5 9.18351 7.5 9.18351 7.5 9.1835C7.5 9.18349 7.5 9.18349 7.5 9.18348C7.5 9.18347 7.5 9.18347 7.5 9.18347C7.5 9.18346 7.5 9.18346 7.5 9.18345C7.5 9.18345 7.5 9.18345 7.5 9.18345C7.5 9.18344 7.5 9.18344 7.5 9.18344C7.5 9.18344 6 9.18344 4.5 9.18344C4.5 9.18344 4.5 9.18344 4.5 9.18344C4.5 9.18345 4.5 9.18345 4.5 9.18345C4.5 9.18345 4.5 9.18346 4.5 9.18346C4.5 9.18347 4.5 9.18347 4.5 9.18348C4.5 9.18348 4.5 9.18349 4.5 9.1835C4.5 9.1835 4.5 9.18351 4.5 9.18352C4.5 9.18353 4.5 9.18354 4.5 9.18355C4.5 9.18356 4.5 9.18357 4.5 9.18358C4.5 9.18359 4.5 9.1836 4.5 9.18361C4.5 9.18362 4.5 9.18364 4.5 9.18365C4.5 9.18366 4.5 9.18368 4.5 9.18369C4.5 9.18371 4.5 9.18372 4.5 9.18374C4.5 9.18375 4.5 9.18377 4.5 9.18379C4.5 9.18381 4.5 9.18383 4.5 9.18384C4.5 9.18386 4.5 9.18388 4.5 9.1839C4.5 9.18392 4.5 9.18394 4.5 9.18397C4.5 9.18399 4.5 9.18401 4.5 9.18403C4.5 9.18406 4.5 9.18408 4.5 9.18411C4.5 9.18413 4.5 9.18416 4.5 9.18418C4.5 9.18421 4.5 9.18423 4.5 9.18426C4.5 9.18429 4.5 9.18432 4.5 9.18435C4.5 9.18437 4.5 9.1844 4.5 9.18443C4.5 9.18446 4.5 9.1845 4.5 9.18453C4.5 9.18456 4.5 9.18459 4.5 9.18462C4.5 9.18466 4.5 9.18469 4.5 9.18473C4.5 9.18476 4.5 9.1848 4.5 9.18483C4.5 9.18487 4.5 9.18491 4.5 9.18494C4.5 9.18498 4.5 9.18502 4.5 9.18506C4.5 9.1851 4.5 9.18514 4.5 9.18518C4.5 9.18522 4.5 9.18526 4.5 9.1853C4.5 9.18534 4.5 9.18539 4.5 9.18543C4.5 9.18548 4.5 9.18552 4.5 9.18556C4.5 9.18561 4.5 9.18566 4.5 9.1857C4.5 9.18575 4.5 9.1858 4.5 9.18585C4.5 9.18589 4.5 9.18594 4.5 9.18599C4.5 9.18604 4.5 9.18609 4.5 9.18614C4.5 9.1862 4.5 9.18625 4.5 9.1863C4.5 9.18635 4.5 9.18641 4.5 9.18646C4.5 9.18652 4.5 9.18657 4.5 9.18663C4.5 9.18668 4.5 9.18674 4.5 9.1868C4.5 9.18686 4.5 9.18691 4.5 9.18697C4.5 9.18703 4.5 9.18709 4.5 9.18715C4.5 9.18721 4.5 9.18728 4.5 9.18734C4.5 9.1874 4.5 9.18747 4.5 9.18753C4.5 9.18759 4.5 9.18766 4.5 9.18772C4.5 9.18779 4.5 9.18786 4.5 9.18792C4.5 9.18799 4.5 9.18806 4.5 9.18813C4.5 9.1882 4.5 9.18827 4.5 9.18834C4.5 9.18841 4.5 9.18848 4.5 9.18855C4.5 9.18863 4.5 9.1887 4.5 9.18877C4.5 9.18885 4.5 9.18892 4.5 9.189C4.5 9.18907 4.5 9.18915 4.5 9.18923C4.5 9.18931 4.5 9.18939 4.5 9.18946C4.5 9.18954 4.5 9.18962 4.5 9.1897C4.5 9.18979 4.5 9.18987 4.5 9.18995C4.5 9.19003 4.5 9.19012 4.5 9.1902C4.5 9.19028 4.5 9.19037 4.5 9.19046C4.5 9.19054 4.5 9.19063 4.5 9.19072C4.5 9.19081 4.5 9.19089 4.5 9.19098C4.5 9.19107 4.5 9.19116 4.5 9.19126C4.5 9.19135 4.5 9.19144 4.5 9.19153C4.5 9.19163 4.5 9.19172 4.5 9.19181C4.5 9.19191 4.5 9.19201 4.5 9.1921C4.5 9.1922 4.5 9.1923 4.5 9.1924C4.5 9.19249 4.5 9.19259 4.5 9.19269C4.5 9.19279 4.5 9.19289 4.5 9.193C4.5 9.1931 4.5 9.1932 4.5 9.19331C4.5 9.19341 4.5 9.19352 4.5 9.19362C4.5 9.19373 4.5 9.19383 4.5 9.19394C4.5 9.19405 4.5 9.19416 4.5 9.19427C4.5 9.19438 4.5 9.19449 4.5 9.1946C4.5 9.19471 4.5 9.19482 4.5 9.19494C4.5 9.19505 4.5 9.19516 4.5 9.19528C4.5 9.19539 4.5 9.19551 4.5 9.19563C4.5 9.19574 4.5 9.19586 4.5 9.19598C4.5 9.1961 4.5 9.19622 4.5 9.19634C4.5 9.19646 4.5 9.19658 4.5 9.19671C4.5 9.19683 4.5 9.19695 4.5 9.19708C4.5 9.1972 4.5 9.19733 4.5 9.19745C4.5 9.19758 4.5 9.19771 4.5 9.19784C4.5 9.19797 4.5 9.19809 4.5 9.19823C4.5 9.19836 4.5 9.19849 4.5 9.19862C4.5 9.19875 4.5 9.19888 4.5 9.19902C4.5 9.19915 4.5 9.19929 4.5 9.19943C4.5 9.19956 4.5 9.1997 4.5 9.19984C4.5 9.19998 4.5 9.20012 4.5 9.20026C4.5 9.2004 4.5 9.20054 4.5 9.20068C4.5 9.20082 4.5 9.20097 4.5 9.20111C4.5 9.20125 4.5 9.2014 4.5 9.20155C4.5 9.20169 4.5 9.20184 4.5 9.20199C4.5 9.20214 4.5 9.20229 4.5 9.20244C4.5 9.20259 4.5 9.20274 4.5 9.20289C4.5 9.20304 4.5 9.2032 4.5 9.20335C4.5 9.2035 4.5 9.20366 4.5 9.20382C4.5 9.20397 4.5 9.20413 4.5 9.20429C4.5 9.20445 4.5 9.20461 4.5 9.20477C4.5 9.20493 4.5 9.20509 4.5 9.20525C4.5 9.20542 4.5 9.20558 4.5 9.20574C4.5 9.20591 4.5 9.20608 4.5 9.20624C4.5 9.20641 4.5 9.20658 4.5 9.20675C4.5 9.20691 4.5 9.20709 4.5 9.20726C4.5 9.20743 4.5 9.2076 4.5 9.20777H7.5C7.5 9.2076 7.5 9.20743 7.5 9.20726C7.5 9.20709 7.5 9.20691 7.5 9.20675C7.5 9.20658 7.5 9.20641 7.5 9.20624C7.5 9.20608 7.5 9.20591 7.5 9.20574C7.5 9.20558 7.5 9.20542 7.5 9.20525C7.5 9.20509 7.5 9.20493 7.5 9.20477C7.5 9.20461 7.5 9.20445 7.5 9.20429C7.5 9.20413 7.5 9.20397 7.5 9.20382C7.5 9.20366 7.5 9.2035 7.5 9.20335C7.5 9.2032 7.5 9.20304 7.5 9.20289C7.5 9.20274 7.5 9.20259 7.5 9.20244C7.5 9.20229 7.5 9.20214 7.5 9.20199C7.5 9.20184 7.5 9.20169 7.5 9.20155C7.5 9.2014 7.5 9.20125 7.5 9.20111C7.5 9.20097 7.5 9.20082 7.5 9.20068C7.5 9.20054 7.5 9.2004 7.5 9.20026C7.5 9.20012 7.5 9.19998 7.5 9.19984C7.5 9.1997 7.5 9.19956 7.5 9.19943C7.5 9.19929 7.5 9.19915 7.5 9.19902C7.5 9.19888 7.5 9.19875 7.5 9.19862C7.5 9.19849 7.5 9.19836 7.5 9.19823C7.5 9.19809 7.5 9.19797 7.5 9.19784C7.5 9.19771 7.5 9.19758 7.5 9.19745C7.5 9.19733 7.5 9.1972 7.5 9.19708C7.5 9.19695 7.5 9.19683 7.5 9.19671C7.5 9.19658 7.5 9.19646 7.5 9.19634C7.5 9.19622 7.5 9.1961 7.5 9.19598C7.5 9.19586 7.5 9.19574 7.5 9.19563C7.5 9.19551 7.5 9.19539 7.5 9.19528C7.5 9.19516 7.5 9.19505 7.5 9.19494C7.5 9.19482 7.5 9.19471 7.5 9.1946C7.5 9.19449 7.5 9.19438 7.5 9.19427C7.5 9.19416 7.5 9.19405 7.5 9.19394C7.5 9.19383 7.5 9.19373 7.5 9.19362C7.5 9.19352 7.5 9.19341 7.5 9.19331C7.5 9.1932 7.5 9.1931 7.5 9.193C7.5 9.19289 7.5 9.19279 7.5 9.19269C7.5 9.19259 7.5 9.19249 7.5 9.1924C7.5 9.1923 7.5 9.1922 7.5 9.1921C7.5 9.19201 7.5 9.19191 7.5 9.19181C7.5 9.19172 7.5 9.19163 7.5 9.19153C7.5 9.19144 7.5 9.19135 7.5 9.19126C7.5 9.19116 7.5 9.19107 7.5 9.19098C7.5 9.19089 7.5 9.19081 7.5 9.19072C7.5 9.19063 7.5 9.19054 7.5 9.19046C7.5 9.19037 7.5 9.19028 7.5 9.1902C7.5 9.19012 7.5 9.19003 7.5 9.18995C7.5 9.18987 7.5 9.18979 7.5 9.1897C7.5 9.18962 7.5 9.18954 7.5 9.18946C7.5 9.18939 7.5 9.18931 7.5 9.18923C7.5 9.18915 7.5 9.18907 7.5 9.189C7.5 9.18892 7.5 9.18885 7.5 9.18877C7.5 9.1887 7.5 9.18863 7.5 9.18855C7.5 9.18848 7.5 9.18841 7.5 9.18834C7.5 9.18827 7.5 9.1882 7.5 9.18813C7.5 9.18806 7.5 9.18799 7.5 9.18792C7.5 9.18786 7.5 9.18779 7.5 9.18772C7.5 9.18766 7.5 9.18759 7.5 9.18753C7.5 9.18747 7.5 9.1874 7.5 9.18734C7.5 9.18728 7.5 9.18721 7.5 9.18715C7.5 9.18709 7.5 9.18703 7.5 9.18697C7.5 9.18691 7.5 9.18686 7.5 9.1868C7.5 9.18674 7.5 9.18668 7.5 9.18663C7.5 9.18657 7.5 9.18652 7.5 9.18646C7.5 9.18641 7.5 9.18635 7.5 9.1863C7.5 9.18625 7.5 9.1862 7.5 9.18614C7.5 9.18609 7.5 9.18604 7.5 9.18599C7.5 9.18594 7.5 9.18589 7.5 9.18585C7.5 9.1858 7.5 9.18575 7.5 9.1857C7.5 9.18566 7.5 9.18561 7.5 9.18556C7.5 9.18552 7.5 9.18548 7.5 9.18543C7.5 9.18539 7.5 9.18534 7.5 9.1853C7.5 9.18526 7.5 9.18522 7.5 9.18518C7.5 9.18514 7.5 9.1851 7.5 9.18506C7.5 9.18502 7.5 9.18498 7.5 9.18494C7.5 9.18491 7.5 9.18487 7.5 9.18483C7.5 9.1848 7.5 9.18476 7.5 9.18473C7.5 9.18469 7.5 9.18466 7.5 9.18462C7.5 9.18459 7.5 9.18456 7.5 9.18453C7.5 9.1845 7.5 9.18446 7.5 9.18443C7.5 9.1844 7.5 9.18437 7.5 9.18435C7.5 9.18432 7.5 9.18429 7.5 9.18426C7.5 9.18423 7.5 9.18421 7.5 9.18418C7.5 9.18416 7.5 9.18413 7.5 9.18411C7.5 9.18408 7.5 9.18406 7.5 9.18403C7.5 9.18401 7.5 9.18399 7.5 9.18397C7.5 9.18394 7.5 9.18392 7.5 9.1839C7.5 9.18388 7.5 9.18386 7.5 9.18384C7.5 9.18383 7.5 9.18381 7.5 9.18379C7.5 9.18377 7.5 9.18375 7.5 9.18374C7.5 9.18372 7.5 9.18371 7.5 9.18369C7.5 9.18368 7.5 9.18366 7.5 9.18365C7.5 9.18364 7.5 9.18362 7.5 9.18361C7.5 9.1836 7.5 9.18359 7.5 9.18358C7.5 9.18357 7.5 9.18356 7.5 9.18355C7.5 9.18354 7.5 9.18353 7.5 9.18352C7.5 9.18351 7.5 9.1835 7.5 9.1835C7.5 9.18349 7.5 9.18348 7.5 9.18348C7.5 9.18347 7.5 9.18347 7.5 9.18346C7.5 9.18346 7.5 9.18345 7.5 9.18345C7.5 9.18345 7.5 9.18345 7.5 9.18344C7.5 9.18344 7.5 9.18344 7.5 9.18344C6 9.18344 4.5 9.18344 4.5 9.18344C4.5 9.18344 4.5 9.18344 4.5 9.18345C4.5 9.18345 4.5 9.18345 4.5 9.18345C4.5 9.18346 4.5 9.18346 4.5 9.18347C4.5 9.18347 4.5 9.18347 4.5 9.18348C4.5 9.18349 4.5 9.18349 4.5 9.1835C4.5 9.18351 4.5 9.18351 4.5 9.18352C4.5 9.18353 4.5 9.18354 4.5 9.18355C4.5 9.18356 4.5 9.18357 4.5 9.18358C4.5 9.18359 4.5 9.1836 4.5 9.18361C4.5 9.18362 4.5 9.18363 4.5 9.18365C4.5 9.18366 4.5 9.18367 4.5 9.18369C4.5 9.1837 4.5 9.18372 4.5 9.18373C4.5 9.18375 4.5 9.18376 4.5 9.18378C4.5 9.18379 4.5 9.18381 4.5 9.18383C4.5 9.18385 4.5 9.18386 4.5 9.18388C4.5 9.1839 4.5 9.18392 4.5 9.18394C4.5 9.18396 4.5 9.18398 4.5 9.184C4.5 9.18402 4.5 9.18404 4.5 9.18407C4.5 9.18409 4.5 9.18411 4.5 9.18413C4.5 9.18416 4.5 9.18418 4.5 9.1842C4.5 9.18423 4.5 9.18425 4.5 9.18428C4.5 9.1843 4.5 9.18433 4.5 9.18435C4.5 9.18438 4.5 9.18441 4.5 9.18443C4.5 9.18446 4.5 9.18449 4.5 9.18452C4.5 9.18455 4.5 9.18458 4.5 9.18461C4.5 9.18463 4.5 9.18466 4.5 9.1847C4.5 9.18473 4.5 9.18476 4.5 9.18479C4.5 9.18482 4.5 9.18485 4.5 9.18488C4.5 9.18492 4.5 9.18495 4.5 9.18498C4.5 9.18502 4.5 9.18505 4.5 9.18508C4.5 9.18512 4.5 9.18515 4.5 9.18519C4.5 9.18522 4.5 9.18526 4.5 9.1853C4.5 9.18533 4.5 9.18537 4.5 9.18541C4.5 9.18545 4.5 9.18548 4.5 9.18552C4.5 9.18556 4.5 9.1856 4.5 9.18564C4.5 9.18568 4.5 9.18572 4.5 9.18576C4.5 9.1858 4.5 9.18584 4.5 9.18588C4.5 9.18592 4.5 9.18596 4.5 9.18601C4.5 9.18605 4.5 9.18609 4.5 9.18613C4.5 9.18618 4.5 9.18622 4.5 9.18626C4.5 9.18631 4.5 9.18635 4.5 9.1864C4.5 9.18644 4.5 9.18649 4.5 9.18653C4.5 9.18658 4.5 9.18663 4.5 9.18667C4.5 9.18672 4.5 9.18677 4.5 9.18681C4.5 9.18686 4.5 9.18691 4.5 9.18696C4.5 9.18701 4.5 9.18706 4.5 9.18711C4.5 9.18715 4.5 9.1872 4.5 9.18725C4.5 9.1873 4.5 9.18736 4.5 9.18741C4.5 9.18746 4.5 9.18751 4.5 9.18756C4.5 9.18761 4.5 9.18766 4.5 9.18772C4.5 9.18777 4.5 9.18782 4.5 9.18788C4.5 9.18793 4.5 9.18798 4.5 9.18804C4.5 9.18809 4.5 9.18815 4.5 9.1882C4.5 9.18826 4.5 9.18831 4.5 9.18837C4.5 9.18843 4.5 9.18848 4.5 9.18854C4.5 9.1886 4.5 9.18865 4.5 9.18871C4.5 9.18877 4.5 9.18883 4.5 9.18888C4.5 9.18894 4.5 9.189 4.5 9.18906C4.5 9.18912 4.5 9.18918 4.5 9.18924C4.5 9.1893 4.5 9.18936 4.5 9.18942C4.5 9.18948 4.5 9.18954 4.5 9.1896C4.5 9.18966 4.5 9.18972 4.5 9.18979C4.5 9.18985 4.5 9.18991 4.5 9.18997C4.5 9.19004 4.5 9.1901 4.5 9.19016C4.5 9.19023 4.5 9.19029 4.5 9.19036C4.5 9.19042 4.5 9.19048 4.5 9.19055C4.5 9.19061 4.5 9.19068 4.5 9.19074C4.5 9.19081 4.5 9.19088 4.5 9.19094C4.5 9.19101 4.5 9.19107 4.5 9.19114C4.5 9.19121 4.5 9.19128 4.5 9.19134C4.5 9.19141 4.5 9.19148 4.5 9.19155C4.5 9.19162 4.5 9.19168 4.5 9.19175C4.5 9.19182 4.5 9.19189 4.5 9.19196C4.5 9.19203 4.5 9.1921 4.5 9.19217C4.5 9.19224 4.5 9.19231 4.5 9.19238C4.5 9.19245 4.5 9.19252 4.5 9.19259C4.5 9.19267 4.5 9.19274 4.5 9.19281C4.5 9.19288 4.5 9.19295 4.5 9.19303C4.5 9.1931 4.5 9.19317 4.5 9.19324C4.5 9.19332 4.5 9.19339 4.5 9.19346C4.5 9.19354 4.5 9.19361 4.5 9.19369C4.5 9.19376 4.5 9.19384 4.5 9.19391C4.5 9.19398 4.5 9.19406 4.5 9.19414C4.5 9.19421 4.5 9.19429 4.5 9.19436C4.5 9.19444 4.5 9.19451 4.5 9.19459C4.5 9.19467 4.5 9.19474 4.5 9.19482C4.5 9.1949 4.5 9.19497 4.5 9.19505C4.5 9.19513 4.5 9.19521 4.5 9.19529C4.5 9.19536 4.5 9.19544 4.5 9.19552C4.5 9.1956 4.5 9.19568 4.5 9.19576C4.5 9.19584 4.5 9.19592 4.5 9.196C4.5 9.19607 4.5 9.19615 4.5 9.19623C4.5 9.19631 4.5 9.19639 4.5 9.19648C4.5 9.19656 4.5 9.19664 4.5 9.19672C4.5 9.1968 4.5 9.19688 4.5 9.19696C4.5 9.19704 4.5 9.19712 4.5 9.1972C4.5 9.19729 4.5 9.19737 4.5 9.19745C4.5 9.19753 4.5 9.19762 4.5 9.1977C4.5 9.19778 4.5 9.19786 4.5 9.19795C4.5 9.19803 4.5 9.19811 4.5 9.1982C4.5 9.19828 4.5 9.19836 4.5 9.19845C4.5 9.19853 4.5 9.19862 4.5 9.1987C4.5 9.19878 4.5 9.19887 4.5 9.19895C4.5 9.19904 4.5 9.19912 4.5 9.19921C4.5 9.19929 4.5 9.19938 4.5 9.19946C4.5 9.19955 4.5 9.19963 4.5 9.19972C4.5 9.1998 4.5 9.19989 4.5 9.19998C4.5 9.20006 4.5 9.20015 4.5 9.20024C4.5 9.20032 4.5 9.20041 4.5 9.20049C4.5 9.20058 4.5 9.20067 4.5 9.20076C4.5 9.20084 4.5 9.20093 4.5 9.20102C4.5 9.2011 4.5 9.20119 4.5 9.20128C4.5 9.20137 4.5 9.20146 4.5 9.20154C4.5 9.20163 4.5 9.20172 4.5 9.20181C4.5 9.2019 4.5 9.20198 4.5 9.20207C4.5 9.20216 4.5 9.20225 4.5 9.20234C4.5 9.20243 4.5 9.20252 4.5 9.20261C4.5 9.20269 4.5 9.20278 4.5 9.20287C4.5 9.20296 4.5 9.20305 4.5 9.20314C4.5 9.20323 4.5 9.20332 4.5 9.20341C4.5 9.2035 4.5 9.20359 4.5 9.20368C4.5 9.20377 4.5 9.20386 4.5 9.20395C4.5 9.20404 4.5 9.20413 4.5 9.20422C4.5 9.20431 4.5 9.2044 4.5 9.20449C4.5 9.20458 4.5 9.20467 4.5 9.20477C4.5 9.20486 4.5 9.20495 4.5 9.20504C4.5 9.20513 4.5 9.20522 4.5 9.20531C4.5 9.2054 4.5 9.20549 4.5 9.20559C4.5 9.20568 4.5 9.20577 4.5 9.20586C4.5 9.20595 4.5 9.20604 4.5 9.20613C4.5 9.20623 4.5 9.20632 4.5 9.20641C4.5 9.2065 4.5 9.20659 4.5 9.20669C4.5 9.20678 4.5 9.20687 4.5 9.20696C4.5 9.20705 4.5 9.20715 4.5 9.20724C4.5 9.20733 4.5 9.20742 4.5 9.20751C4.5 9.20761 4.5 9.2077 4.5 9.20779C4.5 9.20788 4.5 9.20798 4.5 9.20807C4.5 9.20816 4.5 9.20825 4.5 9.20835C4.5 9.20844 4.5 9.20853 4.5 9.20862C4.5 9.20872 4.5 9.20881 4.5 9.2089C4.5 9.209 4.5 9.20909 4.5 9.20918C4.5 9.20927 4.5 9.20937 4.5 9.20946C4.5 9.20955 4.5 9.20965 4.5 9.20974C4.5 9.20983 4.5 9.20992 4.5 9.21002C4.5 9.21011 4.5 9.2102 4.5 9.2103C4.5 9.21039 4.5 9.21048 4.5 9.21057C4.5 9.21067 4.5 9.21076 4.5 9.21085C4.5 9.21095 4.5 9.21104 4.5 9.21113C4.5 9.21122 4.5 9.21132 4.5 9.21141C4.5 9.2115 4.5 9.2116 4.5 9.21169C4.5 9.21178 4.5 9.21188 4.5 9.21197C4.5 9.21206 4.5 9.21215 4.5 9.21225C4.5 9.21234 4.5 9.21243 4.5 9.21253C4.5 9.21262 4.5 9.21271 4.5 9.2128C4.5 9.2129 4.5 9.21299 4.5 9.21308C4.5 9.21317 4.5 9.21327 4.5 9.21336C4.5 9.21345 4.5 9.21355 4.5 9.21364C4.5 9.21373 4.5 9.21382 4.5 9.21392C4.5 9.21401 4.5 9.2141 4.5 9.21419C4.5 9.21428 4.5 9.21438 4.5 9.21447C4.5 9.21456 4.5 9.21465 4.5 9.21475C4.5 9.21484 4.5 9.21493 4.5 9.21502C4.5 9.21511 4.5 9.21521 4.5 9.2153C4.5 9.21539 4.5 9.21548 4.5 9.21557C4.5 9.21567 4.5 9.21576 4.5 9.21585C4.5 9.21594 4.5 9.21603 4.5 9.21612C4.5 9.21622 4.5 9.21631 4.5 9.2164C4.5 9.21649 4.5 9.21658 4.5 9.21667C4.5 9.21676 4.5 9.21685 4.5 9.21694C4.5 9.21704 4.5 9.21713 4.5 9.21722C4.5 9.21731 4.5 9.2174 4.5 9.21749C4.5 9.21758 4.5 9.21767 4.5 9.21776C4.5 9.21785 4.5 9.21794 4.5 9.21803C4.5 9.21812 4.5 9.21821 4.5 9.2183C4.5 9.21839 4.5 9.21848 4.5 9.21857C4.5 9.21866 4.5 9.21875 4.5 9.21884C4.5 9.21893 4.5 9.21902 4.5 9.21911C4.5 9.2192 4.5 9.21929 4.5 9.21938C4.5 9.21946 4.5 9.21955 4.5 9.21964C4.5 9.21973 4.5 9.21982 4.5 9.21991C4.5 9.22 4.5 9.22008 4.5 9.22017C4.5 9.22026 4.5 9.22035 4.5 9.22044C4.5 9.22052 4.5 9.22061 4.5 9.2207C4.5 9.22079 4.5 9.22087 4.5 9.22096C4.5 9.22105 4.5 9.22114 4.5 9.22122C4.5 9.22131 4.5 9.2214 4.5 9.22148C4.5 9.22157 4.5 9.22166 4.5 9.22174C4.5 9.22183 4.5 9.22192 4.5 9.222C4.5 9.22209 4.5 9.22217 4.5 9.22226C4.5 9.22234 4.5 9.22243 4.5 9.22251C4.5 9.2226 4.5 9.22268 4.5 9.22277C4.5 9.22285 4.5 9.22294 4.5 9.22302C4.5 9.22311 4.5 9.22319 4.5 9.22328C4.5 9.22336 4.5 9.22344 4.5 9.22353C4.5 9.22361 4.5 9.22369 4.5 9.22378C4.5 9.22386 4.5 9.22394 4.5 9.22403C4.5 9.22411 4.5 9.22419 4.5 9.22428C4.5 9.22436 4.5 9.22444 4.5 9.22452C4.5 9.2246 4.5 9.22469 4.5 9.22477C4.5 9.22485 4.5 9.22493 4.5 9.22501C4.5 9.22509 4.5 9.22517 4.5 9.22526C4.5 9.22534 4.5 9.22542 4.5 9.2255C4.5 9.22558 4.5 9.22566 4.5 9.22574C4.5 9.22582 4.5 9.2259 4.5 9.22598C4.5 9.22605 4.5 9.22613 4.5 9.22621C4.5 9.22629 4.5 9.22637 4.5 9.22645C4.5 9.22653 4.5 9.2266 4.5 9.22668C4.5 9.22676 4.5 9.22684 4.5 9.22691C4.5 9.22699 4.5 9.22707 4.5 9.22715C4.5 9.22722 4.5 9.2273 4.5 9.22738C4.5 9.22745 4.5 9.22753 4.5 9.2276C4.5 9.22768 4.5 9.22775 4.5 9.22783C4.5 9.22791 4.5 9.22798 4.5 9.22805C4.5 9.22813 4.5 9.2282 4.5 9.22828C4.5 9.22835 4.5 9.22843 4.5 9.2285C4.5 9.22857 4.5 9.22865 4.5 9.22872C4.5 9.22879 4.5 9.22886 4.5 9.22894C4.5 9.22901 4.5 9.22908 4.5 9.22915C4.5 9.22922 4.5 9.2293 4.5 9.22937C4.5 9.22944 4.5 9.22951 4.5 9.22958C4.5 9.22965 4.5 9.22972 4.5 9.22979C4.5 9.22986 4.5 9.22993 4.5 9.23C4.5 9.23007 4.5 9.23014 4.5 9.23021C4.5 9.23027 4.5 9.23034 4.5 9.23041C4.5 9.23048 4.5 9.23055 4.5 9.23061C4.5 9.23068 4.5 9.23075 4.5 9.23081C4.5 9.23088 4.5 9.23095 4.5 9.23101C4.5 9.23108 4.5 9.23114 4.5 9.23121C4.5 9.23128 4.5 9.23134 4.5 9.2314C4.5 9.23147 4.5 9.23153 4.5 9.2316C4.5 9.23166 4.5 9.23172 4.5 9.23179C4.5 9.23185 4.5 9.23191 4.5 9.23198C4.5 9.23204 4.5 9.2321 4.5 9.23216C4.5 9.23222 4.5 9.23229 4.5 9.23235C4.5 9.23241 4.5 9.23247 4.5 9.23253C4.5 9.23259 4.5 9.23265 4.5 9.23271C4.5 9.23277 4.5 9.23283 4.5 9.23289C4.5 9.23295 4.5 9.233 4.5 9.23306C4.5 9.23312 4.5 9.23318 4.5 9.23323C4.5 9.23329 4.5 9.23335 4.5 9.23341C4.5 9.23346 4.5 9.23352 4.5 9.23357C4.5 9.23363 4.5 9.23368 4.5 9.23374C4.5 9.23379 4.5 9.23385 4.5 9.2339C4.5 9.23396 4.5 9.23401 4.5 9.23406C4.5 9.23412 4.5 9.23417 4.5 9.23422C4.5 9.23427 4.5 9.23433 4.5 9.23438C4.5 9.23443 4.5 9.23448 4.5 9.23453C4.5 9.23458 4.5 9.23463 4.5 9.23468C4.5 9.23473 4.5 9.23478 4.5 9.23483C4.5 9.23488 4.5 9.23493 4.5 9.23498C4.5 9.23502 4.5 9.23507 4.5 9.23512C4.5 9.23517 4.5 9.23521 4.5 9.23526C4.5 9.23531 4.5 9.23535 4.5 9.2354C4.5 9.23544 4.5 9.23549 4.5 9.23553C4.5 9.23558 4.5 9.23562 4.5 9.23567C4.5 9.23571 4.5 9.23575 4.5 9.2358C4.5 9.23584 4.5 9.23588 4.5 9.23592C4.5 9.23596 4.5 9.236 4.5 9.23605C4.5 9.23609 4.5 9.23613 4.5 9.23617C4.5 9.23621 4.5 9.23625 4.5 9.23629C4.5 9.23632 4.5 9.23636 4.5 9.2364C4.5 9.23644 4.5 9.23648 4.5 9.23651C4.5 9.23655 4.5 9.23659 4.5 9.23662C4.5 9.23666 4.5 9.2367 4.5 9.23673C4.5 9.23677 4.5 9.2368 4.5 9.23683C4.5 9.23687 4.5 9.2369 4.5 9.23693C4.5 9.23697 4.5 9.237 4.5 9.23703C4.5 9.23707 4.5 9.2371 4.5 9.23713C4.5 9.23716 4.5 9.23719 4.5 9.23722C4.5 9.23725 4.5 9.23728 4.5 9.23731C4.5 9.23734 4.5 9.23736 4.5 9.23739C4.5 9.23742 4.5 9.23745 4.5 9.23748C4.5 9.2375 4.5 9.23753 4.5 9.23755C4.5 9.23758 4.5 9.23761 4.5 9.23763C4.5 9.23766 4.5 9.23768 4.5 9.2377C4.5 9.23773 4.5 9.23775 4.5 9.23777C4.5 9.23779 4.5 9.23782 4.5 9.23784C4.5 9.23786 4.5 9.23788 4.5 9.2379C4.5 9.23792 4.5 9.23794 4.5 9.23796C4.5 9.23798 4.5 9.238 4.5 9.23802C4.5 9.23804 4.5 9.23805 4.5 9.23807C4.5 9.23809 4.5 9.2381 4.5 9.23812C4.5 9.23814 4.5 9.23815 4.5 9.23816C4.5 9.23818 4.5 9.23819 4.5 9.23821C4.5 9.23822 4.5 9.23823 4.5 9.23825C4.5 9.23826 4.5 9.23827 4.5 9.23828C4.5 9.23829 4.5 9.2383 4.5 9.23831C4.5 9.23832 4.5 9.23833 4.5 9.23834C4.5 9.23835 4.5 9.23836 4.5 9.23837C4.5 9.23837 4.5 9.23838 4.5 9.23839C4.5 9.23839 4.5 9.2384 4.5 9.23841C4.5 9.23841 4.5 9.23842 4.5 9.23842C4.5 9.23842 4.5 9.23843 4.5 9.23843C4.5 9.23843 4.5 9.23843 4.5 9.23844C4.5 9.23844 4.5 9.23844 4.5 9.23844C6 9.23844 7.5 9.23844 7.5 9.23844C7.5 9.23844 7.5 9.23844 7.5 9.23843C7.5 9.23843 7.5 9.23843 7.5 9.23842C7.5 9.23842 7.5 9.23842 7.5 9.23841C7.5 9.23841 7.5 9.2384 7.5 9.2384C7.5 9.23839 7.5 9.23838 7.5 9.23838C7.5 9.23837 7.5 9.23836 7.5 9.23835C7.5 9.23834 7.5 9.23833 7.5 9.23832C7.5 9.23831 7.5 9.2383 7.5 9.23829C7.5 9.23828 7.5 9.23827 7.5 9.23825C7.5 9.23824 7.5 9.23823 7.5 9.23821C7.5 9.2382 7.5 9.23819 7.5 9.23817C7.5 9.23816 7.5 9.23814 7.5 9.23812C7.5 9.23811 7.5 9.23809 7.5 9.23807C7.5 9.23805 7.5 9.23803 7.5 9.23801C7.5 9.23799 7.5 9.23797 7.5 9.23795C7.5 9.23793 7.5 9.23791 7.5 9.23789C7.5 9.23787 7.5 9.23784 7.5 9.23782C7.5 9.2378 7.5 9.23777 7.5 9.23775C7.5 9.23772 7.5 9.23769 7.5 9.23767C7.5 9.23764 7.5 9.23761 7.5 9.23759C7.5 9.23756 7.5 9.23753 7.5 9.2375C7.5 9.23747 7.5 9.23744 7.5 9.23741C7.5 9.23738 7.5 9.23735 7.5 9.23732C7.5 9.23728 7.5 9.23725 7.5 9.23722C7.5 9.23718 7.5 9.23715 7.5 9.23711C7.5 9.23708 7.5 9.23704 7.5 9.23701C7.5 9.23697 7.5 9.23693 7.5 9.23689C7.5 9.23685 7.5 9.23682 7.5 9.23678C7.5 9.23674 7.5 9.2367 7.5 9.23666C7.5 9.23661 7.5 9.23657 7.5 9.23653C7.5 9.23649 7.5 9.23644 7.5 9.2364C7.5 9.23635 7.5 9.23631 7.5 9.23626C7.5 9.23622 7.5 9.23617 7.5 9.23612C7.5 9.23608 7.5 9.23603 7.5 9.23598C7.5 9.23593 7.5 9.23588 7.5 9.23583C7.5 9.23578 7.5 9.23573 7.5 9.23568C7.5 9.23563 7.5 9.23557 7.5 9.23552C7.5 9.23547 7.5 9.23541 7.5 9.23536C7.5 9.2353 7.5 9.23524 7.5 9.23519C7.5 9.23513 7.5 9.23507 7.5 9.23502C7.5 9.23496 7.5 9.2349 7.5 9.23484C7.5 9.23478 7.5 9.23472 7.5 9.23466C7.5 9.23459 7.5 9.23453 7.5 9.23447C7.5 9.23441 7.5 9.23434 7.5 9.23428C7.5 9.23421 7.5 9.23415 7.5 9.23408C7.5 9.23401 7.5 9.23395 7.5 9.23388C7.5 9.23381 7.5 9.23374 7.5 9.23367C7.5 9.2336 7.5 9.23353 7.5 9.23346C7.5 9.23339 7.5 9.23332 7.5 9.23324C7.5 9.23317 7.5 9.2331 7.5 9.23302C7.5 9.23295 7.5 9.23287 7.5 9.23279C7.5 9.23272 7.5 9.23264 7.5 9.23256C7.5 9.23248 7.5 9.23241 7.5 9.23233C7.5 9.23225 7.5 9.23216 7.5 9.23208C7.5 9.232 7.5 9.23192 7.5 9.23184C7.5 9.23175 7.5 9.23167 7.5 9.23158C7.5 9.2315 7.5 9.23141 7.5 9.23133C7.5 9.23124 7.5 9.23115 7.5 9.23106C7.5 9.23097 7.5 9.23088 7.5 9.23079C7.5 9.2307 7.5 9.23061 7.5 9.23052C7.5 9.23043 7.5 9.23034 7.5 9.23024C7.5 9.23015 7.5 9.23005 7.5 9.22996C7.5 9.22986 7.5 9.22976 7.5 9.22967C7.5 9.22957 7.5 9.22947 7.5 9.22937C7.5 9.22927 7.5 9.22917 7.5 9.22907C7.5 9.22897 7.5 9.22887 7.5 9.22877C7.5 9.22866 7.5 9.22856 7.5 9.22845C7.5 9.22835 7.5 9.22824 7.5 9.22814C7.5 9.22803 7.5 9.22792 7.5 9.22782C7.5 9.22771 7.5 9.2276 7.5 9.22749C7.5 9.22738 7.5 9.22727 7.5 9.22715C7.5 9.22704 7.5 9.22693 7.5 9.22682C7.5 9.2267 7.5 9.22659 7.5 9.22647C7.5 9.22635 7.5 9.22624 7.5 9.22612C7.5 9.226 7.5 9.22588 7.5 9.22576C7.5 9.22564 7.5 9.22552 7.5 9.2254C7.5 9.22528 7.5 9.22516 7.5 9.22503C7.5 9.22491 7.5 9.22479 7.5 9.22466C7.5 9.22454 7.5 9.22441 7.5 9.22428C7.5 9.22415 7.5 9.22403 7.5 9.2239C7.5 9.22377 7.5 9.22364 7.5 9.22351C7.5 9.22338 7.5 9.22324 7.5 9.22311C7.5 9.22298 7.5 9.22284 7.5 9.22271C7.5 9.22257 7.5 9.22244 7.5 9.2223C7.5 9.22216 7.5 9.22202 7.5 9.22188C7.5 9.22175 7.5 9.22161 7.5 9.22146C7.5 9.22132 7.5 9.22118 7.5 9.22104C7.5 9.22089 7.5 9.22075 7.5 9.22061C7.5 9.22046 7.5 9.22031 7.5 9.22017C7.5 9.22002 7.5 9.21987 7.5 9.21972C7.5 9.21957 7.5 9.21942 7.5 9.21927C7.5 9.21912 7.5 9.21897 7.5 9.21882C7.5 9.21866 7.5 9.21851 7.5 9.21835C7.5 9.2182 7.5 9.21804 7.5 9.21789C7.5 9.21773 7.5 9.21757 7.5 9.21741C7.5 9.21725 7.5 9.21709 7.5 9.21693C7.5 9.21677 7.5 9.21661 7.5 9.21644C7.5 9.21628 7.5 9.21611 7.5 9.21595C7.5 9.21578 7.5 9.21562 7.5 9.21545C7.5 9.21528 7.5 9.21511 7.5 9.21494C7.5 9.21477 7.5 9.2146 7.5 9.21443C7.5 9.21426 7.5 9.21408 7.5 9.21391C7.5 9.21374 7.5 9.21356 7.5 9.21338C7.5 9.21321 7.5 9.21303 7.5 9.21285C7.5 9.21267 7.5 9.21249 7.5 9.21231C7.5 9.21213 7.5 9.21195 7.5 9.21177C7.5 9.21159 7.5 9.2114 7.5 9.21122C7.5 9.21103 7.5 9.21085 7.5 9.21066C7.5 9.21047 7.5 9.21029 7.5 9.2101C7.5 9.20991 7.5 9.20972 7.5 9.20953C7.5 9.20933 7.5 9.20914 7.5 9.20895C7.5 9.20875 7.5 9.20856 7.5 9.20836C7.5 9.20817 7.5 9.20797 7.5 9.20777H4.5ZM4.5 9.20777C4.5 9.20798 4.5 9.20819 4.5 9.2084C4.5 9.20861 4.5 9.20882 4.5 9.20902C4.5 9.20923 4.5 9.20943 4.5 9.20963C4.5 9.20984 4.5 9.21004 4.5 9.21024C4.5 9.21044 4.5 9.21064 4.5 9.21084C4.5 9.21103 4.5 9.21123 4.5 9.21143C4.5 9.21162 4.5 9.21182 4.5 9.21201C4.5 9.2122 4.5 9.21239 4.5 9.21258C4.5 9.21277 4.5 9.21296 4.5 9.21315C4.5 9.21334 4.5 9.21353 4.5 9.21371C4.5 9.2139 4.5 9.21408 4.5 9.21427C4.5 9.21445 4.5 9.21463 4.5 9.21481C4.5 9.21499 4.5 9.21517 4.5 9.21535C4.5 9.21553 4.5 9.21571 4.5 9.21588C4.5 9.21606 4.5 9.21624 4.5 9.21641C4.5 9.21658 4.5 9.21676 4.5 9.21693C4.5 9.2171 4.5 9.21727 4.5 9.21744C4.5 9.21761 4.5 9.21777 4.5 9.21794C4.5 9.21811 4.5 9.21827 4.5 9.21844C4.5 9.2186 4.5 9.21877 4.5 9.21893C4.5 9.21909 4.5 9.21925 4.5 9.21941C4.5 9.21957 4.5 9.21973 4.5 9.21989C4.5 9.22004 4.5 9.2202 4.5 9.22036C4.5 9.22051 4.5 9.22066 4.5 9.22082C4.5 9.22097 4.5 9.22112 4.5 9.22127C4.5 9.22142 4.5 9.22157 4.5 9.22172C4.5 9.22187 4.5 9.22202 4.5 9.22216C4.5 9.22231 4.5 9.22246 4.5 9.2226C4.5 9.22274 4.5 9.22289 4.5 9.22303C4.5 9.22317 4.5 9.22331 4.5 9.22345C4.5 9.22359 4.5 9.22373 4.5 9.22386C4.5 9.224 4.5 9.22414 4.5 9.22427C4.5 9.22441 4.5 9.22454 4.5 9.22467C4.5 9.22481 4.5 9.22494 4.5 9.22507C4.5 9.2252 4.5 9.22533 4.5 9.22546C4.5 9.22559 4.5 9.22571 4.5 9.22584C4.5 9.22597 4.5 9.22609 4.5 9.22622C4.5 9.22634 4.5 9.22646 4.5 9.22659C4.5 9.22671 4.5 9.22683 4.5 9.22695C4.5 9.22707 4.5 9.22719 4.5 9.2273C4.5 9.22742 4.5 9.22754 4.5 9.22765C4.5 9.22777 4.5 9.22788 4.5 9.228C4.5 9.22811 4.5 9.22822 4.5 9.22834C4.5 9.22845 4.5 9.22856 4.5 9.22867C4.5 9.22878 4.5 9.22888 4.5 9.22899C4.5 9.2291 4.5 9.22921 4.5 9.22931C4.5 9.22942 4.5 9.22952 4.5 9.22962C4.5 9.22973 4.5 9.22983 4.5 9.22993C4.5 9.23003 4.5 9.23013 4.5 9.23023C4.5 9.23033 4.5 9.23043 4.5 9.23053C4.5 9.23062 4.5 9.23072 4.5 9.23081C4.5 9.23091 4.5 9.231 4.5 9.2311C4.5 9.23119 4.5 9.23128 4.5 9.23137C4.5 9.23146 4.5 9.23155 4.5 9.23164C4.5 9.23173 4.5 9.23182 4.5 9.23191C4.5 9.23199 4.5 9.23208 4.5 9.23216C4.5 9.23225 4.5 9.23233 4.5 9.23242C4.5 9.2325 4.5 9.23258 4.5 9.23266C4.5 9.23275 4.5 9.23283 4.5 9.2329C4.5 9.23298 4.5 9.23306 4.5 9.23314C4.5 9.23322 4.5 9.23329 4.5 9.23337C4.5 9.23344 4.5 9.23352 4.5 9.23359C4.5 9.23367 4.5 9.23374 4.5 9.23381C4.5 9.23388 4.5 9.23395 4.5 9.23402C4.5 9.23409 4.5 9.23416 4.5 9.23423C4.5 9.2343 4.5 9.23436 4.5 9.23443C4.5 9.2345 4.5 9.23456 4.5 9.23463C4.5 9.23469 4.5 9.23475 4.5 9.23482C4.5 9.23488 4.5 9.23494 4.5 9.235C4.5 9.23506 4.5 9.23512 4.5 9.23518C4.5 9.23524 4.5 9.2353 4.5 9.23535C4.5 9.23541 4.5 9.23547 4.5 9.23552C4.5 9.23558 4.5 9.23563 4.5 9.23568C4.5 9.23574 4.5 9.23579 4.5 9.23584C4.5 9.23589 4.5 9.23594 4.5 9.23599C4.5 9.23604 4.5 9.23609 4.5 9.23614C4.5 9.23619 4.5 9.23623 4.5 9.23628C4.5 9.23633 4.5 9.23637 4.5 9.23642C4.5 9.23646 4.5 9.2365 4.5 9.23655C4.5 9.23659 4.5 9.23663 4.5 9.23667C4.5 9.23671 4.5 9.23675 4.5 9.23679C4.5 9.23683 4.5 9.23687 4.5 9.23691C4.5 9.23695 4.5 9.23698 4.5 9.23702C4.5 9.23705 4.5 9.23709 4.5 9.23712C4.5 9.23716 4.5 9.23719 4.5 9.23722C4.5 9.23726 4.5 9.23729 4.5 9.23732C4.5 9.23735 4.5 9.23738 4.5 9.23741C4.5 9.23744 4.5 9.23747 4.5 9.23749C4.5 9.23752 4.5 9.23755 4.5 9.23757C4.5 9.2376 4.5 9.23763 4.5 9.23765C4.5 9.23767 4.5 9.2377 4.5 9.23772C4.5 9.23774 4.5 9.23776 4.5 9.23779C4.5 9.23781 4.5 9.23783 4.5 9.23785C4.5 9.23787 4.5 9.23788 4.5 9.2379C4.5 9.23792 4.5 9.23794 4.5 9.23795C4.5 9.23797 4.5 9.23799 4.5 9.238C4.5 9.23802 4.5 9.23803 4.5 9.23804C4.5 9.23806 4.5 9.23807 4.5 9.23808C4.5 9.23809 4.5 9.2381 4.5 9.23811C4.5 9.23812 4.5 9.23813 4.5 9.23814C4.5 9.23815 4.5 9.23816 4.5 9.23816C4.5 9.23817 4.5 9.23818 4.5 9.23818C4.5 9.23819 4.5 9.23819 4.5 9.2382C4.5 9.2382 4.5 9.2382 4.5 9.23821C4.5 9.23821 4.5 9.23821 4.5 9.23821C4.5 9.23821 6 9.23821 7.5 9.23821C7.5 9.23821 7.5 9.23821 7.5 9.23821C7.5 9.23821 7.5 9.23821 7.5 9.2382C7.5 9.2382 7.5 9.23819 7.5 9.23819C7.5 9.23819 7.5 9.23818 7.5 9.23817C7.5 9.23817 7.5 9.23816 7.5 9.23815C7.5 9.23815 7.5 9.23814 7.5 9.23813C7.5 9.23812 7.5 9.23811 7.5 9.2381C7.5 9.23809 7.5 9.23808 7.5 9.23807C7.5 9.23805 7.5 9.23804 7.5 9.23803C7.5 9.23802 7.5 9.238 7.5 9.23799C7.5 9.23797 7.5 9.23796 7.5 9.23794C7.5 9.23793 7.5 9.23791 7.5 9.23789C7.5 9.23787 7.5 9.23786 7.5 9.23784C7.5 9.23782 7.5 9.2378 7.5 9.23778C7.5 9.23776 7.5 9.23774 7.5 9.23772C7.5 9.2377 7.5 9.23768 7.5 9.23765C7.5 9.23763 7.5 9.23761 7.5 9.23758C7.5 9.23756 7.5 9.23754 7.5 9.23751C7.5 9.23749 7.5 9.23746 7.5 9.23743C7.5 9.23741 7.5 9.23738 7.5 9.23735C7.5 9.23732 7.5 9.2373 7.5 9.23727C7.5 9.23724 7.5 9.23721 7.5 9.23718C7.5 9.23715 7.5 9.23712 7.5 9.23709C7.5 9.23705 7.5 9.23702 7.5 9.23699C7.5 9.23696 7.5 9.23692 7.5 9.23689C7.5 9.23686 7.5 9.23682 7.5 9.23679C7.5 9.23675 7.5 9.23672 7.5 9.23668C7.5 9.23664 7.5 9.23661 7.5 9.23657C7.5 9.23653 7.5 9.23649 7.5 9.23646C7.5 9.23642 7.5 9.23638 7.5 9.23634C7.5 9.2363 7.5 9.23626 7.5 9.23622C7.5 9.23618 7.5 9.23613 7.5 9.23609C7.5 9.23605 7.5 9.23601 7.5 9.23596C7.5 9.23592 7.5 9.23588 7.5 9.23583C7.5 9.23579 7.5 9.23574 7.5 9.2357C7.5 9.23565 7.5 9.23561 7.5 9.23556C7.5 9.23551 7.5 9.23547 7.5 9.23542C7.5 9.23537 7.5 9.23532 7.5 9.23527C7.5 9.23522 7.5 9.23518 7.5 9.23512C7.5 9.23507 7.5 9.23502 7.5 9.23497C7.5 9.23492 7.5 9.23487 7.5 9.23482C7.5 9.23477 7.5 9.23471 7.5 9.23466C7.5 9.23461 7.5 9.23456 7.5 9.2345C7.5 9.23445 7.5 9.23439 7.5 9.23434C7.5 9.23428 7.5 9.23423 7.5 9.23417C7.5 9.23411 7.5 9.23406 7.5 9.234C7.5 9.23394 7.5 9.23388 7.5 9.23383C7.5 9.23377 7.5 9.23371 7.5 9.23365C7.5 9.23359 7.5 9.23353 7.5 9.23347C7.5 9.23341 7.5 9.23335 7.5 9.23329C7.5 9.23323 7.5 9.23317 7.5 9.2331C7.5 9.23304 7.5 9.23298 7.5 9.23292C7.5 9.23285 7.5 9.23279 7.5 9.23273C7.5 9.23266 7.5 9.2326 7.5 9.23253C7.5 9.23247 7.5 9.2324 7.5 9.23234C7.5 9.23227 7.5 9.2322 7.5 9.23214C7.5 9.23207 7.5 9.232 7.5 9.23194C7.5 9.23187 7.5 9.2318 7.5 9.23173C7.5 9.23166 7.5 9.23159 7.5 9.23153C7.5 9.23146 7.5 9.23139 7.5 9.23132C7.5 9.23125 7.5 9.23117 7.5 9.2311C7.5 9.23103 7.5 9.23096 7.5 9.23089C7.5 9.23082 7.5 9.23074 7.5 9.23067C7.5 9.2306 7.5 9.23053 7.5 9.23045C7.5 9.23038 7.5 9.2303 7.5 9.23023C7.5 9.23015 7.5 9.23008 7.5 9.23C7.5 9.22993 7.5 9.22985 7.5 9.22978C7.5 9.2297 7.5 9.22962 7.5 9.22955C7.5 9.22947 7.5 9.22939 7.5 9.22931C7.5 9.22924 7.5 9.22916 7.5 9.22908C7.5 9.229 7.5 9.22892 7.5 9.22884C7.5 9.22876 7.5 9.22869 7.5 9.22861C7.5 9.22853 7.5 9.22845 7.5 9.22836C7.5 9.22828 7.5 9.2282 7.5 9.22812C7.5 9.22804 7.5 9.22796 7.5 9.22787C7.5 9.22779 7.5 9.22771 7.5 9.22763C7.5 9.22754 7.5 9.22746 7.5 9.22738C7.5 9.22729 7.5 9.22721 7.5 9.22713C7.5 9.22704 7.5 9.22696 7.5 9.22687C7.5 9.22679 7.5 9.2267 7.5 9.22661C7.5 9.22653 7.5 9.22644 7.5 9.22636C7.5 9.22627 7.5 9.22618 7.5 9.2261C7.5 9.22601 7.5 9.22592 7.5 9.22583C7.5 9.22575 7.5 9.22566 7.5 9.22557C7.5 9.22548 7.5 9.22539 7.5 9.22531C7.5 9.22522 7.5 9.22513 7.5 9.22504C7.5 9.22495 7.5 9.22486 7.5 9.22477C7.5 9.22468 7.5 9.22459 7.5 9.2245C7.5 9.22441 7.5 9.22432 7.5 9.22422C7.5 9.22413 7.5 9.22404 7.5 9.22395C7.5 9.22386 7.5 9.22377 7.5 9.22367C7.5 9.22358 7.5 9.22349 7.5 9.22339C7.5 9.2233 7.5 9.22321 7.5 9.22311C7.5 9.22302 7.5 9.22293 7.5 9.22283C7.5 9.22274 7.5 9.22264 7.5 9.22255C7.5 9.22246 7.5 9.22236 7.5 9.22227C7.5 9.22217 7.5 9.22207 7.5 9.22198C7.5 9.22188 7.5 9.22179 7.5 9.22169C7.5 9.22159 7.5 9.2215 7.5 9.2214C7.5 9.22131 7.5 9.22121 7.5 9.22111C7.5 9.22101 7.5 9.22092 7.5 9.22082C7.5 9.22072 7.5 9.22062 7.5 9.22053C7.5 9.22043 7.5 9.22033 7.5 9.22023C7.5 9.22013 7.5 9.22003 7.5 9.21994C7.5 9.21984 7.5 9.21974 7.5 9.21964C7.5 9.21954 7.5 9.21944 7.5 9.21934C7.5 9.21924 7.5 9.21914 7.5 9.21904C7.5 9.21894 7.5 9.21884 7.5 9.21874C7.5 9.21864 7.5 9.21854 7.5 9.21844C7.5 9.21834 7.5 9.21823 7.5 9.21813C7.5 9.21803 7.5 9.21793 7.5 9.21783C7.5 9.21773 7.5 9.21762 7.5 9.21752C7.5 9.21742 7.5 9.21732 7.5 9.21722C7.5 9.21711 7.5 9.21701 7.5 9.21691C7.5 9.21681 7.5 9.2167 7.5 9.2166C7.5 9.2165 7.5 9.21639 7.5 9.21629C7.5 9.21619 7.5 9.21608 7.5 9.21598C7.5 9.21588 7.5 9.21577 7.5 9.21567C7.5 9.21556 7.5 9.21546 7.5 9.21535C7.5 9.21525 7.5 9.21515 7.5 9.21504C7.5 9.21494 7.5 9.21483 7.5 9.21473C7.5 9.21462 7.5 9.21452 7.5 9.21441C7.5 9.21431 7.5 9.2142 7.5 9.2141C7.5 9.21399 7.5 9.21389 7.5 9.21378C7.5 9.21368 7.5 9.21357 7.5 9.21346C7.5 9.21336 7.5 9.21325 7.5 9.21315C7.5 9.21304 7.5 9.21293 7.5 9.21283C7.5 9.21272 7.5 9.21262 7.5 9.21251C7.5 9.2124 7.5 9.2123 7.5 9.21219C7.5 9.21208 7.5 9.21198 7.5 9.21187C7.5 9.21176 7.5 9.21166 7.5 9.21155C7.5 9.21144 7.5 9.21133 7.5 9.21123C7.5 9.21112 7.5 9.21101 7.5 9.21091C7.5 9.2108 7.5 9.21069 7.5 9.21058C7.5 9.21048 7.5 9.21037 7.5 9.21026C7.5 9.21015 7.5 9.21005 7.5 9.20994C7.5 9.20983 7.5 9.20972 7.5 9.20962C7.5 9.20951 7.5 9.2094 7.5 9.20929C7.5 9.20918 7.5 9.20908 7.5 9.20897C7.5 9.20886 7.5 9.20875 7.5 9.20864C7.5 9.20854 7.5 9.20843 7.5 9.20832C7.5 9.20821 7.5 9.2081 7.5 9.208C7.5 9.20789 7.5 9.20778 7.5 9.20767C7.5 9.20756 7.5 9.20745 7.5 9.20735C7.5 9.20724 7.5 9.20713 7.5 9.20702C7.5 9.20691 7.5 9.20681 7.5 9.2067C7.5 9.20659 7.5 9.20648 7.5 9.20637C7.5 9.20626 7.5 9.20615 7.5 9.20605C7.5 9.20594 7.5 9.20583 7.5 9.20572C7.5 9.20561 7.5 9.20551 7.5 9.2054C7.5 9.20529 7.5 9.20518 7.5 9.20507C7.5 9.20496 7.5 9.20486 7.5 9.20475C7.5 9.20464 7.5 9.20453 7.5 9.20442C7.5 9.20431 7.5 9.20421 7.5 9.2041C7.5 9.20399 7.5 9.20388 7.5 9.20377C7.5 9.20367 7.5 9.20356 7.5 9.20345C7.5 9.20334 7.5 9.20323 7.5 9.20313C7.5 9.20302 7.5 9.20291 7.5 9.2028C7.5 9.20269 7.5 9.20259 7.5 9.20248C7.5 9.20237 7.5 9.20226 7.5 9.20216C7.5 9.20205 7.5 9.20194 7.5 9.20183C7.5 9.20173 7.5 9.20162 7.5 9.20151C7.5 9.2014 7.5 9.2013 7.5 9.20119C7.5 9.20108 7.5 9.20098 7.5 9.20087C7.5 9.20076 7.5 9.20066 7.5 9.20055C7.5 9.20044 7.5 9.20034 7.5 9.20023C7.5 9.20012 7.5 9.20002 7.5 9.19991C7.5 9.1998 7.5 9.1997 7.5 9.19959C7.5 9.19948 7.5 9.19938 7.5 9.19927C7.5 9.19917 7.5 9.19906 7.5 9.19895C7.5 9.19885 7.5 9.19874 7.5 9.19864C7.5 9.19853 7.5 9.19843 7.5 9.19832C7.5 9.19821 7.5 9.19811 7.5 9.198C7.5 9.1979 7.5 9.19779 7.5 9.19769C7.5 9.19758 7.5 9.19748 7.5 9.19738C7.5 9.19727 7.5 9.19717 7.5 9.19706C7.5 9.19696 7.5 9.19685 7.5 9.19675C7.5 9.19665 7.5 9.19654 7.5 9.19644C7.5 9.19633 7.5 9.19623 7.5 9.19613C7.5 9.19602 7.5 9.19592 7.5 9.19582C7.5 9.19571 7.5 9.19561 7.5 9.19551C7.5 9.19541 7.5 9.1953 7.5 9.1952C7.5 9.1951 7.5 9.195 7.5 9.19489C7.5 9.19479 7.5 9.19469 7.5 9.19459C7.5 9.19449 7.5 9.19438 7.5 9.19428C7.5 9.19418 7.5 9.19408 7.5 9.19398C7.5 9.19388 7.5 9.19378 7.5 9.19368C7.5 9.19358 7.5 9.19348 7.5 9.19338C7.5 9.19328 7.5 9.19318 7.5 9.19308C7.5 9.19298 7.5 9.19288 7.5 9.19278C7.5 9.19268 7.5 9.19258 7.5 9.19248C7.5 9.19238 7.5 9.19228 7.5 9.19218C7.5 9.19209 7.5 9.19199 7.5 9.19189C7.5 9.19179 7.5 9.19169 7.5 9.1916C7.5 9.1915 7.5 9.1914 7.5 9.1913C7.5 9.19121 7.5 9.19111 7.5 9.19101C7.5 9.19092 7.5 9.19082 7.5 9.19072C7.5 9.19063 7.5 9.19053 7.5 9.19043C7.5 9.19034 7.5 9.19024 7.5 9.19015C7.5 9.19005 7.5 9.18996 7.5 9.18986C7.5 9.18977 7.5 9.18967 7.5 9.18958C7.5 9.18949 7.5 9.18939 7.5 9.1893C7.5 9.18921 7.5 9.18911 7.5 9.18902C7.5 9.18893 7.5 9.18883 7.5 9.18874C7.5 9.18865 7.5 9.18856 7.5 9.18846C7.5 9.18837 7.5 9.18828 7.5 9.18819C7.5 9.1881 7.5 9.18801 7.5 9.18791C7.5 9.18782 7.5 9.18773 7.5 9.18764C7.5 9.18755 7.5 9.18746 7.5 9.18737C7.5 9.18728 7.5 9.18719 7.5 9.18711C7.5 9.18702 7.5 9.18693 7.5 9.18684C7.5 9.18675 7.5 9.18666 7.5 9.18658C7.5 9.18649 7.5 9.1864 7.5 9.18631C7.5 9.18623 7.5 9.18614 7.5 9.18605C7.5 9.18597 7.5 9.18588 7.5 9.18579C7.5 9.18571 7.5 9.18562 7.5 9.18554C7.5 9.18545 7.5 9.18537 7.5 9.18528C7.5 9.1852 7.5 9.18512 7.5 9.18503C7.5 9.18495 7.5 9.18486 7.5 9.18478C7.5 9.1847 7.5 9.18462 7.5 9.18453C7.5 9.18445 7.5 9.18437 7.5 9.18429C7.5 9.18421 7.5 9.18412 7.5 9.18404C7.5 9.18396 7.5 9.18388 7.5 9.1838C7.5 9.18372 7.5 9.18364 7.5 9.18356C7.5 9.18348 7.5 9.18341 7.5 9.18333C7.5 9.18325 7.5 9.18317 7.5 9.18309C7.5 9.18301 7.5 9.18294 7.5 9.18286C7.5 9.18278 7.5 9.18271 7.5 9.18263C7.5 9.18255 7.5 9.18248 7.5 9.1824C7.5 9.18233 7.5 9.18225 7.5 9.18218C7.5 9.1821 7.5 9.18203 7.5 9.18195C7.5 9.18188 7.5 9.18181 7.5 9.18173C7.5 9.18166 7.5 9.18159 7.5 9.18152C7.5 9.18145 7.5 9.18137 7.5 9.1813C7.5 9.18123 7.5 9.18116 7.5 9.18109C7.5 9.18102 7.5 9.18095 7.5 9.18088C7.5 9.18081 7.5 9.18074 7.5 9.18067C7.5 9.1806 7.5 9.18054 7.5 9.18047C7.5 9.1804 7.5 9.18033 7.5 9.18027C7.5 9.1802 7.5 9.18013 7.5 9.18007C7.5 9.18 7.5 9.17993 7.5 9.17987C7.5 9.1798 7.5 9.17974 7.5 9.17968C7.5 9.17961 7.5 9.17955 7.5 9.17948C7.5 9.17942 7.5 9.17936 7.5 9.1793C7.5 9.17923 7.5 9.17917 7.5 9.17911C7.5 9.17905 7.5 9.17899 7.5 9.17893C7.5 9.17887 7.5 9.17881 7.5 9.17875C7.5 9.17869 7.5 9.17863 7.5 9.17857C7.5 9.17852 7.5 9.17846 7.5 9.1784C7.5 9.17834 7.5 9.17829 7.5 9.17823C7.5 9.17817 7.5 9.17812 7.5 9.17806C7.5 9.17801 7.5 9.17795 7.5 9.1779C7.5 9.17784 7.5 9.17779 7.5 9.17774C7.5 9.17768 7.5 9.17763 7.5 9.17758C7.5 9.17753 7.5 9.17747 7.5 9.17742C7.5 9.17737 7.5 9.17732 7.5 9.17727C7.5 9.17722 7.5 9.17717 7.5 9.17712C7.5 9.17707 7.5 9.17703 7.5 9.17698C7.5 9.17693 7.5 9.17688 7.5 9.17684C7.5 9.17679 7.5 9.17674 7.5 9.1767C7.5 9.17665 7.5 9.17661 7.5 9.17656C7.5 9.17652 7.5 9.17647 7.5 9.17643C7.5 9.17639 7.5 9.17634 7.5 9.1763C7.5 9.17626 7.5 9.17622 7.5 9.17618C7.5 9.17614 7.5 9.1761 7.5 9.17605C7.5 9.17602 7.5 9.17598 7.5 9.17594C7.5 9.1759 7.5 9.17586 7.5 9.17582C7.5 9.17579 7.5 9.17575 7.5 9.17571C7.5 9.17568 7.5 9.17564 7.5 9.1756C7.5 9.17557 7.5 9.17553 7.5 9.1755C7.5 9.17547 7.5 9.17543 7.5 9.1754C7.5 9.17537 7.5 9.17533 7.5 9.1753C7.5 9.17527 7.5 9.17524 7.5 9.17521C7.5 9.17518 7.5 9.17515 7.5 9.17512C7.5 9.17509 7.5 9.17506 7.5 9.17504C7.5 9.17501 7.5 9.17498 7.5 9.17496C7.5 9.17493 7.5 9.1749 7.5 9.17488C7.5 9.17485 7.5 9.17483 7.5 9.1748C7.5 9.17478 7.5 9.17476 7.5 9.17473C7.5 9.17471 7.5 9.17469 7.5 9.17467C7.5 9.17465 7.5 9.17463 7.5 9.17461C7.5 9.17459 7.5 9.17457 7.5 9.17455C7.5 9.17453 7.5 9.17451 7.5 9.17449C7.5 9.17448 7.5 9.17446 7.5 9.17444C7.5 9.17443 7.5 9.17441 7.5 9.1744C7.5 9.17438 7.5 9.17437 7.5 9.17435C7.5 9.17434 7.5 9.17433 7.5 9.17432C7.5 9.1743 7.5 9.17429 7.5 9.17428C7.5 9.17427 7.5 9.17426 7.5 9.17425C7.5 9.17424 7.5 9.17424 7.5 9.17423C7.5 9.17422 7.5 9.17421 7.5 9.17421C7.5 9.1742 7.5 9.1742 7.5 9.17419C7.5 9.17418 7.5 9.17418 7.5 9.17418C7.5 9.17417 7.5 9.17417 7.5 9.17417C7.5 9.17417 7.5 9.17417 7.5 9.17417C6 9.17416 4.5 9.17416 4.5 9.17417C4.5 9.17417 4.5 9.17417 4.5 9.17417C4.5 9.17417 4.5 9.17418 4.5 9.17418C4.5 9.17418 4.5 9.17419 4.5 9.17419C4.5 9.1742 4.5 9.17421 4.5 9.17421C4.5 9.17422 4.5 9.17423 4.5 9.17424C4.5 9.17424 4.5 9.17425 4.5 9.17426C4.5 9.17427 4.5 9.17428 4.5 9.17429C4.5 9.17431 4.5 9.17432 4.5 9.17433C4.5 9.17434 4.5 9.17436 4.5 9.17437C4.5 9.17439 4.5 9.1744 4.5 9.17442C4.5 9.17443 4.5 9.17445 4.5 9.17447C4.5 9.17449 4.5 9.17451 4.5 9.17453C4.5 9.17454 4.5 9.17456 4.5 9.17459C4.5 9.17461 4.5 9.17463 4.5 9.17465C4.5 9.17467 4.5 9.1747 4.5 9.17472C4.5 9.17474 4.5 9.17477 4.5 9.1748C4.5 9.17482 4.5 9.17485 4.5 9.17487C4.5 9.1749 4.5 9.17493 4.5 9.17496C4.5 9.17499 4.5 9.17502 4.5 9.17505C4.5 9.17508 4.5 9.17511 4.5 9.17514C4.5 9.17517 4.5 9.17521 4.5 9.17524C4.5 9.17528 4.5 9.17531 4.5 9.17535C4.5 9.17538 4.5 9.17542 4.5 9.17546C4.5 9.17549 4.5 9.17553 4.5 9.17557C4.5 9.17561 4.5 9.17565 4.5 9.17569C4.5 9.17573 4.5 9.17577 4.5 9.17582C4.5 9.17586 4.5 9.1759 4.5 9.17595C4.5 9.17599 4.5 9.17603 4.5 9.17608C4.5 9.17613 4.5 9.17617 4.5 9.17622C4.5 9.17627 4.5 9.17632 4.5 9.17637C4.5 9.17642 4.5 9.17647 4.5 9.17652C4.5 9.17657 4.5 9.17662 4.5 9.17668C4.5 9.17673 4.5 9.17678 4.5 9.17684C4.5 9.17689 4.5 9.17695 4.5 9.177C4.5 9.17706 4.5 9.17712 4.5 9.17718C4.5 9.17724 4.5 9.1773 4.5 9.17736C4.5 9.17742 4.5 9.17748 4.5 9.17754C4.5 9.1776 4.5 9.17766 4.5 9.17773C4.5 9.17779 4.5 9.17786 4.5 9.17792C4.5 9.17799 4.5 9.17806 4.5 9.17812C4.5 9.17819 4.5 9.17826 4.5 9.17833C4.5 9.1784 4.5 9.17847 4.5 9.17854C4.5 9.17861 4.5 9.17869 4.5 9.17876C4.5 9.17883 4.5 9.17891 4.5 9.17898C4.5 9.17906 4.5 9.17913 4.5 9.17921C4.5 9.17929 4.5 9.17937 4.5 9.17944C4.5 9.17952 4.5 9.1796 4.5 9.17968C4.5 9.17977 4.5 9.17985 4.5 9.17993C4.5 9.18001 4.5 9.1801 4.5 9.18018C4.5 9.18027 4.5 9.18035 4.5 9.18044C4.5 9.18053 4.5 9.18061 4.5 9.1807C4.5 9.18079 4.5 9.18088 4.5 9.18097C4.5 9.18106 4.5 9.18116 4.5 9.18125C4.5 9.18134 4.5 9.18144 4.5 9.18153C4.5 9.18163 4.5 9.18172 4.5 9.18182C4.5 9.18191 4.5 9.18201 4.5 9.18211C4.5 9.18221 4.5 9.18231 4.5 9.18241C4.5 9.18251 4.5 9.18261 4.5 9.18272C4.5 9.18282 4.5 9.18292 4.5 9.18303C4.5 9.18313 4.5 9.18324 4.5 9.18335C4.5 9.18345 4.5 9.18356 4.5 9.18367C4.5 9.18378 4.5 9.18389 4.5 9.184C4.5 9.18411 4.5 9.18423 4.5 9.18434C4.5 9.18445 4.5 9.18457 4.5 9.18468C4.5 9.1848 4.5 9.18491 4.5 9.18503C4.5 9.18515 4.5 9.18527 4.5 9.18539C4.5 9.18551 4.5 9.18563 4.5 9.18575C4.5 9.18587 4.5 9.18599 4.5 9.18612C4.5 9.18624 4.5 9.18637 4.5 9.18649C4.5 9.18662 4.5 9.18674 4.5 9.18687C4.5 9.187 4.5 9.18713 4.5 9.18726C4.5 9.18739 4.5 9.18752 4.5 9.18766C4.5 9.18779 4.5 9.18792 4.5 9.18806C4.5 9.18819 4.5 9.18833 4.5 9.18846C4.5 9.1886 4.5 9.18874 4.5 9.18888C4.5 9.18902 4.5 9.18916 4.5 9.1893C4.5 9.18944 4.5 9.18958 4.5 9.18973C4.5 9.18987 4.5 9.19001 4.5 9.19016C4.5 9.19031 4.5 9.19045 4.5 9.1906C4.5 9.19075 4.5 9.1909 4.5 9.19105C4.5 9.1912 4.5 9.19135 4.5 9.1915C4.5 9.19166 4.5 9.19181 4.5 9.19197C4.5 9.19212 4.5 9.19228 4.5 9.19243C4.5 9.19259 4.5 9.19275 4.5 9.19291C4.5 9.19307 4.5 9.19323 4.5 9.19339C4.5 9.19355 4.5 9.19372 4.5 9.19388C4.5 9.19404 4.5 9.19421 4.5 9.19438C4.5 9.19454 4.5 9.19471 4.5 9.19488C4.5 9.19505 4.5 9.19522 4.5 9.19539C4.5 9.19556 4.5 9.19573 4.5 9.1959C4.5 9.19608 4.5 9.19625 4.5 9.19643C4.5 9.1966 4.5 9.19678 4.5 9.19696C4.5 9.19714 4.5 9.19732 4.5 9.1975C4.5 9.19768 4.5 9.19786 4.5 9.19804C4.5 9.19823 4.5 9.19841 4.5 9.1986C4.5 9.19878 4.5 9.19897 4.5 9.19916C4.5 9.19934 4.5 9.19953 4.5 9.19972C4.5 9.19991 4.5 9.20011 4.5 9.2003C4.5 9.20049 4.5 9.20069 4.5 9.20088C4.5 9.20108 4.5 9.20127 4.5 9.20147C4.5 9.20167 4.5 9.20187 4.5 9.20207C4.5 9.20227 4.5 9.20247 4.5 9.20267C4.5 9.20287 4.5 9.20308 4.5 9.20328C4.5 9.20349 4.5 9.20369 4.5 9.2039C4.5 9.20411 4.5 9.20432 4.5 9.20453C4.5 9.20474 4.5 9.20495 4.5 9.20516C4.5 9.20537 4.5 9.20559 4.5 9.2058C4.5 9.20602 4.5 9.20623 4.5 9.20645C4.5 9.20667 4.5 9.20689 4.5 9.20711C4.5 9.20733 4.5 9.20755 4.5 9.20777H7.5C7.5 9.20755 7.5 9.20733 7.5 9.20711C7.5 9.20689 7.5 9.20667 7.5 9.20645C7.5 9.20623 7.5 9.20602 7.5 9.2058C7.5 9.20559 7.5 9.20537 7.5 9.20516C7.5 9.20495 7.5 9.20474 7.5 9.20453C7.5 9.20432 7.5 9.20411 7.5 9.2039C7.5 9.20369 7.5 9.20349 7.5 9.20328C7.5 9.20308 7.5 9.20287 7.5 9.20267C7.5 9.20247 7.5 9.20227 7.5 9.20207C7.5 9.20187 7.5 9.20167 7.5 9.20147C7.5 9.20127 7.5 9.20108 7.5 9.20088C7.5 9.20069 7.5 9.20049 7.5 9.2003C7.5 9.20011 7.5 9.19991 7.5 9.19972C7.5 9.19953 7.5 9.19934 7.5 9.19916C7.5 9.19897 7.5 9.19878 7.5 9.1986C7.5 9.19841 7.5 9.19823 7.5 9.19804C7.5 9.19786 7.5 9.19768 7.5 9.1975C7.5 9.19732 7.5 9.19714 7.5 9.19696C7.5 9.19678 7.5 9.1966 7.5 9.19643C7.5 9.19625 7.5 9.19608 7.5 9.1959C7.5 9.19573 7.5 9.19556 7.5 9.19539C7.5 9.19522 7.5 9.19505 7.5 9.19488C7.5 9.19471 7.5 9.19454 7.5 9.19438C7.5 9.19421 7.5 9.19404 7.5 9.19388C7.5 9.19372 7.5 9.19355 7.5 9.19339C7.5 9.19323 7.5 9.19307 7.5 9.19291C7.5 9.19275 7.5 9.19259 7.5 9.19243C7.5 9.19228 7.5 9.19212 7.5 9.19197C7.5 9.19181 7.5 9.19166 7.5 9.1915C7.5 9.19135 7.5 9.1912 7.5 9.19105C7.5 9.1909 7.5 9.19075 7.5 9.1906C7.5 9.19045 7.5 9.19031 7.5 9.19016C7.5 9.19001 7.5 9.18987 7.5 9.18973C7.5 9.18958 7.5 9.18944 7.5 9.1893C7.5 9.18916 7.5 9.18902 7.5 9.18888C7.5 9.18874 7.5 9.1886 7.5 9.18846C7.5 9.18833 7.5 9.18819 7.5 9.18806C7.5 9.18792 7.5 9.18779 7.5 9.18766C7.5 9.18752 7.5 9.18739 7.5 9.18726C7.5 9.18713 7.5 9.187 7.5 9.18687C7.5 9.18674 7.5 9.18662 7.5 9.18649C7.5 9.18637 7.5 9.18624 7.5 9.18612C7.5 9.18599 7.5 9.18587 7.5 9.18575C7.5 9.18563 7.5 9.18551 7.5 9.18539C7.5 9.18527 7.5 9.18515 7.5 9.18503C7.5 9.18491 7.5 9.1848 7.5 9.18468C7.5 9.18457 7.5 9.18445 7.5 9.18434C7.5 9.18423 7.5 9.18411 7.5 9.184C7.5 9.18389 7.5 9.18378 7.5 9.18367C7.5 9.18356 7.5 9.18345 7.5 9.18335C7.5 9.18324 7.5 9.18313 7.5 9.18303C7.5 9.18292 7.5 9.18282 7.5 9.18272C7.5 9.18261 7.5 9.18251 7.5 9.18241C7.5 9.18231 7.5 9.18221 7.5 9.18211C7.5 9.18201 7.5 9.18191 7.5 9.18182C7.5 9.18172 7.5 9.18163 7.5 9.18153C7.5 9.18144 7.5 9.18134 7.5 9.18125C7.5 9.18116 7.5 9.18106 7.5 9.18097C7.5 9.18088 7.5 9.18079 7.5 9.1807C7.5 9.18061 7.5 9.18053 7.5 9.18044C7.5 9.18035 7.5 9.18027 7.5 9.18018C7.5 9.1801 7.5 9.18001 7.5 9.17993C7.5 9.17985 7.5 9.17977 7.5 9.17968C7.5 9.1796 7.5 9.17952 7.5 9.17944C7.5 9.17937 7.5 9.17929 7.5 9.17921C7.5 9.17913 7.5 9.17906 7.5 9.17898C7.5 9.17891 7.5 9.17883 7.5 9.17876C7.5 9.17869 7.5 9.17861 7.5 9.17854C7.5 9.17847 7.5 9.1784 7.5 9.17833C7.5 9.17826 7.5 9.17819 7.5 9.17812C7.5 9.17806 7.5 9.17799 7.5 9.17792C7.5 9.17786 7.5 9.17779 7.5 9.17773C7.5 9.17766 7.5 9.1776 7.5 9.17754C7.5 9.17748 7.5 9.17742 7.5 9.17736C7.5 9.1773 7.5 9.17724 7.5 9.17718C7.5 9.17712 7.5 9.17706 7.5 9.177C7.5 9.17695 7.5 9.17689 7.5 9.17684C7.5 9.17678 7.5 9.17673 7.5 9.17668C7.5 9.17662 7.5 9.17657 7.5 9.17652C7.5 9.17647 7.5 9.17642 7.5 9.17637C7.5 9.17632 7.5 9.17627 7.5 9.17622C7.5 9.17617 7.5 9.17613 7.5 9.17608C7.5 9.17603 7.5 9.17599 7.5 9.17595C7.5 9.1759 7.5 9.17586 7.5 9.17582C7.5 9.17577 7.5 9.17573 7.5 9.17569C7.5 9.17565 7.5 9.17561 7.5 9.17557C7.5 9.17553 7.5 9.17549 7.5 9.17546C7.5 9.17542 7.5 9.17538 7.5 9.17535C7.5 9.17531 7.5 9.17528 7.5 9.17524C7.5 9.17521 7.5 9.17517 7.5 9.17514C7.5 9.17511 7.5 9.17508 7.5 9.17505C7.5 9.17502 7.5 9.17499 7.5 9.17496C7.5 9.17493 7.5 9.1749 7.5 9.17487C7.5 9.17485 7.5 9.17482 7.5 9.1748C7.5 9.17477 7.5 9.17474 7.5 9.17472C7.5 9.1747 7.5 9.17467 7.5 9.17465C7.5 9.17463 7.5 9.17461 7.5 9.17459C7.5 9.17456 7.5 9.17454 7.5 9.17453C7.5 9.17451 7.5 9.17449 7.5 9.17447C7.5 9.17445 7.5 9.17443 7.5 9.17442C7.5 9.1744 7.5 9.17439 7.5 9.17437C7.5 9.17436 7.5 9.17434 7.5 9.17433C7.5 9.17432 7.5 9.17431 7.5 9.17429C7.5 9.17428 7.5 9.17427 7.5 9.17426C7.5 9.17425 7.5 9.17424 7.5 9.17424C7.5 9.17423 7.5 9.17422 7.5 9.17421C7.5 9.17421 7.5 9.1742 7.5 9.17419C7.5 9.17419 7.5 9.17418 7.5 9.17418C7.5 9.17418 7.5 9.17417 7.5 9.17417C7.5 9.17417 7.5 9.17417 7.5 9.17417C7.5 9.17416 6 9.17416 4.5 9.17417C4.5 9.17417 4.5 9.17417 4.5 9.17417C4.5 9.17417 4.5 9.17417 4.5 9.17418C4.5 9.17418 4.5 9.17418 4.5 9.17419C4.5 9.1742 4.5 9.1742 4.5 9.17421C4.5 9.17421 4.5 9.17422 4.5 9.17423C4.5 9.17424 4.5 9.17424 4.5 9.17425C4.5 9.17426 4.5 9.17427 4.5 9.17428C4.5 9.17429 4.5 9.1743 4.5 9.17432C4.5 9.17433 4.5 9.17434 4.5 9.17435C4.5 9.17437 4.5 9.17438 4.5 9.1744C4.5 9.17441 4.5 9.17443 4.5 9.17444C4.5 9.17446 4.5 9.17448 4.5 9.17449C4.5 9.17451 4.5 9.17453 4.5 9.17455C4.5 9.17457 4.5 9.17459 4.5 9.17461C4.5 9.17463 4.5 9.17465 4.5 9.17467C4.5 9.17469 4.5 9.17471 4.5 9.17473C4.5 9.17476 4.5 9.17478 4.5 9.1748C4.5 9.17483 4.5 9.17485 4.5 9.17488C4.5 9.1749 4.5 9.17493 4.5 9.17496C4.5 9.17498 4.5 9.17501 4.5 9.17504C4.5 9.17506 4.5 9.17509 4.5 9.17512C4.5 9.17515 4.5 9.17518 4.5 9.17521C4.5 9.17524 4.5 9.17527 4.5 9.1753C4.5 9.17533 4.5 9.17537 4.5 9.1754C4.5 9.17543 4.5 9.17547 4.5 9.1755C4.5 9.17553 4.5 9.17557 4.5 9.1756C4.5 9.17564 4.5 9.17568 4.5 9.17571C4.5 9.17575 4.5 9.17579 4.5 9.17582C4.5 9.17586 4.5 9.1759 4.5 9.17594C4.5 9.17598 4.5 9.17602 4.5 9.17605C4.5 9.1761 4.5 9.17614 4.5 9.17618C4.5 9.17622 4.5 9.17626 4.5 9.1763C4.5 9.17634 4.5 9.17639 4.5 9.17643C4.5 9.17647 4.5 9.17652 4.5 9.17656C4.5 9.17661 4.5 9.17665 4.5 9.1767C4.5 9.17674 4.5 9.17679 4.5 9.17684C4.5 9.17688 4.5 9.17693 4.5 9.17698C4.5 9.17703 4.5 9.17707 4.5 9.17712C4.5 9.17717 4.5 9.17722 4.5 9.17727C4.5 9.17732 4.5 9.17737 4.5 9.17742C4.5 9.17747 4.5 9.17753 4.5 9.17758C4.5 9.17763 4.5 9.17768 4.5 9.17774C4.5 9.17779 4.5 9.17784 4.5 9.1779C4.5 9.17795 4.5 9.17801 4.5 9.17806C4.5 9.17812 4.5 9.17817 4.5 9.17823C4.5 9.17829 4.5 9.17834 4.5 9.1784C4.5 9.17846 4.5 9.17852 4.5 9.17857C4.5 9.17863 4.5 9.17869 4.5 9.17875C4.5 9.17881 4.5 9.17887 4.5 9.17893C4.5 9.17899 4.5 9.17905 4.5 9.17911C4.5 9.17917 4.5 9.17923 4.5 9.1793C4.5 9.17936 4.5 9.17942 4.5 9.17948C4.5 9.17955 4.5 9.17961 4.5 9.17968C4.5 9.17974 4.5 9.1798 4.5 9.17987C4.5 9.17993 4.5 9.18 4.5 9.18007C4.5 9.18013 4.5 9.1802 4.5 9.18027C4.5 9.18033 4.5 9.1804 4.5 9.18047C4.5 9.18054 4.5 9.1806 4.5 9.18067C4.5 9.18074 4.5 9.18081 4.5 9.18088C4.5 9.18095 4.5 9.18102 4.5 9.18109C4.5 9.18116 4.5 9.18123 4.5 9.1813C4.5 9.18137 4.5 9.18145 4.5 9.18152C4.5 9.18159 4.5 9.18166 4.5 9.18173C4.5 9.18181 4.5 9.18188 4.5 9.18195C4.5 9.18203 4.5 9.1821 4.5 9.18218C4.5 9.18225 4.5 9.18233 4.5 9.1824C4.5 9.18248 4.5 9.18255 4.5 9.18263C4.5 9.18271 4.5 9.18278 4.5 9.18286C4.5 9.18294 4.5 9.18301 4.5 9.18309C4.5 9.18317 4.5 9.18325 4.5 9.18333C4.5 9.18341 4.5 9.18348 4.5 9.18356C4.5 9.18364 4.5 9.18372 4.5 9.1838C4.5 9.18388 4.5 9.18396 4.5 9.18404C4.5 9.18412 4.5 9.18421 4.5 9.18429C4.5 9.18437 4.5 9.18445 4.5 9.18453C4.5 9.18462 4.5 9.1847 4.5 9.18478C4.5 9.18486 4.5 9.18495 4.5 9.18503C4.5 9.18512 4.5 9.1852 4.5 9.18528C4.5 9.18537 4.5 9.18545 4.5 9.18554C4.5 9.18562 4.5 9.18571 4.5 9.18579C4.5 9.18588 4.5 9.18597 4.5 9.18605C4.5 9.18614 4.5 9.18623 4.5 9.18631C4.5 9.1864 4.5 9.18649 4.5 9.18658C4.5 9.18666 4.5 9.18675 4.5 9.18684C4.5 9.18693 4.5 9.18702 4.5 9.18711C4.5 9.18719 4.5 9.18728 4.5 9.18737C4.5 9.18746 4.5 9.18755 4.5 9.18764C4.5 9.18773 4.5 9.18782 4.5 9.18791C4.5 9.18801 4.5 9.1881 4.5 9.18819C4.5 9.18828 4.5 9.18837 4.5 9.18846C4.5 9.18856 4.5 9.18865 4.5 9.18874C4.5 9.18883 4.5 9.18893 4.5 9.18902C4.5 9.18911 4.5 9.18921 4.5 9.1893C4.5 9.18939 4.5 9.18949 4.5 9.18958C4.5 9.18967 4.5 9.18977 4.5 9.18986C4.5 9.18996 4.5 9.19005 4.5 9.19015C4.5 9.19024 4.5 9.19034 4.5 9.19043C4.5 9.19053 4.5 9.19063 4.5 9.19072C4.5 9.19082 4.5 9.19092 4.5 9.19101C4.5 9.19111 4.5 9.19121 4.5 9.1913C4.5 9.1914 4.5 9.1915 4.5 9.1916C4.5 9.19169 4.5 9.19179 4.5 9.19189C4.5 9.19199 4.5 9.19209 4.5 9.19218C4.5 9.19228 4.5 9.19238 4.5 9.19248C4.5 9.19258 4.5 9.19268 4.5 9.19278C4.5 9.19288 4.5 9.19298 4.5 9.19308C4.5 9.19318 4.5 9.19328 4.5 9.19338C4.5 9.19348 4.5 9.19358 4.5 9.19368C4.5 9.19378 4.5 9.19388 4.5 9.19398C4.5 9.19408 4.5 9.19418 4.5 9.19428C4.5 9.19438 4.5 9.19449 4.5 9.19459C4.5 9.19469 4.5 9.19479 4.5 9.19489C4.5 9.195 4.5 9.1951 4.5 9.1952C4.5 9.1953 4.5 9.19541 4.5 9.19551C4.5 9.19561 4.5 9.19571 4.5 9.19582C4.5 9.19592 4.5 9.19602 4.5 9.19613C4.5 9.19623 4.5 9.19633 4.5 9.19644C4.5 9.19654 4.5 9.19665 4.5 9.19675C4.5 9.19685 4.5 9.19696 4.5 9.19706C4.5 9.19717 4.5 9.19727 4.5 9.19738C4.5 9.19748 4.5 9.19758 4.5 9.19769C4.5 9.19779 4.5 9.1979 4.5 9.198C4.5 9.19811 4.5 9.19821 4.5 9.19832C4.5 9.19843 4.5 9.19853 4.5 9.19864C4.5 9.19874 4.5 9.19885 4.5 9.19895C4.5 9.19906 4.5 9.19917 4.5 9.19927C4.5 9.19938 4.5 9.19948 4.5 9.19959C4.5 9.1997 4.5 9.1998 4.5 9.19991C4.5 9.20002 4.5 9.20012 4.5 9.20023C4.5 9.20034 4.5 9.20044 4.5 9.20055C4.5 9.20066 4.5 9.20076 4.5 9.20087C4.5 9.20098 4.5 9.20108 4.5 9.20119C4.5 9.2013 4.5 9.2014 4.5 9.20151C4.5 9.20162 4.5 9.20173 4.5 9.20183C4.5 9.20194 4.5 9.20205 4.5 9.20216C4.5 9.20226 4.5 9.20237 4.5 9.20248C4.5 9.20259 4.5 9.20269 4.5 9.2028C4.5 9.20291 4.5 9.20302 4.5 9.20313C4.5 9.20323 4.5 9.20334 4.5 9.20345C4.5 9.20356 4.5 9.20367 4.5 9.20377C4.5 9.20388 4.5 9.20399 4.5 9.2041C4.5 9.20421 4.5 9.20431 4.5 9.20442C4.5 9.20453 4.5 9.20464 4.5 9.20475C4.5 9.20486 4.5 9.20496 4.5 9.20507C4.5 9.20518 4.5 9.20529 4.5 9.2054C4.5 9.20551 4.5 9.20561 4.5 9.20572C4.5 9.20583 4.5 9.20594 4.5 9.20605C4.5 9.20615 4.5 9.20626 4.5 9.20637C4.5 9.20648 4.5 9.20659 4.5 9.2067C4.5 9.20681 4.5 9.20691 4.5 9.20702C4.5 9.20713 4.5 9.20724 4.5 9.20735C4.5 9.20745 4.5 9.20756 4.5 9.20767C4.5 9.20778 4.5 9.20789 4.5 9.208C4.5 9.2081 4.5 9.20821 4.5 9.20832C4.5 9.20843 4.5 9.20854 4.5 9.20864C4.5 9.20875 4.5 9.20886 4.5 9.20897C4.5 9.20908 4.5 9.20918 4.5 9.20929C4.5 9.2094 4.5 9.20951 4.5 9.20962C4.5 9.20972 4.5 9.20983 4.5 9.20994C4.5 9.21005 4.5 9.21015 4.5 9.21026C4.5 9.21037 4.5 9.21048 4.5 9.21058C4.5 9.21069 4.5 9.2108 4.5 9.21091C4.5 9.21101 4.5 9.21112 4.5 9.21123C4.5 9.21133 4.5 9.21144 4.5 9.21155C4.5 9.21166 4.5 9.21176 4.5 9.21187C4.5 9.21198 4.5 9.21208 4.5 9.21219C4.5 9.2123 4.5 9.2124 4.5 9.21251C4.5 9.21262 4.5 9.21272 4.5 9.21283C4.5 9.21293 4.5 9.21304 4.5 9.21315C4.5 9.21325 4.5 9.21336 4.5 9.21346C4.5 9.21357 4.5 9.21368 4.5 9.21378C4.5 9.21389 4.5 9.21399 4.5 9.2141C4.5 9.2142 4.5 9.21431 4.5 9.21441C4.5 9.21452 4.5 9.21462 4.5 9.21473C4.5 9.21483 4.5 9.21494 4.5 9.21504C4.5 9.21515 4.5 9.21525 4.5 9.21535C4.5 9.21546 4.5 9.21556 4.5 9.21567C4.5 9.21577 4.5 9.21588 4.5 9.21598C4.5 9.21608 4.5 9.21619 4.5 9.21629C4.5 9.21639 4.5 9.2165 4.5 9.2166C4.5 9.2167 4.5 9.21681 4.5 9.21691C4.5 9.21701 4.5 9.21711 4.5 9.21722C4.5 9.21732 4.5 9.21742 4.5 9.21752C4.5 9.21762 4.5 9.21773 4.5 9.21783C4.5 9.21793 4.5 9.21803 4.5 9.21813C4.5 9.21823 4.5 9.21834 4.5 9.21844C4.5 9.21854 4.5 9.21864 4.5 9.21874C4.5 9.21884 4.5 9.21894 4.5 9.21904C4.5 9.21914 4.5 9.21924 4.5 9.21934C4.5 9.21944 4.5 9.21954 4.5 9.21964C4.5 9.21974 4.5 9.21984 4.5 9.21994C4.5 9.22003 4.5 9.22013 4.5 9.22023C4.5 9.22033 4.5 9.22043 4.5 9.22053C4.5 9.22062 4.5 9.22072 4.5 9.22082C4.5 9.22092 4.5 9.22101 4.5 9.22111C4.5 9.22121 4.5 9.22131 4.5 9.2214C4.5 9.2215 4.5 9.22159 4.5 9.22169C4.5 9.22179 4.5 9.22188 4.5 9.22198C4.5 9.22207 4.5 9.22217 4.5 9.22227C4.5 9.22236 4.5 9.22246 4.5 9.22255C4.5 9.22264 4.5 9.22274 4.5 9.22283C4.5 9.22293 4.5 9.22302 4.5 9.22311C4.5 9.22321 4.5 9.2233 4.5 9.22339C4.5 9.22349 4.5 9.22358 4.5 9.22367C4.5 9.22377 4.5 9.22386 4.5 9.22395C4.5 9.22404 4.5 9.22413 4.5 9.22422C4.5 9.22432 4.5 9.22441 4.5 9.2245C4.5 9.22459 4.5 9.22468 4.5 9.22477C4.5 9.22486 4.5 9.22495 4.5 9.22504C4.5 9.22513 4.5 9.22522 4.5 9.22531C4.5 9.22539 4.5 9.22548 4.5 9.22557C4.5 9.22566 4.5 9.22575 4.5 9.22583C4.5 9.22592 4.5 9.22601 4.5 9.2261C4.5 9.22618 4.5 9.22627 4.5 9.22636C4.5 9.22644 4.5 9.22653 4.5 9.22661C4.5 9.2267 4.5 9.22679 4.5 9.22687C4.5 9.22696 4.5 9.22704 4.5 9.22713C4.5 9.22721 4.5 9.22729 4.5 9.22738C4.5 9.22746 4.5 9.22754 4.5 9.22763C4.5 9.22771 4.5 9.22779 4.5 9.22787C4.5 9.22796 4.5 9.22804 4.5 9.22812C4.5 9.2282 4.5 9.22828 4.5 9.22836C4.5 9.22845 4.5 9.22853 4.5 9.22861C4.5 9.22869 4.5 9.22876 4.5 9.22884C4.5 9.22892 4.5 9.229 4.5 9.22908C4.5 9.22916 4.5 9.22924 4.5 9.22931C4.5 9.22939 4.5 9.22947 4.5 9.22955C4.5 9.22962 4.5 9.2297 4.5 9.22978C4.5 9.22985 4.5 9.22993 4.5 9.23C4.5 9.23008 4.5 9.23015 4.5 9.23023C4.5 9.2303 4.5 9.23038 4.5 9.23045C4.5 9.23053 4.5 9.2306 4.5 9.23067C4.5 9.23074 4.5 9.23082 4.5 9.23089C4.5 9.23096 4.5 9.23103 4.5 9.2311C4.5 9.23117 4.5 9.23125 4.5 9.23132C4.5 9.23139 4.5 9.23146 4.5 9.23153C4.5 9.23159 4.5 9.23166 4.5 9.23173C4.5 9.2318 4.5 9.23187 4.5 9.23194C4.5 9.232 4.5 9.23207 4.5 9.23214C4.5 9.2322 4.5 9.23227 4.5 9.23234C4.5 9.2324 4.5 9.23247 4.5 9.23253C4.5 9.2326 4.5 9.23266 4.5 9.23273C4.5 9.23279 4.5 9.23285 4.5 9.23292C4.5 9.23298 4.5 9.23304 4.5 9.2331C4.5 9.23317 4.5 9.23323 4.5 9.23329C4.5 9.23335 4.5 9.23341 4.5 9.23347C4.5 9.23353 4.5 9.23359 4.5 9.23365C4.5 9.23371 4.5 9.23377 4.5 9.23383C4.5 9.23388 4.5 9.23394 4.5 9.234C4.5 9.23406 4.5 9.23411 4.5 9.23417C4.5 9.23423 4.5 9.23428 4.5 9.23434C4.5 9.23439 4.5 9.23445 4.5 9.2345C4.5 9.23456 4.5 9.23461 4.5 9.23466C4.5 9.23471 4.5 9.23477 4.5 9.23482C4.5 9.23487 4.5 9.23492 4.5 9.23497C4.5 9.23502 4.5 9.23507 4.5 9.23512C4.5 9.23518 4.5 9.23522 4.5 9.23527C4.5 9.23532 4.5 9.23537 4.5 9.23542C4.5 9.23547 4.5 9.23551 4.5 9.23556C4.5 9.23561 4.5 9.23565 4.5 9.2357C4.5 9.23574 4.5 9.23579 4.5 9.23583C4.5 9.23588 4.5 9.23592 4.5 9.23596C4.5 9.23601 4.5 9.23605 4.5 9.23609C4.5 9.23613 4.5 9.23618 4.5 9.23622C4.5 9.23626 4.5 9.2363 4.5 9.23634C4.5 9.23638 4.5 9.23642 4.5 9.23646C4.5 9.23649 4.5 9.23653 4.5 9.23657C4.5 9.23661 4.5 9.23664 4.5 9.23668C4.5 9.23672 4.5 9.23675 4.5 9.23679C4.5 9.23682 4.5 9.23686 4.5 9.23689C4.5 9.23692 4.5 9.23696 4.5 9.23699C4.5 9.23702 4.5 9.23705 4.5 9.23709C4.5 9.23712 4.5 9.23715 4.5 9.23718C4.5 9.23721 4.5 9.23724 4.5 9.23727C4.5 9.2373 4.5 9.23732 4.5 9.23735C4.5 9.23738 4.5 9.23741 4.5 9.23743C4.5 9.23746 4.5 9.23749 4.5 9.23751C4.5 9.23754 4.5 9.23756 4.5 9.23758C4.5 9.23761 4.5 9.23763 4.5 9.23765C4.5 9.23768 4.5 9.2377 4.5 9.23772C4.5 9.23774 4.5 9.23776 4.5 9.23778C4.5 9.2378 4.5 9.23782 4.5 9.23784C4.5 9.23786 4.5 9.23787 4.5 9.23789C4.5 9.23791 4.5 9.23793 4.5 9.23794C4.5 9.23796 4.5 9.23797 4.5 9.23799C4.5 9.238 4.5 9.23802 4.5 9.23803C4.5 9.23804 4.5 9.23805 4.5 9.23807C4.5 9.23808 4.5 9.23809 4.5 9.2381C4.5 9.23811 4.5 9.23812 4.5 9.23813C4.5 9.23814 4.5 9.23815 4.5 9.23815C4.5 9.23816 4.5 9.23817 4.5 9.23817C4.5 9.23818 4.5 9.23819 4.5 9.23819C4.5 9.23819 4.5 9.2382 4.5 9.2382C4.5 9.23821 4.5 9.23821 4.5 9.23821C4.5 9.23821 4.5 9.23821 4.5 9.23821C6 9.23821 7.5 9.23821 7.5 9.23821C7.5 9.23821 7.5 9.23821 7.5 9.23821C7.5 9.2382 7.5 9.2382 7.5 9.2382C7.5 9.23819 7.5 9.23819 7.5 9.23818C7.5 9.23818 7.5 9.23817 7.5 9.23816C7.5 9.23816 7.5 9.23815 7.5 9.23814C7.5 9.23813 7.5 9.23812 7.5 9.23811C7.5 9.2381 7.5 9.23809 7.5 9.23808C7.5 9.23807 7.5 9.23806 7.5 9.23804C7.5 9.23803 7.5 9.23802 7.5 9.238C7.5 9.23799 7.5 9.23797 7.5 9.23795C7.5 9.23794 7.5 9.23792 7.5 9.2379C7.5 9.23788 7.5 9.23787 7.5 9.23785C7.5 9.23783 7.5 9.23781 7.5 9.23779C7.5 9.23776 7.5 9.23774 7.5 9.23772C7.5 9.2377 7.5 9.23767 7.5 9.23765C7.5 9.23763 7.5 9.2376 7.5 9.23757C7.5 9.23755 7.5 9.23752 7.5 9.23749C7.5 9.23747 7.5 9.23744 7.5 9.23741C7.5 9.23738 7.5 9.23735 7.5 9.23732C7.5 9.23729 7.5 9.23726 7.5 9.23722C7.5 9.23719 7.5 9.23716 7.5 9.23712C7.5 9.23709 7.5 9.23705 7.5 9.23702C7.5 9.23698 7.5 9.23695 7.5 9.23691C7.5 9.23687 7.5 9.23683 7.5 9.23679C7.5 9.23675 7.5 9.23671 7.5 9.23667C7.5 9.23663 7.5 9.23659 7.5 9.23655C7.5 9.2365 7.5 9.23646 7.5 9.23642C7.5 9.23637 7.5 9.23633 7.5 9.23628C7.5 9.23623 7.5 9.23619 7.5 9.23614C7.5 9.23609 7.5 9.23604 7.5 9.23599C7.5 9.23594 7.5 9.23589 7.5 9.23584C7.5 9.23579 7.5 9.23574 7.5 9.23568C7.5 9.23563 7.5 9.23558 7.5 9.23552C7.5 9.23547 7.5 9.23541 7.5 9.23535C7.5 9.2353 7.5 9.23524 7.5 9.23518C7.5 9.23512 7.5 9.23506 7.5 9.235C7.5 9.23494 7.5 9.23488 7.5 9.23482C7.5 9.23475 7.5 9.23469 7.5 9.23463C7.5 9.23456 7.5 9.2345 7.5 9.23443C7.5 9.23436 7.5 9.2343 7.5 9.23423C7.5 9.23416 7.5 9.23409 7.5 9.23402C7.5 9.23395 7.5 9.23388 7.5 9.23381C7.5 9.23374 7.5 9.23367 7.5 9.23359C7.5 9.23352 7.5 9.23344 7.5 9.23337C7.5 9.23329 7.5 9.23322 7.5 9.23314C7.5 9.23306 7.5 9.23298 7.5 9.2329C7.5 9.23283 7.5 9.23275 7.5 9.23266C7.5 9.23258 7.5 9.2325 7.5 9.23242C7.5 9.23233 7.5 9.23225 7.5 9.23216C7.5 9.23208 7.5 9.23199 7.5 9.23191C7.5 9.23182 7.5 9.23173 7.5 9.23164C7.5 9.23155 7.5 9.23146 7.5 9.23137C7.5 9.23128 7.5 9.23119 7.5 9.2311C7.5 9.231 7.5 9.23091 7.5 9.23081C7.5 9.23072 7.5 9.23062 7.5 9.23053C7.5 9.23043 7.5 9.23033 7.5 9.23023C7.5 9.23013 7.5 9.23003 7.5 9.22993C7.5 9.22983 7.5 9.22973 7.5 9.22962C7.5 9.22952 7.5 9.22942 7.5 9.22931C7.5 9.22921 7.5 9.2291 7.5 9.22899C7.5 9.22888 7.5 9.22878 7.5 9.22867C7.5 9.22856 7.5 9.22845 7.5 9.22834C7.5 9.22822 7.5 9.22811 7.5 9.228C7.5 9.22788 7.5 9.22777 7.5 9.22765C7.5 9.22754 7.5 9.22742 7.5 9.2273C7.5 9.22719 7.5 9.22707 7.5 9.22695C7.5 9.22683 7.5 9.22671 7.5 9.22659C7.5 9.22646 7.5 9.22634 7.5 9.22622C7.5 9.22609 7.5 9.22597 7.5 9.22584C7.5 9.22571 7.5 9.22559 7.5 9.22546C7.5 9.22533 7.5 9.2252 7.5 9.22507C7.5 9.22494 7.5 9.22481 7.5 9.22467C7.5 9.22454 7.5 9.22441 7.5 9.22427C7.5 9.22414 7.5 9.224 7.5 9.22386C7.5 9.22373 7.5 9.22359 7.5 9.22345C7.5 9.22331 7.5 9.22317 7.5 9.22303C7.5 9.22289 7.5 9.22274 7.5 9.2226C7.5 9.22246 7.5 9.22231 7.5 9.22216C7.5 9.22202 7.5 9.22187 7.5 9.22172C7.5 9.22157 7.5 9.22142 7.5 9.22127C7.5 9.22112 7.5 9.22097 7.5 9.22082C7.5 9.22066 7.5 9.22051 7.5 9.22036C7.5 9.2202 7.5 9.22004 7.5 9.21989C7.5 9.21973 7.5 9.21957 7.5 9.21941C7.5 9.21925 7.5 9.21909 7.5 9.21893C7.5 9.21877 7.5 9.2186 7.5 9.21844C7.5 9.21827 7.5 9.21811 7.5 9.21794C7.5 9.21777 7.5 9.21761 7.5 9.21744C7.5 9.21727 7.5 9.2171 7.5 9.21693C7.5 9.21676 7.5 9.21658 7.5 9.21641C7.5 9.21624 7.5 9.21606 7.5 9.21588C7.5 9.21571 7.5 9.21553 7.5 9.21535C7.5 9.21517 7.5 9.21499 7.5 9.21481C7.5 9.21463 7.5 9.21445 7.5 9.21427C7.5 9.21408 7.5 9.2139 7.5 9.21371C7.5 9.21353 7.5 9.21334 7.5 9.21315C7.5 9.21296 7.5 9.21277 7.5 9.21258C7.5 9.21239 7.5 9.2122 7.5 9.21201C7.5 9.21182 7.5 9.21162 7.5 9.21143C7.5 9.21123 7.5 9.21103 7.5 9.21084C7.5 9.21064 7.5 9.21044 7.5 9.21024C7.5 9.21004 7.5 9.20984 7.5 9.20963C7.5 9.20943 7.5 9.20923 7.5 9.20902C7.5 9.20882 7.5 9.20861 7.5 9.2084C7.5 9.20819 7.5 9.20798 7.5 9.20777H4.5ZM4.5 9.20777C4.5 13.8442 6.34734 16.2412 7.81524 19.3093L10.5215 18.0145C8.82941 14.478 7.5 12.961 7.5 9.20777H4.5ZM7.81524 19.3093C8.43314 20.6007 8.67318 21.2456 8.79724 22.0317C8.93329 22.8938 8.93793 23.9621 8.9356 26.1501L11.9356 26.1533C11.9378 24.0689 11.9425 22.7166 11.7606 21.5641C11.5667 20.3355 11.1708 19.3717 10.5215 18.0145L7.81524 19.3093ZM8.9356 26.1501C8.92896 32.361 10.6161 36.3286 11.6759 38.1381L14.2646 36.622C13.4614 35.2506 11.9296 31.8044 11.9356 26.1533L8.9356 26.1501ZM11.6827 38.1496C12.7104 39.8692 14.2285 41.5632 16.0915 42.029L16.8191 39.1185C16.1475 38.9506 15.169 38.1353 14.2578 36.6106L11.6827 38.1496ZM16.4553 42.0737C17.399 42.0737 18.7425 41.8037 19.7461 40.361C20.6457 39.0679 21.1236 37.0245 21.1236 33.9203H18.1236C18.1236 36.8359 17.6511 38.1192 17.2833 38.6478C17.0196 39.0269 16.779 39.0737 16.4553 39.0737V42.0737ZM21.1236 33.9203C21.1236 31.1677 21.431 29.6773 21.6803 28.9294C21.8035 28.5599 21.9074 28.3871 21.941 28.3367C21.9576 28.3117 21.9569 28.3169 21.933 28.3424C21.9212 28.3552 21.9037 28.3727 21.8801 28.394C21.8683 28.4046 21.855 28.4161 21.8402 28.4283C21.8327 28.4344 21.8249 28.4407 21.8167 28.4472C21.8126 28.4504 21.8084 28.4537 21.8041 28.457C21.802 28.4586 21.7998 28.4603 21.7976 28.462C21.7965 28.4628 21.7948 28.464 21.7943 28.4645C21.7926 28.4657 21.7909 28.467 20.8909 27.267C19.9909 26.067 19.9892 26.0682 19.9875 26.0695C19.987 26.07 19.9853 26.0712 19.9841 26.0721C19.9819 26.0738 19.9796 26.0756 19.9773 26.0773C19.9726 26.0809 19.968 26.0845 19.9633 26.0882C19.9538 26.0956 19.9442 26.1034 19.9344 26.1114C19.9147 26.1276 19.8943 26.1451 19.8732 26.1641C19.8311 26.2021 19.7864 26.2456 19.7399 26.2955C19.6467 26.3953 19.547 26.5193 19.4448 26.6725C19.2408 26.9786 19.0279 27.3998 18.8342 27.9807C18.4499 29.1338 18.1236 30.9701 18.1236 33.9203H21.1236ZM21.9516 28.3276C22.0515 28.2277 22.1604 28.1776 22.2488 28.1516C22.2928 28.1387 22.3254 28.1337 22.3379 28.1322C22.3437 28.1315 22.3432 28.1318 22.3352 28.1322C22.3312 28.1324 22.3251 28.1327 22.3168 28.1329C22.3127 28.133 22.308 28.1331 22.3027 28.1332C22.3001 28.1332 22.2973 28.1333 22.2943 28.1333C22.2929 28.1333 22.2913 28.1333 22.2898 28.1333C22.289 28.1333 22.2882 28.1333 22.2874 28.1333C22.287 28.1333 22.2864 28.1333 22.2862 28.1333C22.2856 28.1333 22.285 28.1333 22.285 26.6333C22.285 25.1333 22.2844 25.1333 22.2838 25.1333C22.2836 25.1333 22.283 25.1333 22.2825 25.1333C22.2817 25.1333 22.2808 25.1333 22.28 25.1333C22.2782 25.1333 22.2765 25.1334 22.2746 25.1334C22.2709 25.1334 22.267 25.1334 22.2629 25.1335C22.2547 25.1336 22.2457 25.1338 22.2358 25.134C22.2161 25.1346 22.1931 25.1355 22.167 25.1369C22.1149 25.1399 22.0501 25.1451 21.9747 25.1543C21.8248 25.1725 21.6277 25.2072 21.4024 25.2735C20.9521 25.4059 20.364 25.6726 19.8303 26.2063L21.9516 28.3276ZM22.285 26.6333C22.285 28.1333 22.2845 28.1333 22.2839 28.1333C22.2837 28.1333 22.2832 28.1333 22.2828 28.1333C22.2821 28.1333 22.2814 28.1333 22.2806 28.1333C22.2792 28.1333 22.2779 28.1333 22.2765 28.1333C22.2739 28.1333 22.2714 28.1333 22.269 28.1332C22.2644 28.1332 22.2603 28.1331 22.2569 28.133C22.2502 28.1328 22.2458 28.1326 22.2436 28.1325C22.2394 28.1323 22.2435 28.1324 22.2542 28.1336C22.2769 28.1362 22.3205 28.1428 22.3746 28.1578C22.4879 28.1893 22.5972 28.2432 22.6817 28.3276L24.803 26.2063C24.2538 25.6571 23.6345 25.3942 23.1776 25.2673C22.9465 25.2031 22.7446 25.1701 22.593 25.1528C22.5166 25.1441 22.4514 25.1393 22.3997 25.1366C22.3738 25.1352 22.3511 25.1344 22.3319 25.134C22.3223 25.1337 22.3136 25.1336 22.3058 25.1335C22.3019 25.1334 22.2982 25.1334 22.2947 25.1334C22.293 25.1333 22.2913 25.1333 22.2897 25.1333C22.2889 25.1333 22.2881 25.1333 22.2873 25.1333C22.2869 25.1333 22.2864 25.1333 22.2862 25.1333C22.2856 25.1333 22.285 25.1333 22.285 26.6333ZM23.7424 27.267C22.8424 28.467 22.8407 28.4657 22.839 28.4645C22.8385 28.4641 22.8368 28.4628 22.8357 28.462C22.8335 28.4603 22.8313 28.4586 22.8292 28.457C22.8249 28.4537 22.8207 28.4504 22.8166 28.4472C22.8084 28.4407 22.8005 28.4344 22.7931 28.4283C22.7783 28.4161 22.765 28.4046 22.7532 28.394C22.7296 28.3728 22.7121 28.3552 22.7003 28.3425C22.6764 28.3169 22.6757 28.3117 22.6923 28.3367C22.7259 28.3871 22.8298 28.5599 22.953 28.9294C23.2023 29.6773 23.5097 31.1677 23.5097 33.9203H26.5097C26.5097 30.97 26.1834 29.1338 25.799 27.9807C25.6054 27.3998 25.3925 26.9786 25.1884 26.6725C25.0863 26.5193 24.9866 26.3953 24.8934 26.2955C24.8469 26.2456 24.8022 26.202 24.76 26.1641C24.739 26.1451 24.7185 26.1276 24.6989 26.1114C24.6891 26.1033 24.6794 26.0956 24.67 26.0882C24.6653 26.0845 24.6606 26.0809 24.656 26.0773C24.6537 26.0756 24.6514 26.0738 24.6491 26.0721C24.648 26.0712 24.6463 26.0699 24.6457 26.0695C24.644 26.0682 24.6423 26.067 23.7424 27.267ZM23.5097 33.9203C23.5097 36.9561 24.1501 39.0592 25.1505 40.401C26.1273 41.7111 27.593 42.4072 28.9227 42.0114L28.0669 39.1361C28.3321 39.0571 28.0553 39.278 27.5556 38.6078C27.0796 37.9695 26.5097 36.5875 26.5097 33.9203H23.5097ZM28.9227 42.0114C30.6347 41.5019 32.106 40.104 33.2694 38.1464L30.6904 36.6137C29.7374 38.2173 28.7842 38.9226 28.0669 39.1361L28.9227 42.0114ZM33.2725 38.1411C34.4026 36.2214 35.3809 32.1144 35.3809 26.1517H32.3809C32.3809 31.9414 31.4074 35.3958 30.6873 36.6191L33.2725 38.1411ZM35.3809 26.1517C35.3809 24.2664 35.3562 23.1862 35.473 22.2151C35.5801 21.3237 35.8113 20.5191 36.3901 19.3093L33.6839 18.0145C32.9954 19.4534 32.6485 20.5751 32.4944 21.8571C32.3499 23.0594 32.3809 24.3998 32.3809 26.1517H35.3809ZM36.3901 19.3093C37.5076 16.9737 39.8165 14.0296 39.8165 9.20777H36.8165C36.8165 13.1289 35.101 15.0528 33.6839 18.0145L36.3901 19.3093ZM39.8097 9.06556C39.8087 9.05462 39.8076 9.04354 39.8065 9.0328C39.8055 9.02337 39.8039 9.0083 39.8018 8.99135C39.8008 8.98326 39.7989 8.96807 39.7961 8.94944C39.7947 8.94003 39.7923 8.92513 39.7891 8.90697C39.7874 8.89766 39.7852 8.88543 39.7823 8.87114C39.7795 8.85739 39.7752 8.83738 39.7693 8.81339C39.7663 8.80111 39.7625 8.78602 39.7577 8.76882C39.753 8.75191 39.7466 8.73003 39.7384 8.7047C39.7304 8.68014 39.7185 8.6457 39.702 8.60526C39.695 8.58826 39.6792 8.55186 39.6702 8.53247C39.6593 8.50973 39.6342 8.46063 39.6197 8.43437C39.6016 8.40292 39.5585 8.33469 39.5332 8.29818C39.5002 8.25366 39.4197 8.1578 39.3715 8.1074C39.3064 8.04622 39.1457 7.92228 39.0488 7.86271C38.921 7.7985 38.6242 7.70219 38.4568 7.67635C38.2724 7.66989 37.9148 7.72294 37.7465 7.7801C37.6059 7.846 37.3718 8.00068 37.2773 8.08348C37.2078 8.15424 37.0962 8.29091 37.0526 8.35471C37.0205 8.40668 36.9682 8.5031 36.9473 8.547C36.9314 8.58318 36.9049 8.65005 36.894 8.68057C36.8854 8.7063 36.8707 8.75407 36.8646 8.77607C36.8505 8.82786 36.8417 8.87134 36.8363 8.90102C36.8307 8.93188 36.8269 8.95823 36.8243 8.97807C36.8217 8.99831 36.8199 9.01591 36.8186 9.02997C36.816 9.05743 36.8146 9.0801 36.8139 9.09526C36.8131 9.1111 36.8127 9.12456 36.8124 9.13464C36.812 9.15431 36.812 9.17032 36.812 9.18017C36.8121 9.19073 36.8122 9.19967 36.8124 9.20621C36.8127 9.21901 36.8131 9.22963 36.8133 9.23637C36.8139 9.24994 36.8145 9.26175 36.815 9.26941C36.8159 9.28545 36.8169 9.30136 36.8179 9.31464C36.8188 9.32793 36.82 9.34382 36.8214 9.35981C36.8221 9.36745 36.8231 9.37918 36.8245 9.39261C36.8252 9.39929 36.8263 9.40976 36.8278 9.42232C36.8286 9.42875 36.8297 9.43747 36.8311 9.44776C36.8324 9.45739 36.8346 9.47287 36.8378 9.4918C36.8394 9.5015 36.8416 9.51437 36.8445 9.52944C36.8473 9.5439 36.8516 9.56526 36.8577 9.59095C36.8608 9.60411 36.8649 9.62043 36.8699 9.6391C36.8749 9.65742 36.8818 9.68146 36.8909 9.70939C36.8996 9.73635 36.913 9.77504 36.9319 9.8206C36.9401 9.83982 36.9587 9.8813 36.9693 9.90351C36.9823 9.92962 37.0129 9.98636 37.0307 10.0169C37.0533 10.0534 37.1079 10.1331 37.1404 10.1758C37.1833 10.2276 37.2893 10.3383 37.3536 10.3954C37.4401 10.4627 37.6523 10.5906 37.7789 10.6461C37.9365 10.697 38.2812 10.7457 38.4643 10.739C38.6417 10.7108 38.9617 10.6009 39.1017 10.5249C39.2095 10.4522 39.3854 10.2997 39.4551 10.224C39.5058 10.1617 39.5879 10.0439 39.6205 9.98958C39.6447 9.94546 39.6847 9.86359 39.701 9.82615C39.7136 9.7952 39.7348 9.73771 39.7437 9.71126C39.7508 9.6889 39.7631 9.64712 39.7683 9.62774C39.7804 9.58187 39.7882 9.54321 39.7932 9.51614C39.7983 9.48814 39.8019 9.46412 39.8043 9.44577C39.8068 9.42708 39.8087 9.41076 39.81 9.3976C39.8126 9.37187 39.8141 9.35056 39.815 9.33608C39.8159 9.32099 39.8165 9.30814 39.8168 9.29842C39.8175 9.27946 39.8177 9.26398 39.8177 9.2543C39.8179 9.2351 39.8176 9.21952 39.8175 9.2113C39.8171 9.19406 39.8166 9.1788 39.8162 9.16934C39.8158 9.15853 39.8153 9.14739 39.8148 9.13643L36.8181 9.27912C36.8184 9.28479 36.8185 9.28717 36.8185 9.28714C36.8185 9.28707 36.8185 9.28567 36.8184 9.28326C36.8183 9.28108 36.8182 9.27628 36.818 9.26974C36.8179 9.26438 36.8177 9.25107 36.8178 9.23361C36.8179 9.2248 36.8181 9.21005 36.8187 9.1917C36.819 9.18229 36.8196 9.16971 36.8205 9.15486C36.8213 9.14062 36.8228 9.11951 36.8254 9.09397C36.8268 9.08089 36.8286 9.06466 36.8311 9.04605C36.8335 9.02777 36.8371 9.00382 36.8422 8.97587C36.8472 8.94886 36.855 8.91025 36.867 8.86443C36.8723 8.84507 36.8845 8.80331 36.8916 8.78097C36.9005 8.75454 36.9218 8.69706 36.9343 8.66613C36.9506 8.6287 36.9906 8.54684 37.0148 8.50274C37.0474 8.44839 37.1295 8.3306 37.1801 8.26837C37.2499 8.19263 37.4258 8.04012 37.5335 7.96743C37.6735 7.89152 37.9935 7.78162 38.171 7.75337C38.354 7.74663 38.6987 7.7954 38.8563 7.84624C38.9829 7.90182 39.1951 8.02963 39.2816 8.09693C39.3459 8.15408 39.4519 8.2647 39.4948 8.31655C39.5272 8.35919 39.5818 8.43887 39.6044 8.47544C39.6222 8.50593 39.6528 8.56265 39.6658 8.58874C39.6764 8.61094 39.695 8.6524 39.7032 8.6716C39.722 8.71712 39.7354 8.75576 39.7442 8.78267C39.7532 8.81054 39.7601 8.83452 39.765 8.85277C39.7701 8.87138 39.7741 8.88763 39.7772 8.9007C39.7833 8.92624 39.7876 8.94742 39.7903 8.96166C39.7932 8.97653 39.7954 8.98915 39.7969 8.9986C39.8 9.01701 39.8021 9.03187 39.8033 9.04079C39.8046 9.05037 39.8056 9.0583 39.8063 9.06384C39.8076 9.07463 39.8085 9.08298 39.8089 9.08726C39.8098 9.09589 39.8103 9.10163 39.8104 9.10252C39.8106 9.10499 39.8105 9.10425 39.8103 9.1009C39.81 9.09755 39.81 9.09683 39.8101 9.09935C39.8102 9.10026 39.8105 9.10609 39.8109 9.11485C39.8111 9.11919 39.8114 9.1277 39.8116 9.13873C39.8118 9.14438 39.8119 9.15252 39.812 9.16237C39.812 9.17152 39.812 9.1869 39.8116 9.20605C39.8113 9.21588 39.8109 9.2291 39.8101 9.24473C39.8094 9.25968 39.8081 9.28216 39.8055 9.30946C39.8042 9.32345 39.8024 9.34097 39.7998 9.36115C39.7972 9.38091 39.7934 9.40721 39.7878 9.43801C39.7824 9.46764 39.7736 9.51107 39.7596 9.56282C39.7534 9.5848 39.7388 9.63256 39.7302 9.65827C39.7193 9.68878 39.6928 9.75563 39.6769 9.7918C39.656 9.83568 39.6037 9.93209 39.5716 9.98405C39.528 10.0478 39.4164 10.1845 39.3469 10.2553C39.2524 10.3381 39.0183 10.4927 38.8778 10.5586C38.7095 10.6158 38.3518 10.6688 38.1675 10.6624C38 10.6365 37.7032 10.5402 37.5755 10.476C37.4786 10.4164 37.3179 10.2925 37.2528 10.2313C37.2046 10.1809 37.1241 10.0851 37.0911 10.0406C37.0659 10.0041 37.0228 9.93588 37.0046 9.90445C36.9902 9.8782 36.965 9.82912 36.9541 9.80639C36.9452 9.78703 36.9294 9.75064 36.9224 9.73367C36.906 9.69327 36.8941 9.65889 36.8861 9.63438C36.8778 9.60911 36.8715 9.5873 36.8668 9.57046C36.8621 9.55334 36.8582 9.53833 36.8552 9.52614C36.8494 9.50233 36.8452 9.48253 36.8424 9.46902C36.8396 9.45496 36.8374 9.44301 36.8358 9.434C36.8326 9.41645 36.8304 9.40228 36.8292 9.39375C36.8266 9.37685 36.825 9.36393 36.8244 9.3587C36.8236 9.35232 36.823 9.34765 36.8228 9.34554C36.8226 9.3432 36.8224 9.34186 36.8224 9.34182C36.8224 9.34171 36.8225 9.34231 36.8226 9.34378C36.8228 9.34523 36.823 9.34727 36.8232 9.34999L39.8097 9.06556Z" fill="black" mask="url(#path-3-inside-1)"/>
<circle cx="2.5" cy="31.5" r="1.75" stroke="black" stroke-width="1.5"/>
<circle cx="36.5" cy="38.5" r="1.75" stroke="black" stroke-width="1.5"/>
<circle cx="8" cy="38" r="2.25" stroke="black" stroke-width="1.5"/>
<circle cx="41" cy="32" r="2.25" stroke="black" stroke-width="1.5"/>
</svg>
