<svg width="41" height="41" viewBox="0 0 41 41" fill="none" xmlns="http://www.w3.org/2000/svg">
<mask id="path-1-inside-1" fill="white">
<path d="M36.3175 9.20806C36.2097 6.29315 35.5536 3.00817 33.4883 1.28704C31.7163 -0.189749 29.5634 -0.227555 27.1183 0.336612C22.9994 1.287 21.9648 2.23755 18.7964 1.60387L12.5546 0.336612C15.8442 0.806612 12.6467 0.353871 12.5546 0.336612C10.3368 0.0197289 8.9441 -0.10522 7.16845 1.28703C5.11294 2.89872 4.10139 6.24246 4 9.20806C4 9.11934 4 9.30945 4 9.20806C4 9.094 4 9.31578 4 9.20806C4 13.403 5.58843 15.3601 7.16845 18.6625C8.43574 21.3112 8.4403 21.88 8.43574 26.1525C8.4294 32.0837 10.0389 35.7907 10.9704 37.3812C11.94 39.0035 13.1883 40.2582 14.4557 40.575C15.723 40.575 17.624 39.9413 17.624 33.9214C17.624 28.2183 18.8914 27.2678 18.8914 27.2678C19.5251 26.6342 20.2855 26.6342 20.2855 26.6342C20.2855 26.6342 21.1092 26.6342 21.7429 27.2678C21.7429 27.2678 23.0103 28.2183 23.0103 33.9214C23.0103 39.6245 25.431 40.8918 26.4955 40.575C27.7102 40.2135 28.9225 39.1619 29.9807 37.3812C30.9059 35.8097 31.8817 32.0289 31.8817 26.1525C31.8817 22.5152 31.7706 21.3112 33.0379 18.6625C34.3053 16.0137 36.3175 13.5797 36.3175 9.20806C36.3048 9.07499 36.3238 9.34113 36.3175 9.20806Z"/>
</mask>
<path d="M33.4883 1.28704L32.528 2.43934L33.4883 1.28704ZM27.1183 0.336612L26.7811 -1.12498L27.1183 0.336612ZM18.7964 1.60387L18.4979 3.07389L18.5022 3.07474L18.7964 1.60387ZM7.16845 1.28703L6.24291 0.106622L7.16845 1.28703ZM4 9.20806H2.5H4ZM7.16845 18.6625L5.81534 19.3099L7.16845 18.6625ZM8.43574 26.1525L9.93574 26.1541L8.43574 26.1525ZM10.9704 37.3812L9.67603 38.1393L9.68287 38.1508L10.9704 37.3812ZM14.4557 40.575L14.0919 42.0302L14.271 42.075H14.4557V40.575ZM18.8914 27.2678L19.7914 28.4678L19.8767 28.4039L19.952 28.3285L18.8914 27.2678ZM20.2855 26.6342L20.2855 28.1342H20.2855V26.6342ZM21.7429 27.2678L20.6823 28.3285L20.7577 28.4039L20.8429 28.4678L21.7429 27.2678ZM26.4955 40.575L26.9234 42.0127L26.4955 40.575ZM29.9807 37.3812L31.2702 38.1476L31.2733 38.1422L29.9807 37.3812ZM37.8164 9.15266C37.7596 7.61556 37.5574 5.92373 37.0693 4.35439C36.5834 2.7923 35.7806 1.24479 34.4486 0.134732L32.528 2.43934C33.2612 3.05041 33.8192 4.00597 34.2046 5.24537C34.5879 6.47754 34.7676 7.88565 34.8185 9.26346L37.8164 9.15266ZM34.4486 0.134732C32.1376 -1.79124 29.3951 -1.72814 26.7811 -1.12498L27.4556 1.79821C29.7317 1.27303 31.295 1.41175 32.528 2.43934L34.4486 0.134732ZM26.7811 -1.12498C25.7099 -0.87783 24.8411 -0.630947 24.1037 -0.414686C23.3501 -0.193624 22.79 -0.0221188 22.255 0.104707C21.2817 0.335397 20.4496 0.404809 19.0906 0.132999L18.5022 3.07474C20.3116 3.43661 21.581 3.34758 22.9469 3.02382C23.5814 2.87342 24.2503 2.6687 24.9481 2.46404C25.6622 2.25458 26.4673 2.02625 27.4556 1.79821L26.7811 -1.12498ZM19.0949 0.133862L12.8531 -1.1334L12.2562 1.80662L18.4979 3.07388L19.0949 0.133862ZM12.2782 1.81092C12.368 1.82775 13.2493 1.95311 13.6124 2.00452C13.7112 2.0185 13.7885 2.02939 13.821 2.03384C13.8253 2.03443 13.8305 2.03514 13.8356 2.03581C13.838 2.03614 13.842 2.03665 13.8465 2.03723C13.8474 2.03735 13.8618 2.0392 13.8793 2.04105C13.885 2.04164 13.8992 2.04302 13.9078 2.04379C13.9223 2.04498 13.9673 2.04776 13.9978 2.04887C14.0988 2.04813 15.3811 1.2159 15.3226 -0.223874C14.9745 -0.621829 14.4513 -0.892362 14.392 -0.908076C14.3697 -0.913319 14.3356 -0.920654 14.3238 -0.923C14.3166 -0.924395 14.3044 -0.92665 14.2995 -0.927543C14.2898 -0.929256 14.2822 -0.930517 14.2789 -0.93105C14.2673 -0.932954 14.2567 -0.934539 14.2545 -0.934876C14.2386 -0.937273 14.2096 -0.941498 14.1704 -0.947184C14.0073 -0.970813 13.5888 -1.03086 12.7668 -1.14831L12.3425 1.82153C13.1652 1.93908 13.5806 1.99869 13.7403 2.02182C13.7817 2.02783 13.8015 2.03074 13.8071 2.03158C13.8103 2.03205 13.8034 2.03104 13.7938 2.02947C13.791 2.02902 13.7838 2.02782 13.7745 2.02617C13.7696 2.0253 13.7576 2.02307 13.7505 2.02169C13.7388 2.01937 13.7047 2.01205 13.6825 2.00682C13.6233 1.99112 13.1002 1.72059 12.752 1.32265C12.6935 -0.117121 13.9758 -0.94935 14.0768 -0.950091C14.1072 -0.94898 14.1521 -0.946207 14.1666 -0.945024C14.1751 -0.944263 14.1892 -0.942895 14.1947 -0.942322C14.223 -0.939326 14.2503 -0.935371 14.228 -0.938426C14.2038 -0.94174 14.1341 -0.951536 14.033 -0.965852C13.8341 -0.994016 13.5296 -1.0374 13.2693 -1.07478C12.9747 -1.11708 12.8123 -1.14121 12.831 -1.1377L12.2782 1.81092ZM12.7668 -1.14831C11.6829 -1.30317 10.5885 -1.4489 9.51439 -1.3181C8.36642 -1.17831 7.32177 -0.739299 6.24291 0.106622L8.09399 2.46745C8.79077 1.92111 9.33028 1.72648 9.87703 1.6599C10.4976 1.58432 11.2085 1.65951 12.3425 1.82153L12.7668 -1.14831ZM6.24291 0.106622C4.92388 1.14085 4.02543 2.65412 3.44512 4.218C2.8598 5.7954 2.55635 7.5341 2.50088 9.15681L5.49912 9.25931C5.54504 7.91642 5.79806 6.50045 6.25773 5.26166C6.72243 4.00935 7.35751 3.04491 8.09399 2.46745L6.24291 0.106622ZM2.5 9.20806C2.5 9.20826 2.5 9.20846 2.5 9.20865C2.5 9.20885 2.5 9.20904 2.5 9.20923C2.5 9.20943 2.5 9.20962 2.5 9.20981C2.5 9.21 2.5 9.21019 2.5 9.21038C2.5 9.21057 2.5 9.21076 2.5 9.21095C2.5 9.21113 2.5 9.21132 2.5 9.2115C2.5 9.21169 2.5 9.21187 2.5 9.21206C2.5 9.21224 2.5 9.21242 2.5 9.2126C2.5 9.21278 2.5 9.21296 2.5 9.21314C2.5 9.21332 2.5 9.2135 2.5 9.21367C2.5 9.21385 2.5 9.21402 2.5 9.2142C2.5 9.21437 2.5 9.21454 2.5 9.21472C2.5 9.21489 2.5 9.21506 2.5 9.21523C2.5 9.2154 2.5 9.21557 2.5 9.21573C2.5 9.2159 2.5 9.21607 2.5 9.21623C2.5 9.2164 2.5 9.21657 2.5 9.21673C2.5 9.21689 2.5 9.21705 2.5 9.21722C2.5 9.21738 2.5 9.21754 2.5 9.2177C2.5 9.21786 2.5 9.21801 2.5 9.21817C2.5 9.21833 2.5 9.21849 2.5 9.21864C2.5 9.2188 2.5 9.21895 2.5 9.2191C2.5 9.21926 2.5 9.21941 2.5 9.21956C2.5 9.21971 2.5 9.21986 2.5 9.22001C2.5 9.22016 2.5 9.22031 2.5 9.22045C2.5 9.2206 2.5 9.22075 2.5 9.22089C2.5 9.22104 2.5 9.22118 2.5 9.22132C2.5 9.22147 2.5 9.22161 2.5 9.22175C2.5 9.22189 2.5 9.22203 2.5 9.22217C2.5 9.22231 2.5 9.22245 2.5 9.22259C2.5 9.22272 2.5 9.22286 2.5 9.22299C2.5 9.22313 2.5 9.22326 2.5 9.2234C2.5 9.22353 2.5 9.22366 2.5 9.22379C2.5 9.22392 2.5 9.22405 2.5 9.22418C2.5 9.22431 2.5 9.22444 2.5 9.22457C2.5 9.2247 2.5 9.22482 2.5 9.22495C2.5 9.22507 2.5 9.2252 2.5 9.22532C2.5 9.22544 2.5 9.22557 2.5 9.22569C2.5 9.22581 2.5 9.22593 2.5 9.22605C2.5 9.22617 2.5 9.22629 2.5 9.22641C2.5 9.22652 2.5 9.22664 2.5 9.22676C2.5 9.22687 2.5 9.22699 2.5 9.2271C2.5 9.22722 2.5 9.22733 2.5 9.22744C2.5 9.22755 2.5 9.22766 2.5 9.22777C2.5 9.22789 2.5 9.22799 2.5 9.2281C2.5 9.22821 2.5 9.22832 2.5 9.22843C2.5 9.22853 2.5 9.22864 2.5 9.22874C2.5 9.22885 2.5 9.22895 2.5 9.22905C2.5 9.22916 2.5 9.22926 2.5 9.22936C2.5 9.22946 2.5 9.22956 2.5 9.22966C2.5 9.22976 2.5 9.22986 2.5 9.22995C2.5 9.23005 2.5 9.23015 2.5 9.23024C2.5 9.23034 2.5 9.23043 2.5 9.23053C2.5 9.23062 2.5 9.23072 2.5 9.23081C2.5 9.2309 2.5 9.23099 2.5 9.23108C2.5 9.23117 2.5 9.23126 2.5 9.23135C2.5 9.23144 2.5 9.23153 2.5 9.23161C2.5 9.2317 2.5 9.23179 2.5 9.23187C2.5 9.23196 2.5 9.23204 2.5 9.23212C2.5 9.23221 2.5 9.23229 2.5 9.23237C2.5 9.23245 2.5 9.23253 2.5 9.23261C2.5 9.23269 2.5 9.23277 2.5 9.23285C2.5 9.23293 2.5 9.23301 2.5 9.23308C2.5 9.23316 2.5 9.23323 2.5 9.23331C2.5 9.23338 2.5 9.23346 2.5 9.23353C2.5 9.2336 2.5 9.23368 2.5 9.23375C2.5 9.23382 2.5 9.23389 2.5 9.23396C2.5 9.23403 2.5 9.2341 2.5 9.23417C2.5 9.23423 2.5 9.2343 2.5 9.23437C2.5 9.23443 2.5 9.2345 2.5 9.23456C2.5 9.23463 2.5 9.23469 2.5 9.23476C2.5 9.23482 2.5 9.23488 2.5 9.23494C2.5 9.23501 2.5 9.23507 2.5 9.23513C2.5 9.23519 2.5 9.23524 2.5 9.2353C2.5 9.23536 2.5 9.23542 2.5 9.23548C2.5 9.23553 2.5 9.23559 2.5 9.23564C2.5 9.2357 2.5 9.23575 2.5 9.23581C2.5 9.23586 2.5 9.23591 2.5 9.23596C2.5 9.23602 2.5 9.23607 2.5 9.23612C2.5 9.23617 2.5 9.23622 2.5 9.23627C2.5 9.23632 2.5 9.23636 2.5 9.23641C2.5 9.23646 2.5 9.23651 2.5 9.23655C2.5 9.2366 2.5 9.23664 2.5 9.23669C2.5 9.23673 2.5 9.23677 2.5 9.23682C2.5 9.23686 2.5 9.2369 2.5 9.23694C2.5 9.23698 2.5 9.23702 2.5 9.23706C2.5 9.2371 2.5 9.23714 2.5 9.23718C2.5 9.23722 2.5 9.23726 2.5 9.23729C2.5 9.23733 2.5 9.23737 2.5 9.2374C2.5 9.23744 2.5 9.23747 2.5 9.2375C2.5 9.23754 2.5 9.23757 2.5 9.2376C2.5 9.23764 2.5 9.23767 2.5 9.2377C2.5 9.23773 2.5 9.23776 2.5 9.23779C2.5 9.23782 2.5 9.23785 2.5 9.23787C2.5 9.2379 2.5 9.23793 2.5 9.23796C2.5 9.23798 2.5 9.23801 2.5 9.23803C2.5 9.23806 2.5 9.23808 2.5 9.23811C2.5 9.23813 2.5 9.23815 2.5 9.23818C2.5 9.2382 2.5 9.23822 2.5 9.23824C2.5 9.23826 2.5 9.23828 2.5 9.2383C2.5 9.23832 2.5 9.23834 2.5 9.23836C2.5 9.23838 2.5 9.23839 2.5 9.23841C2.5 9.23843 2.5 9.23844 2.5 9.23846C2.5 9.23847 2.5 9.23849 2.5 9.2385C2.5 9.23852 2.5 9.23853 2.5 9.23854C2.5 9.23855 2.5 9.23857 2.5 9.23858C2.5 9.23859 2.5 9.2386 2.5 9.23861C2.5 9.23862 2.5 9.23863 2.5 9.23864C2.5 9.23865 2.5 9.23866 2.5 9.23866C2.5 9.23867 2.5 9.23868 2.5 9.23868C2.5 9.23869 2.5 9.23869 2.5 9.2387C2.5 9.2387 2.5 9.23871 2.5 9.23871C2.5 9.23872 2.5 9.23872 2.5 9.23872C2.5 9.23872 2.5 9.23872 2.5 9.23873C2.5 9.23873 4 9.23873 5.5 9.23873C5.5 9.23873 5.5 9.23872 5.5 9.23872C5.5 9.23872 5.5 9.23872 5.5 9.23872C5.5 9.23871 5.5 9.23871 5.5 9.23871C5.5 9.2387 5.5 9.2387 5.5 9.23869C5.5 9.23869 5.5 9.23868 5.5 9.23868C5.5 9.23867 5.5 9.23866 5.5 9.23865C5.5 9.23865 5.5 9.23864 5.5 9.23863C5.5 9.23862 5.5 9.23861 5.5 9.2386C5.5 9.23859 5.5 9.23858 5.5 9.23857C5.5 9.23856 5.5 9.23855 5.5 9.23853C5.5 9.23852 5.5 9.23851 5.5 9.23849C5.5 9.23848 5.5 9.23847 5.5 9.23845C5.5 9.23844 5.5 9.23842 5.5 9.23841C5.5 9.23839 5.5 9.23837 5.5 9.23836C5.5 9.23834 5.5 9.23832 5.5 9.2383C5.5 9.23829 5.5 9.23827 5.5 9.23825C5.5 9.23823 5.5 9.23821 5.5 9.23819C5.5 9.23817 5.5 9.23815 5.5 9.23813C5.5 9.2381 5.5 9.23808 5.5 9.23806C5.5 9.23804 5.5 9.23801 5.5 9.23799C5.5 9.23797 5.5 9.23794 5.5 9.23792C5.5 9.23789 5.5 9.23787 5.5 9.23784C5.5 9.23782 5.5 9.23779 5.5 9.23776C5.5 9.23774 5.5 9.23771 5.5 9.23768C5.5 9.23765 5.5 9.23762 5.5 9.2376C5.5 9.23757 5.5 9.23754 5.5 9.23751C5.5 9.23748 5.5 9.23745 5.5 9.23742C5.5 9.23738 5.5 9.23735 5.5 9.23732C5.5 9.23729 5.5 9.23726 5.5 9.23722C5.5 9.23719 5.5 9.23716 5.5 9.23712C5.5 9.23709 5.5 9.23705 5.5 9.23702C5.5 9.23698 5.5 9.23695 5.5 9.23691C5.5 9.23687 5.5 9.23684 5.5 9.2368C5.5 9.23676 5.5 9.23673 5.5 9.23669C5.5 9.23665 5.5 9.23661 5.5 9.23657C5.5 9.23653 5.5 9.23649 5.5 9.23645C5.5 9.23641 5.5 9.23637 5.5 9.23633C5.5 9.23629 5.5 9.23625 5.5 9.23621C5.5 9.23617 5.5 9.23612 5.5 9.23608C5.5 9.23604 5.5 9.236 5.5 9.23595C5.5 9.23591 5.5 9.23586 5.5 9.23582C5.5 9.23578 5.5 9.23573 5.5 9.23569C5.5 9.23564 5.5 9.23559 5.5 9.23555C5.5 9.2355 5.5 9.23545 5.5 9.23541C5.5 9.23536 5.5 9.23531 5.5 9.23526C5.5 9.23522 5.5 9.23517 5.5 9.23512C5.5 9.23507 5.5 9.23502 5.5 9.23497C5.5 9.23492 5.5 9.23487 5.5 9.23482C5.5 9.23477 5.5 9.23472 5.5 9.23466C5.5 9.23461 5.5 9.23456 5.5 9.23451C5.5 9.23446 5.5 9.2344 5.5 9.23435C5.5 9.2343 5.5 9.23424 5.5 9.23419C5.5 9.23414 5.5 9.23408 5.5 9.23403C5.5 9.23397 5.5 9.23392 5.5 9.23386C5.5 9.2338 5.5 9.23375 5.5 9.23369C5.5 9.23364 5.5 9.23358 5.5 9.23352C5.5 9.23346 5.5 9.23341 5.5 9.23335C5.5 9.23329 5.5 9.23323 5.5 9.23317C5.5 9.23312 5.5 9.23306 5.5 9.233C5.5 9.23294 5.5 9.23288 5.5 9.23282C5.5 9.23276 5.5 9.2327 5.5 9.23263C5.5 9.23257 5.5 9.23251 5.5 9.23245C5.5 9.23239 5.5 9.23233 5.5 9.23226C5.5 9.2322 5.5 9.23214 5.5 9.23208C5.5 9.23201 5.5 9.23195 5.5 9.23188C5.5 9.23182 5.5 9.23176 5.5 9.23169C5.5 9.23163 5.5 9.23156 5.5 9.2315C5.5 9.23143 5.5 9.23137 5.5 9.2313C5.5 9.23123 5.5 9.23117 5.5 9.2311C5.5 9.23103 5.5 9.23097 5.5 9.2309C5.5 9.23083 5.5 9.23077 5.5 9.2307C5.5 9.23063 5.5 9.23056 5.5 9.23049C5.5 9.23042 5.5 9.23036 5.5 9.23029C5.5 9.23022 5.5 9.23015 5.5 9.23008C5.5 9.23001 5.5 9.22994 5.5 9.22987C5.5 9.2298 5.5 9.22972 5.5 9.22965C5.5 9.22958 5.5 9.22951 5.5 9.22944C5.5 9.22937 5.5 9.2293 5.5 9.22922C5.5 9.22915 5.5 9.22908 5.5 9.22901C5.5 9.22893 5.5 9.22886 5.5 9.22879C5.5 9.22871 5.5 9.22864 5.5 9.22856C5.5 9.22849 5.5 9.22842 5.5 9.22834C5.5 9.22827 5.5 9.22819 5.5 9.22812C5.5 9.22804 5.5 9.22797 5.5 9.22789C5.5 9.22781 5.5 9.22774 5.5 9.22766C5.5 9.22759 5.5 9.22751 5.5 9.22743C5.5 9.22736 5.5 9.22728 5.5 9.2272C5.5 9.22712 5.5 9.22705 5.5 9.22697C5.5 9.22689 5.5 9.22681 5.5 9.22674C5.5 9.22666 5.5 9.22658 5.5 9.2265C5.5 9.22642 5.5 9.22634 5.5 9.22626C5.5 9.22618 5.5 9.2261 5.5 9.22602C5.5 9.22594 5.5 9.22586 5.5 9.22578C5.5 9.2257 5.5 9.22562 5.5 9.22554C5.5 9.22546 5.5 9.22538 5.5 9.2253C5.5 9.22522 5.5 9.22514 5.5 9.22505C5.5 9.22497 5.5 9.22489 5.5 9.22481C5.5 9.22473 5.5 9.22464 5.5 9.22456C5.5 9.22448 5.5 9.2244 5.5 9.22431C5.5 9.22423 5.5 9.22415 5.5 9.22406C5.5 9.22398 5.5 9.2239 5.5 9.22381C5.5 9.22373 5.5 9.22365 5.5 9.22356C5.5 9.22348 5.5 9.22339 5.5 9.22331C5.5 9.22323 5.5 9.22314 5.5 9.22306C5.5 9.22297 5.5 9.22289 5.5 9.2228C5.5 9.22272 5.5 9.22263 5.5 9.22254C5.5 9.22246 5.5 9.22237 5.5 9.22229C5.5 9.2222 5.5 9.22212 5.5 9.22203C5.5 9.22194 5.5 9.22186 5.5 9.22177C5.5 9.22168 5.5 9.2216 5.5 9.22151C5.5 9.22142 5.5 9.22134 5.5 9.22125C5.5 9.22116 5.5 9.22107 5.5 9.22099C5.5 9.2209 5.5 9.22081 5.5 9.22072C5.5 9.22064 5.5 9.22055 5.5 9.22046C5.5 9.22037 5.5 9.22028 5.5 9.22019C5.5 9.22011 5.5 9.22002 5.5 9.21993C5.5 9.21984 5.5 9.21975 5.5 9.21966C5.5 9.21957 5.5 9.21948 5.5 9.21939C5.5 9.21931 5.5 9.21922 5.5 9.21913C5.5 9.21904 5.5 9.21895 5.5 9.21886C5.5 9.21877 5.5 9.21868 5.5 9.21859C5.5 9.2185 5.5 9.21841 5.5 9.21832C5.5 9.21823 5.5 9.21814 5.5 9.21805C5.5 9.21796 5.5 9.21787 5.5 9.21778C5.5 9.21769 5.5 9.2176 5.5 9.2175C5.5 9.21741 5.5 9.21732 5.5 9.21723C5.5 9.21714 5.5 9.21705 5.5 9.21696C5.5 9.21687 5.5 9.21678 5.5 9.21669C5.5 9.21659 5.5 9.2165 5.5 9.21641C5.5 9.21632 5.5 9.21623 5.5 9.21614C5.5 9.21604 5.5 9.21595 5.5 9.21586C5.5 9.21577 5.5 9.21568 5.5 9.21559C5.5 9.21549 5.5 9.2154 5.5 9.21531C5.5 9.21522 5.5 9.21513 5.5 9.21503C5.5 9.21494 5.5 9.21485 5.5 9.21476C5.5 9.21466 5.5 9.21457 5.5 9.21448C5.5 9.21439 5.5 9.21429 5.5 9.2142C5.5 9.21411 5.5 9.21402 5.5 9.21392C5.5 9.21383 5.5 9.21374 5.5 9.21365C5.5 9.21355 5.5 9.21346 5.5 9.21337C5.5 9.21328 5.5 9.21318 5.5 9.21309C5.5 9.213 5.5 9.2129 5.5 9.21281C5.5 9.21272 5.5 9.21263 5.5 9.21253C5.5 9.21244 5.5 9.21235 5.5 9.21226C5.5 9.21216 5.5 9.21207 5.5 9.21198C5.5 9.21188 5.5 9.21179 5.5 9.2117C5.5 9.2116 5.5 9.21151 5.5 9.21142C5.5 9.21133 5.5 9.21123 5.5 9.21114C5.5 9.21105 5.5 9.21095 5.5 9.21086C5.5 9.21077 5.5 9.21068 5.5 9.21058C5.5 9.21049 5.5 9.2104 5.5 9.2103C5.5 9.21021 5.5 9.21012 5.5 9.21002C5.5 9.20993 5.5 9.20984 5.5 9.20975C5.5 9.20965 5.5 9.20956 5.5 9.20947C5.5 9.20937 5.5 9.20928 5.5 9.20919C5.5 9.2091 5.5 9.209 5.5 9.20891C5.5 9.20882 5.5 9.20873 5.5 9.20863C5.5 9.20854 5.5 9.20845 5.5 9.20836C5.5 9.20826 5.5 9.20817 5.5 9.20808C5.5 9.20799 5.5 9.20789 5.5 9.2078C5.5 9.20771 5.5 9.20762 5.5 9.20752C5.5 9.20743 5.5 9.20734 5.5 9.20725C5.5 9.20716 5.5 9.20706 5.5 9.20697C5.5 9.20688 5.5 9.20679 5.5 9.2067C5.5 9.2066 5.5 9.20651 5.5 9.20642C5.5 9.20633 5.5 9.20624 5.5 9.20615C5.5 9.20605 5.5 9.20596 5.5 9.20587C5.5 9.20578 5.5 9.20569 5.5 9.2056C5.5 9.20551 5.5 9.20542 5.5 9.20532C5.5 9.20523 5.5 9.20514 5.5 9.20505C5.5 9.20496 5.5 9.20487 5.5 9.20478C5.5 9.20469 5.5 9.2046 5.5 9.20451C5.5 9.20442 5.5 9.20433 5.5 9.20424C5.5 9.20415 5.5 9.20406 5.5 9.20397C5.5 9.20388 5.5 9.20379 5.5 9.2037C5.5 9.20361 5.5 9.20352 5.5 9.20343C5.5 9.20334 5.5 9.20325 5.5 9.20316C5.5 9.20307 5.5 9.20298 5.5 9.20289C5.5 9.2028 5.5 9.20271 5.5 9.20263C5.5 9.20254 5.5 9.20245 5.5 9.20236C5.5 9.20227 5.5 9.20218 5.5 9.20209C5.5 9.20201 5.5 9.20192 5.5 9.20183C5.5 9.20174 5.5 9.20165 5.5 9.20157C5.5 9.20148 5.5 9.20139 5.5 9.2013C5.5 9.20122 5.5 9.20113 5.5 9.20104C5.5 9.20095 5.5 9.20087 5.5 9.20078C5.5 9.20069 5.5 9.20061 5.5 9.20052C5.5 9.20043 5.5 9.20035 5.5 9.20026C5.5 9.20018 5.5 9.20009 5.5 9.20001C5.5 9.19992 5.5 9.19983 5.5 9.19975C5.5 9.19966 5.5 9.19958 5.5 9.19949C5.5 9.19941 5.5 9.19932 5.5 9.19924C5.5 9.19915 5.5 9.19907 5.5 9.19899C5.5 9.1989 5.5 9.19882 5.5 9.19873C5.5 9.19865 5.5 9.19857 5.5 9.19848C5.5 9.1984 5.5 9.19832 5.5 9.19823C5.5 9.19815 5.5 9.19807 5.5 9.19798C5.5 9.1979 5.5 9.19782 5.5 9.19774C5.5 9.19765 5.5 9.19757 5.5 9.19749C5.5 9.19741 5.5 9.19733 5.5 9.19725C5.5 9.19716 5.5 9.19708 5.5 9.197C5.5 9.19692 5.5 9.19684 5.5 9.19676C5.5 9.19668 5.5 9.1966 5.5 9.19652C5.5 9.19644 5.5 9.19636 5.5 9.19628C5.5 9.1962 5.5 9.19612 5.5 9.19604C5.5 9.19596 5.5 9.19589 5.5 9.19581C5.5 9.19573 5.5 9.19565 5.5 9.19557C5.5 9.19549 5.5 9.19542 5.5 9.19534C5.5 9.19526 5.5 9.19518 5.5 9.19511C5.5 9.19503 5.5 9.19495 5.5 9.19488C5.5 9.1948 5.5 9.19472 5.5 9.19465C5.5 9.19457 5.5 9.1945 5.5 9.19442C5.5 9.19435 5.5 9.19427 5.5 9.1942C5.5 9.19412 5.5 9.19405 5.5 9.19397C5.5 9.1939 5.5 9.19382 5.5 9.19375C5.5 9.19368 5.5 9.1936 5.5 9.19353C5.5 9.19346 5.5 9.19338 5.5 9.19331C5.5 9.19324 5.5 9.19317 5.5 9.1931C5.5 9.19302 5.5 9.19295 5.5 9.19288C5.5 9.19281 5.5 9.19274 5.5 9.19267C5.5 9.1926 5.5 9.19253 5.5 9.19246C5.5 9.19239 5.5 9.19232 5.5 9.19225C5.5 9.19218 5.5 9.19211 5.5 9.19204C5.5 9.19197 5.5 9.1919 5.5 9.19183C5.5 9.19176 5.5 9.1917 5.5 9.19163C5.5 9.19156 5.5 9.19149 5.5 9.19143C5.5 9.19136 5.5 9.19129 5.5 9.19123C5.5 9.19116 5.5 9.1911 5.5 9.19103C5.5 9.19096 5.5 9.1909 5.5 9.19083C5.5 9.19077 5.5 9.19071 5.5 9.19064C5.5 9.19058 5.5 9.19051 5.5 9.19045C5.5 9.19039 5.5 9.19032 5.5 9.19026C5.5 9.1902 5.5 9.19014 5.5 9.19007C5.5 9.19001 5.5 9.18995 5.5 9.18989C5.5 9.18983 5.5 9.18977 5.5 9.1897C5.5 9.18964 5.5 9.18958 5.5 9.18952C5.5 9.18946 5.5 9.18941 5.5 9.18935C5.5 9.18929 5.5 9.18923 5.5 9.18917C5.5 9.18911 5.5 9.18905 5.5 9.189C5.5 9.18894 5.5 9.18888 5.5 9.18882C5.5 9.18877 5.5 9.18871 5.5 9.18866C5.5 9.1886 5.5 9.18854 5.5 9.18849C5.5 9.18843 5.5 9.18838 5.5 9.18832C5.5 9.18827 5.5 9.18822 5.5 9.18816C5.5 9.18811 5.5 9.18806 5.5 9.188C5.5 9.18795 5.5 9.1879 5.5 9.18785C5.5 9.18779 5.5 9.18774 5.5 9.18769C5.5 9.18764 5.5 9.18759 5.5 9.18754C5.5 9.18749 5.5 9.18744 5.5 9.18739C5.5 9.18734 5.5 9.18729 5.5 9.18724C5.5 9.1872 5.5 9.18715 5.5 9.1871C5.5 9.18705 5.5 9.18701 5.5 9.18696C5.5 9.18691 5.5 9.18687 5.5 9.18682C5.5 9.18677 5.5 9.18673 5.5 9.18668C5.5 9.18664 5.5 9.18659 5.5 9.18655C5.5 9.18651 5.5 9.18646 5.5 9.18642C5.5 9.18638 5.5 9.18633 5.5 9.18629C5.5 9.18625 5.5 9.18621 5.5 9.18617C5.5 9.18612 5.5 9.18608 5.5 9.18604C5.5 9.186 5.5 9.18596 5.5 9.18592C5.5 9.18589 5.5 9.18585 5.5 9.18581C5.5 9.18577 5.5 9.18573 5.5 9.18569C5.5 9.18566 5.5 9.18562 5.5 9.18558C5.5 9.18555 5.5 9.18551 5.5 9.18548C5.5 9.18544 5.5 9.1854 5.5 9.18537C5.5 9.18534 5.5 9.1853 5.5 9.18527C5.5 9.18524 5.5 9.1852 5.5 9.18517C5.5 9.18514 5.5 9.18511 5.5 9.18507C5.5 9.18504 5.5 9.18501 5.5 9.18498C5.5 9.18495 5.5 9.18492 5.5 9.18489C5.5 9.18486 5.5 9.18483 5.5 9.1848C5.5 9.18478 5.5 9.18475 5.5 9.18472C5.5 9.18469 5.5 9.18467 5.5 9.18464C5.5 9.18461 5.5 9.18459 5.5 9.18456C5.5 9.18454 5.5 9.18451 5.5 9.18449C5.5 9.18447 5.5 9.18444 5.5 9.18442C5.5 9.1844 5.5 9.18437 5.5 9.18435C5.5 9.18433 5.5 9.18431 5.5 9.18429C5.5 9.18427 5.5 9.18425 5.5 9.18423C5.5 9.18421 5.5 9.18419 5.5 9.18417C5.5 9.18415 5.5 9.18413 5.5 9.18412C5.5 9.1841 5.5 9.18408 5.5 9.18406C5.5 9.18405 5.5 9.18403 5.5 9.18402C5.5 9.184 5.5 9.18399 5.5 9.18397C5.5 9.18396 5.5 9.18395 5.5 9.18393C5.5 9.18392 5.5 9.18391 5.5 9.1839C5.5 9.18388 5.5 9.18387 5.5 9.18386C5.5 9.18385 5.5 9.18384 5.5 9.18383C5.5 9.18382 5.5 9.18382 5.5 9.18381C5.5 9.1838 5.5 9.18379 5.5 9.18378C5.5 9.18378 5.5 9.18377 5.5 9.18377C5.5 9.18376 5.5 9.18375 5.5 9.18375C5.5 9.18375 5.5 9.18374 5.5 9.18374C5.5 9.18374 5.5 9.18373 5.5 9.18373C5.5 9.18373 5.5 9.18373 5.5 9.18373C5.5 9.18373 4 9.18373 2.5 9.18373C2.5 9.18373 2.5 9.18373 2.5 9.18373C2.5 9.18373 2.5 9.18373 2.5 9.18374C2.5 9.18374 2.5 9.18374 2.5 9.18375C2.5 9.18375 2.5 9.18376 2.5 9.18376C2.5 9.18377 2.5 9.18377 2.5 9.18378C2.5 9.18379 2.5 9.1838 2.5 9.1838C2.5 9.18381 2.5 9.18382 2.5 9.18383C2.5 9.18384 2.5 9.18385 2.5 9.18386C2.5 9.18387 2.5 9.18388 2.5 9.1839C2.5 9.18391 2.5 9.18392 2.5 9.18394C2.5 9.18395 2.5 9.18396 2.5 9.18398C2.5 9.18399 2.5 9.18401 2.5 9.18402C2.5 9.18404 2.5 9.18406 2.5 9.18408C2.5 9.18409 2.5 9.18411 2.5 9.18413C2.5 9.18415 2.5 9.18417 2.5 9.18419C2.5 9.18421 2.5 9.18423 2.5 9.18425C2.5 9.18427 2.5 9.1843 2.5 9.18432C2.5 9.18434 2.5 9.18437 2.5 9.18439C2.5 9.18442 2.5 9.18444 2.5 9.18447C2.5 9.18449 2.5 9.18452 2.5 9.18455C2.5 9.18458 2.5 9.1846 2.5 9.18463C2.5 9.18466 2.5 9.18469 2.5 9.18472C2.5 9.18475 2.5 9.18478 2.5 9.18481C2.5 9.18484 2.5 9.18488 2.5 9.18491C2.5 9.18494 2.5 9.18498 2.5 9.18501C2.5 9.18505 2.5 9.18508 2.5 9.18512C2.5 9.18515 2.5 9.18519 2.5 9.18523C2.5 9.18527 2.5 9.18531 2.5 9.18534C2.5 9.18538 2.5 9.18542 2.5 9.18546C2.5 9.1855 2.5 9.18555 2.5 9.18559C2.5 9.18563 2.5 9.18567 2.5 9.18572C2.5 9.18576 2.5 9.18581 2.5 9.18585C2.5 9.1859 2.5 9.18594 2.5 9.18599C2.5 9.18604 2.5 9.18608 2.5 9.18613C2.5 9.18618 2.5 9.18623 2.5 9.18628C2.5 9.18633 2.5 9.18638 2.5 9.18643C2.5 9.18648 2.5 9.18653 2.5 9.18659C2.5 9.18664 2.5 9.18669 2.5 9.18675C2.5 9.1868 2.5 9.18686 2.5 9.18691C2.5 9.18697 2.5 9.18703 2.5 9.18708C2.5 9.18714 2.5 9.1872 2.5 9.18726C2.5 9.18732 2.5 9.18738 2.5 9.18744C2.5 9.1875 2.5 9.18756 2.5 9.18762C2.5 9.18769 2.5 9.18775 2.5 9.18782C2.5 9.18788 2.5 9.18794 2.5 9.18801C2.5 9.18808 2.5 9.18814 2.5 9.18821C2.5 9.18828 2.5 9.18835 2.5 9.18842C2.5 9.18848 2.5 9.18855 2.5 9.18863C2.5 9.1887 2.5 9.18877 2.5 9.18884C2.5 9.18891 2.5 9.18899 2.5 9.18906C2.5 9.18913 2.5 9.18921 2.5 9.18929C2.5 9.18936 2.5 9.18944 2.5 9.18952C2.5 9.18959 2.5 9.18967 2.5 9.18975C2.5 9.18983 2.5 9.18991 2.5 9.18999C2.5 9.19007 2.5 9.19015 2.5 9.19024C2.5 9.19032 2.5 9.1904 2.5 9.19049C2.5 9.19057 2.5 9.19066 2.5 9.19074C2.5 9.19083 2.5 9.19092 2.5 9.191C2.5 9.19109 2.5 9.19118 2.5 9.19127C2.5 9.19136 2.5 9.19145 2.5 9.19154C2.5 9.19163 2.5 9.19172 2.5 9.19182C2.5 9.19191 2.5 9.19201 2.5 9.1921C2.5 9.1922 2.5 9.19229 2.5 9.19239C2.5 9.19248 2.5 9.19258 2.5 9.19268C2.5 9.19278 2.5 9.19288 2.5 9.19298C2.5 9.19308 2.5 9.19318 2.5 9.19328C2.5 9.19339 2.5 9.19349 2.5 9.19359C2.5 9.1937 2.5 9.1938 2.5 9.19391C2.5 9.19401 2.5 9.19412 2.5 9.19423C2.5 9.19434 2.5 9.19444 2.5 9.19455C2.5 9.19466 2.5 9.19477 2.5 9.19489C2.5 9.195 2.5 9.19511 2.5 9.19522C2.5 9.19534 2.5 9.19545 2.5 9.19557C2.5 9.19568 2.5 9.1958 2.5 9.19591C2.5 9.19603 2.5 9.19615 2.5 9.19627C2.5 9.19639 2.5 9.19651 2.5 9.19663C2.5 9.19675 2.5 9.19687 2.5 9.19699C2.5 9.19711 2.5 9.19724 2.5 9.19736C2.5 9.19749 2.5 9.19761 2.5 9.19774C2.5 9.19787 2.5 9.19799 2.5 9.19812C2.5 9.19825 2.5 9.19838 2.5 9.19851C2.5 9.19864 2.5 9.19877 2.5 9.19891C2.5 9.19904 2.5 9.19917 2.5 9.19931C2.5 9.19944 2.5 9.19958 2.5 9.19971C2.5 9.19985 2.5 9.19999 2.5 9.20012C2.5 9.20026 2.5 9.2004 2.5 9.20054C2.5 9.20068 2.5 9.20082 2.5 9.20097C2.5 9.20111 2.5 9.20125 2.5 9.2014C2.5 9.20154 2.5 9.20169 2.5 9.20183C2.5 9.20198 2.5 9.20213 2.5 9.20227C2.5 9.20242 2.5 9.20257 2.5 9.20272C2.5 9.20287 2.5 9.20302 2.5 9.20318C2.5 9.20333 2.5 9.20348 2.5 9.20364C2.5 9.20379 2.5 9.20395 2.5 9.2041C2.5 9.20426 2.5 9.20442 2.5 9.20458C2.5 9.20473 2.5 9.20489 2.5 9.20506C2.5 9.20522 2.5 9.20538 2.5 9.20554C2.5 9.2057 2.5 9.20587 2.5 9.20603C2.5 9.2062 2.5 9.20636 2.5 9.20653C2.5 9.2067 2.5 9.20686 2.5 9.20703C2.5 9.2072 2.5 9.20737 2.5 9.20754C2.5 9.20771 2.5 9.20789 2.5 9.20806H5.5C5.5 9.20789 5.5 9.20771 5.5 9.20754C5.5 9.20737 5.5 9.2072 5.5 9.20703C5.5 9.20686 5.5 9.2067 5.5 9.20653C5.5 9.20636 5.5 9.2062 5.5 9.20603C5.5 9.20587 5.5 9.2057 5.5 9.20554C5.5 9.20538 5.5 9.20522 5.5 9.20506C5.5 9.20489 5.5 9.20473 5.5 9.20458C5.5 9.20442 5.5 9.20426 5.5 9.2041C5.5 9.20395 5.5 9.20379 5.5 9.20364C5.5 9.20348 5.5 9.20333 5.5 9.20318C5.5 9.20302 5.5 9.20287 5.5 9.20272C5.5 9.20257 5.5 9.20242 5.5 9.20227C5.5 9.20213 5.5 9.20198 5.5 9.20183C5.5 9.20169 5.5 9.20154 5.5 9.2014C5.5 9.20125 5.5 9.20111 5.5 9.20097C5.5 9.20082 5.5 9.20068 5.5 9.20054C5.5 9.2004 5.5 9.20026 5.5 9.20012C5.5 9.19999 5.5 9.19985 5.5 9.19971C5.5 9.19958 5.5 9.19944 5.5 9.19931C5.5 9.19917 5.5 9.19904 5.5 9.19891C5.5 9.19877 5.5 9.19864 5.5 9.19851C5.5 9.19838 5.5 9.19825 5.5 9.19812C5.5 9.19799 5.5 9.19787 5.5 9.19774C5.5 9.19761 5.5 9.19749 5.5 9.19736C5.5 9.19724 5.5 9.19711 5.5 9.19699C5.5 9.19687 5.5 9.19675 5.5 9.19663C5.5 9.19651 5.5 9.19639 5.5 9.19627C5.5 9.19615 5.5 9.19603 5.5 9.19591C5.5 9.1958 5.5 9.19568 5.5 9.19557C5.5 9.19545 5.5 9.19534 5.5 9.19522C5.5 9.19511 5.5 9.195 5.5 9.19489C5.5 9.19477 5.5 9.19466 5.5 9.19455C5.5 9.19444 5.5 9.19434 5.5 9.19423C5.5 9.19412 5.5 9.19401 5.5 9.19391C5.5 9.1938 5.5 9.1937 5.5 9.19359C5.5 9.19349 5.5 9.19339 5.5 9.19328C5.5 9.19318 5.5 9.19308 5.5 9.19298C5.5 9.19288 5.5 9.19278 5.5 9.19268C5.5 9.19258 5.5 9.19248 5.5 9.19239C5.5 9.19229 5.5 9.1922 5.5 9.1921C5.5 9.19201 5.5 9.19191 5.5 9.19182C5.5 9.19172 5.5 9.19163 5.5 9.19154C5.5 9.19145 5.5 9.19136 5.5 9.19127C5.5 9.19118 5.5 9.19109 5.5 9.191C5.5 9.19092 5.5 9.19083 5.5 9.19074C5.5 9.19066 5.5 9.19057 5.5 9.19049C5.5 9.1904 5.5 9.19032 5.5 9.19024C5.5 9.19015 5.5 9.19007 5.5 9.18999C5.5 9.18991 5.5 9.18983 5.5 9.18975C5.5 9.18967 5.5 9.18959 5.5 9.18952C5.5 9.18944 5.5 9.18936 5.5 9.18929C5.5 9.18921 5.5 9.18913 5.5 9.18906C5.5 9.18899 5.5 9.18891 5.5 9.18884C5.5 9.18877 5.5 9.1887 5.5 9.18863C5.5 9.18855 5.5 9.18848 5.5 9.18842C5.5 9.18835 5.5 9.18828 5.5 9.18821C5.5 9.18814 5.5 9.18808 5.5 9.18801C5.5 9.18794 5.5 9.18788 5.5 9.18782C5.5 9.18775 5.5 9.18769 5.5 9.18762C5.5 9.18756 5.5 9.1875 5.5 9.18744C5.5 9.18738 5.5 9.18732 5.5 9.18726C5.5 9.1872 5.5 9.18714 5.5 9.18708C5.5 9.18703 5.5 9.18697 5.5 9.18691C5.5 9.18686 5.5 9.1868 5.5 9.18675C5.5 9.18669 5.5 9.18664 5.5 9.18659C5.5 9.18653 5.5 9.18648 5.5 9.18643C5.5 9.18638 5.5 9.18633 5.5 9.18628C5.5 9.18623 5.5 9.18618 5.5 9.18613C5.5 9.18608 5.5 9.18604 5.5 9.18599C5.5 9.18594 5.5 9.1859 5.5 9.18585C5.5 9.18581 5.5 9.18576 5.5 9.18572C5.5 9.18567 5.5 9.18563 5.5 9.18559C5.5 9.18555 5.5 9.1855 5.5 9.18546C5.5 9.18542 5.5 9.18538 5.5 9.18534C5.5 9.18531 5.5 9.18527 5.5 9.18523C5.5 9.18519 5.5 9.18515 5.5 9.18512C5.5 9.18508 5.5 9.18505 5.5 9.18501C5.5 9.18498 5.5 9.18494 5.5 9.18491C5.5 9.18488 5.5 9.18484 5.5 9.18481C5.5 9.18478 5.5 9.18475 5.5 9.18472C5.5 9.18469 5.5 9.18466 5.5 9.18463C5.5 9.1846 5.5 9.18458 5.5 9.18455C5.5 9.18452 5.5 9.18449 5.5 9.18447C5.5 9.18444 5.5 9.18442 5.5 9.18439C5.5 9.18437 5.5 9.18434 5.5 9.18432C5.5 9.1843 5.5 9.18427 5.5 9.18425C5.5 9.18423 5.5 9.18421 5.5 9.18419C5.5 9.18417 5.5 9.18415 5.5 9.18413C5.5 9.18411 5.5 9.18409 5.5 9.18408C5.5 9.18406 5.5 9.18404 5.5 9.18402C5.5 9.18401 5.5 9.18399 5.5 9.18398C5.5 9.18396 5.5 9.18395 5.5 9.18394C5.5 9.18392 5.5 9.18391 5.5 9.1839C5.5 9.18388 5.5 9.18387 5.5 9.18386C5.5 9.18385 5.5 9.18384 5.5 9.18383C5.5 9.18382 5.5 9.18381 5.5 9.1838C5.5 9.1838 5.5 9.18379 5.5 9.18378C5.5 9.18377 5.5 9.18377 5.5 9.18376C5.5 9.18376 5.5 9.18375 5.5 9.18375C5.5 9.18374 5.5 9.18374 5.5 9.18374C5.5 9.18373 5.5 9.18373 5.5 9.18373C5.5 9.18373 5.5 9.18373 5.5 9.18373C4 9.18373 2.5 9.18373 2.5 9.18373C2.5 9.18373 2.5 9.18373 2.5 9.18373C2.5 9.18373 2.5 9.18374 2.5 9.18374C2.5 9.18374 2.5 9.18375 2.5 9.18375C2.5 9.18375 2.5 9.18376 2.5 9.18377C2.5 9.18377 2.5 9.18378 2.5 9.18378C2.5 9.18379 2.5 9.1838 2.5 9.18381C2.5 9.18382 2.5 9.18382 2.5 9.18383C2.5 9.18384 2.5 9.18385 2.5 9.18386C2.5 9.18387 2.5 9.18388 2.5 9.1839C2.5 9.18391 2.5 9.18392 2.5 9.18393C2.5 9.18395 2.5 9.18396 2.5 9.18397C2.5 9.18399 2.5 9.184 2.5 9.18402C2.5 9.18403 2.5 9.18405 2.5 9.18406C2.5 9.18408 2.5 9.1841 2.5 9.18412C2.5 9.18413 2.5 9.18415 2.5 9.18417C2.5 9.18419 2.5 9.18421 2.5 9.18423C2.5 9.18425 2.5 9.18427 2.5 9.18429C2.5 9.18431 2.5 9.18433 2.5 9.18435C2.5 9.18437 2.5 9.1844 2.5 9.18442C2.5 9.18444 2.5 9.18447 2.5 9.18449C2.5 9.18451 2.5 9.18454 2.5 9.18456C2.5 9.18459 2.5 9.18461 2.5 9.18464C2.5 9.18467 2.5 9.18469 2.5 9.18472C2.5 9.18475 2.5 9.18478 2.5 9.1848C2.5 9.18483 2.5 9.18486 2.5 9.18489C2.5 9.18492 2.5 9.18495 2.5 9.18498C2.5 9.18501 2.5 9.18504 2.5 9.18507C2.5 9.18511 2.5 9.18514 2.5 9.18517C2.5 9.1852 2.5 9.18524 2.5 9.18527C2.5 9.1853 2.5 9.18534 2.5 9.18537C2.5 9.1854 2.5 9.18544 2.5 9.18548C2.5 9.18551 2.5 9.18555 2.5 9.18558C2.5 9.18562 2.5 9.18566 2.5 9.18569C2.5 9.18573 2.5 9.18577 2.5 9.18581C2.5 9.18585 2.5 9.18589 2.5 9.18592C2.5 9.18596 2.5 9.186 2.5 9.18604C2.5 9.18608 2.5 9.18612 2.5 9.18617C2.5 9.18621 2.5 9.18625 2.5 9.18629C2.5 9.18633 2.5 9.18638 2.5 9.18642C2.5 9.18646 2.5 9.18651 2.5 9.18655C2.5 9.18659 2.5 9.18664 2.5 9.18668C2.5 9.18673 2.5 9.18677 2.5 9.18682C2.5 9.18687 2.5 9.18691 2.5 9.18696C2.5 9.18701 2.5 9.18705 2.5 9.1871C2.5 9.18715 2.5 9.1872 2.5 9.18724C2.5 9.18729 2.5 9.18734 2.5 9.18739C2.5 9.18744 2.5 9.18749 2.5 9.18754C2.5 9.18759 2.5 9.18764 2.5 9.18769C2.5 9.18774 2.5 9.18779 2.5 9.18785C2.5 9.1879 2.5 9.18795 2.5 9.188C2.5 9.18806 2.5 9.18811 2.5 9.18816C2.5 9.18822 2.5 9.18827 2.5 9.18832C2.5 9.18838 2.5 9.18843 2.5 9.18849C2.5 9.18854 2.5 9.1886 2.5 9.18866C2.5 9.18871 2.5 9.18877 2.5 9.18882C2.5 9.18888 2.5 9.18894 2.5 9.189C2.5 9.18905 2.5 9.18911 2.5 9.18917C2.5 9.18923 2.5 9.18929 2.5 9.18935C2.5 9.18941 2.5 9.18946 2.5 9.18952C2.5 9.18958 2.5 9.18964 2.5 9.1897C2.5 9.18977 2.5 9.18983 2.5 9.18989C2.5 9.18995 2.5 9.19001 2.5 9.19007C2.5 9.19014 2.5 9.1902 2.5 9.19026C2.5 9.19032 2.5 9.19039 2.5 9.19045C2.5 9.19051 2.5 9.19058 2.5 9.19064C2.5 9.19071 2.5 9.19077 2.5 9.19083C2.5 9.1909 2.5 9.19096 2.5 9.19103C2.5 9.1911 2.5 9.19116 2.5 9.19123C2.5 9.19129 2.5 9.19136 2.5 9.19143C2.5 9.19149 2.5 9.19156 2.5 9.19163C2.5 9.1917 2.5 9.19176 2.5 9.19183C2.5 9.1919 2.5 9.19197 2.5 9.19204C2.5 9.19211 2.5 9.19218 2.5 9.19225C2.5 9.19232 2.5 9.19239 2.5 9.19246C2.5 9.19253 2.5 9.1926 2.5 9.19267C2.5 9.19274 2.5 9.19281 2.5 9.19288C2.5 9.19295 2.5 9.19302 2.5 9.1931C2.5 9.19317 2.5 9.19324 2.5 9.19331C2.5 9.19338 2.5 9.19346 2.5 9.19353C2.5 9.1936 2.5 9.19368 2.5 9.19375C2.5 9.19382 2.5 9.1939 2.5 9.19397C2.5 9.19405 2.5 9.19412 2.5 9.1942C2.5 9.19427 2.5 9.19435 2.5 9.19442C2.5 9.1945 2.5 9.19457 2.5 9.19465C2.5 9.19472 2.5 9.1948 2.5 9.19488C2.5 9.19495 2.5 9.19503 2.5 9.19511C2.5 9.19518 2.5 9.19526 2.5 9.19534C2.5 9.19542 2.5 9.19549 2.5 9.19557C2.5 9.19565 2.5 9.19573 2.5 9.19581C2.5 9.19589 2.5 9.19596 2.5 9.19604C2.5 9.19612 2.5 9.1962 2.5 9.19628C2.5 9.19636 2.5 9.19644 2.5 9.19652C2.5 9.1966 2.5 9.19668 2.5 9.19676C2.5 9.19684 2.5 9.19692 2.5 9.197C2.5 9.19708 2.5 9.19716 2.5 9.19725C2.5 9.19733 2.5 9.19741 2.5 9.19749C2.5 9.19757 2.5 9.19765 2.5 9.19774C2.5 9.19782 2.5 9.1979 2.5 9.19798C2.5 9.19807 2.5 9.19815 2.5 9.19823C2.5 9.19832 2.5 9.1984 2.5 9.19848C2.5 9.19857 2.5 9.19865 2.5 9.19873C2.5 9.19882 2.5 9.1989 2.5 9.19899C2.5 9.19907 2.5 9.19915 2.5 9.19924C2.5 9.19932 2.5 9.19941 2.5 9.19949C2.5 9.19958 2.5 9.19966 2.5 9.19975C2.5 9.19983 2.5 9.19992 2.5 9.20001C2.5 9.20009 2.5 9.20018 2.5 9.20026C2.5 9.20035 2.5 9.20043 2.5 9.20052C2.5 9.20061 2.5 9.20069 2.5 9.20078C2.5 9.20087 2.5 9.20095 2.5 9.20104C2.5 9.20113 2.5 9.20122 2.5 9.2013C2.5 9.20139 2.5 9.20148 2.5 9.20157C2.5 9.20165 2.5 9.20174 2.5 9.20183C2.5 9.20192 2.5 9.20201 2.5 9.20209C2.5 9.20218 2.5 9.20227 2.5 9.20236C2.5 9.20245 2.5 9.20254 2.5 9.20263C2.5 9.20271 2.5 9.2028 2.5 9.20289C2.5 9.20298 2.5 9.20307 2.5 9.20316C2.5 9.20325 2.5 9.20334 2.5 9.20343C2.5 9.20352 2.5 9.20361 2.5 9.2037C2.5 9.20379 2.5 9.20388 2.5 9.20397C2.5 9.20406 2.5 9.20415 2.5 9.20424C2.5 9.20433 2.5 9.20442 2.5 9.20451C2.5 9.2046 2.5 9.20469 2.5 9.20478C2.5 9.20487 2.5 9.20496 2.5 9.20505C2.5 9.20514 2.5 9.20523 2.5 9.20532C2.5 9.20542 2.5 9.20551 2.5 9.2056C2.5 9.20569 2.5 9.20578 2.5 9.20587C2.5 9.20596 2.5 9.20605 2.5 9.20615C2.5 9.20624 2.5 9.20633 2.5 9.20642C2.5 9.20651 2.5 9.2066 2.5 9.2067C2.5 9.20679 2.5 9.20688 2.5 9.20697C2.5 9.20706 2.5 9.20716 2.5 9.20725C2.5 9.20734 2.5 9.20743 2.5 9.20752C2.5 9.20762 2.5 9.20771 2.5 9.2078C2.5 9.20789 2.5 9.20799 2.5 9.20808C2.5 9.20817 2.5 9.20826 2.5 9.20836C2.5 9.20845 2.5 9.20854 2.5 9.20863C2.5 9.20873 2.5 9.20882 2.5 9.20891C2.5 9.209 2.5 9.2091 2.5 9.20919C2.5 9.20928 2.5 9.20937 2.5 9.20947C2.5 9.20956 2.5 9.20965 2.5 9.20975C2.5 9.20984 2.5 9.20993 2.5 9.21002C2.5 9.21012 2.5 9.21021 2.5 9.2103C2.5 9.2104 2.5 9.21049 2.5 9.21058C2.5 9.21068 2.5 9.21077 2.5 9.21086C2.5 9.21095 2.5 9.21105 2.5 9.21114C2.5 9.21123 2.5 9.21133 2.5 9.21142C2.5 9.21151 2.5 9.2116 2.5 9.2117C2.5 9.21179 2.5 9.21188 2.5 9.21198C2.5 9.21207 2.5 9.21216 2.5 9.21226C2.5 9.21235 2.5 9.21244 2.5 9.21253C2.5 9.21263 2.5 9.21272 2.5 9.21281C2.5 9.2129 2.5 9.213 2.5 9.21309C2.5 9.21318 2.5 9.21328 2.5 9.21337C2.5 9.21346 2.5 9.21355 2.5 9.21365C2.5 9.21374 2.5 9.21383 2.5 9.21392C2.5 9.21402 2.5 9.21411 2.5 9.2142C2.5 9.21429 2.5 9.21439 2.5 9.21448C2.5 9.21457 2.5 9.21466 2.5 9.21476C2.5 9.21485 2.5 9.21494 2.5 9.21503C2.5 9.21513 2.5 9.21522 2.5 9.21531C2.5 9.2154 2.5 9.21549 2.5 9.21559C2.5 9.21568 2.5 9.21577 2.5 9.21586C2.5 9.21595 2.5 9.21604 2.5 9.21614C2.5 9.21623 2.5 9.21632 2.5 9.21641C2.5 9.2165 2.5 9.21659 2.5 9.21669C2.5 9.21678 2.5 9.21687 2.5 9.21696C2.5 9.21705 2.5 9.21714 2.5 9.21723C2.5 9.21732 2.5 9.21741 2.5 9.2175C2.5 9.2176 2.5 9.21769 2.5 9.21778C2.5 9.21787 2.5 9.21796 2.5 9.21805C2.5 9.21814 2.5 9.21823 2.5 9.21832C2.5 9.21841 2.5 9.2185 2.5 9.21859C2.5 9.21868 2.5 9.21877 2.5 9.21886C2.5 9.21895 2.5 9.21904 2.5 9.21913C2.5 9.21922 2.5 9.21931 2.5 9.21939C2.5 9.21948 2.5 9.21957 2.5 9.21966C2.5 9.21975 2.5 9.21984 2.5 9.21993C2.5 9.22002 2.5 9.22011 2.5 9.22019C2.5 9.22028 2.5 9.22037 2.5 9.22046C2.5 9.22055 2.5 9.22064 2.5 9.22072C2.5 9.22081 2.5 9.2209 2.5 9.22099C2.5 9.22107 2.5 9.22116 2.5 9.22125C2.5 9.22134 2.5 9.22142 2.5 9.22151C2.5 9.2216 2.5 9.22168 2.5 9.22177C2.5 9.22186 2.5 9.22194 2.5 9.22203C2.5 9.22212 2.5 9.2222 2.5 9.22229C2.5 9.22237 2.5 9.22246 2.5 9.22254C2.5 9.22263 2.5 9.22272 2.5 9.2228C2.5 9.22289 2.5 9.22297 2.5 9.22306C2.5 9.22314 2.5 9.22323 2.5 9.22331C2.5 9.22339 2.5 9.22348 2.5 9.22356C2.5 9.22365 2.5 9.22373 2.5 9.22381C2.5 9.2239 2.5 9.22398 2.5 9.22406C2.5 9.22415 2.5 9.22423 2.5 9.22431C2.5 9.2244 2.5 9.22448 2.5 9.22456C2.5 9.22464 2.5 9.22473 2.5 9.22481C2.5 9.22489 2.5 9.22497 2.5 9.22505C2.5 9.22514 2.5 9.22522 2.5 9.2253C2.5 9.22538 2.5 9.22546 2.5 9.22554C2.5 9.22562 2.5 9.2257 2.5 9.22578C2.5 9.22586 2.5 9.22594 2.5 9.22602C2.5 9.2261 2.5 9.22618 2.5 9.22626C2.5 9.22634 2.5 9.22642 2.5 9.2265C2.5 9.22658 2.5 9.22666 2.5 9.22674C2.5 9.22681 2.5 9.22689 2.5 9.22697C2.5 9.22705 2.5 9.22712 2.5 9.2272C2.5 9.22728 2.5 9.22736 2.5 9.22743C2.5 9.22751 2.5 9.22759 2.5 9.22766C2.5 9.22774 2.5 9.22781 2.5 9.22789C2.5 9.22797 2.5 9.22804 2.5 9.22812C2.5 9.22819 2.5 9.22827 2.5 9.22834C2.5 9.22842 2.5 9.22849 2.5 9.22856C2.5 9.22864 2.5 9.22871 2.5 9.22879C2.5 9.22886 2.5 9.22893 2.5 9.22901C2.5 9.22908 2.5 9.22915 2.5 9.22922C2.5 9.2293 2.5 9.22937 2.5 9.22944C2.5 9.22951 2.5 9.22958 2.5 9.22965C2.5 9.22972 2.5 9.2298 2.5 9.22987C2.5 9.22994 2.5 9.23001 2.5 9.23008C2.5 9.23015 2.5 9.23022 2.5 9.23029C2.5 9.23036 2.5 9.23042 2.5 9.23049C2.5 9.23056 2.5 9.23063 2.5 9.2307C2.5 9.23077 2.5 9.23083 2.5 9.2309C2.5 9.23097 2.5 9.23103 2.5 9.2311C2.5 9.23117 2.5 9.23123 2.5 9.2313C2.5 9.23137 2.5 9.23143 2.5 9.2315C2.5 9.23156 2.5 9.23163 2.5 9.23169C2.5 9.23176 2.5 9.23182 2.5 9.23188C2.5 9.23195 2.5 9.23201 2.5 9.23208C2.5 9.23214 2.5 9.2322 2.5 9.23226C2.5 9.23233 2.5 9.23239 2.5 9.23245C2.5 9.23251 2.5 9.23257 2.5 9.23263C2.5 9.2327 2.5 9.23276 2.5 9.23282C2.5 9.23288 2.5 9.23294 2.5 9.233C2.5 9.23306 2.5 9.23312 2.5 9.23317C2.5 9.23323 2.5 9.23329 2.5 9.23335C2.5 9.23341 2.5 9.23346 2.5 9.23352C2.5 9.23358 2.5 9.23364 2.5 9.23369C2.5 9.23375 2.5 9.2338 2.5 9.23386C2.5 9.23392 2.5 9.23397 2.5 9.23403C2.5 9.23408 2.5 9.23414 2.5 9.23419C2.5 9.23424 2.5 9.2343 2.5 9.23435C2.5 9.2344 2.5 9.23446 2.5 9.23451C2.5 9.23456 2.5 9.23461 2.5 9.23466C2.5 9.23472 2.5 9.23477 2.5 9.23482C2.5 9.23487 2.5 9.23492 2.5 9.23497C2.5 9.23502 2.5 9.23507 2.5 9.23512C2.5 9.23517 2.5 9.23522 2.5 9.23526C2.5 9.23531 2.5 9.23536 2.5 9.23541C2.5 9.23545 2.5 9.2355 2.5 9.23555C2.5 9.23559 2.5 9.23564 2.5 9.23569C2.5 9.23573 2.5 9.23578 2.5 9.23582C2.5 9.23586 2.5 9.23591 2.5 9.23595C2.5 9.236 2.5 9.23604 2.5 9.23608C2.5 9.23612 2.5 9.23617 2.5 9.23621C2.5 9.23625 2.5 9.23629 2.5 9.23633C2.5 9.23637 2.5 9.23641 2.5 9.23645C2.5 9.23649 2.5 9.23653 2.5 9.23657C2.5 9.23661 2.5 9.23665 2.5 9.23669C2.5 9.23673 2.5 9.23676 2.5 9.2368C2.5 9.23684 2.5 9.23687 2.5 9.23691C2.5 9.23695 2.5 9.23698 2.5 9.23702C2.5 9.23705 2.5 9.23709 2.5 9.23712C2.5 9.23716 2.5 9.23719 2.5 9.23722C2.5 9.23726 2.5 9.23729 2.5 9.23732C2.5 9.23735 2.5 9.23738 2.5 9.23742C2.5 9.23745 2.5 9.23748 2.5 9.23751C2.5 9.23754 2.5 9.23757 2.5 9.2376C2.5 9.23762 2.5 9.23765 2.5 9.23768C2.5 9.23771 2.5 9.23774 2.5 9.23776C2.5 9.23779 2.5 9.23782 2.5 9.23784C2.5 9.23787 2.5 9.23789 2.5 9.23792C2.5 9.23794 2.5 9.23797 2.5 9.23799C2.5 9.23801 2.5 9.23804 2.5 9.23806C2.5 9.23808 2.5 9.2381 2.5 9.23813C2.5 9.23815 2.5 9.23817 2.5 9.23819C2.5 9.23821 2.5 9.23823 2.5 9.23825C2.5 9.23827 2.5 9.23829 2.5 9.2383C2.5 9.23832 2.5 9.23834 2.5 9.23836C2.5 9.23837 2.5 9.23839 2.5 9.23841C2.5 9.23842 2.5 9.23844 2.5 9.23845C2.5 9.23847 2.5 9.23848 2.5 9.23849C2.5 9.23851 2.5 9.23852 2.5 9.23853C2.5 9.23855 2.5 9.23856 2.5 9.23857C2.5 9.23858 2.5 9.23859 2.5 9.2386C2.5 9.23861 2.5 9.23862 2.5 9.23863C2.5 9.23864 2.5 9.23865 2.5 9.23865C2.5 9.23866 2.5 9.23867 2.5 9.23868C2.5 9.23868 2.5 9.23869 2.5 9.23869C2.5 9.2387 2.5 9.2387 2.5 9.23871C2.5 9.23871 2.5 9.23871 2.5 9.23872C2.5 9.23872 2.5 9.23872 2.5 9.23872C2.5 9.23872 2.5 9.23873 2.5 9.23873C4 9.23873 5.5 9.23873 5.5 9.23873C5.5 9.23872 5.5 9.23872 5.5 9.23872C5.5 9.23872 5.5 9.23872 5.5 9.23871C5.5 9.23871 5.5 9.2387 5.5 9.2387C5.5 9.23869 5.5 9.23869 5.5 9.23868C5.5 9.23868 5.5 9.23867 5.5 9.23866C5.5 9.23866 5.5 9.23865 5.5 9.23864C5.5 9.23863 5.5 9.23862 5.5 9.23861C5.5 9.2386 5.5 9.23859 5.5 9.23858C5.5 9.23857 5.5 9.23855 5.5 9.23854C5.5 9.23853 5.5 9.23852 5.5 9.2385C5.5 9.23849 5.5 9.23847 5.5 9.23846C5.5 9.23844 5.5 9.23843 5.5 9.23841C5.5 9.23839 5.5 9.23838 5.5 9.23836C5.5 9.23834 5.5 9.23832 5.5 9.2383C5.5 9.23828 5.5 9.23826 5.5 9.23824C5.5 9.23822 5.5 9.2382 5.5 9.23818C5.5 9.23815 5.5 9.23813 5.5 9.23811C5.5 9.23808 5.5 9.23806 5.5 9.23803C5.5 9.23801 5.5 9.23798 5.5 9.23796C5.5 9.23793 5.5 9.2379 5.5 9.23787C5.5 9.23785 5.5 9.23782 5.5 9.23779C5.5 9.23776 5.5 9.23773 5.5 9.2377C5.5 9.23767 5.5 9.23764 5.5 9.2376C5.5 9.23757 5.5 9.23754 5.5 9.2375C5.5 9.23747 5.5 9.23744 5.5 9.2374C5.5 9.23737 5.5 9.23733 5.5 9.23729C5.5 9.23726 5.5 9.23722 5.5 9.23718C5.5 9.23714 5.5 9.2371 5.5 9.23706C5.5 9.23702 5.5 9.23698 5.5 9.23694C5.5 9.2369 5.5 9.23686 5.5 9.23682C5.5 9.23677 5.5 9.23673 5.5 9.23669C5.5 9.23664 5.5 9.2366 5.5 9.23655C5.5 9.23651 5.5 9.23646 5.5 9.23641C5.5 9.23636 5.5 9.23632 5.5 9.23627C5.5 9.23622 5.5 9.23617 5.5 9.23612C5.5 9.23607 5.5 9.23602 5.5 9.23596C5.5 9.23591 5.5 9.23586 5.5 9.23581C5.5 9.23575 5.5 9.2357 5.5 9.23564C5.5 9.23559 5.5 9.23553 5.5 9.23548C5.5 9.23542 5.5 9.23536 5.5 9.2353C5.5 9.23524 5.5 9.23519 5.5 9.23513C5.5 9.23507 5.5 9.23501 5.5 9.23494C5.5 9.23488 5.5 9.23482 5.5 9.23476C5.5 9.23469 5.5 9.23463 5.5 9.23456C5.5 9.2345 5.5 9.23443 5.5 9.23437C5.5 9.2343 5.5 9.23423 5.5 9.23417C5.5 9.2341 5.5 9.23403 5.5 9.23396C5.5 9.23389 5.5 9.23382 5.5 9.23375C5.5 9.23368 5.5 9.2336 5.5 9.23353C5.5 9.23346 5.5 9.23338 5.5 9.23331C5.5 9.23323 5.5 9.23316 5.5 9.23308C5.5 9.23301 5.5 9.23293 5.5 9.23285C5.5 9.23277 5.5 9.23269 5.5 9.23261C5.5 9.23253 5.5 9.23245 5.5 9.23237C5.5 9.23229 5.5 9.23221 5.5 9.23212C5.5 9.23204 5.5 9.23196 5.5 9.23187C5.5 9.23179 5.5 9.2317 5.5 9.23161C5.5 9.23153 5.5 9.23144 5.5 9.23135C5.5 9.23126 5.5 9.23117 5.5 9.23108C5.5 9.23099 5.5 9.2309 5.5 9.23081C5.5 9.23072 5.5 9.23062 5.5 9.23053C5.5 9.23043 5.5 9.23034 5.5 9.23024C5.5 9.23015 5.5 9.23005 5.5 9.22995C5.5 9.22986 5.5 9.22976 5.5 9.22966C5.5 9.22956 5.5 9.22946 5.5 9.22936C5.5 9.22926 5.5 9.22916 5.5 9.22905C5.5 9.22895 5.5 9.22885 5.5 9.22874C5.5 9.22864 5.5 9.22853 5.5 9.22843C5.5 9.22832 5.5 9.22821 5.5 9.2281C5.5 9.22799 5.5 9.22789 5.5 9.22777C5.5 9.22766 5.5 9.22755 5.5 9.22744C5.5 9.22733 5.5 9.22722 5.5 9.2271C5.5 9.22699 5.5 9.22687 5.5 9.22676C5.5 9.22664 5.5 9.22652 5.5 9.22641C5.5 9.22629 5.5 9.22617 5.5 9.22605C5.5 9.22593 5.5 9.22581 5.5 9.22569C5.5 9.22557 5.5 9.22544 5.5 9.22532C5.5 9.2252 5.5 9.22507 5.5 9.22495C5.5 9.22482 5.5 9.2247 5.5 9.22457C5.5 9.22444 5.5 9.22431 5.5 9.22418C5.5 9.22405 5.5 9.22392 5.5 9.22379C5.5 9.22366 5.5 9.22353 5.5 9.2234C5.5 9.22326 5.5 9.22313 5.5 9.22299C5.5 9.22286 5.5 9.22272 5.5 9.22259C5.5 9.22245 5.5 9.22231 5.5 9.22217C5.5 9.22203 5.5 9.22189 5.5 9.22175C5.5 9.22161 5.5 9.22147 5.5 9.22132C5.5 9.22118 5.5 9.22104 5.5 9.22089C5.5 9.22075 5.5 9.2206 5.5 9.22045C5.5 9.22031 5.5 9.22016 5.5 9.22001C5.5 9.21986 5.5 9.21971 5.5 9.21956C5.5 9.21941 5.5 9.21926 5.5 9.2191C5.5 9.21895 5.5 9.2188 5.5 9.21864C5.5 9.21849 5.5 9.21833 5.5 9.21817C5.5 9.21801 5.5 9.21786 5.5 9.2177C5.5 9.21754 5.5 9.21738 5.5 9.21722C5.5 9.21705 5.5 9.21689 5.5 9.21673C5.5 9.21657 5.5 9.2164 5.5 9.21623C5.5 9.21607 5.5 9.2159 5.5 9.21573C5.5 9.21557 5.5 9.2154 5.5 9.21523C5.5 9.21506 5.5 9.21489 5.5 9.21472C5.5 9.21454 5.5 9.21437 5.5 9.2142C5.5 9.21402 5.5 9.21385 5.5 9.21367C5.5 9.2135 5.5 9.21332 5.5 9.21314C5.5 9.21296 5.5 9.21278 5.5 9.2126C5.5 9.21242 5.5 9.21224 5.5 9.21206C5.5 9.21187 5.5 9.21169 5.5 9.2115C5.5 9.21132 5.5 9.21113 5.5 9.21095C5.5 9.21076 5.5 9.21057 5.5 9.21038C5.5 9.21019 5.5 9.21 5.5 9.20981C5.5 9.20962 5.5 9.20943 5.5 9.20923C5.5 9.20904 5.5 9.20885 5.5 9.20865C5.5 9.20846 5.5 9.20826 5.5 9.20806H2.5ZM2.5 9.20806C2.5 9.20827 2.5 9.20848 2.5 9.20869C2.5 9.20889 2.5 9.2091 2.5 9.20931C2.5 9.20951 2.5 9.20972 2.5 9.20992C2.5 9.21012 2.5 9.21032 2.5 9.21052C2.5 9.21072 2.5 9.21092 2.5 9.21112C2.5 9.21132 2.5 9.21152 2.5 9.21171C2.5 9.21191 2.5 9.2121 2.5 9.21229C2.5 9.21249 2.5 9.21268 2.5 9.21287C2.5 9.21306 2.5 9.21325 2.5 9.21344C2.5 9.21363 2.5 9.21381 2.5 9.214C2.5 9.21419 2.5 9.21437 2.5 9.21455C2.5 9.21474 2.5 9.21492 2.5 9.2151C2.5 9.21528 2.5 9.21546 2.5 9.21564C2.5 9.21582 2.5 9.21599 2.5 9.21617C2.5 9.21635 2.5 9.21652 2.5 9.2167C2.5 9.21687 2.5 9.21704 2.5 9.21721C2.5 9.21739 2.5 9.21756 2.5 9.21772C2.5 9.21789 2.5 9.21806 2.5 9.21823C2.5 9.2184 2.5 9.21856 2.5 9.21873C2.5 9.21889 2.5 9.21905 2.5 9.21922C2.5 9.21938 2.5 9.21954 2.5 9.2197C2.5 9.21986 2.5 9.22002 2.5 9.22017C2.5 9.22033 2.5 9.22049 2.5 9.22064C2.5 9.2208 2.5 9.22095 2.5 9.2211C2.5 9.22126 2.5 9.22141 2.5 9.22156C2.5 9.22171 2.5 9.22186 2.5 9.22201C2.5 9.22216 2.5 9.2223 2.5 9.22245C2.5 9.2226 2.5 9.22274 2.5 9.22289C2.5 9.22303 2.5 9.22317 2.5 9.22331C2.5 9.22346 2.5 9.2236 2.5 9.22374C2.5 9.22388 2.5 9.22401 2.5 9.22415C2.5 9.22429 2.5 9.22442 2.5 9.22456C2.5 9.22469 2.5 9.22483 2.5 9.22496C2.5 9.22509 2.5 9.22523 2.5 9.22536C2.5 9.22549 2.5 9.22562 2.5 9.22575C2.5 9.22587 2.5 9.226 2.5 9.22613C2.5 9.22625 2.5 9.22638 2.5 9.2265C2.5 9.22663 2.5 9.22675 2.5 9.22687C2.5 9.22699 2.5 9.22711 2.5 9.22723C2.5 9.22736 2.5 9.22747 2.5 9.22759C2.5 9.22771 2.5 9.22783 2.5 9.22794C2.5 9.22806 2.5 9.22817 2.5 9.22829C2.5 9.2284 2.5 9.22851 2.5 9.22862C2.5 9.22873 2.5 9.22884 2.5 9.22895C2.5 9.22906 2.5 9.22917 2.5 9.22928C2.5 9.22939 2.5 9.22949 2.5 9.2296C2.5 9.2297 2.5 9.22981 2.5 9.22991C2.5 9.23001 2.5 9.23012 2.5 9.23022C2.5 9.23032 2.5 9.23042 2.5 9.23052C2.5 9.23062 2.5 9.23071 2.5 9.23081C2.5 9.23091 2.5 9.231 2.5 9.2311C2.5 9.2312 2.5 9.23129 2.5 9.23138C2.5 9.23148 2.5 9.23157 2.5 9.23166C2.5 9.23175 2.5 9.23184 2.5 9.23193C2.5 9.23202 2.5 9.23211 2.5 9.23219C2.5 9.23228 2.5 9.23237 2.5 9.23245C2.5 9.23254 2.5 9.23262 2.5 9.2327C2.5 9.23279 2.5 9.23287 2.5 9.23295C2.5 9.23303 2.5 9.23311 2.5 9.23319C2.5 9.23327 2.5 9.23335 2.5 9.23343C2.5 9.2335 2.5 9.23358 2.5 9.23366C2.5 9.23373 2.5 9.23381 2.5 9.23388C2.5 9.23395 2.5 9.23403 2.5 9.2341C2.5 9.23417 2.5 9.23424 2.5 9.23431C2.5 9.23438 2.5 9.23445 2.5 9.23452C2.5 9.23458 2.5 9.23465 2.5 9.23472C2.5 9.23478 2.5 9.23485 2.5 9.23491C2.5 9.23498 2.5 9.23504 2.5 9.2351C2.5 9.23517 2.5 9.23523 2.5 9.23529C2.5 9.23535 2.5 9.23541 2.5 9.23547C2.5 9.23553 2.5 9.23558 2.5 9.23564C2.5 9.2357 2.5 9.23575 2.5 9.23581C2.5 9.23586 2.5 9.23592 2.5 9.23597C2.5 9.23602 2.5 9.23608 2.5 9.23613C2.5 9.23618 2.5 9.23623 2.5 9.23628C2.5 9.23633 2.5 9.23638 2.5 9.23643C2.5 9.23647 2.5 9.23652 2.5 9.23657C2.5 9.23661 2.5 9.23666 2.5 9.2367C2.5 9.23675 2.5 9.23679 2.5 9.23683C2.5 9.23688 2.5 9.23692 2.5 9.23696C2.5 9.237 2.5 9.23704 2.5 9.23708C2.5 9.23712 2.5 9.23716 2.5 9.2372C2.5 9.23723 2.5 9.23727 2.5 9.23731C2.5 9.23734 2.5 9.23738 2.5 9.23741C2.5 9.23744 2.5 9.23748 2.5 9.23751C2.5 9.23754 2.5 9.23758 2.5 9.23761C2.5 9.23764 2.5 9.23767 2.5 9.2377C2.5 9.23773 2.5 9.23775 2.5 9.23778C2.5 9.23781 2.5 9.23784 2.5 9.23786C2.5 9.23789 2.5 9.23791 2.5 9.23794C2.5 9.23796 2.5 9.23798 2.5 9.23801C2.5 9.23803 2.5 9.23805 2.5 9.23807C2.5 9.23809 2.5 9.23811 2.5 9.23813C2.5 9.23815 2.5 9.23817 2.5 9.23819C2.5 9.23821 2.5 9.23822 2.5 9.23824C2.5 9.23826 2.5 9.23827 2.5 9.23829C2.5 9.2383 2.5 9.23832 2.5 9.23833C2.5 9.23834 2.5 9.23836 2.5 9.23837C2.5 9.23838 2.5 9.23839 2.5 9.2384C2.5 9.23841 2.5 9.23842 2.5 9.23843C2.5 9.23844 2.5 9.23844 2.5 9.23845C2.5 9.23846 2.5 9.23846 2.5 9.23847C2.5 9.23848 2.5 9.23848 2.5 9.23848C2.5 9.23849 2.5 9.23849 2.5 9.23849C2.5 9.2385 2.5 9.2385 2.5 9.2385C2.5 9.2385 4 9.2385 5.5 9.2385C5.5 9.2385 5.5 9.2385 5.5 9.2385C5.5 9.2385 5.5 9.23849 5.5 9.23849C5.5 9.23849 5.5 9.23848 5.5 9.23848C5.5 9.23847 5.5 9.23847 5.5 9.23846C5.5 9.23845 5.5 9.23845 5.5 9.23844C5.5 9.23843 5.5 9.23843 5.5 9.23842C5.5 9.23841 5.5 9.2384 5.5 9.23839C5.5 9.23838 5.5 9.23837 5.5 9.23835C5.5 9.23834 5.5 9.23833 5.5 9.23832C5.5 9.2383 5.5 9.23829 5.5 9.23827C5.5 9.23826 5.5 9.23825 5.5 9.23823C5.5 9.23821 5.5 9.2382 5.5 9.23818C5.5 9.23816 5.5 9.23814 5.5 9.23813C5.5 9.23811 5.5 9.23809 5.5 9.23807C5.5 9.23805 5.5 9.23803 5.5 9.23801C5.5 9.23799 5.5 9.23796 5.5 9.23794C5.5 9.23792 5.5 9.2379 5.5 9.23787C5.5 9.23785 5.5 9.23782 5.5 9.2378C5.5 9.23777 5.5 9.23775 5.5 9.23772C5.5 9.23769 5.5 9.23767 5.5 9.23764C5.5 9.23761 5.5 9.23758 5.5 9.23755C5.5 9.23753 5.5 9.2375 5.5 9.23747C5.5 9.23744 5.5 9.2374 5.5 9.23737C5.5 9.23734 5.5 9.23731 5.5 9.23728C5.5 9.23725 5.5 9.23721 5.5 9.23718C5.5 9.23714 5.5 9.23711 5.5 9.23707C5.5 9.23704 5.5 9.237 5.5 9.23697C5.5 9.23693 5.5 9.23689 5.5 9.23686C5.5 9.23682 5.5 9.23678 5.5 9.23674C5.5 9.2367 5.5 9.23666 5.5 9.23663C5.5 9.23659 5.5 9.23654 5.5 9.2365C5.5 9.23646 5.5 9.23642 5.5 9.23638C5.5 9.23634 5.5 9.23629 5.5 9.23625C5.5 9.23621 5.5 9.23616 5.5 9.23612C5.5 9.23608 5.5 9.23603 5.5 9.23598C5.5 9.23594 5.5 9.23589 5.5 9.23585C5.5 9.2358 5.5 9.23575 5.5 9.23571C5.5 9.23566 5.5 9.23561 5.5 9.23556C5.5 9.23551 5.5 9.23546 5.5 9.23541C5.5 9.23536 5.5 9.23531 5.5 9.23526C5.5 9.23521 5.5 9.23516 5.5 9.23511C5.5 9.23505 5.5 9.235 5.5 9.23495C5.5 9.2349 5.5 9.23484 5.5 9.23479C5.5 9.23473 5.5 9.23468 5.5 9.23462C5.5 9.23457 5.5 9.23451 5.5 9.23446C5.5 9.2344 5.5 9.23434 5.5 9.23429C5.5 9.23423 5.5 9.23417 5.5 9.23411C5.5 9.23406 5.5 9.234 5.5 9.23394C5.5 9.23388 5.5 9.23382 5.5 9.23376C5.5 9.2337 5.5 9.23364 5.5 9.23358C5.5 9.23352 5.5 9.23345 5.5 9.23339C5.5 9.23333 5.5 9.23327 5.5 9.2332C5.5 9.23314 5.5 9.23308 5.5 9.23301C5.5 9.23295 5.5 9.23289 5.5 9.23282C5.5 9.23276 5.5 9.23269 5.5 9.23262C5.5 9.23256 5.5 9.23249 5.5 9.23243C5.5 9.23236 5.5 9.23229 5.5 9.23222C5.5 9.23216 5.5 9.23209 5.5 9.23202C5.5 9.23195 5.5 9.23188 5.5 9.23181C5.5 9.23174 5.5 9.23167 5.5 9.2316C5.5 9.23153 5.5 9.23146 5.5 9.23139C5.5 9.23132 5.5 9.23125 5.5 9.23118C5.5 9.2311 5.5 9.23103 5.5 9.23096C5.5 9.23089 5.5 9.23081 5.5 9.23074C5.5 9.23066 5.5 9.23059 5.5 9.23052C5.5 9.23044 5.5 9.23037 5.5 9.23029C5.5 9.23022 5.5 9.23014 5.5 9.23006C5.5 9.22999 5.5 9.22991 5.5 9.22983C5.5 9.22976 5.5 9.22968 5.5 9.2296C5.5 9.22952 5.5 9.22945 5.5 9.22937C5.5 9.22929 5.5 9.22921 5.5 9.22913C5.5 9.22905 5.5 9.22897 5.5 9.22889C5.5 9.22881 5.5 9.22873 5.5 9.22865C5.5 9.22857 5.5 9.22849 5.5 9.22841C5.5 9.22833 5.5 9.22824 5.5 9.22816C5.5 9.22808 5.5 9.228 5.5 9.22791C5.5 9.22783 5.5 9.22775 5.5 9.22766C5.5 9.22758 5.5 9.2275 5.5 9.22741C5.5 9.22733 5.5 9.22724 5.5 9.22716C5.5 9.22707 5.5 9.22699 5.5 9.2269C5.5 9.22682 5.5 9.22673 5.5 9.22664C5.5 9.22656 5.5 9.22647 5.5 9.22638C5.5 9.2263 5.5 9.22621 5.5 9.22612C5.5 9.22604 5.5 9.22595 5.5 9.22586C5.5 9.22577 5.5 9.22568 5.5 9.22559C5.5 9.2255 5.5 9.22541 5.5 9.22532C5.5 9.22523 5.5 9.22515 5.5 9.22506C5.5 9.22497 5.5 9.22487 5.5 9.22478C5.5 9.22469 5.5 9.2246 5.5 9.22451C5.5 9.22442 5.5 9.22433 5.5 9.22424C5.5 9.22414 5.5 9.22405 5.5 9.22396C5.5 9.22387 5.5 9.22377 5.5 9.22368C5.5 9.22359 5.5 9.2235 5.5 9.2234C5.5 9.22331 5.5 9.22321 5.5 9.22312C5.5 9.22303 5.5 9.22293 5.5 9.22284C5.5 9.22274 5.5 9.22265 5.5 9.22255C5.5 9.22246 5.5 9.22236 5.5 9.22227C5.5 9.22217 5.5 9.22207 5.5 9.22198C5.5 9.22188 5.5 9.22179 5.5 9.22169C5.5 9.22159 5.5 9.2215 5.5 9.2214C5.5 9.2213 5.5 9.2212 5.5 9.22111C5.5 9.22101 5.5 9.22091 5.5 9.22081C5.5 9.22071 5.5 9.22062 5.5 9.22052C5.5 9.22042 5.5 9.22032 5.5 9.22022C5.5 9.22012 5.5 9.22002 5.5 9.21992C5.5 9.21983 5.5 9.21973 5.5 9.21963C5.5 9.21953 5.5 9.21943 5.5 9.21933C5.5 9.21923 5.5 9.21913 5.5 9.21903C5.5 9.21892 5.5 9.21882 5.5 9.21872C5.5 9.21862 5.5 9.21852 5.5 9.21842C5.5 9.21832 5.5 9.21822 5.5 9.21811C5.5 9.21801 5.5 9.21791 5.5 9.21781C5.5 9.21771 5.5 9.2176 5.5 9.2175C5.5 9.2174 5.5 9.2173 5.5 9.21719C5.5 9.21709 5.5 9.21699 5.5 9.21689C5.5 9.21678 5.5 9.21668 5.5 9.21658C5.5 9.21647 5.5 9.21637 5.5 9.21627C5.5 9.21616 5.5 9.21606 5.5 9.21595C5.5 9.21585 5.5 9.21575 5.5 9.21564C5.5 9.21554 5.5 9.21543 5.5 9.21533C5.5 9.21522 5.5 9.21512 5.5 9.21501C5.5 9.21491 5.5 9.2148 5.5 9.2147C5.5 9.21459 5.5 9.21449 5.5 9.21438C5.5 9.21428 5.5 9.21417 5.5 9.21407C5.5 9.21396 5.5 9.21386 5.5 9.21375C5.5 9.21364 5.5 9.21354 5.5 9.21343C5.5 9.21333 5.5 9.21322 5.5 9.21311C5.5 9.21301 5.5 9.2129 5.5 9.2128C5.5 9.21269 5.5 9.21258 5.5 9.21248C5.5 9.21237 5.5 9.21226 5.5 9.21216C5.5 9.21205 5.5 9.21194 5.5 9.21183C5.5 9.21173 5.5 9.21162 5.5 9.21151C5.5 9.21141 5.5 9.2113 5.5 9.21119C5.5 9.21109 5.5 9.21098 5.5 9.21087C5.5 9.21076 5.5 9.21066 5.5 9.21055C5.5 9.21044 5.5 9.21033 5.5 9.21023C5.5 9.21012 5.5 9.21001 5.5 9.2099C5.5 9.20979 5.5 9.20969 5.5 9.20958C5.5 9.20947 5.5 9.20936 5.5 9.20926C5.5 9.20915 5.5 9.20904 5.5 9.20893C5.5 9.20882 5.5 9.20871 5.5 9.20861C5.5 9.2085 5.5 9.20839 5.5 9.20828C5.5 9.20817 5.5 9.20807 5.5 9.20796C5.5 9.20785 5.5 9.20774 5.5 9.20763C5.5 9.20752 5.5 9.20742 5.5 9.20731C5.5 9.2072 5.5 9.20709 5.5 9.20698C5.5 9.20687 5.5 9.20677 5.5 9.20666C5.5 9.20655 5.5 9.20644 5.5 9.20633C5.5 9.20623 5.5 9.20612 5.5 9.20601C5.5 9.2059 5.5 9.20579 5.5 9.20568C5.5 9.20557 5.5 9.20547 5.5 9.20536C5.5 9.20525 5.5 9.20514 5.5 9.20503C5.5 9.20493 5.5 9.20482 5.5 9.20471C5.5 9.2046 5.5 9.20449 5.5 9.20438C5.5 9.20428 5.5 9.20417 5.5 9.20406C5.5 9.20395 5.5 9.20384 5.5 9.20374C5.5 9.20363 5.5 9.20352 5.5 9.20341C5.5 9.20331 5.5 9.2032 5.5 9.20309C5.5 9.20298 5.5 9.20287 5.5 9.20277C5.5 9.20266 5.5 9.20255 5.5 9.20244C5.5 9.20234 5.5 9.20223 5.5 9.20212C5.5 9.20201 5.5 9.20191 5.5 9.2018C5.5 9.20169 5.5 9.20158 5.5 9.20148C5.5 9.20137 5.5 9.20126 5.5 9.20116C5.5 9.20105 5.5 9.20094 5.5 9.20084C5.5 9.20073 5.5 9.20062 5.5 9.20051C5.5 9.20041 5.5 9.2003 5.5 9.2002C5.5 9.20009 5.5 9.19998 5.5 9.19988C5.5 9.19977 5.5 9.19966 5.5 9.19956C5.5 9.19945 5.5 9.19935 5.5 9.19924C5.5 9.19913 5.5 9.19903 5.5 9.19892C5.5 9.19882 5.5 9.19871 5.5 9.19861C5.5 9.1985 5.5 9.1984 5.5 9.19829C5.5 9.19819 5.5 9.19808 5.5 9.19798C5.5 9.19787 5.5 9.19777 5.5 9.19766C5.5 9.19756 5.5 9.19745 5.5 9.19735C5.5 9.19724 5.5 9.19714 5.5 9.19704C5.5 9.19693 5.5 9.19683 5.5 9.19672C5.5 9.19662 5.5 9.19652 5.5 9.19641C5.5 9.19631 5.5 9.19621 5.5 9.1961C5.5 9.196 5.5 9.1959 5.5 9.19579C5.5 9.19569 5.5 9.19559 5.5 9.19549C5.5 9.19538 5.5 9.19528 5.5 9.19518C5.5 9.19508 5.5 9.19498 5.5 9.19487C5.5 9.19477 5.5 9.19467 5.5 9.19457C5.5 9.19447 5.5 9.19437 5.5 9.19427C5.5 9.19417 5.5 9.19406 5.5 9.19396C5.5 9.19386 5.5 9.19376 5.5 9.19366C5.5 9.19356 5.5 9.19346 5.5 9.19336C5.5 9.19326 5.5 9.19316 5.5 9.19306C5.5 9.19296 5.5 9.19286 5.5 9.19277C5.5 9.19267 5.5 9.19257 5.5 9.19247C5.5 9.19237 5.5 9.19227 5.5 9.19217C5.5 9.19208 5.5 9.19198 5.5 9.19188C5.5 9.19178 5.5 9.19169 5.5 9.19159C5.5 9.19149 5.5 9.19139 5.5 9.1913C5.5 9.1912 5.5 9.1911 5.5 9.19101C5.5 9.19091 5.5 9.19082 5.5 9.19072C5.5 9.19063 5.5 9.19053 5.5 9.19043C5.5 9.19034 5.5 9.19024 5.5 9.19015C5.5 9.19005 5.5 9.18996 5.5 9.18987C5.5 9.18977 5.5 9.18968 5.5 9.18958C5.5 9.18949 5.5 9.1894 5.5 9.1893C5.5 9.18921 5.5 9.18912 5.5 9.18903C5.5 9.18893 5.5 9.18884 5.5 9.18875C5.5 9.18866 5.5 9.18857 5.5 9.18847C5.5 9.18838 5.5 9.18829 5.5 9.1882C5.5 9.18811 5.5 9.18802 5.5 9.18793C5.5 9.18784 5.5 9.18775 5.5 9.18766C5.5 9.18757 5.5 9.18748 5.5 9.18739C5.5 9.1873 5.5 9.18721 5.5 9.18713C5.5 9.18704 5.5 9.18695 5.5 9.18686C5.5 9.18677 5.5 9.18669 5.5 9.1866C5.5 9.18651 5.5 9.18643 5.5 9.18634C5.5 9.18625 5.5 9.18617 5.5 9.18608C5.5 9.186 5.5 9.18591 5.5 9.18582C5.5 9.18574 5.5 9.18565 5.5 9.18557C5.5 9.18549 5.5 9.1854 5.5 9.18532C5.5 9.18523 5.5 9.18515 5.5 9.18507C5.5 9.18498 5.5 9.1849 5.5 9.18482C5.5 9.18474 5.5 9.18466 5.5 9.18457C5.5 9.18449 5.5 9.18441 5.5 9.18433C5.5 9.18425 5.5 9.18417 5.5 9.18409C5.5 9.18401 5.5 9.18393 5.5 9.18385C5.5 9.18377 5.5 9.18369 5.5 9.18361C5.5 9.18353 5.5 9.18346 5.5 9.18338C5.5 9.1833 5.5 9.18322 5.5 9.18315C5.5 9.18307 5.5 9.18299 5.5 9.18292C5.5 9.18284 5.5 9.18276 5.5 9.18269C5.5 9.18261 5.5 9.18254 5.5 9.18246C5.5 9.18239 5.5 9.18231 5.5 9.18224C5.5 9.18217 5.5 9.18209 5.5 9.18202C5.5 9.18195 5.5 9.18187 5.5 9.1818C5.5 9.18173 5.5 9.18166 5.5 9.18159C5.5 9.18152 5.5 9.18145 5.5 9.18137C5.5 9.1813 5.5 9.18123 5.5 9.18116C5.5 9.1811 5.5 9.18103 5.5 9.18096C5.5 9.18089 5.5 9.18082 5.5 9.18075C5.5 9.18069 5.5 9.18062 5.5 9.18055C5.5 9.18048 5.5 9.18042 5.5 9.18035C5.5 9.18029 5.5 9.18022 5.5 9.18015C5.5 9.18009 5.5 9.18003 5.5 9.17996C5.5 9.1799 5.5 9.17983 5.5 9.17977C5.5 9.17971 5.5 9.17964 5.5 9.17958C5.5 9.17952 5.5 9.17946 5.5 9.1794C5.5 9.17934 5.5 9.17928 5.5 9.17921C5.5 9.17915 5.5 9.17909 5.5 9.17904C5.5 9.17898 5.5 9.17892 5.5 9.17886C5.5 9.1788 5.5 9.17874 5.5 9.17869C5.5 9.17863 5.5 9.17857 5.5 9.17852C5.5 9.17846 5.5 9.1784 5.5 9.17835C5.5 9.17829 5.5 9.17824 5.5 9.17818C5.5 9.17813 5.5 9.17808 5.5 9.17802C5.5 9.17797 5.5 9.17792 5.5 9.17786C5.5 9.17781 5.5 9.17776 5.5 9.17771C5.5 9.17766 5.5 9.17761 5.5 9.17756C5.5 9.17751 5.5 9.17746 5.5 9.17741C5.5 9.17736 5.5 9.17731 5.5 9.17726C5.5 9.17722 5.5 9.17717 5.5 9.17712C5.5 9.17708 5.5 9.17703 5.5 9.17698C5.5 9.17694 5.5 9.17689 5.5 9.17685C5.5 9.1768 5.5 9.17676 5.5 9.17672C5.5 9.17667 5.5 9.17663 5.5 9.17659C5.5 9.17655 5.5 9.1765 5.5 9.17646C5.5 9.17642 5.5 9.17638 5.5 9.17634C5.5 9.1763 5.5 9.17626 5.5 9.17622C5.5 9.17618 5.5 9.17615 5.5 9.17611C5.5 9.17607 5.5 9.17603 5.5 9.176C5.5 9.17596 5.5 9.17593 5.5 9.17589C5.5 9.17585 5.5 9.17582 5.5 9.17579C5.5 9.17575 5.5 9.17572 5.5 9.17569C5.5 9.17565 5.5 9.17562 5.5 9.17559C5.5 9.17556 5.5 9.17553 5.5 9.1755C5.5 9.17547 5.5 9.17544 5.5 9.17541C5.5 9.17538 5.5 9.17535 5.5 9.17532C5.5 9.17529 5.5 9.17527 5.5 9.17524C5.5 9.17521 5.5 9.17519 5.5 9.17516C5.5 9.17514 5.5 9.17511 5.5 9.17509C5.5 9.17507 5.5 9.17504 5.5 9.17502C5.5 9.175 5.5 9.17497 5.5 9.17495C5.5 9.17493 5.5 9.17491 5.5 9.17489C5.5 9.17487 5.5 9.17485 5.5 9.17483C5.5 9.17481 5.5 9.1748 5.5 9.17478C5.5 9.17476 5.5 9.17474 5.5 9.17473C5.5 9.17471 5.5 9.1747 5.5 9.17468C5.5 9.17467 5.5 9.17465 5.5 9.17464C5.5 9.17463 5.5 9.17461 5.5 9.1746C5.5 9.17459 5.5 9.17458 5.5 9.17457C5.5 9.17456 5.5 9.17455 5.5 9.17454C5.5 9.17453 5.5 9.17452 5.5 9.17451C5.5 9.17451 5.5 9.1745 5.5 9.17449C5.5 9.17449 5.5 9.17448 5.5 9.17448C5.5 9.17447 5.5 9.17447 5.5 9.17446C5.5 9.17446 5.5 9.17446 5.5 9.17445C5.5 9.17445 5.5 9.17445 5.5 9.17445C4 9.17445 2.5 9.17445 2.5 9.17445C2.5 9.17445 2.5 9.17445 2.5 9.17446C2.5 9.17446 2.5 9.17446 2.5 9.17447C2.5 9.17447 2.5 9.17447 2.5 9.17448C2.5 9.17449 2.5 9.17449 2.5 9.1745C2.5 9.1745 2.5 9.17451 2.5 9.17452C2.5 9.17453 2.5 9.17454 2.5 9.17455C2.5 9.17456 2.5 9.17457 2.5 9.17458C2.5 9.17459 2.5 9.1746 2.5 9.17462C2.5 9.17463 2.5 9.17464 2.5 9.17466C2.5 9.17467 2.5 9.17469 2.5 9.1747C2.5 9.17472 2.5 9.17474 2.5 9.17476C2.5 9.17477 2.5 9.17479 2.5 9.17481C2.5 9.17483 2.5 9.17485 2.5 9.17487C2.5 9.17489 2.5 9.17491 2.5 9.17494C2.5 9.17496 2.5 9.17498 2.5 9.17501C2.5 9.17503 2.5 9.17505 2.5 9.17508C2.5 9.17511 2.5 9.17513 2.5 9.17516C2.5 9.17519 2.5 9.17522 2.5 9.17524C2.5 9.17527 2.5 9.1753 2.5 9.17533C2.5 9.17536 2.5 9.1754 2.5 9.17543C2.5 9.17546 2.5 9.17549 2.5 9.17553C2.5 9.17556 2.5 9.1756 2.5 9.17563C2.5 9.17567 2.5 9.1757 2.5 9.17574C2.5 9.17578 2.5 9.17582 2.5 9.17586C2.5 9.1759 2.5 9.17594 2.5 9.17598C2.5 9.17602 2.5 9.17606 2.5 9.1761C2.5 9.17614 2.5 9.17619 2.5 9.17623C2.5 9.17628 2.5 9.17632 2.5 9.17637C2.5 9.17641 2.5 9.17646 2.5 9.17651C2.5 9.17656 2.5 9.1766 2.5 9.17665C2.5 9.1767 2.5 9.17675 2.5 9.1768C2.5 9.17686 2.5 9.17691 2.5 9.17696C2.5 9.17701 2.5 9.17707 2.5 9.17712C2.5 9.17718 2.5 9.17723 2.5 9.17729C2.5 9.17735 2.5 9.1774 2.5 9.17746C2.5 9.17752 2.5 9.17758 2.5 9.17764C2.5 9.1777 2.5 9.17776 2.5 9.17782C2.5 9.17789 2.5 9.17795 2.5 9.17801C2.5 9.17808 2.5 9.17814 2.5 9.17821C2.5 9.17828 2.5 9.17834 2.5 9.17841C2.5 9.17848 2.5 9.17855 2.5 9.17862C2.5 9.17869 2.5 9.17876 2.5 9.17883C2.5 9.1789 2.5 9.17897 2.5 9.17904C2.5 9.17912 2.5 9.17919 2.5 9.17927C2.5 9.17934 2.5 9.17942 2.5 9.1795C2.5 9.17957 2.5 9.17965 2.5 9.17973C2.5 9.17981 2.5 9.17989 2.5 9.17997C2.5 9.18005 2.5 9.18013 2.5 9.18022C2.5 9.1803 2.5 9.18038 2.5 9.18047C2.5 9.18055 2.5 9.18064 2.5 9.18073C2.5 9.18081 2.5 9.1809 2.5 9.18099C2.5 9.18108 2.5 9.18117 2.5 9.18126C2.5 9.18135 2.5 9.18144 2.5 9.18153C2.5 9.18163 2.5 9.18172 2.5 9.18182C2.5 9.18191 2.5 9.18201 2.5 9.1821C2.5 9.1822 2.5 9.1823 2.5 9.1824C2.5 9.1825 2.5 9.1826 2.5 9.1827C2.5 9.1828 2.5 9.1829 2.5 9.183C2.5 9.18311 2.5 9.18321 2.5 9.18331C2.5 9.18342 2.5 9.18353 2.5 9.18363C2.5 9.18374 2.5 9.18385 2.5 9.18396C2.5 9.18407 2.5 9.18418 2.5 9.18429C2.5 9.1844 2.5 9.18451 2.5 9.18462C2.5 9.18474 2.5 9.18485 2.5 9.18497C2.5 9.18508 2.5 9.1852 2.5 9.18532C2.5 9.18543 2.5 9.18555 2.5 9.18567C2.5 9.18579 2.5 9.18591 2.5 9.18603C2.5 9.18616 2.5 9.18628 2.5 9.1864C2.5 9.18653 2.5 9.18665 2.5 9.18678C2.5 9.1869 2.5 9.18703 2.5 9.18716C2.5 9.18729 2.5 9.18742 2.5 9.18755C2.5 9.18768 2.5 9.18781 2.5 9.18794C2.5 9.18807 2.5 9.18821 2.5 9.18834C2.5 9.18848 2.5 9.18861 2.5 9.18875C2.5 9.18889 2.5 9.18902 2.5 9.18916C2.5 9.1893 2.5 9.18944 2.5 9.18958C2.5 9.18973 2.5 9.18987 2.5 9.19001C2.5 9.19016 2.5 9.1903 2.5 9.19045C2.5 9.19059 2.5 9.19074 2.5 9.19089C2.5 9.19104 2.5 9.19118 2.5 9.19133C2.5 9.19149 2.5 9.19164 2.5 9.19179C2.5 9.19194 2.5 9.1921 2.5 9.19225C2.5 9.19241 2.5 9.19256 2.5 9.19272C2.5 9.19288 2.5 9.19304 2.5 9.19319C2.5 9.19335 2.5 9.19351 2.5 9.19368C2.5 9.19384 2.5 9.194 2.5 9.19417C2.5 9.19433 2.5 9.19449 2.5 9.19466C2.5 9.19483 2.5 9.19499 2.5 9.19516C2.5 9.19533 2.5 9.1955 2.5 9.19567C2.5 9.19584 2.5 9.19602 2.5 9.19619C2.5 9.19636 2.5 9.19654 2.5 9.19672C2.5 9.19689 2.5 9.19707 2.5 9.19725C2.5 9.19742 2.5 9.1976 2.5 9.19778C2.5 9.19797 2.5 9.19815 2.5 9.19833C2.5 9.19851 2.5 9.1987 2.5 9.19888C2.5 9.19907 2.5 9.19925 2.5 9.19944C2.5 9.19963 2.5 9.19982 2.5 9.20001C2.5 9.2002 2.5 9.20039 2.5 9.20058C2.5 9.20078 2.5 9.20097 2.5 9.20117C2.5 9.20136 2.5 9.20156 2.5 9.20176C2.5 9.20195 2.5 9.20215 2.5 9.20235C2.5 9.20255 2.5 9.20275 2.5 9.20296C2.5 9.20316 2.5 9.20336 2.5 9.20357C2.5 9.20377 2.5 9.20398 2.5 9.20419C2.5 9.20439 2.5 9.2046 2.5 9.20481C2.5 9.20502 2.5 9.20523 2.5 9.20545C2.5 9.20566 2.5 9.20587 2.5 9.20609C2.5 9.2063 2.5 9.20652 2.5 9.20674C2.5 9.20696 2.5 9.20718 2.5 9.2074C2.5 9.20762 2.5 9.20784 2.5 9.20806H5.5C5.5 9.20784 5.5 9.20762 5.5 9.2074C5.5 9.20718 5.5 9.20696 5.5 9.20674C5.5 9.20652 5.5 9.2063 5.5 9.20609C5.5 9.20587 5.5 9.20566 5.5 9.20545C5.5 9.20523 5.5 9.20502 5.5 9.20481C5.5 9.2046 5.5 9.20439 5.5 9.20419C5.5 9.20398 5.5 9.20377 5.5 9.20357C5.5 9.20336 5.5 9.20316 5.5 9.20296C5.5 9.20275 5.5 9.20255 5.5 9.20235C5.5 9.20215 5.5 9.20195 5.5 9.20176C5.5 9.20156 5.5 9.20136 5.5 9.20117C5.5 9.20097 5.5 9.20078 5.5 9.20058C5.5 9.20039 5.5 9.2002 5.5 9.20001C5.5 9.19982 5.5 9.19963 5.5 9.19944C5.5 9.19925 5.5 9.19907 5.5 9.19888C5.5 9.1987 5.5 9.19851 5.5 9.19833C5.5 9.19815 5.5 9.19797 5.5 9.19778C5.5 9.1976 5.5 9.19742 5.5 9.19725C5.5 9.19707 5.5 9.19689 5.5 9.19672C5.5 9.19654 5.5 9.19636 5.5 9.19619C5.5 9.19602 5.5 9.19584 5.5 9.19567C5.5 9.1955 5.5 9.19533 5.5 9.19516C5.5 9.19499 5.5 9.19483 5.5 9.19466C5.5 9.19449 5.5 9.19433 5.5 9.19417C5.5 9.194 5.5 9.19384 5.5 9.19368C5.5 9.19351 5.5 9.19335 5.5 9.19319C5.5 9.19304 5.5 9.19288 5.5 9.19272C5.5 9.19256 5.5 9.19241 5.5 9.19225C5.5 9.1921 5.5 9.19194 5.5 9.19179C5.5 9.19164 5.5 9.19149 5.5 9.19133C5.5 9.19118 5.5 9.19104 5.5 9.19089C5.5 9.19074 5.5 9.19059 5.5 9.19045C5.5 9.1903 5.5 9.19016 5.5 9.19001C5.5 9.18987 5.5 9.18973 5.5 9.18958C5.5 9.18944 5.5 9.1893 5.5 9.18916C5.5 9.18902 5.5 9.18889 5.5 9.18875C5.5 9.18861 5.5 9.18848 5.5 9.18834C5.5 9.18821 5.5 9.18807 5.5 9.18794C5.5 9.18781 5.5 9.18768 5.5 9.18755C5.5 9.18742 5.5 9.18729 5.5 9.18716C5.5 9.18703 5.5 9.1869 5.5 9.18678C5.5 9.18665 5.5 9.18653 5.5 9.1864C5.5 9.18628 5.5 9.18616 5.5 9.18603C5.5 9.18591 5.5 9.18579 5.5 9.18567C5.5 9.18555 5.5 9.18543 5.5 9.18532C5.5 9.1852 5.5 9.18508 5.5 9.18497C5.5 9.18485 5.5 9.18474 5.5 9.18462C5.5 9.18451 5.5 9.1844 5.5 9.18429C5.5 9.18418 5.5 9.18407 5.5 9.18396C5.5 9.18385 5.5 9.18374 5.5 9.18363C5.5 9.18353 5.5 9.18342 5.5 9.18331C5.5 9.18321 5.5 9.18311 5.5 9.183C5.5 9.1829 5.5 9.1828 5.5 9.1827C5.5 9.1826 5.5 9.1825 5.5 9.1824C5.5 9.1823 5.5 9.1822 5.5 9.1821C5.5 9.18201 5.5 9.18191 5.5 9.18182C5.5 9.18172 5.5 9.18163 5.5 9.18153C5.5 9.18144 5.5 9.18135 5.5 9.18126C5.5 9.18117 5.5 9.18108 5.5 9.18099C5.5 9.1809 5.5 9.18081 5.5 9.18073C5.5 9.18064 5.5 9.18055 5.5 9.18047C5.5 9.18038 5.5 9.1803 5.5 9.18022C5.5 9.18013 5.5 9.18005 5.5 9.17997C5.5 9.17989 5.5 9.17981 5.5 9.17973C5.5 9.17965 5.5 9.17957 5.5 9.1795C5.5 9.17942 5.5 9.17934 5.5 9.17927C5.5 9.17919 5.5 9.17912 5.5 9.17904C5.5 9.17897 5.5 9.1789 5.5 9.17883C5.5 9.17876 5.5 9.17869 5.5 9.17862C5.5 9.17855 5.5 9.17848 5.5 9.17841C5.5 9.17834 5.5 9.17828 5.5 9.17821C5.5 9.17814 5.5 9.17808 5.5 9.17801C5.5 9.17795 5.5 9.17789 5.5 9.17782C5.5 9.17776 5.5 9.1777 5.5 9.17764C5.5 9.17758 5.5 9.17752 5.5 9.17746C5.5 9.1774 5.5 9.17735 5.5 9.17729C5.5 9.17723 5.5 9.17718 5.5 9.17712C5.5 9.17707 5.5 9.17701 5.5 9.17696C5.5 9.17691 5.5 9.17686 5.5 9.1768C5.5 9.17675 5.5 9.1767 5.5 9.17665C5.5 9.1766 5.5 9.17656 5.5 9.17651C5.5 9.17646 5.5 9.17641 5.5 9.17637C5.5 9.17632 5.5 9.17628 5.5 9.17623C5.5 9.17619 5.5 9.17614 5.5 9.1761C5.5 9.17606 5.5 9.17602 5.5 9.17598C5.5 9.17594 5.5 9.1759 5.5 9.17586C5.5 9.17582 5.5 9.17578 5.5 9.17574C5.5 9.1757 5.5 9.17567 5.5 9.17563C5.5 9.1756 5.5 9.17556 5.5 9.17553C5.5 9.17549 5.5 9.17546 5.5 9.17543C5.5 9.1754 5.5 9.17536 5.5 9.17533C5.5 9.1753 5.5 9.17527 5.5 9.17524C5.5 9.17522 5.5 9.17519 5.5 9.17516C5.5 9.17513 5.5 9.17511 5.5 9.17508C5.5 9.17505 5.5 9.17503 5.5 9.17501C5.5 9.17498 5.5 9.17496 5.5 9.17494C5.5 9.17491 5.5 9.17489 5.5 9.17487C5.5 9.17485 5.5 9.17483 5.5 9.17481C5.5 9.17479 5.5 9.17477 5.5 9.17476C5.5 9.17474 5.5 9.17472 5.5 9.1747C5.5 9.17469 5.5 9.17467 5.5 9.17466C5.5 9.17464 5.5 9.17463 5.5 9.17462C5.5 9.1746 5.5 9.17459 5.5 9.17458C5.5 9.17457 5.5 9.17456 5.5 9.17455C5.5 9.17454 5.5 9.17453 5.5 9.17452C5.5 9.17451 5.5 9.1745 5.5 9.1745C5.5 9.17449 5.5 9.17449 5.5 9.17448C5.5 9.17447 5.5 9.17447 5.5 9.17447C5.5 9.17446 5.5 9.17446 5.5 9.17446C5.5 9.17445 5.5 9.17445 5.5 9.17445C5.5 9.17445 4 9.17445 2.5 9.17445C2.5 9.17445 2.5 9.17445 2.5 9.17445C2.5 9.17446 2.5 9.17446 2.5 9.17446C2.5 9.17447 2.5 9.17447 2.5 9.17448C2.5 9.17448 2.5 9.17449 2.5 9.17449C2.5 9.1745 2.5 9.17451 2.5 9.17451C2.5 9.17452 2.5 9.17453 2.5 9.17454C2.5 9.17455 2.5 9.17456 2.5 9.17457C2.5 9.17458 2.5 9.17459 2.5 9.1746C2.5 9.17461 2.5 9.17463 2.5 9.17464C2.5 9.17465 2.5 9.17467 2.5 9.17468C2.5 9.1747 2.5 9.17471 2.5 9.17473C2.5 9.17474 2.5 9.17476 2.5 9.17478C2.5 9.1748 2.5 9.17481 2.5 9.17483C2.5 9.17485 2.5 9.17487 2.5 9.17489C2.5 9.17491 2.5 9.17493 2.5 9.17495C2.5 9.17497 2.5 9.175 2.5 9.17502C2.5 9.17504 2.5 9.17507 2.5 9.17509C2.5 9.17511 2.5 9.17514 2.5 9.17516C2.5 9.17519 2.5 9.17521 2.5 9.17524C2.5 9.17527 2.5 9.17529 2.5 9.17532C2.5 9.17535 2.5 9.17538 2.5 9.17541C2.5 9.17544 2.5 9.17547 2.5 9.1755C2.5 9.17553 2.5 9.17556 2.5 9.17559C2.5 9.17562 2.5 9.17565 2.5 9.17569C2.5 9.17572 2.5 9.17575 2.5 9.17579C2.5 9.17582 2.5 9.17585 2.5 9.17589C2.5 9.17593 2.5 9.17596 2.5 9.176C2.5 9.17603 2.5 9.17607 2.5 9.17611C2.5 9.17615 2.5 9.17618 2.5 9.17622C2.5 9.17626 2.5 9.1763 2.5 9.17634C2.5 9.17638 2.5 9.17642 2.5 9.17646C2.5 9.1765 2.5 9.17655 2.5 9.17659C2.5 9.17663 2.5 9.17667 2.5 9.17672C2.5 9.17676 2.5 9.1768 2.5 9.17685C2.5 9.17689 2.5 9.17694 2.5 9.17698C2.5 9.17703 2.5 9.17708 2.5 9.17712C2.5 9.17717 2.5 9.17722 2.5 9.17726C2.5 9.17731 2.5 9.17736 2.5 9.17741C2.5 9.17746 2.5 9.17751 2.5 9.17756C2.5 9.17761 2.5 9.17766 2.5 9.17771C2.5 9.17776 2.5 9.17781 2.5 9.17786C2.5 9.17792 2.5 9.17797 2.5 9.17802C2.5 9.17808 2.5 9.17813 2.5 9.17818C2.5 9.17824 2.5 9.17829 2.5 9.17835C2.5 9.1784 2.5 9.17846 2.5 9.17852C2.5 9.17857 2.5 9.17863 2.5 9.17869C2.5 9.17874 2.5 9.1788 2.5 9.17886C2.5 9.17892 2.5 9.17898 2.5 9.17904C2.5 9.17909 2.5 9.17915 2.5 9.17921C2.5 9.17928 2.5 9.17934 2.5 9.1794C2.5 9.17946 2.5 9.17952 2.5 9.17958C2.5 9.17964 2.5 9.17971 2.5 9.17977C2.5 9.17983 2.5 9.1799 2.5 9.17996C2.5 9.18003 2.5 9.18009 2.5 9.18015C2.5 9.18022 2.5 9.18029 2.5 9.18035C2.5 9.18042 2.5 9.18048 2.5 9.18055C2.5 9.18062 2.5 9.18069 2.5 9.18075C2.5 9.18082 2.5 9.18089 2.5 9.18096C2.5 9.18103 2.5 9.1811 2.5 9.18116C2.5 9.18123 2.5 9.1813 2.5 9.18137C2.5 9.18145 2.5 9.18152 2.5 9.18159C2.5 9.18166 2.5 9.18173 2.5 9.1818C2.5 9.18187 2.5 9.18195 2.5 9.18202C2.5 9.18209 2.5 9.18217 2.5 9.18224C2.5 9.18231 2.5 9.18239 2.5 9.18246C2.5 9.18254 2.5 9.18261 2.5 9.18269C2.5 9.18276 2.5 9.18284 2.5 9.18292C2.5 9.18299 2.5 9.18307 2.5 9.18315C2.5 9.18322 2.5 9.1833 2.5 9.18338C2.5 9.18346 2.5 9.18353 2.5 9.18361C2.5 9.18369 2.5 9.18377 2.5 9.18385C2.5 9.18393 2.5 9.18401 2.5 9.18409C2.5 9.18417 2.5 9.18425 2.5 9.18433C2.5 9.18441 2.5 9.18449 2.5 9.18457C2.5 9.18466 2.5 9.18474 2.5 9.18482C2.5 9.1849 2.5 9.18498 2.5 9.18507C2.5 9.18515 2.5 9.18523 2.5 9.18532C2.5 9.1854 2.5 9.18549 2.5 9.18557C2.5 9.18565 2.5 9.18574 2.5 9.18582C2.5 9.18591 2.5 9.186 2.5 9.18608C2.5 9.18617 2.5 9.18625 2.5 9.18634C2.5 9.18643 2.5 9.18651 2.5 9.1866C2.5 9.18669 2.5 9.18677 2.5 9.18686C2.5 9.18695 2.5 9.18704 2.5 9.18713C2.5 9.18721 2.5 9.1873 2.5 9.18739C2.5 9.18748 2.5 9.18757 2.5 9.18766C2.5 9.18775 2.5 9.18784 2.5 9.18793C2.5 9.18802 2.5 9.18811 2.5 9.1882C2.5 9.18829 2.5 9.18838 2.5 9.18847C2.5 9.18857 2.5 9.18866 2.5 9.18875C2.5 9.18884 2.5 9.18893 2.5 9.18903C2.5 9.18912 2.5 9.18921 2.5 9.1893C2.5 9.1894 2.5 9.18949 2.5 9.18958C2.5 9.18968 2.5 9.18977 2.5 9.18987C2.5 9.18996 2.5 9.19005 2.5 9.19015C2.5 9.19024 2.5 9.19034 2.5 9.19043C2.5 9.19053 2.5 9.19063 2.5 9.19072C2.5 9.19082 2.5 9.19091 2.5 9.19101C2.5 9.1911 2.5 9.1912 2.5 9.1913C2.5 9.19139 2.5 9.19149 2.5 9.19159C2.5 9.19169 2.5 9.19178 2.5 9.19188C2.5 9.19198 2.5 9.19208 2.5 9.19217C2.5 9.19227 2.5 9.19237 2.5 9.19247C2.5 9.19257 2.5 9.19267 2.5 9.19277C2.5 9.19286 2.5 9.19296 2.5 9.19306C2.5 9.19316 2.5 9.19326 2.5 9.19336C2.5 9.19346 2.5 9.19356 2.5 9.19366C2.5 9.19376 2.5 9.19386 2.5 9.19396C2.5 9.19406 2.5 9.19417 2.5 9.19427C2.5 9.19437 2.5 9.19447 2.5 9.19457C2.5 9.19467 2.5 9.19477 2.5 9.19487C2.5 9.19498 2.5 9.19508 2.5 9.19518C2.5 9.19528 2.5 9.19538 2.5 9.19549C2.5 9.19559 2.5 9.19569 2.5 9.19579C2.5 9.1959 2.5 9.196 2.5 9.1961C2.5 9.19621 2.5 9.19631 2.5 9.19641C2.5 9.19652 2.5 9.19662 2.5 9.19672C2.5 9.19683 2.5 9.19693 2.5 9.19704C2.5 9.19714 2.5 9.19724 2.5 9.19735C2.5 9.19745 2.5 9.19756 2.5 9.19766C2.5 9.19777 2.5 9.19787 2.5 9.19798C2.5 9.19808 2.5 9.19819 2.5 9.19829C2.5 9.1984 2.5 9.1985 2.5 9.19861C2.5 9.19871 2.5 9.19882 2.5 9.19892C2.5 9.19903 2.5 9.19913 2.5 9.19924C2.5 9.19935 2.5 9.19945 2.5 9.19956C2.5 9.19966 2.5 9.19977 2.5 9.19988C2.5 9.19998 2.5 9.20009 2.5 9.2002C2.5 9.2003 2.5 9.20041 2.5 9.20051C2.5 9.20062 2.5 9.20073 2.5 9.20084C2.5 9.20094 2.5 9.20105 2.5 9.20116C2.5 9.20126 2.5 9.20137 2.5 9.20148C2.5 9.20158 2.5 9.20169 2.5 9.2018C2.5 9.20191 2.5 9.20201 2.5 9.20212C2.5 9.20223 2.5 9.20234 2.5 9.20244C2.5 9.20255 2.5 9.20266 2.5 9.20277C2.5 9.20287 2.5 9.20298 2.5 9.20309C2.5 9.2032 2.5 9.20331 2.5 9.20341C2.5 9.20352 2.5 9.20363 2.5 9.20374C2.5 9.20384 2.5 9.20395 2.5 9.20406C2.5 9.20417 2.5 9.20428 2.5 9.20438C2.5 9.20449 2.5 9.2046 2.5 9.20471C2.5 9.20482 2.5 9.20493 2.5 9.20503C2.5 9.20514 2.5 9.20525 2.5 9.20536C2.5 9.20547 2.5 9.20557 2.5 9.20568C2.5 9.20579 2.5 9.2059 2.5 9.20601C2.5 9.20612 2.5 9.20623 2.5 9.20633C2.5 9.20644 2.5 9.20655 2.5 9.20666C2.5 9.20677 2.5 9.20687 2.5 9.20698C2.5 9.20709 2.5 9.2072 2.5 9.20731C2.5 9.20742 2.5 9.20752 2.5 9.20763C2.5 9.20774 2.5 9.20785 2.5 9.20796C2.5 9.20807 2.5 9.20817 2.5 9.20828C2.5 9.20839 2.5 9.2085 2.5 9.20861C2.5 9.20871 2.5 9.20882 2.5 9.20893C2.5 9.20904 2.5 9.20915 2.5 9.20926C2.5 9.20936 2.5 9.20947 2.5 9.20958C2.5 9.20969 2.5 9.20979 2.5 9.2099C2.5 9.21001 2.5 9.21012 2.5 9.21023C2.5 9.21033 2.5 9.21044 2.5 9.21055C2.5 9.21066 2.5 9.21076 2.5 9.21087C2.5 9.21098 2.5 9.21109 2.5 9.21119C2.5 9.2113 2.5 9.21141 2.5 9.21151C2.5 9.21162 2.5 9.21173 2.5 9.21183C2.5 9.21194 2.5 9.21205 2.5 9.21216C2.5 9.21226 2.5 9.21237 2.5 9.21248C2.5 9.21258 2.5 9.21269 2.5 9.2128C2.5 9.2129 2.5 9.21301 2.5 9.21311C2.5 9.21322 2.5 9.21333 2.5 9.21343C2.5 9.21354 2.5 9.21364 2.5 9.21375C2.5 9.21386 2.5 9.21396 2.5 9.21407C2.5 9.21417 2.5 9.21428 2.5 9.21438C2.5 9.21449 2.5 9.21459 2.5 9.2147C2.5 9.2148 2.5 9.21491 2.5 9.21501C2.5 9.21512 2.5 9.21522 2.5 9.21533C2.5 9.21543 2.5 9.21554 2.5 9.21564C2.5 9.21575 2.5 9.21585 2.5 9.21595C2.5 9.21606 2.5 9.21616 2.5 9.21627C2.5 9.21637 2.5 9.21647 2.5 9.21658C2.5 9.21668 2.5 9.21678 2.5 9.21689C2.5 9.21699 2.5 9.21709 2.5 9.21719C2.5 9.2173 2.5 9.2174 2.5 9.2175C2.5 9.2176 2.5 9.21771 2.5 9.21781C2.5 9.21791 2.5 9.21801 2.5 9.21811C2.5 9.21822 2.5 9.21832 2.5 9.21842C2.5 9.21852 2.5 9.21862 2.5 9.21872C2.5 9.21882 2.5 9.21892 2.5 9.21903C2.5 9.21913 2.5 9.21923 2.5 9.21933C2.5 9.21943 2.5 9.21953 2.5 9.21963C2.5 9.21973 2.5 9.21983 2.5 9.21992C2.5 9.22002 2.5 9.22012 2.5 9.22022C2.5 9.22032 2.5 9.22042 2.5 9.22052C2.5 9.22062 2.5 9.22071 2.5 9.22081C2.5 9.22091 2.5 9.22101 2.5 9.22111C2.5 9.2212 2.5 9.2213 2.5 9.2214C2.5 9.2215 2.5 9.22159 2.5 9.22169C2.5 9.22179 2.5 9.22188 2.5 9.22198C2.5 9.22207 2.5 9.22217 2.5 9.22227C2.5 9.22236 2.5 9.22246 2.5 9.22255C2.5 9.22265 2.5 9.22274 2.5 9.22284C2.5 9.22293 2.5 9.22303 2.5 9.22312C2.5 9.22321 2.5 9.22331 2.5 9.2234C2.5 9.2235 2.5 9.22359 2.5 9.22368C2.5 9.22377 2.5 9.22387 2.5 9.22396C2.5 9.22405 2.5 9.22414 2.5 9.22424C2.5 9.22433 2.5 9.22442 2.5 9.22451C2.5 9.2246 2.5 9.22469 2.5 9.22478C2.5 9.22487 2.5 9.22497 2.5 9.22506C2.5 9.22515 2.5 9.22523 2.5 9.22532C2.5 9.22541 2.5 9.2255 2.5 9.22559C2.5 9.22568 2.5 9.22577 2.5 9.22586C2.5 9.22595 2.5 9.22604 2.5 9.22612C2.5 9.22621 2.5 9.2263 2.5 9.22638C2.5 9.22647 2.5 9.22656 2.5 9.22664C2.5 9.22673 2.5 9.22682 2.5 9.2269C2.5 9.22699 2.5 9.22707 2.5 9.22716C2.5 9.22724 2.5 9.22733 2.5 9.22741C2.5 9.2275 2.5 9.22758 2.5 9.22766C2.5 9.22775 2.5 9.22783 2.5 9.22791C2.5 9.228 2.5 9.22808 2.5 9.22816C2.5 9.22824 2.5 9.22833 2.5 9.22841C2.5 9.22849 2.5 9.22857 2.5 9.22865C2.5 9.22873 2.5 9.22881 2.5 9.22889C2.5 9.22897 2.5 9.22905 2.5 9.22913C2.5 9.22921 2.5 9.22929 2.5 9.22937C2.5 9.22945 2.5 9.22952 2.5 9.2296C2.5 9.22968 2.5 9.22976 2.5 9.22983C2.5 9.22991 2.5 9.22999 2.5 9.23006C2.5 9.23014 2.5 9.23022 2.5 9.23029C2.5 9.23037 2.5 9.23044 2.5 9.23052C2.5 9.23059 2.5 9.23066 2.5 9.23074C2.5 9.23081 2.5 9.23089 2.5 9.23096C2.5 9.23103 2.5 9.2311 2.5 9.23118C2.5 9.23125 2.5 9.23132 2.5 9.23139C2.5 9.23146 2.5 9.23153 2.5 9.2316C2.5 9.23167 2.5 9.23174 2.5 9.23181C2.5 9.23188 2.5 9.23195 2.5 9.23202C2.5 9.23209 2.5 9.23216 2.5 9.23222C2.5 9.23229 2.5 9.23236 2.5 9.23243C2.5 9.23249 2.5 9.23256 2.5 9.23262C2.5 9.23269 2.5 9.23276 2.5 9.23282C2.5 9.23289 2.5 9.23295 2.5 9.23301C2.5 9.23308 2.5 9.23314 2.5 9.2332C2.5 9.23327 2.5 9.23333 2.5 9.23339C2.5 9.23345 2.5 9.23352 2.5 9.23358C2.5 9.23364 2.5 9.2337 2.5 9.23376C2.5 9.23382 2.5 9.23388 2.5 9.23394C2.5 9.234 2.5 9.23406 2.5 9.23411C2.5 9.23417 2.5 9.23423 2.5 9.23429C2.5 9.23434 2.5 9.2344 2.5 9.23446C2.5 9.23451 2.5 9.23457 2.5 9.23462C2.5 9.23468 2.5 9.23473 2.5 9.23479C2.5 9.23484 2.5 9.2349 2.5 9.23495C2.5 9.235 2.5 9.23505 2.5 9.23511C2.5 9.23516 2.5 9.23521 2.5 9.23526C2.5 9.23531 2.5 9.23536 2.5 9.23541C2.5 9.23546 2.5 9.23551 2.5 9.23556C2.5 9.23561 2.5 9.23566 2.5 9.23571C2.5 9.23575 2.5 9.2358 2.5 9.23585C2.5 9.23589 2.5 9.23594 2.5 9.23598C2.5 9.23603 2.5 9.23608 2.5 9.23612C2.5 9.23616 2.5 9.23621 2.5 9.23625C2.5 9.23629 2.5 9.23634 2.5 9.23638C2.5 9.23642 2.5 9.23646 2.5 9.2365C2.5 9.23654 2.5 9.23659 2.5 9.23663C2.5 9.23666 2.5 9.2367 2.5 9.23674C2.5 9.23678 2.5 9.23682 2.5 9.23686C2.5 9.23689 2.5 9.23693 2.5 9.23697C2.5 9.237 2.5 9.23704 2.5 9.23707C2.5 9.23711 2.5 9.23714 2.5 9.23718C2.5 9.23721 2.5 9.23725 2.5 9.23728C2.5 9.23731 2.5 9.23734 2.5 9.23737C2.5 9.2374 2.5 9.23744 2.5 9.23747C2.5 9.2375 2.5 9.23753 2.5 9.23755C2.5 9.23758 2.5 9.23761 2.5 9.23764C2.5 9.23767 2.5 9.23769 2.5 9.23772C2.5 9.23775 2.5 9.23777 2.5 9.2378C2.5 9.23782 2.5 9.23785 2.5 9.23787C2.5 9.2379 2.5 9.23792 2.5 9.23794C2.5 9.23796 2.5 9.23799 2.5 9.23801C2.5 9.23803 2.5 9.23805 2.5 9.23807C2.5 9.23809 2.5 9.23811 2.5 9.23813C2.5 9.23814 2.5 9.23816 2.5 9.23818C2.5 9.2382 2.5 9.23821 2.5 9.23823C2.5 9.23825 2.5 9.23826 2.5 9.23827C2.5 9.23829 2.5 9.2383 2.5 9.23832C2.5 9.23833 2.5 9.23834 2.5 9.23835C2.5 9.23837 2.5 9.23838 2.5 9.23839C2.5 9.2384 2.5 9.23841 2.5 9.23842C2.5 9.23843 2.5 9.23843 2.5 9.23844C2.5 9.23845 2.5 9.23845 2.5 9.23846C2.5 9.23847 2.5 9.23847 2.5 9.23848C2.5 9.23848 2.5 9.23849 2.5 9.23849C2.5 9.23849 2.5 9.2385 2.5 9.2385C2.5 9.2385 2.5 9.2385 2.5 9.2385C4 9.2385 5.5 9.2385 5.5 9.2385C5.5 9.2385 5.5 9.2385 5.5 9.23849C5.5 9.23849 5.5 9.23849 5.5 9.23848C5.5 9.23848 5.5 9.23848 5.5 9.23847C5.5 9.23846 5.5 9.23846 5.5 9.23845C5.5 9.23844 5.5 9.23844 5.5 9.23843C5.5 9.23842 5.5 9.23841 5.5 9.2384C5.5 9.23839 5.5 9.23838 5.5 9.23837C5.5 9.23836 5.5 9.23834 5.5 9.23833C5.5 9.23832 5.5 9.2383 5.5 9.23829C5.5 9.23827 5.5 9.23826 5.5 9.23824C5.5 9.23822 5.5 9.23821 5.5 9.23819C5.5 9.23817 5.5 9.23815 5.5 9.23813C5.5 9.23811 5.5 9.23809 5.5 9.23807C5.5 9.23805 5.5 9.23803 5.5 9.23801C5.5 9.23798 5.5 9.23796 5.5 9.23794C5.5 9.23791 5.5 9.23789 5.5 9.23786C5.5 9.23784 5.5 9.23781 5.5 9.23778C5.5 9.23775 5.5 9.23773 5.5 9.2377C5.5 9.23767 5.5 9.23764 5.5 9.23761C5.5 9.23758 5.5 9.23754 5.5 9.23751C5.5 9.23748 5.5 9.23744 5.5 9.23741C5.5 9.23738 5.5 9.23734 5.5 9.23731C5.5 9.23727 5.5 9.23723 5.5 9.2372C5.5 9.23716 5.5 9.23712 5.5 9.23708C5.5 9.23704 5.5 9.237 5.5 9.23696C5.5 9.23692 5.5 9.23688 5.5 9.23683C5.5 9.23679 5.5 9.23675 5.5 9.2367C5.5 9.23666 5.5 9.23661 5.5 9.23657C5.5 9.23652 5.5 9.23647 5.5 9.23643C5.5 9.23638 5.5 9.23633 5.5 9.23628C5.5 9.23623 5.5 9.23618 5.5 9.23613C5.5 9.23608 5.5 9.23602 5.5 9.23597C5.5 9.23592 5.5 9.23586 5.5 9.23581C5.5 9.23575 5.5 9.2357 5.5 9.23564C5.5 9.23558 5.5 9.23553 5.5 9.23547C5.5 9.23541 5.5 9.23535 5.5 9.23529C5.5 9.23523 5.5 9.23517 5.5 9.2351C5.5 9.23504 5.5 9.23498 5.5 9.23491C5.5 9.23485 5.5 9.23478 5.5 9.23472C5.5 9.23465 5.5 9.23458 5.5 9.23452C5.5 9.23445 5.5 9.23438 5.5 9.23431C5.5 9.23424 5.5 9.23417 5.5 9.2341C5.5 9.23403 5.5 9.23395 5.5 9.23388C5.5 9.23381 5.5 9.23373 5.5 9.23366C5.5 9.23358 5.5 9.2335 5.5 9.23343C5.5 9.23335 5.5 9.23327 5.5 9.23319C5.5 9.23311 5.5 9.23303 5.5 9.23295C5.5 9.23287 5.5 9.23279 5.5 9.2327C5.5 9.23262 5.5 9.23254 5.5 9.23245C5.5 9.23237 5.5 9.23228 5.5 9.23219C5.5 9.23211 5.5 9.23202 5.5 9.23193C5.5 9.23184 5.5 9.23175 5.5 9.23166C5.5 9.23157 5.5 9.23148 5.5 9.23138C5.5 9.23129 5.5 9.2312 5.5 9.2311C5.5 9.231 5.5 9.23091 5.5 9.23081C5.5 9.23071 5.5 9.23062 5.5 9.23052C5.5 9.23042 5.5 9.23032 5.5 9.23022C5.5 9.23012 5.5 9.23001 5.5 9.22991C5.5 9.22981 5.5 9.2297 5.5 9.2296C5.5 9.22949 5.5 9.22939 5.5 9.22928C5.5 9.22917 5.5 9.22906 5.5 9.22895C5.5 9.22884 5.5 9.22873 5.5 9.22862C5.5 9.22851 5.5 9.2284 5.5 9.22829C5.5 9.22817 5.5 9.22806 5.5 9.22794C5.5 9.22783 5.5 9.22771 5.5 9.22759C5.5 9.22747 5.5 9.22736 5.5 9.22723C5.5 9.22711 5.5 9.22699 5.5 9.22687C5.5 9.22675 5.5 9.22663 5.5 9.2265C5.5 9.22638 5.5 9.22625 5.5 9.22613C5.5 9.226 5.5 9.22587 5.5 9.22575C5.5 9.22562 5.5 9.22549 5.5 9.22536C5.5 9.22523 5.5 9.22509 5.5 9.22496C5.5 9.22483 5.5 9.22469 5.5 9.22456C5.5 9.22442 5.5 9.22429 5.5 9.22415C5.5 9.22401 5.5 9.22388 5.5 9.22374C5.5 9.2236 5.5 9.22346 5.5 9.22331C5.5 9.22317 5.5 9.22303 5.5 9.22289C5.5 9.22274 5.5 9.2226 5.5 9.22245C5.5 9.2223 5.5 9.22216 5.5 9.22201C5.5 9.22186 5.5 9.22171 5.5 9.22156C5.5 9.22141 5.5 9.22126 5.5 9.2211C5.5 9.22095 5.5 9.2208 5.5 9.22064C5.5 9.22049 5.5 9.22033 5.5 9.22017C5.5 9.22002 5.5 9.21986 5.5 9.2197C5.5 9.21954 5.5 9.21938 5.5 9.21922C5.5 9.21905 5.5 9.21889 5.5 9.21873C5.5 9.21856 5.5 9.2184 5.5 9.21823C5.5 9.21806 5.5 9.21789 5.5 9.21772C5.5 9.21756 5.5 9.21739 5.5 9.21721C5.5 9.21704 5.5 9.21687 5.5 9.2167C5.5 9.21652 5.5 9.21635 5.5 9.21617C5.5 9.21599 5.5 9.21582 5.5 9.21564C5.5 9.21546 5.5 9.21528 5.5 9.2151C5.5 9.21492 5.5 9.21474 5.5 9.21455C5.5 9.21437 5.5 9.21419 5.5 9.214C5.5 9.21381 5.5 9.21363 5.5 9.21344C5.5 9.21325 5.5 9.21306 5.5 9.21287C5.5 9.21268 5.5 9.21249 5.5 9.21229C5.5 9.2121 5.5 9.21191 5.5 9.21171C5.5 9.21152 5.5 9.21132 5.5 9.21112C5.5 9.21092 5.5 9.21072 5.5 9.21052C5.5 9.21032 5.5 9.21012 5.5 9.20992C5.5 9.20972 5.5 9.20951 5.5 9.20931C5.5 9.2091 5.5 9.20889 5.5 9.20869C5.5 9.20848 5.5 9.20827 5.5 9.20806H2.5ZM2.5 9.20806C2.5 13.8446 4.34739 16.2417 5.81534 19.3099L8.52155 18.0151C6.82946 14.4785 5.5 12.9614 5.5 9.20806H2.5ZM5.81534 19.3099C6.43326 20.6014 6.67331 21.2463 6.79738 22.0324C6.93343 22.8945 6.93807 23.9628 6.93574 26.1509L9.93574 26.1541C9.93796 24.0697 9.9426 22.7173 9.7607 21.5647C9.5668 20.3362 9.17093 19.3724 8.52155 18.0151L5.81534 19.3099ZM6.93574 26.1509C6.9291 32.362 8.61631 36.3298 9.67608 38.1393L12.2648 36.6232C11.4616 35.2517 9.9297 31.8054 9.93574 26.1541L6.93574 26.1509ZM9.68287 38.1508C10.7106 39.8704 12.2288 41.5645 14.0919 42.0302L14.8195 39.1198C14.1478 38.9519 13.1693 38.1365 12.258 36.6117L9.68287 38.1508ZM14.4557 42.075C15.3993 42.075 16.7428 41.805 17.7465 40.3623C18.6461 39.0691 19.124 37.0256 19.124 33.9214H16.124C16.124 36.8371 15.6515 38.1204 15.2837 38.6491C15.02 39.0282 14.7793 39.075 14.4557 39.075V42.075ZM19.124 33.9214C19.124 31.1687 19.4314 29.6782 19.6807 28.9303C19.8039 28.5607 19.9078 28.3879 19.9414 28.3375C19.9581 28.3126 19.9574 28.3177 19.9335 28.3433C19.9216 28.356 19.9042 28.3736 19.8806 28.3948C19.8688 28.4055 19.8555 28.4169 19.8406 28.4292C19.8332 28.4353 19.8254 28.4416 19.8172 28.448C19.8131 28.4513 19.8089 28.4545 19.8046 28.4578C19.8024 28.4595 19.8003 28.4611 19.7981 28.4628C19.797 28.4636 19.7953 28.4649 19.7947 28.4653C19.7931 28.4666 19.7914 28.4678 18.8914 27.2678C17.9914 26.0678 17.9897 26.0691 17.988 26.0704C17.9874 26.0708 17.9857 26.0721 17.9846 26.073C17.9823 26.0747 17.98 26.0764 17.9777 26.0782C17.9731 26.0817 17.9685 26.0854 17.9637 26.0891C17.9543 26.0965 17.9447 26.1042 17.9348 26.1123C17.9152 26.1285 17.8948 26.146 17.8737 26.165C17.8315 26.2029 17.7869 26.2465 17.7403 26.2963C17.6472 26.3962 17.5475 26.5201 17.4453 26.6734C17.2413 26.9794 17.0283 27.4007 16.8347 27.9816C16.4503 29.1348 16.124 30.971 16.124 33.9214H19.124ZM19.952 28.3285C20.052 28.2286 20.1609 28.1784 20.2493 28.1524C20.2933 28.1395 20.3259 28.1345 20.3384 28.133C20.3442 28.1323 20.3438 28.1326 20.3358 28.133C20.3317 28.1333 20.3256 28.1335 20.3174 28.1338C20.3132 28.1339 20.3085 28.134 20.3032 28.134C20.3006 28.1341 20.2978 28.1341 20.2948 28.1341C20.2934 28.1341 20.2919 28.1341 20.2903 28.1341C20.2895 28.1342 20.2887 28.1342 20.2879 28.1342C20.2875 28.1342 20.2869 28.1342 20.2867 28.1342C20.2861 28.1342 20.2855 28.1342 20.2855 26.6342C20.2855 25.1342 20.2849 25.1342 20.2843 25.1342C20.2841 25.1342 20.2835 25.1342 20.2831 25.1342C20.2822 25.1342 20.2814 25.1342 20.2805 25.1342C20.2788 25.1342 20.277 25.1342 20.2751 25.1342C20.2714 25.1342 20.2675 25.1343 20.2634 25.1343C20.2552 25.1344 20.2462 25.1346 20.2363 25.1349C20.2166 25.1354 20.1936 25.1363 20.1675 25.1378C20.1154 25.1407 20.0506 25.1459 19.9752 25.1551C19.8253 25.1734 19.6282 25.208 19.4029 25.2743C18.9526 25.4067 18.3645 25.6734 17.8307 26.2072L19.952 28.3285ZM20.2855 26.6342C20.2855 28.1342 20.285 28.1342 20.2844 28.1342C20.2842 28.1342 20.2837 28.1342 20.2833 28.1342C20.2826 28.1342 20.2819 28.1342 20.2812 28.1341C20.2797 28.1341 20.2784 28.1341 20.277 28.1341C20.2744 28.1341 20.2719 28.1341 20.2695 28.1341C20.2649 28.134 20.2608 28.1339 20.2575 28.1338C20.2507 28.1337 20.2463 28.1335 20.2441 28.1334C20.2399 28.1331 20.244 28.1332 20.2548 28.1345C20.2774 28.137 20.321 28.1436 20.3751 28.1586C20.4885 28.1901 20.5978 28.244 20.6823 28.3285L22.8036 26.2072C22.2544 25.658 21.635 25.395 21.1781 25.2681C20.9471 25.2039 20.7452 25.1709 20.5935 25.1537C20.5172 25.145 20.4519 25.1401 20.4002 25.1374C20.3743 25.1361 20.3516 25.1353 20.3324 25.1348C20.3228 25.1345 20.3141 25.1344 20.3063 25.1343C20.3024 25.1342 20.2987 25.1342 20.2952 25.1342C20.2935 25.1342 20.2918 25.1342 20.2902 25.1342C20.2894 25.1342 20.2886 25.1342 20.2878 25.1342C20.2874 25.1342 20.2869 25.1342 20.2867 25.1342C20.2861 25.1342 20.2855 25.1342 20.2855 26.6342ZM21.7429 27.2678C20.8429 28.4678 20.8413 28.4666 20.8396 28.4653C20.839 28.4649 20.8374 28.4636 20.8363 28.4628C20.8341 28.4611 20.8319 28.4595 20.8297 28.4578C20.8254 28.4545 20.8212 28.4513 20.8171 28.448C20.8089 28.4416 20.8011 28.4353 20.7937 28.4292C20.7788 28.417 20.7655 28.4055 20.7537 28.3949C20.7301 28.3736 20.7127 28.356 20.7008 28.3433C20.6769 28.3177 20.6763 28.3126 20.6929 28.3375C20.7265 28.3879 20.8304 28.5607 20.9536 28.9303C21.2029 29.6782 21.5103 31.1687 21.5103 33.9214L24.5103 33.9214C24.5103 30.971 24.184 29.1348 23.7996 27.9816C23.606 27.4007 23.393 26.9794 23.189 26.6734C23.0868 26.5201 22.9871 26.3962 22.8939 26.2963C22.8474 26.2465 22.8028 26.2029 22.7606 26.1649C22.7395 26.146 22.7191 26.1285 22.6994 26.1123C22.6896 26.1042 22.68 26.0965 22.6706 26.089C22.6658 26.0853 22.6612 26.0817 22.6566 26.0782C22.6543 26.0764 22.652 26.0747 22.6497 26.0729C22.6486 26.0721 22.6469 26.0708 22.6463 26.0704C22.6446 26.0691 22.6429 26.0678 21.7429 27.2678ZM21.5103 33.9214C21.5103 36.9572 22.1507 39.0604 23.1512 40.4023C24.1279 41.7123 25.5937 42.4084 26.9234 42.0127L26.0676 39.1373C26.3328 39.0584 26.0559 39.2792 25.5562 38.609C25.0802 37.9707 24.5103 36.5886 24.5103 33.9214L21.5103 33.9214ZM26.9234 42.0127C28.6355 41.5031 30.1068 40.1052 31.2702 38.1476L28.6912 36.6149C27.7382 38.2186 26.7849 38.9238 26.0676 39.1373L26.9234 42.0127ZM31.2733 38.1422C32.4035 36.2225 33.3817 32.1154 33.3817 26.1525H30.3817C30.3817 31.9424 29.4083 35.3969 28.6881 36.6203L31.2733 38.1422ZM33.3817 26.1525C33.3817 24.2672 33.3571 23.187 33.4738 22.2158C33.581 21.3244 33.8122 20.5197 34.391 19.3099L31.6848 18.0151C30.9963 19.4541 30.6494 20.5757 30.4953 21.8578C30.3508 23.0602 30.3817 24.4006 30.3817 26.1525H33.3817ZM34.391 19.3099C35.5086 16.9742 37.8175 14.03 37.8175 9.20806H34.8175C34.8175 13.1294 33.102 15.0533 31.6848 18.0151L34.391 19.3099ZM37.8107 9.06585C37.8097 9.05491 37.8086 9.04382 37.8075 9.03308C37.8065 9.02365 37.8049 9.00859 37.8028 8.99164C37.8018 8.98355 37.7999 8.96835 37.7971 8.94972C37.7957 8.94032 37.7934 8.92541 37.7901 8.90726C37.7885 8.89794 37.7862 8.88572 37.7833 8.87142C37.7805 8.85767 37.7762 8.83766 37.7704 8.81367C37.7674 8.8014 37.7635 8.78631 37.7587 8.76911C37.754 8.75219 37.7477 8.73031 37.7394 8.70498C37.7314 8.68042 37.7195 8.64598 37.7031 8.60554C37.696 8.58855 37.6802 8.55214 37.6712 8.53276C37.6603 8.51001 37.6352 8.46092 37.6208 8.43465C37.6026 8.4032 37.5595 8.33497 37.5342 8.29847C37.5012 8.25394 37.4207 8.15809 37.3725 8.10769C37.3074 8.04651 37.1467 7.92257 37.0498 7.863C36.922 7.79879 36.6253 7.70247 36.4578 7.67663C36.2734 7.67017 35.9158 7.72323 35.7475 7.78039C35.6069 7.84629 35.3728 8.00096 35.2783 8.08376C35.2088 8.15453 35.0973 8.2912 35.0536 8.355C35.0215 8.40696 34.9692 8.50339 34.9483 8.54728C34.9324 8.58347 34.9059 8.65033 34.895 8.68086C34.8864 8.70659 34.8717 8.75436 34.8656 8.77636C34.8515 8.82815 34.8427 8.87163 34.8373 8.90131C34.8317 8.93217 34.8279 8.95852 34.8253 8.97835C34.8227 8.9986 34.8209 9.0162 34.8196 9.03026C34.817 9.05772 34.8156 9.08039 34.8149 9.09554C34.8141 9.11139 34.8137 9.12484 34.8134 9.13493C34.813 9.1546 34.813 9.1706 34.813 9.18046C34.8131 9.19102 34.8133 9.19995 34.8134 9.20649C34.8137 9.21929 34.8141 9.22992 34.8144 9.23666C34.8149 9.25023 34.8155 9.26204 34.816 9.2697C34.8169 9.28573 34.818 9.30165 34.8189 9.31493C34.8199 9.32822 34.8211 9.34411 34.8224 9.3601C34.8231 9.36774 34.8241 9.37946 34.8255 9.3929C34.8262 9.39958 34.8273 9.41004 34.8288 9.42261C34.8296 9.42903 34.8307 9.43776 34.8321 9.44805C34.8334 9.45767 34.8356 9.47315 34.8388 9.49208C34.8404 9.50179 34.8426 9.51465 34.8455 9.52973C34.8483 9.54419 34.8526 9.56555 34.8587 9.59124C34.8618 9.6044 34.8659 9.62072 34.871 9.63939C34.8759 9.65771 34.8828 9.68175 34.8919 9.70968C34.9007 9.73664 34.914 9.77533 34.9329 9.82089C34.9411 9.84011 34.9597 9.88159 34.9703 9.9038C34.9833 9.9299 35.0139 9.98665 35.0317 10.0171C35.0544 10.0537 35.1089 10.1334 35.1414 10.1761C35.1843 10.2279 35.2903 10.3386 35.3546 10.3957C35.4411 10.463 35.6533 10.5908 35.78 10.6464C35.9375 10.6973 36.2823 10.746 36.4653 10.7393C36.6427 10.711 36.9627 10.6011 37.1027 10.5252C37.2105 10.4525 37.3864 10.3 37.4561 10.2243C37.5068 10.162 37.5889 10.0442 37.6215 9.98986C37.6457 9.94575 37.6857 9.86388 37.702 9.82644C37.7146 9.79549 37.7358 9.738 37.7447 9.71154C37.7518 9.68918 37.7641 9.64741 37.7693 9.62802C37.7814 9.58216 37.7892 9.5435 37.7942 9.51643C37.7993 9.48843 37.8029 9.46441 37.8053 9.44605C37.8079 9.42736 37.8097 9.41105 37.811 9.39789C37.8137 9.37216 37.8151 9.35084 37.816 9.33637C37.8169 9.32128 37.8175 9.30843 37.8178 9.29871C37.8185 9.27975 37.8187 9.26427 37.8188 9.25459C37.8189 9.23539 37.8186 9.2198 37.8185 9.21159C37.8181 9.19435 37.8176 9.17909 37.8172 9.16962C37.8168 9.15881 37.8163 9.14768 37.8158 9.13671L34.8192 9.27941C34.8194 9.28508 34.8195 9.28746 34.8195 9.28743C34.8195 9.28735 34.8195 9.28595 34.8194 9.28354C34.8193 9.28137 34.8192 9.27657 34.8191 9.27002C34.8189 9.26467 34.8187 9.25136 34.8188 9.2339C34.8189 9.22509 34.8191 9.21034 34.8197 9.19199C34.8201 9.18257 34.8206 9.16999 34.8215 9.15515C34.8224 9.14091 34.8238 9.1198 34.8264 9.09426C34.8278 9.08118 34.8296 9.06495 34.8321 9.04633C34.8346 9.02805 34.8381 9.0041 34.8432 8.97616C34.8482 8.94915 34.856 8.91054 34.8681 8.86472C34.8733 8.84535 34.8855 8.8036 34.8926 8.78126C34.9015 8.75483 34.9228 8.69735 34.9353 8.66641C34.9516 8.62899 34.9917 8.54713 35.0158 8.50303C35.0484 8.44868 35.1305 8.33089 35.1812 8.26865C35.2509 8.19292 35.4268 8.0404 35.5346 7.96771C35.6745 7.89181 35.9945 7.7819 36.172 7.75366C36.355 7.74692 36.6997 7.79569 36.8573 7.84653C36.984 7.9021 37.1961 8.02992 37.2826 8.09721C37.3469 8.15437 37.4529 8.26499 37.4958 8.31684C37.5283 8.35947 37.5828 8.43916 37.6054 8.47573C37.6232 8.50621 37.6538 8.56294 37.6668 8.58903C37.6774 8.61122 37.6961 8.65268 37.7042 8.67188C37.7231 8.7174 37.7364 8.75605 37.7452 8.78295C37.7542 8.81083 37.7611 8.83481 37.7661 8.85306C37.7711 8.87167 37.7751 8.88792 37.7782 8.90099C37.7843 8.92653 37.7886 8.9477 37.7913 8.96195C37.7942 8.97681 37.7964 8.98944 37.798 8.99889C37.801 9.0173 37.8031 9.03216 37.8044 9.04108C37.8057 9.05066 37.8067 9.05858 37.8073 9.06412C37.8086 9.07492 37.8095 9.08327 37.8099 9.08755C37.8108 9.09617 37.8113 9.10192 37.8114 9.10281C37.8116 9.10528 37.8115 9.10454 37.8113 9.10119C37.811 9.09784 37.811 9.09712 37.8112 9.09964C37.8112 9.10054 37.8115 9.10637 37.8119 9.11514C37.8121 9.11947 37.8124 9.12799 37.8126 9.13901C37.8128 9.14467 37.8129 9.1528 37.813 9.16265C37.813 9.1718 37.813 9.18719 37.8126 9.20634C37.8124 9.21616 37.8119 9.22938 37.8112 9.24502C37.8104 9.25996 37.8091 9.28245 37.8065 9.30975C37.8052 9.32373 37.8034 9.34126 37.8008 9.36143C37.7982 9.3812 37.7944 9.40749 37.7888 9.4383C37.7835 9.46792 37.7747 9.51136 37.7606 9.56311C37.7544 9.58509 37.7398 9.63284 37.7312 9.65855C37.7203 9.68906 37.6938 9.75591 37.6779 9.79208C37.657 9.83597 37.6047 9.93238 37.5726 9.98433C37.529 10.0481 37.4174 10.1848 37.3479 10.2555C37.2534 10.3383 37.0193 10.493 36.8788 10.5589C36.7105 10.6161 36.3528 10.6691 36.1685 10.6627C36.001 10.6368 35.7043 10.5405 35.5765 10.4763C35.4796 10.4167 35.3189 10.2928 35.2538 10.2316C35.2056 10.1812 35.1251 10.0854 35.0921 10.0409C35.0669 10.0044 35.0238 9.93617 35.0056 9.90473C34.9912 9.87848 34.9661 9.8294 34.9552 9.80668C34.9462 9.78731 34.9304 9.75093 34.9234 9.73396C34.907 9.69356 34.8951 9.65917 34.8871 9.63467C34.8789 9.6094 34.8725 9.58758 34.8678 9.57075C34.8631 9.55362 34.8592 9.53861 34.8563 9.52643C34.8504 9.50261 34.8462 9.48281 34.8435 9.4693C34.8406 9.45525 34.8384 9.44329 34.8368 9.43429C34.8336 9.41673 34.8315 9.40257 34.8302 9.39403C34.8276 9.37714 34.826 9.36422 34.8254 9.35898C34.8246 9.35261 34.8241 9.34793 34.8238 9.34582C34.8236 9.34349 34.8234 9.34214 34.8234 9.3421C34.8234 9.34199 34.8235 9.3426 34.8236 9.34407C34.8238 9.34551 34.824 9.34755 34.8242 9.35027L37.8107 9.06585Z" fill="black" mask="url(#path-1-inside-1)"/>
<path d="M33.2531 15C35.2075 15.7943 36.4567 16.7553 36.8594 17.7742C37.2621 18.7931 36.8022 19.8292 35.5317 20.7655C34.2613 21.7017 32.231 22.5005 29.6705 23.0717C27.1101 23.6428 24.1217 23.9635 21.0436 23.9973C17.9654 24.0311 14.9204 23.7768 12.2529 23.2631C9.58538 22.7494 7.40198 21.9968 5.9497 21.0905C4.49741 20.1842 3.83422 19.1604 4.03516 18.1349C4.2361 17.1093 5.29315 16.123 7.0867 15.2875" stroke="black" stroke-width="1.5"/>
<path d="M35.5718 8.99805C37.8815 9.96885 39.3579 11.1434 39.8338 12.3887C40.3097 13.634 39.7662 14.9005 38.2647 16.0447C36.7633 17.189 34.3638 18.1654 31.3379 18.8635C28.3119 19.5615 24.7802 19.9534 21.1424 19.9947C17.5046 20.0361 13.9059 19.7252 10.7534 19.0974C7.60091 18.4695 5.02052 17.5497 3.30419 16.442C1.58785 15.3343 0.804083 14.083 1.04156 12.8295C1.27903 11.5761 2.52827 10.3706 4.64792 9.34948" stroke="black" stroke-width="1.5"/>
</svg>
