<svg width="40" height="40" viewBox="0 0 40 40" fill="none" xmlns="http://www.w3.org/2000/svg">
<path d="M19.9824 0C13.0712 0 0 0.974617 0 4.6626V9.99138C0.00123997 10.465 0.255124 10.9021 0.665864 11.1384V11.9896C0.665864 13.0932 1.5605 13.9878 2.66439 13.9878H3.45301C3.73417 14.7832 4.48467 15.3164 5.32847 15.3202H7.32699C7.67108 15.318 8.00897 15.2262 8.30657 15.0536C8.67112 15.6329 9.30691 15.9848 9.99107 15.986H12.6555C12.9999 15.9842 13.3374 15.8924 13.6353 15.7197C13.9996 16.2988 14.6357 16.651 15.3198 16.6522H18.6504C19.1436 16.6503 19.6185 16.4653 19.9824 16.1326C20.152 16.2883 20.3473 16.4129 20.5593 16.5015C16.1959 18.2022 10.8271 21.8064 7.33412 24.5679C2.81752 28.1269 0.237764 31.7972 0.0666484 34.9089C0.0626185 34.9365 0.0604486 34.9644 0.0598286 34.9923V35.0376C-0.00402991 36.1529 0.302553 37.258 0.932458 38.1809V38.1896C0.962218 38.2354 0.996317 38.2785 1.03445 38.3179C1.04034 38.3247 1.04685 38.3294 1.05305 38.3362L1.06886 38.3508C1.82152 39.1462 2.80884 39.68 3.88638 39.8741C4.32223 39.9599 4.76583 40.0021 5.21005 39.9999C8.11623 39.9999 11.7943 38.3427 15.7436 35.2248C20.3008 31.631 25.5003 26.5155 27.6427 22.6471H27.7233C28.9955 22.6456 30.0262 21.6146 30.0278 20.3423V15.9807C30.6918 15.9628 31.3034 15.6153 31.6583 15.0536C31.9562 15.2262 32.2941 15.318 32.6382 15.3202H34.6364C35.4802 15.3164 36.231 14.7832 36.5122 13.9878H37.3008C38.4044 13.9878 39.299 13.0932 39.299 11.9896V11.1384C39.7098 10.9021 39.9637 10.465 39.9652 9.99138V4.6626C39.9652 0.974617 26.8937 0 19.9824 0V0ZM19.9824 1.33204C32.0502 1.33204 38.6329 3.5302 38.6329 4.6626V8.61067C38.3095 8.31711 37.8861 8.15777 37.4493 8.16552C37.0206 8.16676 36.604 8.30688 36.2617 8.5651C35.7818 7.71851 34.8689 7.21105 33.8965 7.25042C32.987 7.25228 32.1205 7.63667 31.5086 8.30936C30.963 7.42092 29.976 6.90106 28.9347 6.95407C27.9725 6.95686 27.0506 7.34001 26.3695 8.01982C26.3032 8.08616 26.2539 8.16428 26.1938 8.23558C25.6079 7.20888 24.4935 6.59975 23.313 6.66081C22.2513 6.65957 21.2326 7.08085 20.4815 7.83135C20.2946 8.02013 20.1266 8.22659 19.98 8.44792C19.24 7.33257 17.9907 6.66175 16.6522 6.66081C15.4758 6.59975 14.3644 7.20392 13.7767 8.22473C13.0891 7.42154 12.0848 6.95903 11.0277 6.95934C9.98859 6.90788 9.00436 7.42681 8.45908 8.31277C7.84747 7.63977 6.98073 7.25507 6.07121 7.2529C5.09783 7.2126 4.18366 7.72037 3.70348 8.56789C3.36125 8.30967 2.94431 8.16955 2.51559 8.16831C2.07912 8.15994 1.65598 8.31804 1.33204 8.61067V4.6626C1.33204 3.5302 7.91505 1.33204 19.9824 1.33204ZM25.3112 10.7239C23.0411 11.0838 21.3576 13.0222 21.3194 15.3202H21.3148C20.9468 15.3202 20.6486 15.0219 20.6486 14.654V10.6576C20.6458 9.94984 20.9254 9.27064 21.4258 8.77032C21.9261 8.26999 22.6056 7.99006 23.313 7.99316C23.8505 7.96712 24.3741 8.16924 24.7545 8.54991C25.1351 8.93027 25.3373 9.45385 25.3112 9.99138V10.7239ZM23.6193 22.6471H23.8087C20.8839 25.5701 17.7706 28.298 14.4888 30.8133C10.7354 33.7768 7.29475 35.3426 4.69701 35.3007C5.25996 32.761 7.58211 29.7782 11.3327 26.8134C14.5039 24.234 17.8382 21.8616 21.3148 19.7115V20.3423C21.316 21.6146 22.3471 22.6456 23.6193 22.6471ZM1.99821 11.9896V10.213C1.99821 10.094 2.0227 9.49787 2.51559 9.49787C3.02491 9.58064 3.38171 10.0453 3.33025 10.559V12.6558H2.66439C2.29643 12.6558 1.99821 12.3576 1.99821 11.9896ZM7.32699 13.9878H5.32847C4.96081 13.9878 4.6626 13.6896 4.6626 13.3216V9.99138C4.63811 9.61133 4.77823 9.23934 5.0473 8.96995C5.31669 8.70088 5.68868 8.56076 6.06873 8.58525C7.13107 8.58618 7.99192 9.44734 7.99285 10.5097V13.3216C7.99285 13.6896 7.69464 13.9878 7.32699 13.9878ZM12.6555 14.654H9.99107C9.62342 14.654 9.3252 14.3558 9.3252 13.9878V9.99138C9.30288 9.53321 9.47493 9.08713 9.79918 8.76288C10.1234 8.43862 10.5695 8.26658 11.0277 8.2889C12.2943 8.29014 13.3207 9.31683 13.3216 10.5835V13.9878C13.3216 14.3558 13.0234 14.654 12.6555 14.654ZM18.6504 15.3202H15.3198C14.9522 15.3202 14.654 15.0219 14.654 14.654V9.99138C14.6279 9.45385 14.8301 8.93027 15.2104 8.54991C15.5911 8.16924 16.1147 7.96712 16.6522 7.99316C18.1237 7.99316 19.3166 9.18602 19.3166 10.6576V14.654C19.3166 15.0219 19.0184 15.3202 18.6504 15.3202ZM8.15932 25.6138C12.7035 22.021 17.7384 18.9796 21.3148 17.638V18.1777C17.5289 20.4388 13.9156 22.977 10.5041 25.7709C6.4122 29.0014 3.96698 32.2148 3.37024 35.1135C2.66408 34.9207 2.02983 34.5258 1.54531 33.9771C2.14949 31.4599 4.45274 28.5345 8.15932 25.6138ZM14.9203 34.1804C10.6572 37.5473 6.83472 39.1068 4.10647 38.5665C3.31661 38.4183 2.59402 38.0243 2.0413 37.4409C1.67427 36.9084 1.45573 36.2874 1.40799 35.6423C2.12686 36.1455 2.95733 36.4654 3.82779 36.5748H3.89506C6.95903 36.9645 10.9031 35.3373 15.3158 31.8536C21.2748 27.1485 25.1076 23.5781 26.9892 20.967C25.5536 24.5232 19.9824 30.1865 14.9203 34.1804ZM28.6951 20.3423C28.6945 20.622 28.5733 20.8876 28.3619 21.0711C28.4019 20.9552 28.4518 20.8346 28.4837 20.7227C28.6446 20.1319 28.3519 19.5119 27.794 19.2605C27.2357 19.0088 26.5775 19.2 26.2412 19.7115C25.8677 20.271 25.4594 20.8064 25.0189 21.3148H23.6199C23.083 21.3145 22.6478 20.8793 22.6468 20.3423V15.42C22.6428 13.5588 24.1292 12.0364 25.9901 11.9961C26.0192 11.997 26.0484 11.9949 26.0772 11.9896C26.7806 11.9543 27.466 12.2181 27.9645 12.7153C28.4629 13.2125 28.7283 13.8973 28.6951 14.6007V20.3423ZM30.64 13.9878C30.6378 14.3325 30.3709 14.618 30.0271 14.6431V14.6007C30.113 12.6071 28.6288 10.8925 26.6436 10.692V10.5841C26.6414 9.97526 26.882 9.3903 27.3119 8.9591C27.7419 8.5279 28.3259 8.2858 28.9347 8.28611C29.3935 8.2641 29.8402 8.43645 30.1648 8.76133C30.4897 9.08589 30.662 9.53259 30.64 9.99138V13.9878ZM35.3026 13.3216C35.3026 13.6896 35.0044 13.9878 34.6364 13.9878H32.6382C32.2703 13.9878 31.972 13.6896 31.972 13.3216V10.5097C31.9733 9.44734 32.8341 8.58618 33.8965 8.58525C34.2765 8.56076 34.6485 8.70088 34.9176 8.96995C35.187 9.23934 35.3271 9.61133 35.3026 9.99138V13.3216ZM37.967 11.9896C37.967 12.3576 37.6688 12.6558 37.3008 12.6558H36.6346V10.559C36.5832 10.0453 36.9403 9.58064 37.4493 9.49787C37.9422 9.49787 37.967 10.094 37.967 10.213V11.9896Z" fill="black"/>
</svg>
