<svg width="41" height="41" viewBox="0 0 41 41" fill="none" xmlns="http://www.w3.org/2000/svg">
<path d="M29.8569 1.88936C27.3682 0.608113 24.558 0 21.7691 0C12.8972 0 4.21312 6.14728 6.57983 16.3466L5.02079 18.2328L2.26562 23.2765L4.94576 25.4073L4.83501 28.9895L5.90542 30.5247C5.90542 30.5247 4.62977 35.3169 6.57983 35.9963C8.41226 36.6369 10.4092 36.7946 11.9388 36.7946C13.4453 36.7946 14.4995 36.642 14.4995 36.642L14.7122 41H32.8036C32.8036 41 31.0143 31.9649 33.732 28.1262C36.4521 24.2875 45.3208 9.85025 29.8569 1.88936ZM8.13255 10.7786C8.45478 9.31285 9.10166 7.96025 10.0557 6.75972C11.2851 5.21261 13.0273 3.92823 15.0944 3.04481C17.1408 2.1702 19.4486 1.70847 21.7691 1.70847C24.3878 1.70847 26.9154 2.29592 29.0749 3.40829C31.3384 4.57382 33.1413 5.94324 34.4352 7.4785C35.55 8.80163 36.3132 10.2837 36.7049 11.8834C37.2992 14.3202 37.0677 17.0885 36.0155 20.1208C35.6927 19.6379 35.2235 19.0917 34.484 18.59L32.1805 15.1366L34.8581 14.028L30.943 11.4054L32.9913 9.35657L28.3717 8.43255L29.4803 5.75554L24.8571 6.67019V3.7724L20.9357 6.38623L19.8271 3.70922L17.2045 7.62488L15.1556 5.576L14.2316 10.1967L11.5546 9.08815L12.4693 13.7108H10.1483C8.83139 12.6304 8.23201 11.6125 8.04374 11.2435C8.07001 11.0877 8.09884 10.9319 8.13255 10.7786ZM14.1447 13.3793L13.85 11.8878L15.4992 12.571L15.9071 10.5321L16.2049 9.0413L17.4674 10.3032L18.6241 8.57525L19.4706 7.31217L20.1531 8.9613L21.8835 7.80762L23.1485 6.96431V8.74982L25.1886 8.3463L26.6801 8.05097L25.9969 9.7001L28.0364 10.108L29.5266 10.4058L28.2641 11.6683L29.9933 12.8251L31.2558 13.6709L29.6067 14.354L30.7591 16.0844L31.6037 17.3494H31.4222C29.8307 16.9928 27.7236 16.8327 24.9096 17.0322C19.2384 17.4339 15.4278 16.533 12.9504 15.4194H14.5482L14.1447 13.3793ZM30.5413 36.069C30.5889 37.2814 30.699 38.3999 30.8116 39.2921H16.3394L16.2055 36.5569L16.116 34.6789L14.2548 34.9504C14.2455 34.9517 13.287 35.0868 11.9388 35.0868C10.712 35.0868 8.93093 34.9729 7.30991 34.4399C7.23672 34.2222 7.14663 33.6692 7.25425 32.6595C7.35123 31.7486 7.55519 30.9691 7.55639 30.964L7.76035 30.1983L7.30678 29.5477L6.55981 28.4767L6.65367 25.46L6.67993 24.6029L6.00864 24.0699L4.454 22.8336L6.44154 19.1957L7.89672 17.4352L8.43476 16.7833L8.24394 15.9607C8.08691 15.285 7.98368 14.6219 7.93235 13.9738C8.45911 14.5387 9.14666 15.1549 10.0319 15.7518C10.498 16.0665 10.9935 16.358 11.5146 16.6257L11.5491 16.6771L11.708 16.724C12.916 17.3246 14.2623 17.8019 15.7325 18.1485C18.4308 18.7847 21.5588 18.9824 25.031 18.736C28.5794 18.4844 31.2445 18.7985 32.9487 19.6681C34.2349 20.3238 34.6553 21.1246 34.9631 21.7077C35.0457 21.8665 35.1208 22.0104 35.2083 22.1406C34.2074 24.3652 33.0212 26.1745 32.338 27.1379C30.9893 29.0446 30.3837 32.05 30.5413 36.069Z" fill="#373737"/>
</svg>
