<svg width="33" height="41" viewBox="0 0 33 41" fill="none" xmlns="http://www.w3.org/2000/svg">
<mask id="path-1-inside-1" fill="white">
<path d="M32.3165 9.20777C32.2087 6.29296 31.5526 3.00807 29.4874 1.287C27.7154 -0.189743 25.5626 -0.227548 23.1176 0.336601C18.9988 1.28696 17.9642 2.23748 14.7959 1.60382L8.55436 0.336601C11.8438 0.806587 8.64641 0.35386 8.55436 0.336601C6.33657 0.0197282 4.94394 -0.105217 3.16835 1.28699C1.1129 2.89863 0.101385 6.24226 0 9.20777C0 9.11906 0 9.30916 0 9.20777C0 9.09371 0 9.31549 0 9.20777C0 13.4026 1.58838 15.3596 3.16835 18.6619C4.4356 21.3106 4.44016 21.8793 4.4356 26.1517C4.42926 32.0827 6.03875 35.7896 6.97022 37.3801C7.93971 39.0022 9.18801 40.2569 10.4553 40.5737C11.7226 40.5737 13.6236 39.9401 13.6236 33.9203C13.6236 28.2175 14.8909 27.267 14.8909 27.267C15.5246 26.6333 16.285 26.6333 16.285 26.6333C16.285 26.6333 17.1087 26.6333 17.7424 27.267C17.7424 27.267 19.0097 28.2174 19.0097 33.9203C19.0097 39.6232 21.4303 40.8905 22.4948 40.5737C23.7094 40.2122 24.9217 39.1607 25.9799 37.3801C26.905 35.8086 27.8809 32.0279 27.8809 26.1517C27.8809 22.5145 27.7697 21.3106 29.037 18.6619C30.3043 16.0132 32.3165 13.5793 32.3165 9.20777C32.3038 9.07471 32.3228 9.34084 32.3165 9.20777Z"/>
</mask>
<path d="M29.4874 1.287L28.5271 2.4393L29.4874 1.287ZM23.1176 0.336601L22.7804 -1.12499L23.1176 0.336601ZM14.7959 1.60382L14.4975 3.07384L14.5018 3.07469L14.7959 1.60382ZM3.16835 1.28699L2.24281 0.106582V0.106582L3.16835 1.28699ZM0 9.20777H-1.5H0ZM3.16835 18.6619L1.81524 19.3093H1.81524L3.16835 18.6619ZM4.4356 26.1517L5.9356 26.1533L4.4356 26.1517ZM6.97022 37.3801L5.67581 38.1382L5.68265 38.1496L6.97022 37.3801ZM10.4553 40.5737L10.0915 42.029L10.2707 42.0737H10.4553V40.5737ZM14.8909 27.267L15.7909 28.467L15.8762 28.403L15.9516 28.3276L14.8909 27.267ZM16.285 26.6333V28.1333V26.6333ZM17.7424 27.267L16.6817 28.3276L16.7571 28.403L16.8424 28.467L17.7424 27.267ZM22.4948 40.5737L22.9227 42.0114L22.4948 40.5737ZM25.9799 37.3801L27.2694 38.1464L27.2725 38.1411L25.9799 37.3801ZM33.8154 9.15238C33.7586 7.61532 33.5564 5.92354 33.0683 4.35425C32.5824 2.79219 31.7797 1.24473 30.4477 0.134692L28.5271 2.4393C29.2603 3.05034 29.8182 4.00586 30.2036 5.24522C30.5869 6.47734 30.7666 7.88541 30.8175 9.26317L33.8154 9.15238ZM30.4477 0.134692C28.1367 -1.79124 25.3943 -1.72813 22.7804 -1.12499L23.4548 1.7982C25.7309 1.27304 27.2941 1.41175 28.5271 2.4393L30.4477 0.134692ZM22.7804 -1.12499C21.7092 -0.877848 20.8404 -0.630972 20.1031 -0.414718C19.3494 -0.193663 18.7894 -0.0221632 18.2544 0.104658C17.2812 0.33534 16.4491 0.40475 15.0901 0.13295L14.5018 3.07469C16.311 3.43655 17.5804 3.34753 18.9463 3.02378C19.5808 2.87338 20.2497 2.66866 20.9475 2.46401C21.6616 2.25455 22.4666 2.02623 23.4548 1.7982L22.7804 -1.12499ZM15.0944 0.133812L8.85281 -1.13341L8.25591 1.80661L14.4975 3.07383L15.0944 0.133812ZM8.27794 1.81091C8.36772 1.82774 9.24903 1.95309 9.61212 2.0045C9.71086 2.01848 9.78819 2.02937 9.82068 2.03382C9.82503 2.03442 9.8302 2.03512 9.83529 2.03579C9.83773 2.03612 9.84166 2.03664 9.84623 2.03722C9.84713 2.03733 9.86147 2.03918 9.87898 2.04103C9.88464 2.04162 9.89884 2.043 9.90744 2.04377C9.92201 2.04496 9.96701 2.04774 9.99747 2.04885C10.0985 2.04811 11.3808 1.21588 11.3223 -0.223891C10.9742 -0.621845 10.451 -0.892379 10.3917 -0.908093C10.3694 -0.913336 10.3353 -0.920671 10.3235 -0.923018C10.3163 -0.924412 10.3041 -0.926667 10.2991 -0.92756C10.2895 -0.929273 10.2819 -0.930534 10.2786 -0.931067C10.267 -0.932971 10.2564 -0.934556 10.2542 -0.934893C10.2383 -0.93729 10.2093 -0.941515 10.1701 -0.9472C10.007 -0.970829 9.58853 -1.03087 8.76652 -1.14832L8.3422 1.82152C9.16491 1.93907 9.58032 1.99868 9.73998 2.02181C9.78142 2.02781 9.80122 2.03072 9.80681 2.03156C9.80995 2.03204 9.80305 2.03102 9.79347 2.02945C9.79073 2.029 9.78349 2.02781 9.77415 2.02615C9.76933 2.02528 9.7573 2.02305 9.75015 2.02168C9.73845 2.01935 9.70443 2.01203 9.68221 2.0068C9.623 1.9911 9.09984 1.72058 8.75167 1.32263C8.69321 -0.117138 9.97551 -0.949367 10.0765 -0.950108C10.1069 -0.948997 10.1518 -0.946224 10.1663 -0.945041C10.1748 -0.94428 10.1889 -0.942913 10.1944 -0.942339C10.2227 -0.939343 10.25 -0.935388 10.2277 -0.938443C10.2035 -0.941757 10.1338 -0.951553 10.0327 -0.965868C9.8338 -0.994032 9.52928 -1.03741 9.269 -1.07479C8.97444 -1.1171 8.81207 -1.14122 8.83078 -1.13771L8.27794 1.81091ZM8.76652 -1.14832C7.68265 -1.30318 6.58828 -1.4489 5.51421 -1.31811C4.36627 -1.17832 3.32165 -0.739317 2.24281 0.106582L4.09389 2.46741C4.79064 1.92109 5.33013 1.72647 5.87685 1.65989C6.49744 1.58432 7.20827 1.65951 8.3422 1.82152L8.76652 -1.14832ZM2.24281 0.106582C0.923812 1.14078 0.025385 2.65402 -0.554902 4.21785C-1.14021 5.79521 -1.44365 7.53386 -1.49912 9.15652L1.49912 9.25903C1.54503 7.91618 1.79805 6.50026 2.2577 5.26152C2.72238 4.00924 3.35744 3.04484 4.09389 2.46741L2.24281 0.106582ZM-1.5 9.20777C-1.5 9.20797 -1.5 9.20817 -1.5 9.20836C-1.5 9.20856 -1.5 9.20875 -1.5 9.20895C-1.5 9.20914 -1.5 9.20933 -1.5 9.20953C-1.5 9.20972 -1.5 9.20991 -1.5 9.2101C-1.5 9.21029 -1.5 9.21047 -1.5 9.21066C-1.5 9.21085 -1.5 9.21103 -1.5 9.21122C-1.5 9.2114 -1.5 9.21159 -1.5 9.21177C-1.5 9.21195 -1.5 9.21213 -1.5 9.21231C-1.5 9.21249 -1.5 9.21267 -1.5 9.21285C-1.5 9.21303 -1.5 9.21321 -1.5 9.21338C-1.5 9.21356 -1.5 9.21374 -1.5 9.21391C-1.5 9.21408 -1.5 9.21426 -1.5 9.21443C-1.5 9.2146 -1.5 9.21477 -1.5 9.21494C-1.5 9.21511 -1.5 9.21528 -1.5 9.21545C-1.5 9.21562 -1.5 9.21578 -1.5 9.21595C-1.5 9.21611 -1.5 9.21628 -1.5 9.21644C-1.5 9.21661 -1.5 9.21677 -1.5 9.21693C-1.5 9.21709 -1.5 9.21725 -1.5 9.21741C-1.5 9.21757 -1.5 9.21773 -1.5 9.21789C-1.5 9.21804 -1.5 9.2182 -1.5 9.21835C-1.5 9.21851 -1.5 9.21866 -1.5 9.21882C-1.5 9.21897 -1.5 9.21912 -1.5 9.21927C-1.5 9.21942 -1.5 9.21957 -1.5 9.21972C-1.5 9.21987 -1.5 9.22002 -1.5 9.22017C-1.5 9.22031 -1.5 9.22046 -1.5 9.22061C-1.5 9.22075 -1.5 9.22089 -1.5 9.22104C-1.5 9.22118 -1.5 9.22132 -1.5 9.22146C-1.5 9.22161 -1.5 9.22175 -1.5 9.22188C-1.5 9.22202 -1.5 9.22216 -1.5 9.2223C-1.5 9.22244 -1.5 9.22257 -1.5 9.22271C-1.5 9.22284 -1.5 9.22298 -1.5 9.22311C-1.5 9.22324 -1.5 9.22338 -1.5 9.22351C-1.5 9.22364 -1.5 9.22377 -1.5 9.2239C-1.5 9.22403 -1.5 9.22415 -1.5 9.22428C-1.5 9.22441 -1.5 9.22454 -1.5 9.22466C-1.5 9.22479 -1.5 9.22491 -1.5 9.22503C-1.5 9.22516 -1.5 9.22528 -1.5 9.2254C-1.5 9.22552 -1.5 9.22564 -1.5 9.22576C-1.5 9.22588 -1.5 9.226 -1.5 9.22612C-1.5 9.22624 -1.5 9.22635 -1.5 9.22647C-1.5 9.22659 -1.5 9.2267 -1.5 9.22682C-1.5 9.22693 -1.5 9.22704 -1.5 9.22715C-1.5 9.22727 -1.5 9.22738 -1.5 9.22749C-1.5 9.2276 -1.5 9.22771 -1.5 9.22782C-1.5 9.22792 -1.5 9.22803 -1.5 9.22814C-1.5 9.22824 -1.5 9.22835 -1.5 9.22845C-1.5 9.22856 -1.5 9.22866 -1.5 9.22877C-1.5 9.22887 -1.5 9.22897 -1.5 9.22907C-1.5 9.22917 -1.5 9.22927 -1.5 9.22937C-1.5 9.22947 -1.5 9.22957 -1.5 9.22967C-1.5 9.22976 -1.5 9.22986 -1.5 9.22996C-1.5 9.23005 -1.5 9.23015 -1.5 9.23024C-1.5 9.23034 -1.5 9.23043 -1.5 9.23052C-1.5 9.23061 -1.5 9.2307 -1.5 9.23079C-1.5 9.23088 -1.5 9.23097 -1.5 9.23106C-1.5 9.23115 -1.5 9.23124 -1.5 9.23133C-1.5 9.23141 -1.5 9.2315 -1.5 9.23158C-1.5 9.23167 -1.5 9.23175 -1.5 9.23184C-1.5 9.23192 -1.5 9.232 -1.5 9.23208C-1.5 9.23216 -1.5 9.23225 -1.5 9.23233C-1.5 9.23241 -1.5 9.23248 -1.5 9.23256C-1.5 9.23264 -1.5 9.23272 -1.5 9.23279C-1.5 9.23287 -1.5 9.23295 -1.5 9.23302C-1.5 9.2331 -1.5 9.23317 -1.5 9.23324C-1.5 9.23332 -1.5 9.23339 -1.5 9.23346C-1.5 9.23353 -1.5 9.2336 -1.5 9.23367C-1.5 9.23374 -1.5 9.23381 -1.5 9.23388C-1.5 9.23395 -1.5 9.23401 -1.5 9.23408C-1.5 9.23415 -1.5 9.23421 -1.5 9.23428C-1.5 9.23434 -1.5 9.23441 -1.5 9.23447C-1.5 9.23453 -1.5 9.23459 -1.5 9.23466C-1.5 9.23472 -1.5 9.23478 -1.5 9.23484C-1.5 9.2349 -1.5 9.23496 -1.5 9.23502C-1.5 9.23507 -1.5 9.23513 -1.5 9.23519C-1.5 9.23524 -1.5 9.2353 -1.5 9.23536C-1.5 9.23541 -1.5 9.23547 -1.5 9.23552C-1.5 9.23557 -1.5 9.23563 -1.5 9.23568C-1.5 9.23573 -1.5 9.23578 -1.5 9.23583C-1.5 9.23588 -1.5 9.23593 -1.5 9.23598C-1.5 9.23603 -1.5 9.23608 -1.5 9.23612C-1.5 9.23617 -1.5 9.23622 -1.5 9.23626C-1.5 9.23631 -1.5 9.23635 -1.5 9.2364C-1.5 9.23644 -1.5 9.23649 -1.5 9.23653C-1.5 9.23657 -1.5 9.23661 -1.5 9.23666C-1.5 9.2367 -1.5 9.23674 -1.5 9.23678C-1.5 9.23682 -1.5 9.23685 -1.5 9.23689C-1.5 9.23693 -1.5 9.23697 -1.5 9.23701C-1.5 9.23704 -1.5 9.23708 -1.5 9.23711C-1.5 9.23715 -1.5 9.23718 -1.5 9.23722C-1.5 9.23725 -1.5 9.23728 -1.5 9.23732C-1.5 9.23735 -1.5 9.23738 -1.5 9.23741C-1.5 9.23744 -1.5 9.23747 -1.5 9.2375C-1.5 9.23753 -1.5 9.23756 -1.5 9.23759C-1.5 9.23761 -1.5 9.23764 -1.5 9.23767C-1.5 9.23769 -1.5 9.23772 -1.5 9.23775C-1.5 9.23777 -1.5 9.2378 -1.5 9.23782C-1.5 9.23784 -1.5 9.23787 -1.5 9.23789C-1.5 9.23791 -1.5 9.23793 -1.5 9.23795C-1.5 9.23797 -1.5 9.23799 -1.5 9.23801C-1.5 9.23803 -1.5 9.23805 -1.5 9.23807C-1.5 9.23809 -1.5 9.23811 -1.5 9.23812C-1.5 9.23814 -1.5 9.23816 -1.5 9.23817C-1.5 9.23819 -1.5 9.2382 -1.5 9.23821C-1.5 9.23823 -1.5 9.23824 -1.5 9.23825C-1.5 9.23827 -1.5 9.23828 -1.5 9.23829C-1.5 9.2383 -1.5 9.23831 -1.5 9.23832C-1.5 9.23833 -1.5 9.23834 -1.5 9.23835C-1.5 9.23836 -1.5 9.23837 -1.5 9.23838C-1.5 9.23838 -1.5 9.23839 -1.5 9.2384C-1.5 9.2384 -1.5 9.23841 -1.5 9.23841C-1.5 9.23842 -1.5 9.23842 -1.5 9.23842C-1.5 9.23843 -1.5 9.23843 -1.5 9.23843C-1.5 9.23844 -1.5 9.23844 -1.5 9.23844C-1.5 9.23844 0 9.23844 1.5 9.23844C1.5 9.23844 1.5 9.23844 1.5 9.23844C1.5 9.23843 1.5 9.23843 1.5 9.23843C1.5 9.23843 1.5 9.23842 1.5 9.23842C1.5 9.23842 1.5 9.23841 1.5 9.23841C1.5 9.2384 1.5 9.23839 1.5 9.23839C1.5 9.23838 1.5 9.23837 1.5 9.23837C1.5 9.23836 1.5 9.23835 1.5 9.23834C1.5 9.23833 1.5 9.23832 1.5 9.23831C1.5 9.2383 1.5 9.23829 1.5 9.23828C1.5 9.23827 1.5 9.23826 1.5 9.23825C1.5 9.23823 1.5 9.23822 1.5 9.23821C1.5 9.23819 1.5 9.23818 1.5 9.23816C1.5 9.23815 1.5 9.23814 1.5 9.23812C1.5 9.2381 1.5 9.23809 1.5 9.23807C1.5 9.23805 1.5 9.23804 1.5 9.23802C1.5 9.238 1.5 9.23798 1.5 9.23796C1.5 9.23794 1.5 9.23792 1.5 9.2379C1.5 9.23788 1.5 9.23786 1.5 9.23784C1.5 9.23782 1.5 9.23779 1.5 9.23777C1.5 9.23775 1.5 9.23773 1.5 9.2377C1.5 9.23768 1.5 9.23766 1.5 9.23763C1.5 9.23761 1.5 9.23758 1.5 9.23755C1.5 9.23753 1.5 9.2375 1.5 9.23748C1.5 9.23745 1.5 9.23742 1.5 9.23739C1.5 9.23736 1.5 9.23734 1.5 9.23731C1.5 9.23728 1.5 9.23725 1.5 9.23722C1.5 9.23719 1.5 9.23716 1.5 9.23713C1.5 9.2371 1.5 9.23707 1.5 9.23703C1.5 9.237 1.5 9.23697 1.5 9.23693C1.5 9.2369 1.5 9.23687 1.5 9.23683C1.5 9.2368 1.5 9.23677 1.5 9.23673C1.5 9.2367 1.5 9.23666 1.5 9.23662C1.5 9.23659 1.5 9.23655 1.5 9.23651C1.5 9.23648 1.5 9.23644 1.5 9.2364C1.5 9.23636 1.5 9.23632 1.5 9.23629C1.5 9.23625 1.5 9.23621 1.5 9.23617C1.5 9.23613 1.5 9.23609 1.5 9.23605C1.5 9.236 1.5 9.23596 1.5 9.23592C1.5 9.23588 1.5 9.23584 1.5 9.2358C1.5 9.23575 1.5 9.23571 1.5 9.23567C1.5 9.23562 1.5 9.23558 1.5 9.23553C1.5 9.23549 1.5 9.23544 1.5 9.2354C1.5 9.23535 1.5 9.23531 1.5 9.23526C1.5 9.23521 1.5 9.23517 1.5 9.23512C1.5 9.23507 1.5 9.23502 1.5 9.23498C1.5 9.23493 1.5 9.23488 1.5 9.23483C1.5 9.23478 1.5 9.23473 1.5 9.23468C1.5 9.23463 1.5 9.23458 1.5 9.23453C1.5 9.23448 1.5 9.23443 1.5 9.23438C1.5 9.23433 1.5 9.23427 1.5 9.23422C1.5 9.23417 1.5 9.23412 1.5 9.23406C1.5 9.23401 1.5 9.23396 1.5 9.2339C1.5 9.23385 1.5 9.23379 1.5 9.23374C1.5 9.23368 1.5 9.23363 1.5 9.23357C1.5 9.23352 1.5 9.23346 1.5 9.23341C1.5 9.23335 1.5 9.23329 1.5 9.23323C1.5 9.23318 1.5 9.23312 1.5 9.23306C1.5 9.233 1.5 9.23295 1.5 9.23289C1.5 9.23283 1.5 9.23277 1.5 9.23271C1.5 9.23265 1.5 9.23259 1.5 9.23253C1.5 9.23247 1.5 9.23241 1.5 9.23235C1.5 9.23229 1.5 9.23222 1.5 9.23216C1.5 9.2321 1.5 9.23204 1.5 9.23198C1.5 9.23191 1.5 9.23185 1.5 9.23179C1.5 9.23172 1.5 9.23166 1.5 9.2316C1.5 9.23153 1.5 9.23147 1.5 9.2314C1.5 9.23134 1.5 9.23128 1.5 9.23121C1.5 9.23114 1.5 9.23108 1.5 9.23101C1.5 9.23095 1.5 9.23088 1.5 9.23081C1.5 9.23075 1.5 9.23068 1.5 9.23061C1.5 9.23055 1.5 9.23048 1.5 9.23041C1.5 9.23034 1.5 9.23027 1.5 9.23021C1.5 9.23014 1.5 9.23007 1.5 9.23C1.5 9.22993 1.5 9.22986 1.5 9.22979C1.5 9.22972 1.5 9.22965 1.5 9.22958C1.5 9.22951 1.5 9.22944 1.5 9.22937C1.5 9.2293 1.5 9.22922 1.5 9.22915C1.5 9.22908 1.5 9.22901 1.5 9.22894C1.5 9.22886 1.5 9.22879 1.5 9.22872C1.5 9.22865 1.5 9.22857 1.5 9.2285C1.5 9.22843 1.5 9.22835 1.5 9.22828C1.5 9.2282 1.5 9.22813 1.5 9.22805C1.5 9.22798 1.5 9.22791 1.5 9.22783C1.5 9.22775 1.5 9.22768 1.5 9.2276C1.5 9.22753 1.5 9.22745 1.5 9.22738C1.5 9.2273 1.5 9.22722 1.5 9.22715C1.5 9.22707 1.5 9.22699 1.5 9.22691C1.5 9.22684 1.5 9.22676 1.5 9.22668C1.5 9.2266 1.5 9.22653 1.5 9.22645C1.5 9.22637 1.5 9.22629 1.5 9.22621C1.5 9.22613 1.5 9.22605 1.5 9.22598C1.5 9.2259 1.5 9.22582 1.5 9.22574C1.5 9.22566 1.5 9.22558 1.5 9.2255C1.5 9.22542 1.5 9.22534 1.5 9.22526C1.5 9.22517 1.5 9.22509 1.5 9.22501C1.5 9.22493 1.5 9.22485 1.5 9.22477C1.5 9.22469 1.5 9.2246 1.5 9.22452C1.5 9.22444 1.5 9.22436 1.5 9.22428C1.5 9.22419 1.5 9.22411 1.5 9.22403C1.5 9.22394 1.5 9.22386 1.5 9.22378C1.5 9.22369 1.5 9.22361 1.5 9.22353C1.5 9.22344 1.5 9.22336 1.5 9.22328C1.5 9.22319 1.5 9.22311 1.5 9.22302C1.5 9.22294 1.5 9.22285 1.5 9.22277C1.5 9.22268 1.5 9.2226 1.5 9.22251C1.5 9.22243 1.5 9.22234 1.5 9.22226C1.5 9.22217 1.5 9.22209 1.5 9.222C1.5 9.22192 1.5 9.22183 1.5 9.22174C1.5 9.22166 1.5 9.22157 1.5 9.22148C1.5 9.2214 1.5 9.22131 1.5 9.22122C1.5 9.22114 1.5 9.22105 1.5 9.22096C1.5 9.22087 1.5 9.22079 1.5 9.2207C1.5 9.22061 1.5 9.22052 1.5 9.22044C1.5 9.22035 1.5 9.22026 1.5 9.22017C1.5 9.22008 1.5 9.22 1.5 9.21991C1.5 9.21982 1.5 9.21973 1.5 9.21964C1.5 9.21955 1.5 9.21946 1.5 9.21938C1.5 9.21929 1.5 9.2192 1.5 9.21911C1.5 9.21902 1.5 9.21893 1.5 9.21884C1.5 9.21875 1.5 9.21866 1.5 9.21857C1.5 9.21848 1.5 9.21839 1.5 9.2183C1.5 9.21821 1.5 9.21812 1.5 9.21803C1.5 9.21794 1.5 9.21785 1.5 9.21776C1.5 9.21767 1.5 9.21758 1.5 9.21749C1.5 9.2174 1.5 9.21731 1.5 9.21722C1.5 9.21713 1.5 9.21704 1.5 9.21694C1.5 9.21685 1.5 9.21676 1.5 9.21667C1.5 9.21658 1.5 9.21649 1.5 9.2164C1.5 9.21631 1.5 9.21622 1.5 9.21612C1.5 9.21603 1.5 9.21594 1.5 9.21585C1.5 9.21576 1.5 9.21567 1.5 9.21557C1.5 9.21548 1.5 9.21539 1.5 9.2153C1.5 9.21521 1.5 9.21511 1.5 9.21502C1.5 9.21493 1.5 9.21484 1.5 9.21475C1.5 9.21465 1.5 9.21456 1.5 9.21447C1.5 9.21438 1.5 9.21428 1.5 9.21419C1.5 9.2141 1.5 9.21401 1.5 9.21392C1.5 9.21382 1.5 9.21373 1.5 9.21364C1.5 9.21355 1.5 9.21345 1.5 9.21336C1.5 9.21327 1.5 9.21317 1.5 9.21308C1.5 9.21299 1.5 9.2129 1.5 9.2128C1.5 9.21271 1.5 9.21262 1.5 9.21253C1.5 9.21243 1.5 9.21234 1.5 9.21225C1.5 9.21215 1.5 9.21206 1.5 9.21197C1.5 9.21188 1.5 9.21178 1.5 9.21169C1.5 9.2116 1.5 9.2115 1.5 9.21141C1.5 9.21132 1.5 9.21122 1.5 9.21113C1.5 9.21104 1.5 9.21095 1.5 9.21085C1.5 9.21076 1.5 9.21067 1.5 9.21057C1.5 9.21048 1.5 9.21039 1.5 9.2103C1.5 9.2102 1.5 9.21011 1.5 9.21002C1.5 9.20992 1.5 9.20983 1.5 9.20974C1.5 9.20965 1.5 9.20955 1.5 9.20946C1.5 9.20937 1.5 9.20927 1.5 9.20918C1.5 9.20909 1.5 9.209 1.5 9.2089C1.5 9.20881 1.5 9.20872 1.5 9.20862C1.5 9.20853 1.5 9.20844 1.5 9.20835C1.5 9.20825 1.5 9.20816 1.5 9.20807C1.5 9.20798 1.5 9.20788 1.5 9.20779C1.5 9.2077 1.5 9.20761 1.5 9.20751C1.5 9.20742 1.5 9.20733 1.5 9.20724C1.5 9.20715 1.5 9.20705 1.5 9.20696C1.5 9.20687 1.5 9.20678 1.5 9.20669C1.5 9.20659 1.5 9.2065 1.5 9.20641C1.5 9.20632 1.5 9.20623 1.5 9.20613C1.5 9.20604 1.5 9.20595 1.5 9.20586C1.5 9.20577 1.5 9.20568 1.5 9.20559C1.5 9.20549 1.5 9.2054 1.5 9.20531C1.5 9.20522 1.5 9.20513 1.5 9.20504C1.5 9.20495 1.5 9.20486 1.5 9.20477C1.5 9.20467 1.5 9.20458 1.5 9.20449C1.5 9.2044 1.5 9.20431 1.5 9.20422C1.5 9.20413 1.5 9.20404 1.5 9.20395C1.5 9.20386 1.5 9.20377 1.5 9.20368C1.5 9.20359 1.5 9.2035 1.5 9.20341C1.5 9.20332 1.5 9.20323 1.5 9.20314C1.5 9.20305 1.5 9.20296 1.5 9.20287C1.5 9.20278 1.5 9.20269 1.5 9.20261C1.5 9.20252 1.5 9.20243 1.5 9.20234C1.5 9.20225 1.5 9.20216 1.5 9.20207C1.5 9.20198 1.5 9.2019 1.5 9.20181C1.5 9.20172 1.5 9.20163 1.5 9.20154C1.5 9.20146 1.5 9.20137 1.5 9.20128C1.5 9.20119 1.5 9.2011 1.5 9.20102C1.5 9.20093 1.5 9.20084 1.5 9.20076C1.5 9.20067 1.5 9.20058 1.5 9.20049C1.5 9.20041 1.5 9.20032 1.5 9.20024C1.5 9.20015 1.5 9.20006 1.5 9.19998C1.5 9.19989 1.5 9.1998 1.5 9.19972C1.5 9.19963 1.5 9.19955 1.5 9.19946C1.5 9.19938 1.5 9.19929 1.5 9.19921C1.5 9.19912 1.5 9.19904 1.5 9.19895C1.5 9.19887 1.5 9.19878 1.5 9.1987C1.5 9.19862 1.5 9.19853 1.5 9.19845C1.5 9.19836 1.5 9.19828 1.5 9.1982C1.5 9.19811 1.5 9.19803 1.5 9.19795C1.5 9.19786 1.5 9.19778 1.5 9.1977C1.5 9.19762 1.5 9.19753 1.5 9.19745C1.5 9.19737 1.5 9.19729 1.5 9.1972C1.5 9.19712 1.5 9.19704 1.5 9.19696C1.5 9.19688 1.5 9.1968 1.5 9.19672C1.5 9.19664 1.5 9.19656 1.5 9.19648C1.5 9.19639 1.5 9.19631 1.5 9.19623C1.5 9.19615 1.5 9.19607 1.5 9.196C1.5 9.19592 1.5 9.19584 1.5 9.19576C1.5 9.19568 1.5 9.1956 1.5 9.19552C1.5 9.19544 1.5 9.19536 1.5 9.19529C1.5 9.19521 1.5 9.19513 1.5 9.19505C1.5 9.19497 1.5 9.1949 1.5 9.19482C1.5 9.19474 1.5 9.19467 1.5 9.19459C1.5 9.19451 1.5 9.19444 1.5 9.19436C1.5 9.19429 1.5 9.19421 1.5 9.19414C1.5 9.19406 1.5 9.19398 1.5 9.19391C1.5 9.19384 1.5 9.19376 1.5 9.19369C1.5 9.19361 1.5 9.19354 1.5 9.19346C1.5 9.19339 1.5 9.19332 1.5 9.19324C1.5 9.19317 1.5 9.1931 1.5 9.19303C1.5 9.19295 1.5 9.19288 1.5 9.19281C1.5 9.19274 1.5 9.19267 1.5 9.19259C1.5 9.19252 1.5 9.19245 1.5 9.19238C1.5 9.19231 1.5 9.19224 1.5 9.19217C1.5 9.1921 1.5 9.19203 1.5 9.19196C1.5 9.19189 1.5 9.19182 1.5 9.19175C1.5 9.19168 1.5 9.19162 1.5 9.19155C1.5 9.19148 1.5 9.19141 1.5 9.19134C1.5 9.19128 1.5 9.19121 1.5 9.19114C1.5 9.19107 1.5 9.19101 1.5 9.19094C1.5 9.19088 1.5 9.19081 1.5 9.19074C1.5 9.19068 1.5 9.19061 1.5 9.19055C1.5 9.19048 1.5 9.19042 1.5 9.19036C1.5 9.19029 1.5 9.19023 1.5 9.19016C1.5 9.1901 1.5 9.19004 1.5 9.18997C1.5 9.18991 1.5 9.18985 1.5 9.18979C1.5 9.18972 1.5 9.18966 1.5 9.1896C1.5 9.18954 1.5 9.18948 1.5 9.18942C1.5 9.18936 1.5 9.1893 1.5 9.18924C1.5 9.18918 1.5 9.18912 1.5 9.18906C1.5 9.189 1.5 9.18894 1.5 9.18888C1.5 9.18883 1.5 9.18877 1.5 9.18871C1.5 9.18865 1.5 9.1886 1.5 9.18854C1.5 9.18848 1.5 9.18843 1.5 9.18837C1.5 9.18831 1.5 9.18826 1.5 9.1882C1.5 9.18815 1.5 9.18809 1.5 9.18804C1.5 9.18798 1.5 9.18793 1.5 9.18788C1.5 9.18782 1.5 9.18777 1.5 9.18772C1.5 9.18766 1.5 9.18761 1.5 9.18756C1.5 9.18751 1.5 9.18746 1.5 9.18741C1.5 9.18736 1.5 9.1873 1.5 9.18725C1.5 9.1872 1.5 9.18715 1.5 9.18711C1.5 9.18706 1.5 9.18701 1.5 9.18696C1.5 9.18691 1.5 9.18686 1.5 9.18681C1.5 9.18677 1.5 9.18672 1.5 9.18667C1.5 9.18663 1.5 9.18658 1.5 9.18653C1.5 9.18649 1.5 9.18644 1.5 9.1864C1.5 9.18635 1.5 9.18631 1.5 9.18626C1.5 9.18622 1.5 9.18618 1.5 9.18613C1.5 9.18609 1.5 9.18605 1.5 9.18601C1.5 9.18596 1.5 9.18592 1.5 9.18588C1.5 9.18584 1.5 9.1858 1.5 9.18576C1.5 9.18572 1.5 9.18568 1.5 9.18564C1.5 9.1856 1.5 9.18556 1.5 9.18552C1.5 9.18548 1.5 9.18545 1.5 9.18541C1.5 9.18537 1.5 9.18533 1.5 9.1853C1.5 9.18526 1.5 9.18522 1.5 9.18519C1.5 9.18515 1.5 9.18512 1.5 9.18508C1.5 9.18505 1.5 9.18502 1.5 9.18498C1.5 9.18495 1.5 9.18492 1.5 9.18488C1.5 9.18485 1.5 9.18482 1.5 9.18479C1.5 9.18476 1.5 9.18473 1.5 9.1847C1.5 9.18466 1.5 9.18463 1.5 9.18461C1.5 9.18458 1.5 9.18455 1.5 9.18452C1.5 9.18449 1.5 9.18446 1.5 9.18443C1.5 9.18441 1.5 9.18438 1.5 9.18435C1.5 9.18433 1.5 9.1843 1.5 9.18428C1.5 9.18425 1.5 9.18423 1.5 9.1842C1.5 9.18418 1.5 9.18416 1.5 9.18413C1.5 9.18411 1.5 9.18409 1.5 9.18407C1.5 9.18404 1.5 9.18402 1.5 9.184C1.5 9.18398 1.5 9.18396 1.5 9.18394C1.5 9.18392 1.5 9.1839 1.5 9.18388C1.5 9.18386 1.5 9.18385 1.5 9.18383C1.5 9.18381 1.5 9.18379 1.5 9.18378C1.5 9.18376 1.5 9.18375 1.5 9.18373C1.5 9.18372 1.5 9.1837 1.5 9.18369C1.5 9.18367 1.5 9.18366 1.5 9.18365C1.5 9.18363 1.5 9.18362 1.5 9.18361C1.5 9.1836 1.5 9.18359 1.5 9.18358C1.5 9.18357 1.5 9.18356 1.5 9.18355C1.5 9.18354 1.5 9.18353 1.5 9.18352C1.5 9.18351 1.5 9.18351 1.5 9.1835C1.5 9.18349 1.5 9.18349 1.5 9.18348C1.5 9.18347 1.5 9.18347 1.5 9.18347C1.5 9.18346 1.5 9.18346 1.5 9.18345C1.5 9.18345 1.5 9.18345 1.5 9.18345C1.5 9.18344 1.5 9.18344 1.5 9.18344C1.5 9.18344 0 9.18344 -1.5 9.18344C-1.5 9.18344 -1.5 9.18344 -1.5 9.18344C-1.5 9.18345 -1.5 9.18345 -1.5 9.18345C-1.5 9.18345 -1.5 9.18346 -1.5 9.18346C-1.5 9.18347 -1.5 9.18347 -1.5 9.18348C-1.5 9.18348 -1.5 9.18349 -1.5 9.1835C-1.5 9.1835 -1.5 9.18351 -1.5 9.18352C-1.5 9.18353 -1.5 9.18354 -1.5 9.18355C-1.5 9.18356 -1.5 9.18357 -1.5 9.18358C-1.5 9.18359 -1.5 9.1836 -1.5 9.18361C-1.5 9.18362 -1.5 9.18364 -1.5 9.18365C-1.5 9.18366 -1.5 9.18368 -1.5 9.18369C-1.5 9.18371 -1.5 9.18372 -1.5 9.18374C-1.5 9.18375 -1.5 9.18377 -1.5 9.18379C-1.5 9.18381 -1.5 9.18383 -1.5 9.18384C-1.5 9.18386 -1.5 9.18388 -1.5 9.1839C-1.5 9.18392 -1.5 9.18394 -1.5 9.18397C-1.5 9.18399 -1.5 9.18401 -1.5 9.18403C-1.5 9.18406 -1.5 9.18408 -1.5 9.18411C-1.5 9.18413 -1.5 9.18416 -1.5 9.18418C-1.5 9.18421 -1.5 9.18423 -1.5 9.18426C-1.5 9.18429 -1.5 9.18432 -1.5 9.18435C-1.5 9.18437 -1.5 9.1844 -1.5 9.18443C-1.5 9.18446 -1.5 9.1845 -1.5 9.18453C-1.5 9.18456 -1.5 9.18459 -1.5 9.18462C-1.5 9.18466 -1.5 9.18469 -1.5 9.18473C-1.5 9.18476 -1.5 9.1848 -1.5 9.18483C-1.5 9.18487 -1.5 9.18491 -1.5 9.18494C-1.5 9.18498 -1.5 9.18502 -1.5 9.18506C-1.5 9.1851 -1.5 9.18514 -1.5 9.18518C-1.5 9.18522 -1.5 9.18526 -1.5 9.1853C-1.5 9.18534 -1.5 9.18539 -1.5 9.18543C-1.5 9.18548 -1.5 9.18552 -1.5 9.18556C-1.5 9.18561 -1.5 9.18566 -1.5 9.1857C-1.5 9.18575 -1.5 9.1858 -1.5 9.18585C-1.5 9.18589 -1.5 9.18594 -1.5 9.18599C-1.5 9.18604 -1.5 9.18609 -1.5 9.18614C-1.5 9.1862 -1.5 9.18625 -1.5 9.1863C-1.5 9.18635 -1.5 9.18641 -1.5 9.18646C-1.5 9.18652 -1.5 9.18657 -1.5 9.18663C-1.5 9.18668 -1.5 9.18674 -1.5 9.1868C-1.5 9.18686 -1.5 9.18691 -1.5 9.18697C-1.5 9.18703 -1.5 9.18709 -1.5 9.18715C-1.5 9.18721 -1.5 9.18728 -1.5 9.18734C-1.5 9.1874 -1.5 9.18747 -1.5 9.18753C-1.5 9.18759 -1.5 9.18766 -1.5 9.18772C-1.5 9.18779 -1.5 9.18786 -1.5 9.18792C-1.5 9.18799 -1.5 9.18806 -1.5 9.18813C-1.5 9.1882 -1.5 9.18827 -1.5 9.18834C-1.5 9.18841 -1.5 9.18848 -1.5 9.18855C-1.5 9.18863 -1.5 9.1887 -1.5 9.18877C-1.5 9.18885 -1.5 9.18892 -1.5 9.189C-1.5 9.18907 -1.5 9.18915 -1.5 9.18923C-1.5 9.18931 -1.5 9.18939 -1.5 9.18946C-1.5 9.18954 -1.5 9.18962 -1.5 9.1897C-1.5 9.18979 -1.5 9.18987 -1.5 9.18995C-1.5 9.19003 -1.5 9.19012 -1.5 9.1902C-1.5 9.19028 -1.5 9.19037 -1.5 9.19046C-1.5 9.19054 -1.5 9.19063 -1.5 9.19072C-1.5 9.19081 -1.5 9.19089 -1.5 9.19098C-1.5 9.19107 -1.5 9.19116 -1.5 9.19126C-1.5 9.19135 -1.5 9.19144 -1.5 9.19153C-1.5 9.19163 -1.5 9.19172 -1.5 9.19181C-1.5 9.19191 -1.5 9.19201 -1.5 9.1921C-1.5 9.1922 -1.5 9.1923 -1.5 9.1924C-1.5 9.19249 -1.5 9.19259 -1.5 9.19269C-1.5 9.19279 -1.5 9.19289 -1.5 9.193C-1.5 9.1931 -1.5 9.1932 -1.5 9.19331C-1.5 9.19341 -1.5 9.19352 -1.5 9.19362C-1.5 9.19373 -1.5 9.19383 -1.5 9.19394C-1.5 9.19405 -1.5 9.19416 -1.5 9.19427C-1.5 9.19438 -1.5 9.19449 -1.5 9.1946C-1.5 9.19471 -1.5 9.19482 -1.5 9.19494C-1.5 9.19505 -1.5 9.19516 -1.5 9.19528C-1.5 9.19539 -1.5 9.19551 -1.5 9.19563C-1.5 9.19574 -1.5 9.19586 -1.5 9.19598C-1.5 9.1961 -1.5 9.19622 -1.5 9.19634C-1.5 9.19646 -1.5 9.19658 -1.5 9.19671C-1.5 9.19683 -1.5 9.19695 -1.5 9.19708C-1.5 9.1972 -1.5 9.19733 -1.5 9.19745C-1.5 9.19758 -1.5 9.19771 -1.5 9.19784C-1.5 9.19797 -1.5 9.19809 -1.5 9.19823C-1.5 9.19836 -1.5 9.19849 -1.5 9.19862C-1.5 9.19875 -1.5 9.19888 -1.5 9.19902C-1.5 9.19915 -1.5 9.19929 -1.5 9.19943C-1.5 9.19956 -1.5 9.1997 -1.5 9.19984C-1.5 9.19998 -1.5 9.20012 -1.5 9.20026C-1.5 9.2004 -1.5 9.20054 -1.5 9.20068C-1.5 9.20082 -1.5 9.20097 -1.5 9.20111C-1.5 9.20125 -1.5 9.2014 -1.5 9.20155C-1.5 9.20169 -1.5 9.20184 -1.5 9.20199C-1.5 9.20214 -1.5 9.20229 -1.5 9.20244C-1.5 9.20259 -1.5 9.20274 -1.5 9.20289C-1.5 9.20304 -1.5 9.2032 -1.5 9.20335C-1.5 9.2035 -1.5 9.20366 -1.5 9.20382C-1.5 9.20397 -1.5 9.20413 -1.5 9.20429C-1.5 9.20445 -1.5 9.20461 -1.5 9.20477C-1.5 9.20493 -1.5 9.20509 -1.5 9.20525C-1.5 9.20542 -1.5 9.20558 -1.5 9.20574C-1.5 9.20591 -1.5 9.20608 -1.5 9.20624C-1.5 9.20641 -1.5 9.20658 -1.5 9.20675C-1.5 9.20691 -1.5 9.20709 -1.5 9.20726C-1.5 9.20743 -1.5 9.2076 -1.5 9.20777H1.5C1.5 9.2076 1.5 9.20743 1.5 9.20726C1.5 9.20709 1.5 9.20691 1.5 9.20675C1.5 9.20658 1.5 9.20641 1.5 9.20624C1.5 9.20608 1.5 9.20591 1.5 9.20574C1.5 9.20558 1.5 9.20542 1.5 9.20525C1.5 9.20509 1.5 9.20493 1.5 9.20477C1.5 9.20461 1.5 9.20445 1.5 9.20429C1.5 9.20413 1.5 9.20397 1.5 9.20382C1.5 9.20366 1.5 9.2035 1.5 9.20335C1.5 9.2032 1.5 9.20304 1.5 9.20289C1.5 9.20274 1.5 9.20259 1.5 9.20244C1.5 9.20229 1.5 9.20214 1.5 9.20199C1.5 9.20184 1.5 9.20169 1.5 9.20155C1.5 9.2014 1.5 9.20125 1.5 9.20111C1.5 9.20097 1.5 9.20082 1.5 9.20068C1.5 9.20054 1.5 9.2004 1.5 9.20026C1.5 9.20012 1.5 9.19998 1.5 9.19984C1.5 9.1997 1.5 9.19956 1.5 9.19943C1.5 9.19929 1.5 9.19915 1.5 9.19902C1.5 9.19888 1.5 9.19875 1.5 9.19862C1.5 9.19849 1.5 9.19836 1.5 9.19823C1.5 9.19809 1.5 9.19797 1.5 9.19784C1.5 9.19771 1.5 9.19758 1.5 9.19745C1.5 9.19733 1.5 9.1972 1.5 9.19708C1.5 9.19695 1.5 9.19683 1.5 9.19671C1.5 9.19658 1.5 9.19646 1.5 9.19634C1.5 9.19622 1.5 9.1961 1.5 9.19598C1.5 9.19586 1.5 9.19574 1.5 9.19563C1.5 9.19551 1.5 9.19539 1.5 9.19528C1.5 9.19516 1.5 9.19505 1.5 9.19494C1.5 9.19482 1.5 9.19471 1.5 9.1946C1.5 9.19449 1.5 9.19438 1.5 9.19427C1.5 9.19416 1.5 9.19405 1.5 9.19394C1.5 9.19383 1.5 9.19373 1.5 9.19362C1.5 9.19352 1.5 9.19341 1.5 9.19331C1.5 9.1932 1.5 9.1931 1.5 9.193C1.5 9.19289 1.5 9.19279 1.5 9.19269C1.5 9.19259 1.5 9.19249 1.5 9.1924C1.5 9.1923 1.5 9.1922 1.5 9.1921C1.5 9.19201 1.5 9.19191 1.5 9.19181C1.5 9.19172 1.5 9.19163 1.5 9.19153C1.5 9.19144 1.5 9.19135 1.5 9.19126C1.5 9.19116 1.5 9.19107 1.5 9.19098C1.5 9.19089 1.5 9.19081 1.5 9.19072C1.5 9.19063 1.5 9.19054 1.5 9.19046C1.5 9.19037 1.5 9.19028 1.5 9.1902C1.5 9.19012 1.5 9.19003 1.5 9.18995C1.5 9.18987 1.5 9.18979 1.5 9.1897C1.5 9.18962 1.5 9.18954 1.5 9.18946C1.5 9.18939 1.5 9.18931 1.5 9.18923C1.5 9.18915 1.5 9.18907 1.5 9.189C1.5 9.18892 1.5 9.18885 1.5 9.18877C1.5 9.1887 1.5 9.18863 1.5 9.18855C1.5 9.18848 1.5 9.18841 1.5 9.18834C1.5 9.18827 1.5 9.1882 1.5 9.18813C1.5 9.18806 1.5 9.18799 1.5 9.18792C1.5 9.18786 1.5 9.18779 1.5 9.18772C1.5 9.18766 1.5 9.18759 1.5 9.18753C1.5 9.18747 1.5 9.1874 1.5 9.18734C1.5 9.18728 1.5 9.18721 1.5 9.18715C1.5 9.18709 1.5 9.18703 1.5 9.18697C1.5 9.18691 1.5 9.18686 1.5 9.1868C1.5 9.18674 1.5 9.18668 1.5 9.18663C1.5 9.18657 1.5 9.18652 1.5 9.18646C1.5 9.18641 1.5 9.18635 1.5 9.1863C1.5 9.18625 1.5 9.1862 1.5 9.18614C1.5 9.18609 1.5 9.18604 1.5 9.18599C1.5 9.18594 1.5 9.18589 1.5 9.18585C1.5 9.1858 1.5 9.18575 1.5 9.1857C1.5 9.18566 1.5 9.18561 1.5 9.18556C1.5 9.18552 1.5 9.18548 1.5 9.18543C1.5 9.18539 1.5 9.18534 1.5 9.1853C1.5 9.18526 1.5 9.18522 1.5 9.18518C1.5 9.18514 1.5 9.1851 1.5 9.18506C1.5 9.18502 1.5 9.18498 1.5 9.18494C1.5 9.18491 1.5 9.18487 1.5 9.18483C1.5 9.1848 1.5 9.18476 1.5 9.18473C1.5 9.18469 1.5 9.18466 1.5 9.18462C1.5 9.18459 1.5 9.18456 1.5 9.18453C1.5 9.1845 1.5 9.18446 1.5 9.18443C1.5 9.1844 1.5 9.18437 1.5 9.18435C1.5 9.18432 1.5 9.18429 1.5 9.18426C1.5 9.18423 1.5 9.18421 1.5 9.18418C1.5 9.18416 1.5 9.18413 1.5 9.18411C1.5 9.18408 1.5 9.18406 1.5 9.18403C1.5 9.18401 1.5 9.18399 1.5 9.18397C1.5 9.18394 1.5 9.18392 1.5 9.1839C1.5 9.18388 1.5 9.18386 1.5 9.18384C1.5 9.18383 1.5 9.18381 1.5 9.18379C1.5 9.18377 1.5 9.18375 1.5 9.18374C1.5 9.18372 1.5 9.18371 1.5 9.18369C1.5 9.18368 1.5 9.18366 1.5 9.18365C1.5 9.18364 1.5 9.18362 1.5 9.18361C1.5 9.1836 1.5 9.18359 1.5 9.18358C1.5 9.18357 1.5 9.18356 1.5 9.18355C1.5 9.18354 1.5 9.18353 1.5 9.18352C1.5 9.18351 1.5 9.1835 1.5 9.1835C1.5 9.18349 1.5 9.18348 1.5 9.18348C1.5 9.18347 1.5 9.18347 1.5 9.18346C1.5 9.18346 1.5 9.18345 1.5 9.18345C1.5 9.18345 1.5 9.18345 1.5 9.18344C1.5 9.18344 1.5 9.18344 1.5 9.18344C0 9.18344 -1.5 9.18344 -1.5 9.18344C-1.5 9.18344 -1.5 9.18344 -1.5 9.18345C-1.5 9.18345 -1.5 9.18345 -1.5 9.18345C-1.5 9.18346 -1.5 9.18346 -1.5 9.18347C-1.5 9.18347 -1.5 9.18347 -1.5 9.18348C-1.5 9.18349 -1.5 9.18349 -1.5 9.1835C-1.5 9.18351 -1.5 9.18351 -1.5 9.18352C-1.5 9.18353 -1.5 9.18354 -1.5 9.18355C-1.5 9.18356 -1.5 9.18357 -1.5 9.18358C-1.5 9.18359 -1.5 9.1836 -1.5 9.18361C-1.5 9.18362 -1.5 9.18363 -1.5 9.18365C-1.5 9.18366 -1.5 9.18367 -1.5 9.18369C-1.5 9.1837 -1.5 9.18372 -1.5 9.18373C-1.5 9.18375 -1.5 9.18376 -1.5 9.18378C-1.5 9.18379 -1.5 9.18381 -1.5 9.18383C-1.5 9.18385 -1.5 9.18386 -1.5 9.18388C-1.5 9.1839 -1.5 9.18392 -1.5 9.18394C-1.5 9.18396 -1.5 9.18398 -1.5 9.184C-1.5 9.18402 -1.5 9.18404 -1.5 9.18407C-1.5 9.18409 -1.5 9.18411 -1.5 9.18413C-1.5 9.18416 -1.5 9.18418 -1.5 9.1842C-1.5 9.18423 -1.5 9.18425 -1.5 9.18428C-1.5 9.1843 -1.5 9.18433 -1.5 9.18435C-1.5 9.18438 -1.5 9.18441 -1.5 9.18443C-1.5 9.18446 -1.5 9.18449 -1.5 9.18452C-1.5 9.18455 -1.5 9.18458 -1.5 9.18461C-1.5 9.18463 -1.5 9.18466 -1.5 9.1847C-1.5 9.18473 -1.5 9.18476 -1.5 9.18479C-1.5 9.18482 -1.5 9.18485 -1.5 9.18488C-1.5 9.18492 -1.5 9.18495 -1.5 9.18498C-1.5 9.18502 -1.5 9.18505 -1.5 9.18508C-1.5 9.18512 -1.5 9.18515 -1.5 9.18519C-1.5 9.18522 -1.5 9.18526 -1.5 9.1853C-1.5 9.18533 -1.5 9.18537 -1.5 9.18541C-1.5 9.18545 -1.5 9.18548 -1.5 9.18552C-1.5 9.18556 -1.5 9.1856 -1.5 9.18564C-1.5 9.18568 -1.5 9.18572 -1.5 9.18576C-1.5 9.1858 -1.5 9.18584 -1.5 9.18588C-1.5 9.18592 -1.5 9.18596 -1.5 9.18601C-1.5 9.18605 -1.5 9.18609 -1.5 9.18613C-1.5 9.18618 -1.5 9.18622 -1.5 9.18626C-1.5 9.18631 -1.5 9.18635 -1.5 9.1864C-1.5 9.18644 -1.5 9.18649 -1.5 9.18653C-1.5 9.18658 -1.5 9.18663 -1.5 9.18667C-1.5 9.18672 -1.5 9.18677 -1.5 9.18681C-1.5 9.18686 -1.5 9.18691 -1.5 9.18696C-1.5 9.18701 -1.5 9.18706 -1.5 9.18711C-1.5 9.18715 -1.5 9.1872 -1.5 9.18725C-1.5 9.1873 -1.5 9.18736 -1.5 9.18741C-1.5 9.18746 -1.5 9.18751 -1.5 9.18756C-1.5 9.18761 -1.5 9.18766 -1.5 9.18772C-1.5 9.18777 -1.5 9.18782 -1.5 9.18788C-1.5 9.18793 -1.5 9.18798 -1.5 9.18804C-1.5 9.18809 -1.5 9.18815 -1.5 9.1882C-1.5 9.18826 -1.5 9.18831 -1.5 9.18837C-1.5 9.18843 -1.5 9.18848 -1.5 9.18854C-1.5 9.1886 -1.5 9.18865 -1.5 9.18871C-1.5 9.18877 -1.5 9.18883 -1.5 9.18888C-1.5 9.18894 -1.5 9.189 -1.5 9.18906C-1.5 9.18912 -1.5 9.18918 -1.5 9.18924C-1.5 9.1893 -1.5 9.18936 -1.5 9.18942C-1.5 9.18948 -1.5 9.18954 -1.5 9.1896C-1.5 9.18966 -1.5 9.18972 -1.5 9.18979C-1.5 9.18985 -1.5 9.18991 -1.5 9.18997C-1.5 9.19004 -1.5 9.1901 -1.5 9.19016C-1.5 9.19023 -1.5 9.19029 -1.5 9.19036C-1.5 9.19042 -1.5 9.19048 -1.5 9.19055C-1.5 9.19061 -1.5 9.19068 -1.5 9.19074C-1.5 9.19081 -1.5 9.19088 -1.5 9.19094C-1.5 9.19101 -1.5 9.19107 -1.5 9.19114C-1.5 9.19121 -1.5 9.19128 -1.5 9.19134C-1.5 9.19141 -1.5 9.19148 -1.5 9.19155C-1.5 9.19162 -1.5 9.19168 -1.5 9.19175C-1.5 9.19182 -1.5 9.19189 -1.5 9.19196C-1.5 9.19203 -1.5 9.1921 -1.5 9.19217C-1.5 9.19224 -1.5 9.19231 -1.5 9.19238C-1.5 9.19245 -1.5 9.19252 -1.5 9.19259C-1.5 9.19267 -1.5 9.19274 -1.5 9.19281C-1.5 9.19288 -1.5 9.19295 -1.5 9.19303C-1.5 9.1931 -1.5 9.19317 -1.5 9.19324C-1.5 9.19332 -1.5 9.19339 -1.5 9.19346C-1.5 9.19354 -1.5 9.19361 -1.5 9.19369C-1.5 9.19376 -1.5 9.19384 -1.5 9.19391C-1.5 9.19398 -1.5 9.19406 -1.5 9.19414C-1.5 9.19421 -1.5 9.19429 -1.5 9.19436C-1.5 9.19444 -1.5 9.19451 -1.5 9.19459C-1.5 9.19467 -1.5 9.19474 -1.5 9.19482C-1.5 9.1949 -1.5 9.19497 -1.5 9.19505C-1.5 9.19513 -1.5 9.19521 -1.5 9.19529C-1.5 9.19536 -1.5 9.19544 -1.5 9.19552C-1.5 9.1956 -1.5 9.19568 -1.5 9.19576C-1.5 9.19584 -1.5 9.19592 -1.5 9.196C-1.5 9.19607 -1.5 9.19615 -1.5 9.19623C-1.5 9.19631 -1.5 9.19639 -1.5 9.19648C-1.5 9.19656 -1.5 9.19664 -1.5 9.19672C-1.5 9.1968 -1.5 9.19688 -1.5 9.19696C-1.5 9.19704 -1.5 9.19712 -1.5 9.1972C-1.5 9.19729 -1.5 9.19737 -1.5 9.19745C-1.5 9.19753 -1.5 9.19762 -1.5 9.1977C-1.5 9.19778 -1.5 9.19786 -1.5 9.19795C-1.5 9.19803 -1.5 9.19811 -1.5 9.1982C-1.5 9.19828 -1.5 9.19836 -1.5 9.19845C-1.5 9.19853 -1.5 9.19862 -1.5 9.1987C-1.5 9.19878 -1.5 9.19887 -1.5 9.19895C-1.5 9.19904 -1.5 9.19912 -1.5 9.19921C-1.5 9.19929 -1.5 9.19938 -1.5 9.19946C-1.5 9.19955 -1.5 9.19963 -1.5 9.19972C-1.5 9.1998 -1.5 9.19989 -1.5 9.19998C-1.5 9.20006 -1.5 9.20015 -1.5 9.20024C-1.5 9.20032 -1.5 9.20041 -1.5 9.20049C-1.5 9.20058 -1.5 9.20067 -1.5 9.20076C-1.5 9.20084 -1.5 9.20093 -1.5 9.20102C-1.5 9.2011 -1.5 9.20119 -1.5 9.20128C-1.5 9.20137 -1.5 9.20146 -1.5 9.20154C-1.5 9.20163 -1.5 9.20172 -1.5 9.20181C-1.5 9.2019 -1.5 9.20198 -1.5 9.20207C-1.5 9.20216 -1.5 9.20225 -1.5 9.20234C-1.5 9.20243 -1.5 9.20252 -1.5 9.20261C-1.5 9.20269 -1.5 9.20278 -1.5 9.20287C-1.5 9.20296 -1.5 9.20305 -1.5 9.20314C-1.5 9.20323 -1.5 9.20332 -1.5 9.20341C-1.5 9.2035 -1.5 9.20359 -1.5 9.20368C-1.5 9.20377 -1.5 9.20386 -1.5 9.20395C-1.5 9.20404 -1.5 9.20413 -1.5 9.20422C-1.5 9.20431 -1.5 9.2044 -1.5 9.20449C-1.5 9.20458 -1.5 9.20467 -1.5 9.20477C-1.5 9.20486 -1.5 9.20495 -1.5 9.20504C-1.5 9.20513 -1.5 9.20522 -1.5 9.20531C-1.5 9.2054 -1.5 9.20549 -1.5 9.20559C-1.5 9.20568 -1.5 9.20577 -1.5 9.20586C-1.5 9.20595 -1.5 9.20604 -1.5 9.20613C-1.5 9.20623 -1.5 9.20632 -1.5 9.20641C-1.5 9.2065 -1.5 9.20659 -1.5 9.20669C-1.5 9.20678 -1.5 9.20687 -1.5 9.20696C-1.5 9.20705 -1.5 9.20715 -1.5 9.20724C-1.5 9.20733 -1.5 9.20742 -1.5 9.20751C-1.5 9.20761 -1.5 9.2077 -1.5 9.20779C-1.5 9.20788 -1.5 9.20798 -1.5 9.20807C-1.5 9.20816 -1.5 9.20825 -1.5 9.20835C-1.5 9.20844 -1.5 9.20853 -1.5 9.20862C-1.5 9.20872 -1.5 9.20881 -1.5 9.2089C-1.5 9.209 -1.5 9.20909 -1.5 9.20918C-1.5 9.20927 -1.5 9.20937 -1.5 9.20946C-1.5 9.20955 -1.5 9.20965 -1.5 9.20974C-1.5 9.20983 -1.5 9.20992 -1.5 9.21002C-1.5 9.21011 -1.5 9.2102 -1.5 9.2103C-1.5 9.21039 -1.5 9.21048 -1.5 9.21057C-1.5 9.21067 -1.5 9.21076 -1.5 9.21085C-1.5 9.21095 -1.5 9.21104 -1.5 9.21113C-1.5 9.21122 -1.5 9.21132 -1.5 9.21141C-1.5 9.2115 -1.5 9.2116 -1.5 9.21169C-1.5 9.21178 -1.5 9.21188 -1.5 9.21197C-1.5 9.21206 -1.5 9.21215 -1.5 9.21225C-1.5 9.21234 -1.5 9.21243 -1.5 9.21253C-1.5 9.21262 -1.5 9.21271 -1.5 9.2128C-1.5 9.2129 -1.5 9.21299 -1.5 9.21308C-1.5 9.21317 -1.5 9.21327 -1.5 9.21336C-1.5 9.21345 -1.5 9.21355 -1.5 9.21364C-1.5 9.21373 -1.5 9.21382 -1.5 9.21392C-1.5 9.21401 -1.5 9.2141 -1.5 9.21419C-1.5 9.21428 -1.5 9.21438 -1.5 9.21447C-1.5 9.21456 -1.5 9.21465 -1.5 9.21475C-1.5 9.21484 -1.5 9.21493 -1.5 9.21502C-1.5 9.21511 -1.5 9.21521 -1.5 9.2153C-1.5 9.21539 -1.5 9.21548 -1.5 9.21557C-1.5 9.21567 -1.5 9.21576 -1.5 9.21585C-1.5 9.21594 -1.5 9.21603 -1.5 9.21612C-1.5 9.21622 -1.5 9.21631 -1.5 9.2164C-1.5 9.21649 -1.5 9.21658 -1.5 9.21667C-1.5 9.21676 -1.5 9.21685 -1.5 9.21694C-1.5 9.21704 -1.5 9.21713 -1.5 9.21722C-1.5 9.21731 -1.5 9.2174 -1.5 9.21749C-1.5 9.21758 -1.5 9.21767 -1.5 9.21776C-1.5 9.21785 -1.5 9.21794 -1.5 9.21803C-1.5 9.21812 -1.5 9.21821 -1.5 9.2183C-1.5 9.21839 -1.5 9.21848 -1.5 9.21857C-1.5 9.21866 -1.5 9.21875 -1.5 9.21884C-1.5 9.21893 -1.5 9.21902 -1.5 9.21911C-1.5 9.2192 -1.5 9.21929 -1.5 9.21938C-1.5 9.21946 -1.5 9.21955 -1.5 9.21964C-1.5 9.21973 -1.5 9.21982 -1.5 9.21991C-1.5 9.22 -1.5 9.22008 -1.5 9.22017C-1.5 9.22026 -1.5 9.22035 -1.5 9.22044C-1.5 9.22052 -1.5 9.22061 -1.5 9.2207C-1.5 9.22079 -1.5 9.22087 -1.5 9.22096C-1.5 9.22105 -1.5 9.22114 -1.5 9.22122C-1.5 9.22131 -1.5 9.2214 -1.5 9.22148C-1.5 9.22157 -1.5 9.22166 -1.5 9.22174C-1.5 9.22183 -1.5 9.22192 -1.5 9.222C-1.5 9.22209 -1.5 9.22217 -1.5 9.22226C-1.5 9.22234 -1.5 9.22243 -1.5 9.22251C-1.5 9.2226 -1.5 9.22268 -1.5 9.22277C-1.5 9.22285 -1.5 9.22294 -1.5 9.22302C-1.5 9.22311 -1.5 9.22319 -1.5 9.22328C-1.5 9.22336 -1.5 9.22344 -1.5 9.22353C-1.5 9.22361 -1.5 9.22369 -1.5 9.22378C-1.5 9.22386 -1.5 9.22394 -1.5 9.22403C-1.5 9.22411 -1.5 9.22419 -1.5 9.22428C-1.5 9.22436 -1.5 9.22444 -1.5 9.22452C-1.5 9.2246 -1.5 9.22469 -1.5 9.22477C-1.5 9.22485 -1.5 9.22493 -1.5 9.22501C-1.5 9.22509 -1.5 9.22517 -1.5 9.22526C-1.5 9.22534 -1.5 9.22542 -1.5 9.2255C-1.5 9.22558 -1.5 9.22566 -1.5 9.22574C-1.5 9.22582 -1.5 9.2259 -1.5 9.22598C-1.5 9.22605 -1.5 9.22613 -1.5 9.22621C-1.5 9.22629 -1.5 9.22637 -1.5 9.22645C-1.5 9.22653 -1.5 9.2266 -1.5 9.22668C-1.5 9.22676 -1.5 9.22684 -1.5 9.22691C-1.5 9.22699 -1.5 9.22707 -1.5 9.22715C-1.5 9.22722 -1.5 9.2273 -1.5 9.22738C-1.5 9.22745 -1.5 9.22753 -1.5 9.2276C-1.5 9.22768 -1.5 9.22775 -1.5 9.22783C-1.5 9.22791 -1.5 9.22798 -1.5 9.22805C-1.5 9.22813 -1.5 9.2282 -1.5 9.22828C-1.5 9.22835 -1.5 9.22843 -1.5 9.2285C-1.5 9.22857 -1.5 9.22865 -1.5 9.22872C-1.5 9.22879 -1.5 9.22886 -1.5 9.22894C-1.5 9.22901 -1.5 9.22908 -1.5 9.22915C-1.5 9.22922 -1.5 9.2293 -1.5 9.22937C-1.5 9.22944 -1.5 9.22951 -1.5 9.22958C-1.5 9.22965 -1.5 9.22972 -1.5 9.22979C-1.5 9.22986 -1.5 9.22993 -1.5 9.23C-1.5 9.23007 -1.5 9.23014 -1.5 9.23021C-1.5 9.23027 -1.5 9.23034 -1.5 9.23041C-1.5 9.23048 -1.5 9.23055 -1.5 9.23061C-1.5 9.23068 -1.5 9.23075 -1.5 9.23081C-1.5 9.23088 -1.5 9.23095 -1.5 9.23101C-1.5 9.23108 -1.5 9.23114 -1.5 9.23121C-1.5 9.23128 -1.5 9.23134 -1.5 9.2314C-1.5 9.23147 -1.5 9.23153 -1.5 9.2316C-1.5 9.23166 -1.5 9.23172 -1.5 9.23179C-1.5 9.23185 -1.5 9.23191 -1.5 9.23198C-1.5 9.23204 -1.5 9.2321 -1.5 9.23216C-1.5 9.23222 -1.5 9.23229 -1.5 9.23235C-1.5 9.23241 -1.5 9.23247 -1.5 9.23253C-1.5 9.23259 -1.5 9.23265 -1.5 9.23271C-1.5 9.23277 -1.5 9.23283 -1.5 9.23289C-1.5 9.23295 -1.5 9.233 -1.5 9.23306C-1.5 9.23312 -1.5 9.23318 -1.5 9.23323C-1.5 9.23329 -1.5 9.23335 -1.5 9.23341C-1.5 9.23346 -1.5 9.23352 -1.5 9.23357C-1.5 9.23363 -1.5 9.23368 -1.5 9.23374C-1.5 9.23379 -1.5 9.23385 -1.5 9.2339C-1.5 9.23396 -1.5 9.23401 -1.5 9.23406C-1.5 9.23412 -1.5 9.23417 -1.5 9.23422C-1.5 9.23427 -1.5 9.23433 -1.5 9.23438C-1.5 9.23443 -1.5 9.23448 -1.5 9.23453C-1.5 9.23458 -1.5 9.23463 -1.5 9.23468C-1.5 9.23473 -1.5 9.23478 -1.5 9.23483C-1.5 9.23488 -1.5 9.23493 -1.5 9.23498C-1.5 9.23502 -1.5 9.23507 -1.5 9.23512C-1.5 9.23517 -1.5 9.23521 -1.5 9.23526C-1.5 9.23531 -1.5 9.23535 -1.5 9.2354C-1.5 9.23544 -1.5 9.23549 -1.5 9.23553C-1.5 9.23558 -1.5 9.23562 -1.5 9.23567C-1.5 9.23571 -1.5 9.23575 -1.5 9.2358C-1.5 9.23584 -1.5 9.23588 -1.5 9.23592C-1.5 9.23596 -1.5 9.236 -1.5 9.23605C-1.5 9.23609 -1.5 9.23613 -1.5 9.23617C-1.5 9.23621 -1.5 9.23625 -1.5 9.23629C-1.5 9.23632 -1.5 9.23636 -1.5 9.2364C-1.5 9.23644 -1.5 9.23648 -1.5 9.23651C-1.5 9.23655 -1.5 9.23659 -1.5 9.23662C-1.5 9.23666 -1.5 9.2367 -1.5 9.23673C-1.5 9.23677 -1.5 9.2368 -1.5 9.23683C-1.5 9.23687 -1.5 9.2369 -1.5 9.23693C-1.5 9.23697 -1.5 9.237 -1.5 9.23703C-1.5 9.23707 -1.5 9.2371 -1.5 9.23713C-1.5 9.23716 -1.5 9.23719 -1.5 9.23722C-1.5 9.23725 -1.5 9.23728 -1.5 9.23731C-1.5 9.23734 -1.5 9.23736 -1.5 9.23739C-1.5 9.23742 -1.5 9.23745 -1.5 9.23748C-1.5 9.2375 -1.5 9.23753 -1.5 9.23755C-1.5 9.23758 -1.5 9.23761 -1.5 9.23763C-1.5 9.23766 -1.5 9.23768 -1.5 9.2377C-1.5 9.23773 -1.5 9.23775 -1.5 9.23777C-1.5 9.23779 -1.5 9.23782 -1.5 9.23784C-1.5 9.23786 -1.5 9.23788 -1.5 9.2379C-1.5 9.23792 -1.5 9.23794 -1.5 9.23796C-1.5 9.23798 -1.5 9.238 -1.5 9.23802C-1.5 9.23804 -1.5 9.23805 -1.5 9.23807C-1.5 9.23809 -1.5 9.2381 -1.5 9.23812C-1.5 9.23814 -1.5 9.23815 -1.5 9.23816C-1.5 9.23818 -1.5 9.23819 -1.5 9.23821C-1.5 9.23822 -1.5 9.23823 -1.5 9.23825C-1.5 9.23826 -1.5 9.23827 -1.5 9.23828C-1.5 9.23829 -1.5 9.2383 -1.5 9.23831C-1.5 9.23832 -1.5 9.23833 -1.5 9.23834C-1.5 9.23835 -1.5 9.23836 -1.5 9.23837C-1.5 9.23837 -1.5 9.23838 -1.5 9.23839C-1.5 9.23839 -1.5 9.2384 -1.5 9.23841C-1.5 9.23841 -1.5 9.23842 -1.5 9.23842C-1.5 9.23842 -1.5 9.23843 -1.5 9.23843C-1.5 9.23843 -1.5 9.23843 -1.5 9.23844C-1.5 9.23844 -1.5 9.23844 -1.5 9.23844C0 9.23844 1.5 9.23844 1.5 9.23844C1.5 9.23844 1.5 9.23844 1.5 9.23843C1.5 9.23843 1.5 9.23843 1.5 9.23842C1.5 9.23842 1.5 9.23842 1.5 9.23841C1.5 9.23841 1.5 9.2384 1.5 9.2384C1.5 9.23839 1.5 9.23838 1.5 9.23838C1.5 9.23837 1.5 9.23836 1.5 9.23835C1.5 9.23834 1.5 9.23833 1.5 9.23832C1.5 9.23831 1.5 9.2383 1.5 9.23829C1.5 9.23828 1.5 9.23827 1.5 9.23825C1.5 9.23824 1.5 9.23823 1.5 9.23821C1.5 9.2382 1.5 9.23819 1.5 9.23817C1.5 9.23816 1.5 9.23814 1.5 9.23812C1.5 9.23811 1.5 9.23809 1.5 9.23807C1.5 9.23805 1.5 9.23803 1.5 9.23801C1.5 9.23799 1.5 9.23797 1.5 9.23795C1.5 9.23793 1.5 9.23791 1.5 9.23789C1.5 9.23787 1.5 9.23784 1.5 9.23782C1.5 9.2378 1.5 9.23777 1.5 9.23775C1.5 9.23772 1.5 9.23769 1.5 9.23767C1.5 9.23764 1.5 9.23761 1.5 9.23759C1.5 9.23756 1.5 9.23753 1.5 9.2375C1.5 9.23747 1.5 9.23744 1.5 9.23741C1.5 9.23738 1.5 9.23735 1.5 9.23732C1.5 9.23728 1.5 9.23725 1.5 9.23722C1.5 9.23718 1.5 9.23715 1.5 9.23711C1.5 9.23708 1.5 9.23704 1.5 9.23701C1.5 9.23697 1.5 9.23693 1.5 9.23689C1.5 9.23685 1.5 9.23682 1.5 9.23678C1.5 9.23674 1.5 9.2367 1.5 9.23666C1.5 9.23661 1.5 9.23657 1.5 9.23653C1.5 9.23649 1.5 9.23644 1.5 9.2364C1.5 9.23635 1.5 9.23631 1.5 9.23626C1.5 9.23622 1.5 9.23617 1.5 9.23612C1.5 9.23608 1.5 9.23603 1.5 9.23598C1.5 9.23593 1.5 9.23588 1.5 9.23583C1.5 9.23578 1.5 9.23573 1.5 9.23568C1.5 9.23563 1.5 9.23557 1.5 9.23552C1.5 9.23547 1.5 9.23541 1.5 9.23536C1.5 9.2353 1.5 9.23524 1.5 9.23519C1.5 9.23513 1.5 9.23507 1.5 9.23502C1.5 9.23496 1.5 9.2349 1.5 9.23484C1.5 9.23478 1.5 9.23472 1.5 9.23466C1.5 9.23459 1.5 9.23453 1.5 9.23447C1.5 9.23441 1.5 9.23434 1.5 9.23428C1.5 9.23421 1.5 9.23415 1.5 9.23408C1.5 9.23401 1.5 9.23395 1.5 9.23388C1.5 9.23381 1.5 9.23374 1.5 9.23367C1.5 9.2336 1.5 9.23353 1.5 9.23346C1.5 9.23339 1.5 9.23332 1.5 9.23324C1.5 9.23317 1.5 9.2331 1.5 9.23302C1.5 9.23295 1.5 9.23287 1.5 9.23279C1.5 9.23272 1.5 9.23264 1.5 9.23256C1.5 9.23248 1.5 9.23241 1.5 9.23233C1.5 9.23225 1.5 9.23216 1.5 9.23208C1.5 9.232 1.5 9.23192 1.5 9.23184C1.5 9.23175 1.5 9.23167 1.5 9.23158C1.5 9.2315 1.5 9.23141 1.5 9.23133C1.5 9.23124 1.5 9.23115 1.5 9.23106C1.5 9.23097 1.5 9.23088 1.5 9.23079C1.5 9.2307 1.5 9.23061 1.5 9.23052C1.5 9.23043 1.5 9.23034 1.5 9.23024C1.5 9.23015 1.5 9.23005 1.5 9.22996C1.5 9.22986 1.5 9.22976 1.5 9.22967C1.5 9.22957 1.5 9.22947 1.5 9.22937C1.5 9.22927 1.5 9.22917 1.5 9.22907C1.5 9.22897 1.5 9.22887 1.5 9.22877C1.5 9.22866 1.5 9.22856 1.5 9.22845C1.5 9.22835 1.5 9.22824 1.5 9.22814C1.5 9.22803 1.5 9.22792 1.5 9.22782C1.5 9.22771 1.5 9.2276 1.5 9.22749C1.5 9.22738 1.5 9.22727 1.5 9.22715C1.5 9.22704 1.5 9.22693 1.5 9.22682C1.5 9.2267 1.5 9.22659 1.5 9.22647C1.5 9.22635 1.5 9.22624 1.5 9.22612C1.5 9.226 1.5 9.22588 1.5 9.22576C1.5 9.22564 1.5 9.22552 1.5 9.2254C1.5 9.22528 1.5 9.22516 1.5 9.22503C1.5 9.22491 1.5 9.22479 1.5 9.22466C1.5 9.22454 1.5 9.22441 1.5 9.22428C1.5 9.22415 1.5 9.22403 1.5 9.2239C1.5 9.22377 1.5 9.22364 1.5 9.22351C1.5 9.22338 1.5 9.22324 1.5 9.22311C1.5 9.22298 1.5 9.22284 1.5 9.22271C1.5 9.22257 1.5 9.22244 1.5 9.2223C1.5 9.22216 1.5 9.22202 1.5 9.22188C1.5 9.22175 1.5 9.22161 1.5 9.22146C1.5 9.22132 1.5 9.22118 1.5 9.22104C1.5 9.22089 1.5 9.22075 1.5 9.22061C1.5 9.22046 1.5 9.22031 1.5 9.22017C1.5 9.22002 1.5 9.21987 1.5 9.21972C1.5 9.21957 1.5 9.21942 1.5 9.21927C1.5 9.21912 1.5 9.21897 1.5 9.21882C1.5 9.21866 1.5 9.21851 1.5 9.21835C1.5 9.2182 1.5 9.21804 1.5 9.21789C1.5 9.21773 1.5 9.21757 1.5 9.21741C1.5 9.21725 1.5 9.21709 1.5 9.21693C1.5 9.21677 1.5 9.21661 1.5 9.21644C1.5 9.21628 1.5 9.21611 1.5 9.21595C1.5 9.21578 1.5 9.21562 1.5 9.21545C1.5 9.21528 1.5 9.21511 1.5 9.21494C1.5 9.21477 1.5 9.2146 1.5 9.21443C1.5 9.21426 1.5 9.21408 1.5 9.21391C1.5 9.21374 1.5 9.21356 1.5 9.21338C1.5 9.21321 1.5 9.21303 1.5 9.21285C1.5 9.21267 1.5 9.21249 1.5 9.21231C1.5 9.21213 1.5 9.21195 1.5 9.21177C1.5 9.21159 1.5 9.2114 1.5 9.21122C1.5 9.21103 1.5 9.21085 1.5 9.21066C1.5 9.21047 1.5 9.21029 1.5 9.2101C1.5 9.20991 1.5 9.20972 1.5 9.20953C1.5 9.20933 1.5 9.20914 1.5 9.20895C1.5 9.20875 1.5 9.20856 1.5 9.20836C1.5 9.20817 1.5 9.20797 1.5 9.20777H-1.5ZM-1.5 9.20777C-1.5 9.20798 -1.5 9.20819 -1.5 9.2084C-1.5 9.20861 -1.5 9.20882 -1.5 9.20902C-1.5 9.20923 -1.5 9.20943 -1.5 9.20963C-1.5 9.20984 -1.5 9.21004 -1.5 9.21024C-1.5 9.21044 -1.5 9.21064 -1.5 9.21084C-1.5 9.21103 -1.5 9.21123 -1.5 9.21143C-1.5 9.21162 -1.5 9.21182 -1.5 9.21201C-1.5 9.2122 -1.5 9.21239 -1.5 9.21258C-1.5 9.21277 -1.5 9.21296 -1.5 9.21315C-1.5 9.21334 -1.5 9.21353 -1.5 9.21371C-1.5 9.2139 -1.5 9.21408 -1.5 9.21427C-1.5 9.21445 -1.5 9.21463 -1.5 9.21481C-1.5 9.21499 -1.5 9.21517 -1.5 9.21535C-1.5 9.21553 -1.5 9.21571 -1.5 9.21588C-1.5 9.21606 -1.5 9.21624 -1.5 9.21641C-1.5 9.21658 -1.5 9.21676 -1.5 9.21693C-1.5 9.2171 -1.5 9.21727 -1.5 9.21744C-1.5 9.21761 -1.5 9.21777 -1.5 9.21794C-1.5 9.21811 -1.5 9.21827 -1.5 9.21844C-1.5 9.2186 -1.5 9.21877 -1.5 9.21893C-1.5 9.21909 -1.5 9.21925 -1.5 9.21941C-1.5 9.21957 -1.5 9.21973 -1.5 9.21989C-1.5 9.22004 -1.5 9.2202 -1.5 9.22036C-1.5 9.22051 -1.5 9.22066 -1.5 9.22082C-1.5 9.22097 -1.5 9.22112 -1.5 9.22127C-1.5 9.22142 -1.5 9.22157 -1.5 9.22172C-1.5 9.22187 -1.5 9.22202 -1.5 9.22216C-1.5 9.22231 -1.5 9.22246 -1.5 9.2226C-1.5 9.22274 -1.5 9.22289 -1.5 9.22303C-1.5 9.22317 -1.5 9.22331 -1.5 9.22345C-1.5 9.22359 -1.5 9.22373 -1.5 9.22386C-1.5 9.224 -1.5 9.22414 -1.5 9.22427C-1.5 9.22441 -1.5 9.22454 -1.5 9.22467C-1.5 9.22481 -1.5 9.22494 -1.5 9.22507C-1.5 9.2252 -1.5 9.22533 -1.5 9.22546C-1.5 9.22559 -1.5 9.22571 -1.5 9.22584C-1.5 9.22597 -1.5 9.22609 -1.5 9.22622C-1.5 9.22634 -1.5 9.22646 -1.5 9.22659C-1.5 9.22671 -1.5 9.22683 -1.5 9.22695C-1.5 9.22707 -1.5 9.22719 -1.5 9.2273C-1.5 9.22742 -1.5 9.22754 -1.5 9.22765C-1.5 9.22777 -1.5 9.22788 -1.5 9.228C-1.5 9.22811 -1.5 9.22822 -1.5 9.22834C-1.5 9.22845 -1.5 9.22856 -1.5 9.22867C-1.5 9.22878 -1.5 9.22888 -1.5 9.22899C-1.5 9.2291 -1.5 9.22921 -1.5 9.22931C-1.5 9.22942 -1.5 9.22952 -1.5 9.22962C-1.5 9.22973 -1.5 9.22983 -1.5 9.22993C-1.5 9.23003 -1.5 9.23013 -1.5 9.23023C-1.5 9.23033 -1.5 9.23043 -1.5 9.23053C-1.5 9.23062 -1.5 9.23072 -1.5 9.23081C-1.5 9.23091 -1.5 9.231 -1.5 9.2311C-1.5 9.23119 -1.5 9.23128 -1.5 9.23137C-1.5 9.23146 -1.5 9.23155 -1.5 9.23164C-1.5 9.23173 -1.5 9.23182 -1.5 9.23191C-1.5 9.23199 -1.5 9.23208 -1.5 9.23216C-1.5 9.23225 -1.5 9.23233 -1.5 9.23242C-1.5 9.2325 -1.5 9.23258 -1.5 9.23266C-1.5 9.23275 -1.5 9.23283 -1.5 9.2329C-1.5 9.23298 -1.5 9.23306 -1.5 9.23314C-1.5 9.23322 -1.5 9.23329 -1.5 9.23337C-1.5 9.23344 -1.5 9.23352 -1.5 9.23359C-1.5 9.23367 -1.5 9.23374 -1.5 9.23381C-1.5 9.23388 -1.5 9.23395 -1.5 9.23402C-1.5 9.23409 -1.5 9.23416 -1.5 9.23423C-1.5 9.2343 -1.5 9.23436 -1.5 9.23443C-1.5 9.2345 -1.5 9.23456 -1.5 9.23463C-1.5 9.23469 -1.5 9.23475 -1.5 9.23482C-1.5 9.23488 -1.5 9.23494 -1.5 9.235C-1.5 9.23506 -1.5 9.23512 -1.5 9.23518C-1.5 9.23524 -1.5 9.2353 -1.5 9.23535C-1.5 9.23541 -1.5 9.23547 -1.5 9.23552C-1.5 9.23558 -1.5 9.23563 -1.5 9.23568C-1.5 9.23574 -1.5 9.23579 -1.5 9.23584C-1.5 9.23589 -1.5 9.23594 -1.5 9.23599C-1.5 9.23604 -1.5 9.23609 -1.5 9.23614C-1.5 9.23619 -1.5 9.23623 -1.5 9.23628C-1.5 9.23633 -1.5 9.23637 -1.5 9.23642C-1.5 9.23646 -1.5 9.2365 -1.5 9.23655C-1.5 9.23659 -1.5 9.23663 -1.5 9.23667C-1.5 9.23671 -1.5 9.23675 -1.5 9.23679C-1.5 9.23683 -1.5 9.23687 -1.5 9.23691C-1.5 9.23695 -1.5 9.23698 -1.5 9.23702C-1.5 9.23705 -1.5 9.23709 -1.5 9.23712C-1.5 9.23716 -1.5 9.23719 -1.5 9.23722C-1.5 9.23726 -1.5 9.23729 -1.5 9.23732C-1.5 9.23735 -1.5 9.23738 -1.5 9.23741C-1.5 9.23744 -1.5 9.23747 -1.5 9.23749C-1.5 9.23752 -1.5 9.23755 -1.5 9.23757C-1.5 9.2376 -1.5 9.23763 -1.5 9.23765C-1.5 9.23767 -1.5 9.2377 -1.5 9.23772C-1.5 9.23774 -1.5 9.23776 -1.5 9.23779C-1.5 9.23781 -1.5 9.23783 -1.5 9.23785C-1.5 9.23787 -1.5 9.23788 -1.5 9.2379C-1.5 9.23792 -1.5 9.23794 -1.5 9.23795C-1.5 9.23797 -1.5 9.23799 -1.5 9.238C-1.5 9.23802 -1.5 9.23803 -1.5 9.23804C-1.5 9.23806 -1.5 9.23807 -1.5 9.23808C-1.5 9.23809 -1.5 9.2381 -1.5 9.23811C-1.5 9.23812 -1.5 9.23813 -1.5 9.23814C-1.5 9.23815 -1.5 9.23816 -1.5 9.23816C-1.5 9.23817 -1.5 9.23818 -1.5 9.23818C-1.5 9.23819 -1.5 9.23819 -1.5 9.2382C-1.5 9.2382 -1.5 9.2382 -1.5 9.23821C-1.5 9.23821 -1.5 9.23821 -1.5 9.23821C-1.5 9.23821 0 9.23821 1.5 9.23821C1.5 9.23821 1.5 9.23821 1.5 9.23821C1.5 9.23821 1.5 9.23821 1.5 9.2382C1.5 9.2382 1.5 9.23819 1.5 9.23819C1.5 9.23819 1.5 9.23818 1.5 9.23817C1.5 9.23817 1.5 9.23816 1.5 9.23815C1.5 9.23815 1.5 9.23814 1.5 9.23813C1.5 9.23812 1.5 9.23811 1.5 9.2381C1.5 9.23809 1.5 9.23808 1.5 9.23807C1.5 9.23805 1.5 9.23804 1.5 9.23803C1.5 9.23802 1.5 9.238 1.5 9.23799C1.5 9.23797 1.5 9.23796 1.5 9.23794C1.5 9.23793 1.5 9.23791 1.5 9.23789C1.5 9.23787 1.5 9.23786 1.5 9.23784C1.5 9.23782 1.5 9.2378 1.5 9.23778C1.5 9.23776 1.5 9.23774 1.5 9.23772C1.5 9.2377 1.5 9.23768 1.5 9.23765C1.5 9.23763 1.5 9.23761 1.5 9.23758C1.5 9.23756 1.5 9.23754 1.5 9.23751C1.5 9.23749 1.5 9.23746 1.5 9.23743C1.5 9.23741 1.5 9.23738 1.5 9.23735C1.5 9.23732 1.5 9.2373 1.5 9.23727C1.5 9.23724 1.5 9.23721 1.5 9.23718C1.5 9.23715 1.5 9.23712 1.5 9.23709C1.5 9.23705 1.5 9.23702 1.5 9.23699C1.5 9.23696 1.5 9.23692 1.5 9.23689C1.5 9.23686 1.5 9.23682 1.5 9.23679C1.5 9.23675 1.5 9.23672 1.5 9.23668C1.5 9.23664 1.5 9.23661 1.5 9.23657C1.5 9.23653 1.5 9.23649 1.5 9.23646C1.5 9.23642 1.5 9.23638 1.5 9.23634C1.5 9.2363 1.5 9.23626 1.5 9.23622C1.5 9.23618 1.5 9.23613 1.5 9.23609C1.5 9.23605 1.5 9.23601 1.5 9.23596C1.5 9.23592 1.5 9.23588 1.5 9.23583C1.5 9.23579 1.5 9.23574 1.5 9.2357C1.5 9.23565 1.5 9.23561 1.5 9.23556C1.5 9.23551 1.5 9.23547 1.5 9.23542C1.5 9.23537 1.5 9.23532 1.5 9.23527C1.5 9.23522 1.5 9.23518 1.5 9.23512C1.5 9.23507 1.5 9.23502 1.5 9.23497C1.5 9.23492 1.5 9.23487 1.5 9.23482C1.5 9.23477 1.5 9.23471 1.5 9.23466C1.5 9.23461 1.5 9.23456 1.5 9.2345C1.5 9.23445 1.5 9.23439 1.5 9.23434C1.5 9.23428 1.5 9.23423 1.5 9.23417C1.5 9.23411 1.5 9.23406 1.5 9.234C1.5 9.23394 1.5 9.23388 1.5 9.23383C1.5 9.23377 1.5 9.23371 1.5 9.23365C1.5 9.23359 1.5 9.23353 1.5 9.23347C1.5 9.23341 1.5 9.23335 1.5 9.23329C1.5 9.23323 1.5 9.23317 1.5 9.2331C1.5 9.23304 1.5 9.23298 1.5 9.23292C1.5 9.23285 1.5 9.23279 1.5 9.23273C1.5 9.23266 1.5 9.2326 1.5 9.23253C1.5 9.23247 1.5 9.2324 1.5 9.23234C1.5 9.23227 1.5 9.2322 1.5 9.23214C1.5 9.23207 1.5 9.232 1.5 9.23194C1.5 9.23187 1.5 9.2318 1.5 9.23173C1.5 9.23166 1.5 9.23159 1.5 9.23153C1.5 9.23146 1.5 9.23139 1.5 9.23132C1.5 9.23125 1.5 9.23117 1.5 9.2311C1.5 9.23103 1.5 9.23096 1.5 9.23089C1.5 9.23082 1.5 9.23074 1.5 9.23067C1.5 9.2306 1.5 9.23053 1.5 9.23045C1.5 9.23038 1.5 9.2303 1.5 9.23023C1.5 9.23015 1.5 9.23008 1.5 9.23C1.5 9.22993 1.5 9.22985 1.5 9.22978C1.5 9.2297 1.5 9.22962 1.5 9.22955C1.5 9.22947 1.5 9.22939 1.5 9.22931C1.5 9.22924 1.5 9.22916 1.5 9.22908C1.5 9.229 1.5 9.22892 1.5 9.22884C1.5 9.22876 1.5 9.22869 1.5 9.22861C1.5 9.22853 1.5 9.22845 1.5 9.22836C1.5 9.22828 1.5 9.2282 1.5 9.22812C1.5 9.22804 1.5 9.22796 1.5 9.22787C1.5 9.22779 1.5 9.22771 1.5 9.22763C1.5 9.22754 1.5 9.22746 1.5 9.22738C1.5 9.22729 1.5 9.22721 1.5 9.22713C1.5 9.22704 1.5 9.22696 1.5 9.22687C1.5 9.22679 1.5 9.2267 1.5 9.22661C1.5 9.22653 1.5 9.22644 1.5 9.22636C1.5 9.22627 1.5 9.22618 1.5 9.2261C1.5 9.22601 1.5 9.22592 1.5 9.22583C1.5 9.22575 1.5 9.22566 1.5 9.22557C1.5 9.22548 1.5 9.22539 1.5 9.22531C1.5 9.22522 1.5 9.22513 1.5 9.22504C1.5 9.22495 1.5 9.22486 1.5 9.22477C1.5 9.22468 1.5 9.22459 1.5 9.2245C1.5 9.22441 1.5 9.22432 1.5 9.22422C1.5 9.22413 1.5 9.22404 1.5 9.22395C1.5 9.22386 1.5 9.22377 1.5 9.22367C1.5 9.22358 1.5 9.22349 1.5 9.22339C1.5 9.2233 1.5 9.22321 1.5 9.22311C1.5 9.22302 1.5 9.22293 1.5 9.22283C1.5 9.22274 1.5 9.22264 1.5 9.22255C1.5 9.22246 1.5 9.22236 1.5 9.22227C1.5 9.22217 1.5 9.22207 1.5 9.22198C1.5 9.22188 1.5 9.22179 1.5 9.22169C1.5 9.22159 1.5 9.2215 1.5 9.2214C1.5 9.22131 1.5 9.22121 1.5 9.22111C1.5 9.22101 1.5 9.22092 1.5 9.22082C1.5 9.22072 1.5 9.22062 1.5 9.22053C1.5 9.22043 1.5 9.22033 1.5 9.22023C1.5 9.22013 1.5 9.22003 1.5 9.21994C1.5 9.21984 1.5 9.21974 1.5 9.21964C1.5 9.21954 1.5 9.21944 1.5 9.21934C1.5 9.21924 1.5 9.21914 1.5 9.21904C1.5 9.21894 1.5 9.21884 1.5 9.21874C1.5 9.21864 1.5 9.21854 1.5 9.21844C1.5 9.21834 1.5 9.21823 1.5 9.21813C1.5 9.21803 1.5 9.21793 1.5 9.21783C1.5 9.21773 1.5 9.21762 1.5 9.21752C1.5 9.21742 1.5 9.21732 1.5 9.21722C1.5 9.21711 1.5 9.21701 1.5 9.21691C1.5 9.21681 1.5 9.2167 1.5 9.2166C1.5 9.2165 1.5 9.21639 1.5 9.21629C1.5 9.21619 1.5 9.21608 1.5 9.21598C1.5 9.21588 1.5 9.21577 1.5 9.21567C1.5 9.21556 1.5 9.21546 1.5 9.21535C1.5 9.21525 1.5 9.21515 1.5 9.21504C1.5 9.21494 1.5 9.21483 1.5 9.21473C1.5 9.21462 1.5 9.21452 1.5 9.21441C1.5 9.21431 1.5 9.2142 1.5 9.2141C1.5 9.21399 1.5 9.21389 1.5 9.21378C1.5 9.21368 1.5 9.21357 1.5 9.21346C1.5 9.21336 1.5 9.21325 1.5 9.21315C1.5 9.21304 1.5 9.21293 1.5 9.21283C1.5 9.21272 1.5 9.21262 1.5 9.21251C1.5 9.2124 1.5 9.2123 1.5 9.21219C1.5 9.21208 1.5 9.21198 1.5 9.21187C1.5 9.21176 1.5 9.21166 1.5 9.21155C1.5 9.21144 1.5 9.21133 1.5 9.21123C1.5 9.21112 1.5 9.21101 1.5 9.21091C1.5 9.2108 1.5 9.21069 1.5 9.21058C1.5 9.21048 1.5 9.21037 1.5 9.21026C1.5 9.21015 1.5 9.21005 1.5 9.20994C1.5 9.20983 1.5 9.20972 1.5 9.20962C1.5 9.20951 1.5 9.2094 1.5 9.20929C1.5 9.20918 1.5 9.20908 1.5 9.20897C1.5 9.20886 1.5 9.20875 1.5 9.20864C1.5 9.20854 1.5 9.20843 1.5 9.20832C1.5 9.20821 1.5 9.2081 1.5 9.208C1.5 9.20789 1.5 9.20778 1.5 9.20767C1.5 9.20756 1.5 9.20745 1.5 9.20735C1.5 9.20724 1.5 9.20713 1.5 9.20702C1.5 9.20691 1.5 9.20681 1.5 9.2067C1.5 9.20659 1.5 9.20648 1.5 9.20637C1.5 9.20626 1.5 9.20615 1.5 9.20605C1.5 9.20594 1.5 9.20583 1.5 9.20572C1.5 9.20561 1.5 9.20551 1.5 9.2054C1.5 9.20529 1.5 9.20518 1.5 9.20507C1.5 9.20496 1.5 9.20486 1.5 9.20475C1.5 9.20464 1.5 9.20453 1.5 9.20442C1.5 9.20431 1.5 9.20421 1.5 9.2041C1.5 9.20399 1.5 9.20388 1.5 9.20377C1.5 9.20367 1.5 9.20356 1.5 9.20345C1.5 9.20334 1.5 9.20323 1.5 9.20313C1.5 9.20302 1.5 9.20291 1.5 9.2028C1.5 9.20269 1.5 9.20259 1.5 9.20248C1.5 9.20237 1.5 9.20226 1.5 9.20216C1.5 9.20205 1.5 9.20194 1.5 9.20183C1.5 9.20173 1.5 9.20162 1.5 9.20151C1.5 9.2014 1.5 9.2013 1.5 9.20119C1.5 9.20108 1.5 9.20098 1.5 9.20087C1.5 9.20076 1.5 9.20066 1.5 9.20055C1.5 9.20044 1.5 9.20034 1.5 9.20023C1.5 9.20012 1.5 9.20002 1.5 9.19991C1.5 9.1998 1.5 9.1997 1.5 9.19959C1.5 9.19948 1.5 9.19938 1.5 9.19927C1.5 9.19917 1.5 9.19906 1.5 9.19895C1.5 9.19885 1.5 9.19874 1.5 9.19864C1.5 9.19853 1.5 9.19843 1.5 9.19832C1.5 9.19821 1.5 9.19811 1.5 9.198C1.5 9.1979 1.5 9.19779 1.5 9.19769C1.5 9.19758 1.5 9.19748 1.5 9.19738C1.5 9.19727 1.5 9.19717 1.5 9.19706C1.5 9.19696 1.5 9.19685 1.5 9.19675C1.5 9.19665 1.5 9.19654 1.5 9.19644C1.5 9.19633 1.5 9.19623 1.5 9.19613C1.5 9.19602 1.5 9.19592 1.5 9.19582C1.5 9.19571 1.5 9.19561 1.5 9.19551C1.5 9.19541 1.5 9.1953 1.5 9.1952C1.5 9.1951 1.5 9.195 1.5 9.19489C1.5 9.19479 1.5 9.19469 1.5 9.19459C1.5 9.19449 1.5 9.19438 1.5 9.19428C1.5 9.19418 1.5 9.19408 1.5 9.19398C1.5 9.19388 1.5 9.19378 1.5 9.19368C1.5 9.19358 1.5 9.19348 1.5 9.19338C1.5 9.19328 1.5 9.19318 1.5 9.19308C1.5 9.19298 1.5 9.19288 1.5 9.19278C1.5 9.19268 1.5 9.19258 1.5 9.19248C1.5 9.19238 1.5 9.19228 1.5 9.19218C1.5 9.19209 1.5 9.19199 1.5 9.19189C1.5 9.19179 1.5 9.19169 1.5 9.1916C1.5 9.1915 1.5 9.1914 1.5 9.1913C1.5 9.19121 1.5 9.19111 1.5 9.19101C1.5 9.19092 1.5 9.19082 1.5 9.19072C1.5 9.19063 1.5 9.19053 1.5 9.19043C1.5 9.19034 1.5 9.19024 1.5 9.19015C1.5 9.19005 1.5 9.18996 1.5 9.18986C1.5 9.18977 1.5 9.18967 1.5 9.18958C1.5 9.18949 1.5 9.18939 1.5 9.1893C1.5 9.18921 1.5 9.18911 1.5 9.18902C1.5 9.18893 1.5 9.18883 1.5 9.18874C1.5 9.18865 1.5 9.18856 1.5 9.18846C1.5 9.18837 1.5 9.18828 1.5 9.18819C1.5 9.1881 1.5 9.18801 1.5 9.18791C1.5 9.18782 1.5 9.18773 1.5 9.18764C1.5 9.18755 1.5 9.18746 1.5 9.18737C1.5 9.18728 1.5 9.18719 1.5 9.18711C1.5 9.18702 1.5 9.18693 1.5 9.18684C1.5 9.18675 1.5 9.18666 1.5 9.18658C1.5 9.18649 1.5 9.1864 1.5 9.18631C1.5 9.18623 1.5 9.18614 1.5 9.18605C1.5 9.18597 1.5 9.18588 1.5 9.18579C1.5 9.18571 1.5 9.18562 1.5 9.18554C1.5 9.18545 1.5 9.18537 1.5 9.18528C1.5 9.1852 1.5 9.18512 1.5 9.18503C1.5 9.18495 1.5 9.18486 1.5 9.18478C1.5 9.1847 1.5 9.18462 1.5 9.18453C1.5 9.18445 1.5 9.18437 1.5 9.18429C1.5 9.18421 1.5 9.18412 1.5 9.18404C1.5 9.18396 1.5 9.18388 1.5 9.1838C1.5 9.18372 1.5 9.18364 1.5 9.18356C1.5 9.18348 1.5 9.18341 1.5 9.18333C1.5 9.18325 1.5 9.18317 1.5 9.18309C1.5 9.18301 1.5 9.18294 1.5 9.18286C1.5 9.18278 1.5 9.18271 1.5 9.18263C1.5 9.18255 1.5 9.18248 1.5 9.1824C1.5 9.18233 1.5 9.18225 1.5 9.18218C1.5 9.1821 1.5 9.18203 1.5 9.18195C1.5 9.18188 1.5 9.18181 1.5 9.18173C1.5 9.18166 1.5 9.18159 1.5 9.18152C1.5 9.18145 1.5 9.18137 1.5 9.1813C1.5 9.18123 1.5 9.18116 1.5 9.18109C1.5 9.18102 1.5 9.18095 1.5 9.18088C1.5 9.18081 1.5 9.18074 1.5 9.18067C1.5 9.1806 1.5 9.18054 1.5 9.18047C1.5 9.1804 1.5 9.18033 1.5 9.18027C1.5 9.1802 1.5 9.18013 1.5 9.18007C1.5 9.18 1.5 9.17993 1.5 9.17987C1.5 9.1798 1.5 9.17974 1.5 9.17968C1.5 9.17961 1.5 9.17955 1.5 9.17948C1.5 9.17942 1.5 9.17936 1.5 9.1793C1.5 9.17923 1.5 9.17917 1.5 9.17911C1.5 9.17905 1.5 9.17899 1.5 9.17893C1.5 9.17887 1.5 9.17881 1.5 9.17875C1.5 9.17869 1.5 9.17863 1.5 9.17857C1.5 9.17852 1.5 9.17846 1.5 9.1784C1.5 9.17834 1.5 9.17829 1.5 9.17823C1.5 9.17817 1.5 9.17812 1.5 9.17806C1.5 9.17801 1.5 9.17795 1.5 9.1779C1.5 9.17784 1.5 9.17779 1.5 9.17774C1.5 9.17768 1.5 9.17763 1.5 9.17758C1.5 9.17753 1.5 9.17747 1.5 9.17742C1.5 9.17737 1.5 9.17732 1.5 9.17727C1.5 9.17722 1.5 9.17717 1.5 9.17712C1.5 9.17707 1.5 9.17703 1.5 9.17698C1.5 9.17693 1.5 9.17688 1.5 9.17684C1.5 9.17679 1.5 9.17674 1.5 9.1767C1.5 9.17665 1.5 9.17661 1.5 9.17656C1.5 9.17652 1.5 9.17647 1.5 9.17643C1.5 9.17639 1.5 9.17634 1.5 9.1763C1.5 9.17626 1.5 9.17622 1.5 9.17618C1.5 9.17614 1.5 9.1761 1.5 9.17605C1.5 9.17602 1.5 9.17598 1.5 9.17594C1.5 9.1759 1.5 9.17586 1.5 9.17582C1.5 9.17579 1.5 9.17575 1.5 9.17571C1.5 9.17568 1.5 9.17564 1.5 9.1756C1.5 9.17557 1.5 9.17553 1.5 9.1755C1.5 9.17547 1.5 9.17543 1.5 9.1754C1.5 9.17537 1.5 9.17533 1.5 9.1753C1.5 9.17527 1.5 9.17524 1.5 9.17521C1.5 9.17518 1.5 9.17515 1.5 9.17512C1.5 9.17509 1.5 9.17506 1.5 9.17504C1.5 9.17501 1.5 9.17498 1.5 9.17496C1.5 9.17493 1.5 9.1749 1.5 9.17488C1.5 9.17485 1.5 9.17483 1.5 9.1748C1.5 9.17478 1.5 9.17476 1.5 9.17473C1.5 9.17471 1.5 9.17469 1.5 9.17467C1.5 9.17465 1.5 9.17463 1.5 9.17461C1.5 9.17459 1.5 9.17457 1.5 9.17455C1.5 9.17453 1.5 9.17451 1.5 9.17449C1.5 9.17448 1.5 9.17446 1.5 9.17444C1.5 9.17443 1.5 9.17441 1.5 9.1744C1.5 9.17438 1.5 9.17437 1.5 9.17435C1.5 9.17434 1.5 9.17433 1.5 9.17432C1.5 9.1743 1.5 9.17429 1.5 9.17428C1.5 9.17427 1.5 9.17426 1.5 9.17425C1.5 9.17424 1.5 9.17424 1.5 9.17423C1.5 9.17422 1.5 9.17421 1.5 9.17421C1.5 9.1742 1.5 9.1742 1.5 9.17419C1.5 9.17418 1.5 9.17418 1.5 9.17418C1.5 9.17417 1.5 9.17417 1.5 9.17417C1.5 9.17417 1.5 9.17417 1.5 9.17417C0 9.17416 -1.5 9.17416 -1.5 9.17417C-1.5 9.17417 -1.5 9.17417 -1.5 9.17417C-1.5 9.17417 -1.5 9.17418 -1.5 9.17418C-1.5 9.17418 -1.5 9.17419 -1.5 9.17419C-1.5 9.1742 -1.5 9.17421 -1.5 9.17421C-1.5 9.17422 -1.5 9.17423 -1.5 9.17424C-1.5 9.17424 -1.5 9.17425 -1.5 9.17426C-1.5 9.17427 -1.5 9.17428 -1.5 9.17429C-1.5 9.17431 -1.5 9.17432 -1.5 9.17433C-1.5 9.17434 -1.5 9.17436 -1.5 9.17437C-1.5 9.17439 -1.5 9.1744 -1.5 9.17442C-1.5 9.17443 -1.5 9.17445 -1.5 9.17447C-1.5 9.17449 -1.5 9.17451 -1.5 9.17453C-1.5 9.17454 -1.5 9.17456 -1.5 9.17459C-1.5 9.17461 -1.5 9.17463 -1.5 9.17465C-1.5 9.17467 -1.5 9.1747 -1.5 9.17472C-1.5 9.17474 -1.5 9.17477 -1.5 9.1748C-1.5 9.17482 -1.5 9.17485 -1.5 9.17487C-1.5 9.1749 -1.5 9.17493 -1.5 9.17496C-1.5 9.17499 -1.5 9.17502 -1.5 9.17505C-1.5 9.17508 -1.5 9.17511 -1.5 9.17514C-1.5 9.17517 -1.5 9.17521 -1.5 9.17524C-1.5 9.17528 -1.5 9.17531 -1.5 9.17535C-1.5 9.17538 -1.5 9.17542 -1.5 9.17546C-1.5 9.17549 -1.5 9.17553 -1.5 9.17557C-1.5 9.17561 -1.5 9.17565 -1.5 9.17569C-1.5 9.17573 -1.5 9.17577 -1.5 9.17582C-1.5 9.17586 -1.5 9.1759 -1.5 9.17595C-1.5 9.17599 -1.5 9.17603 -1.5 9.17608C-1.5 9.17613 -1.5 9.17617 -1.5 9.17622C-1.5 9.17627 -1.5 9.17632 -1.5 9.17637C-1.5 9.17642 -1.5 9.17647 -1.5 9.17652C-1.5 9.17657 -1.5 9.17662 -1.5 9.17668C-1.5 9.17673 -1.5 9.17678 -1.5 9.17684C-1.5 9.17689 -1.5 9.17695 -1.5 9.177C-1.5 9.17706 -1.5 9.17712 -1.5 9.17718C-1.5 9.17724 -1.5 9.1773 -1.5 9.17736C-1.5 9.17742 -1.5 9.17748 -1.5 9.17754C-1.5 9.1776 -1.5 9.17766 -1.5 9.17773C-1.5 9.17779 -1.5 9.17786 -1.5 9.17792C-1.5 9.17799 -1.5 9.17806 -1.5 9.17812C-1.5 9.17819 -1.5 9.17826 -1.5 9.17833C-1.5 9.1784 -1.5 9.17847 -1.5 9.17854C-1.5 9.17861 -1.5 9.17869 -1.5 9.17876C-1.5 9.17883 -1.5 9.17891 -1.5 9.17898C-1.5 9.17906 -1.5 9.17913 -1.5 9.17921C-1.5 9.17929 -1.5 9.17937 -1.5 9.17944C-1.5 9.17952 -1.5 9.1796 -1.5 9.17968C-1.5 9.17977 -1.5 9.17985 -1.5 9.17993C-1.5 9.18001 -1.5 9.1801 -1.5 9.18018C-1.5 9.18027 -1.5 9.18035 -1.5 9.18044C-1.5 9.18053 -1.5 9.18061 -1.5 9.1807C-1.5 9.18079 -1.5 9.18088 -1.5 9.18097C-1.5 9.18106 -1.5 9.18116 -1.5 9.18125C-1.5 9.18134 -1.5 9.18144 -1.5 9.18153C-1.5 9.18163 -1.5 9.18172 -1.5 9.18182C-1.5 9.18191 -1.5 9.18201 -1.5 9.18211C-1.5 9.18221 -1.5 9.18231 -1.5 9.18241C-1.5 9.18251 -1.5 9.18261 -1.5 9.18272C-1.5 9.18282 -1.5 9.18292 -1.5 9.18303C-1.5 9.18313 -1.5 9.18324 -1.5 9.18335C-1.5 9.18345 -1.5 9.18356 -1.5 9.18367C-1.5 9.18378 -1.5 9.18389 -1.5 9.184C-1.5 9.18411 -1.5 9.18423 -1.5 9.18434C-1.5 9.18445 -1.5 9.18457 -1.5 9.18468C-1.5 9.1848 -1.5 9.18491 -1.5 9.18503C-1.5 9.18515 -1.5 9.18527 -1.5 9.18539C-1.5 9.18551 -1.5 9.18563 -1.5 9.18575C-1.5 9.18587 -1.5 9.18599 -1.5 9.18612C-1.5 9.18624 -1.5 9.18637 -1.5 9.18649C-1.5 9.18662 -1.5 9.18674 -1.5 9.18687C-1.5 9.187 -1.5 9.18713 -1.5 9.18726C-1.5 9.18739 -1.5 9.18752 -1.5 9.18766C-1.5 9.18779 -1.5 9.18792 -1.5 9.18806C-1.5 9.18819 -1.5 9.18833 -1.5 9.18846C-1.5 9.1886 -1.5 9.18874 -1.5 9.18888C-1.5 9.18902 -1.5 9.18916 -1.5 9.1893C-1.5 9.18944 -1.5 9.18958 -1.5 9.18973C-1.5 9.18987 -1.5 9.19001 -1.5 9.19016C-1.5 9.19031 -1.5 9.19045 -1.5 9.1906C-1.5 9.19075 -1.5 9.1909 -1.5 9.19105C-1.5 9.1912 -1.5 9.19135 -1.5 9.1915C-1.5 9.19166 -1.5 9.19181 -1.5 9.19197C-1.5 9.19212 -1.5 9.19228 -1.5 9.19243C-1.5 9.19259 -1.5 9.19275 -1.5 9.19291C-1.5 9.19307 -1.5 9.19323 -1.5 9.19339C-1.5 9.19355 -1.5 9.19372 -1.5 9.19388C-1.5 9.19404 -1.5 9.19421 -1.5 9.19438C-1.5 9.19454 -1.5 9.19471 -1.5 9.19488C-1.5 9.19505 -1.5 9.19522 -1.5 9.19539C-1.5 9.19556 -1.5 9.19573 -1.5 9.1959C-1.5 9.19608 -1.5 9.19625 -1.5 9.19643C-1.5 9.1966 -1.5 9.19678 -1.5 9.19696C-1.5 9.19714 -1.5 9.19732 -1.5 9.1975C-1.5 9.19768 -1.5 9.19786 -1.5 9.19804C-1.5 9.19823 -1.5 9.19841 -1.5 9.1986C-1.5 9.19878 -1.5 9.19897 -1.5 9.19916C-1.5 9.19934 -1.5 9.19953 -1.5 9.19972C-1.5 9.19991 -1.5 9.20011 -1.5 9.2003C-1.5 9.20049 -1.5 9.20069 -1.5 9.20088C-1.5 9.20108 -1.5 9.20127 -1.5 9.20147C-1.5 9.20167 -1.5 9.20187 -1.5 9.20207C-1.5 9.20227 -1.5 9.20247 -1.5 9.20267C-1.5 9.20287 -1.5 9.20308 -1.5 9.20328C-1.5 9.20349 -1.5 9.20369 -1.5 9.2039C-1.5 9.20411 -1.5 9.20432 -1.5 9.20453C-1.5 9.20474 -1.5 9.20495 -1.5 9.20516C-1.5 9.20537 -1.5 9.20559 -1.5 9.2058C-1.5 9.20602 -1.5 9.20623 -1.5 9.20645C-1.5 9.20667 -1.5 9.20689 -1.5 9.20711C-1.5 9.20733 -1.5 9.20755 -1.5 9.20777H1.5C1.5 9.20755 1.5 9.20733 1.5 9.20711C1.5 9.20689 1.5 9.20667 1.5 9.20645C1.5 9.20623 1.5 9.20602 1.5 9.2058C1.5 9.20559 1.5 9.20537 1.5 9.20516C1.5 9.20495 1.5 9.20474 1.5 9.20453C1.5 9.20432 1.5 9.20411 1.5 9.2039C1.5 9.20369 1.5 9.20349 1.5 9.20328C1.5 9.20308 1.5 9.20287 1.5 9.20267C1.5 9.20247 1.5 9.20227 1.5 9.20207C1.5 9.20187 1.5 9.20167 1.5 9.20147C1.5 9.20127 1.5 9.20108 1.5 9.20088C1.5 9.20069 1.5 9.20049 1.5 9.2003C1.5 9.20011 1.5 9.19991 1.5 9.19972C1.5 9.19953 1.5 9.19934 1.5 9.19916C1.5 9.19897 1.5 9.19878 1.5 9.1986C1.5 9.19841 1.5 9.19823 1.5 9.19804C1.5 9.19786 1.5 9.19768 1.5 9.1975C1.5 9.19732 1.5 9.19714 1.5 9.19696C1.5 9.19678 1.5 9.1966 1.5 9.19643C1.5 9.19625 1.5 9.19608 1.5 9.1959C1.5 9.19573 1.5 9.19556 1.5 9.19539C1.5 9.19522 1.5 9.19505 1.5 9.19488C1.5 9.19471 1.5 9.19454 1.5 9.19438C1.5 9.19421 1.5 9.19404 1.5 9.19388C1.5 9.19372 1.5 9.19355 1.5 9.19339C1.5 9.19323 1.5 9.19307 1.5 9.19291C1.5 9.19275 1.5 9.19259 1.5 9.19243C1.5 9.19228 1.5 9.19212 1.5 9.19197C1.5 9.19181 1.5 9.19166 1.5 9.1915C1.5 9.19135 1.5 9.1912 1.5 9.19105C1.5 9.1909 1.5 9.19075 1.5 9.1906C1.5 9.19045 1.5 9.19031 1.5 9.19016C1.5 9.19001 1.5 9.18987 1.5 9.18973C1.5 9.18958 1.5 9.18944 1.5 9.1893C1.5 9.18916 1.5 9.18902 1.5 9.18888C1.5 9.18874 1.5 9.1886 1.5 9.18846C1.5 9.18833 1.5 9.18819 1.5 9.18806C1.5 9.18792 1.5 9.18779 1.5 9.18766C1.5 9.18752 1.5 9.18739 1.5 9.18726C1.5 9.18713 1.5 9.187 1.5 9.18687C1.5 9.18674 1.5 9.18662 1.5 9.18649C1.5 9.18637 1.5 9.18624 1.5 9.18612C1.5 9.18599 1.5 9.18587 1.5 9.18575C1.5 9.18563 1.5 9.18551 1.5 9.18539C1.5 9.18527 1.5 9.18515 1.5 9.18503C1.5 9.18491 1.5 9.1848 1.5 9.18468C1.5 9.18457 1.5 9.18445 1.5 9.18434C1.5 9.18423 1.5 9.18411 1.5 9.184C1.5 9.18389 1.5 9.18378 1.5 9.18367C1.5 9.18356 1.5 9.18345 1.5 9.18335C1.5 9.18324 1.5 9.18313 1.5 9.18303C1.5 9.18292 1.5 9.18282 1.5 9.18272C1.5 9.18261 1.5 9.18251 1.5 9.18241C1.5 9.18231 1.5 9.18221 1.5 9.18211C1.5 9.18201 1.5 9.18191 1.5 9.18182C1.5 9.18172 1.5 9.18163 1.5 9.18153C1.5 9.18144 1.5 9.18134 1.5 9.18125C1.5 9.18116 1.5 9.18106 1.5 9.18097C1.5 9.18088 1.5 9.18079 1.5 9.1807C1.5 9.18061 1.5 9.18053 1.5 9.18044C1.5 9.18035 1.5 9.18027 1.5 9.18018C1.5 9.1801 1.5 9.18001 1.5 9.17993C1.5 9.17985 1.5 9.17977 1.5 9.17968C1.5 9.1796 1.5 9.17952 1.5 9.17944C1.5 9.17937 1.5 9.17929 1.5 9.17921C1.5 9.17913 1.5 9.17906 1.5 9.17898C1.5 9.17891 1.5 9.17883 1.5 9.17876C1.5 9.17869 1.5 9.17861 1.5 9.17854C1.5 9.17847 1.5 9.1784 1.5 9.17833C1.5 9.17826 1.5 9.17819 1.5 9.17812C1.5 9.17806 1.5 9.17799 1.5 9.17792C1.5 9.17786 1.5 9.17779 1.5 9.17773C1.5 9.17766 1.5 9.1776 1.5 9.17754C1.5 9.17748 1.5 9.17742 1.5 9.17736C1.5 9.1773 1.5 9.17724 1.5 9.17718C1.5 9.17712 1.5 9.17706 1.5 9.177C1.5 9.17695 1.5 9.17689 1.5 9.17684C1.5 9.17678 1.5 9.17673 1.5 9.17668C1.5 9.17662 1.5 9.17657 1.5 9.17652C1.5 9.17647 1.5 9.17642 1.5 9.17637C1.5 9.17632 1.5 9.17627 1.5 9.17622C1.5 9.17617 1.5 9.17613 1.5 9.17608C1.5 9.17603 1.5 9.17599 1.5 9.17595C1.5 9.1759 1.5 9.17586 1.5 9.17582C1.5 9.17577 1.5 9.17573 1.5 9.17569C1.5 9.17565 1.5 9.17561 1.5 9.17557C1.5 9.17553 1.5 9.17549 1.5 9.17546C1.5 9.17542 1.5 9.17538 1.5 9.17535C1.5 9.17531 1.5 9.17528 1.5 9.17524C1.5 9.17521 1.5 9.17517 1.5 9.17514C1.5 9.17511 1.5 9.17508 1.5 9.17505C1.5 9.17502 1.5 9.17499 1.5 9.17496C1.5 9.17493 1.5 9.1749 1.5 9.17487C1.5 9.17485 1.5 9.17482 1.5 9.1748C1.5 9.17477 1.5 9.17474 1.5 9.17472C1.5 9.1747 1.5 9.17467 1.5 9.17465C1.5 9.17463 1.5 9.17461 1.5 9.17459C1.5 9.17456 1.5 9.17454 1.5 9.17453C1.5 9.17451 1.5 9.17449 1.5 9.17447C1.5 9.17445 1.5 9.17443 1.5 9.17442C1.5 9.1744 1.5 9.17439 1.5 9.17437C1.5 9.17436 1.5 9.17434 1.5 9.17433C1.5 9.17432 1.5 9.17431 1.5 9.17429C1.5 9.17428 1.5 9.17427 1.5 9.17426C1.5 9.17425 1.5 9.17424 1.5 9.17424C1.5 9.17423 1.5 9.17422 1.5 9.17421C1.5 9.17421 1.5 9.1742 1.5 9.17419C1.5 9.17419 1.5 9.17418 1.5 9.17418C1.5 9.17418 1.5 9.17417 1.5 9.17417C1.5 9.17417 1.5 9.17417 1.5 9.17417C1.5 9.17416 0 9.17416 -1.5 9.17417C-1.5 9.17417 -1.5 9.17417 -1.5 9.17417C-1.5 9.17417 -1.5 9.17417 -1.5 9.17418C-1.5 9.17418 -1.5 9.17418 -1.5 9.17419C-1.5 9.1742 -1.5 9.1742 -1.5 9.17421C-1.5 9.17421 -1.5 9.17422 -1.5 9.17423C-1.5 9.17424 -1.5 9.17424 -1.5 9.17425C-1.5 9.17426 -1.5 9.17427 -1.5 9.17428C-1.5 9.17429 -1.5 9.1743 -1.5 9.17432C-1.5 9.17433 -1.5 9.17434 -1.5 9.17435C-1.5 9.17437 -1.5 9.17438 -1.5 9.1744C-1.5 9.17441 -1.5 9.17443 -1.5 9.17444C-1.5 9.17446 -1.5 9.17448 -1.5 9.17449C-1.5 9.17451 -1.5 9.17453 -1.5 9.17455C-1.5 9.17457 -1.5 9.17459 -1.5 9.17461C-1.5 9.17463 -1.5 9.17465 -1.5 9.17467C-1.5 9.17469 -1.5 9.17471 -1.5 9.17473C-1.5 9.17476 -1.5 9.17478 -1.5 9.1748C-1.5 9.17483 -1.5 9.17485 -1.5 9.17488C-1.5 9.1749 -1.5 9.17493 -1.5 9.17496C-1.5 9.17498 -1.5 9.17501 -1.5 9.17504C-1.5 9.17506 -1.5 9.17509 -1.5 9.17512C-1.5 9.17515 -1.5 9.17518 -1.5 9.17521C-1.5 9.17524 -1.5 9.17527 -1.5 9.1753C-1.5 9.17533 -1.5 9.17537 -1.5 9.1754C-1.5 9.17543 -1.5 9.17547 -1.5 9.1755C-1.5 9.17553 -1.5 9.17557 -1.5 9.1756C-1.5 9.17564 -1.5 9.17568 -1.5 9.17571C-1.5 9.17575 -1.5 9.17579 -1.5 9.17582C-1.5 9.17586 -1.5 9.1759 -1.5 9.17594C-1.5 9.17598 -1.5 9.17602 -1.5 9.17605C-1.5 9.1761 -1.5 9.17614 -1.5 9.17618C-1.5 9.17622 -1.5 9.17626 -1.5 9.1763C-1.5 9.17634 -1.5 9.17639 -1.5 9.17643C-1.5 9.17647 -1.5 9.17652 -1.5 9.17656C-1.5 9.17661 -1.5 9.17665 -1.5 9.1767C-1.5 9.17674 -1.5 9.17679 -1.5 9.17684C-1.5 9.17688 -1.5 9.17693 -1.5 9.17698C-1.5 9.17703 -1.5 9.17707 -1.5 9.17712C-1.5 9.17717 -1.5 9.17722 -1.5 9.17727C-1.5 9.17732 -1.5 9.17737 -1.5 9.17742C-1.5 9.17747 -1.5 9.17753 -1.5 9.17758C-1.5 9.17763 -1.5 9.17768 -1.5 9.17774C-1.5 9.17779 -1.5 9.17784 -1.5 9.1779C-1.5 9.17795 -1.5 9.17801 -1.5 9.17806C-1.5 9.17812 -1.5 9.17817 -1.5 9.17823C-1.5 9.17829 -1.5 9.17834 -1.5 9.1784C-1.5 9.17846 -1.5 9.17852 -1.5 9.17857C-1.5 9.17863 -1.5 9.17869 -1.5 9.17875C-1.5 9.17881 -1.5 9.17887 -1.5 9.17893C-1.5 9.17899 -1.5 9.17905 -1.5 9.17911C-1.5 9.17917 -1.5 9.17923 -1.5 9.1793C-1.5 9.17936 -1.5 9.17942 -1.5 9.17948C-1.5 9.17955 -1.5 9.17961 -1.5 9.17968C-1.5 9.17974 -1.5 9.1798 -1.5 9.17987C-1.5 9.17993 -1.5 9.18 -1.5 9.18007C-1.5 9.18013 -1.5 9.1802 -1.5 9.18027C-1.5 9.18033 -1.5 9.1804 -1.5 9.18047C-1.5 9.18054 -1.5 9.1806 -1.5 9.18067C-1.5 9.18074 -1.5 9.18081 -1.5 9.18088C-1.5 9.18095 -1.5 9.18102 -1.5 9.18109C-1.5 9.18116 -1.5 9.18123 -1.5 9.1813C-1.5 9.18137 -1.5 9.18145 -1.5 9.18152C-1.5 9.18159 -1.5 9.18166 -1.5 9.18173C-1.5 9.18181 -1.5 9.18188 -1.5 9.18195C-1.5 9.18203 -1.5 9.1821 -1.5 9.18218C-1.5 9.18225 -1.5 9.18233 -1.5 9.1824C-1.5 9.18248 -1.5 9.18255 -1.5 9.18263C-1.5 9.18271 -1.5 9.18278 -1.5 9.18286C-1.5 9.18294 -1.5 9.18301 -1.5 9.18309C-1.5 9.18317 -1.5 9.18325 -1.5 9.18333C-1.5 9.18341 -1.5 9.18348 -1.5 9.18356C-1.5 9.18364 -1.5 9.18372 -1.5 9.1838C-1.5 9.18388 -1.5 9.18396 -1.5 9.18404C-1.5 9.18412 -1.5 9.18421 -1.5 9.18429C-1.5 9.18437 -1.5 9.18445 -1.5 9.18453C-1.5 9.18462 -1.5 9.1847 -1.5 9.18478C-1.5 9.18486 -1.5 9.18495 -1.5 9.18503C-1.5 9.18512 -1.5 9.1852 -1.5 9.18528C-1.5 9.18537 -1.5 9.18545 -1.5 9.18554C-1.5 9.18562 -1.5 9.18571 -1.5 9.18579C-1.5 9.18588 -1.5 9.18597 -1.5 9.18605C-1.5 9.18614 -1.5 9.18623 -1.5 9.18631C-1.5 9.1864 -1.5 9.18649 -1.5 9.18658C-1.5 9.18666 -1.5 9.18675 -1.5 9.18684C-1.5 9.18693 -1.5 9.18702 -1.5 9.18711C-1.5 9.18719 -1.5 9.18728 -1.5 9.18737C-1.5 9.18746 -1.5 9.18755 -1.5 9.18764C-1.5 9.18773 -1.5 9.18782 -1.5 9.18791C-1.5 9.18801 -1.5 9.1881 -1.5 9.18819C-1.5 9.18828 -1.5 9.18837 -1.5 9.18846C-1.5 9.18856 -1.5 9.18865 -1.5 9.18874C-1.5 9.18883 -1.5 9.18893 -1.5 9.18902C-1.5 9.18911 -1.5 9.18921 -1.5 9.1893C-1.5 9.18939 -1.5 9.18949 -1.5 9.18958C-1.5 9.18967 -1.5 9.18977 -1.5 9.18986C-1.5 9.18996 -1.5 9.19005 -1.5 9.19015C-1.5 9.19024 -1.5 9.19034 -1.5 9.19043C-1.5 9.19053 -1.5 9.19063 -1.5 9.19072C-1.5 9.19082 -1.5 9.19092 -1.5 9.19101C-1.5 9.19111 -1.5 9.19121 -1.5 9.1913C-1.5 9.1914 -1.5 9.1915 -1.5 9.1916C-1.5 9.19169 -1.5 9.19179 -1.5 9.19189C-1.5 9.19199 -1.5 9.19209 -1.5 9.19218C-1.5 9.19228 -1.5 9.19238 -1.5 9.19248C-1.5 9.19258 -1.5 9.19268 -1.5 9.19278C-1.5 9.19288 -1.5 9.19298 -1.5 9.19308C-1.5 9.19318 -1.5 9.19328 -1.5 9.19338C-1.5 9.19348 -1.5 9.19358 -1.5 9.19368C-1.5 9.19378 -1.5 9.19388 -1.5 9.19398C-1.5 9.19408 -1.5 9.19418 -1.5 9.19428C-1.5 9.19438 -1.5 9.19449 -1.5 9.19459C-1.5 9.19469 -1.5 9.19479 -1.5 9.19489C-1.5 9.195 -1.5 9.1951 -1.5 9.1952C-1.5 9.1953 -1.5 9.19541 -1.5 9.19551C-1.5 9.19561 -1.5 9.19571 -1.5 9.19582C-1.5 9.19592 -1.5 9.19602 -1.5 9.19613C-1.5 9.19623 -1.5 9.19633 -1.5 9.19644C-1.5 9.19654 -1.5 9.19665 -1.5 9.19675C-1.5 9.19685 -1.5 9.19696 -1.5 9.19706C-1.5 9.19717 -1.5 9.19727 -1.5 9.19738C-1.5 9.19748 -1.5 9.19758 -1.5 9.19769C-1.5 9.19779 -1.5 9.1979 -1.5 9.198C-1.5 9.19811 -1.5 9.19821 -1.5 9.19832C-1.5 9.19843 -1.5 9.19853 -1.5 9.19864C-1.5 9.19874 -1.5 9.19885 -1.5 9.19895C-1.5 9.19906 -1.5 9.19917 -1.5 9.19927C-1.5 9.19938 -1.5 9.19948 -1.5 9.19959C-1.5 9.1997 -1.5 9.1998 -1.5 9.19991C-1.5 9.20002 -1.5 9.20012 -1.5 9.20023C-1.5 9.20034 -1.5 9.20044 -1.5 9.20055C-1.5 9.20066 -1.5 9.20076 -1.5 9.20087C-1.5 9.20098 -1.5 9.20108 -1.5 9.20119C-1.5 9.2013 -1.5 9.2014 -1.5 9.20151C-1.5 9.20162 -1.5 9.20173 -1.5 9.20183C-1.5 9.20194 -1.5 9.20205 -1.5 9.20216C-1.5 9.20226 -1.5 9.20237 -1.5 9.20248C-1.5 9.20259 -1.5 9.20269 -1.5 9.2028C-1.5 9.20291 -1.5 9.20302 -1.5 9.20313C-1.5 9.20323 -1.5 9.20334 -1.5 9.20345C-1.5 9.20356 -1.5 9.20367 -1.5 9.20377C-1.5 9.20388 -1.5 9.20399 -1.5 9.2041C-1.5 9.20421 -1.5 9.20431 -1.5 9.20442C-1.5 9.20453 -1.5 9.20464 -1.5 9.20475C-1.5 9.20486 -1.5 9.20496 -1.5 9.20507C-1.5 9.20518 -1.5 9.20529 -1.5 9.2054C-1.5 9.20551 -1.5 9.20561 -1.5 9.20572C-1.5 9.20583 -1.5 9.20594 -1.5 9.20605C-1.5 9.20615 -1.5 9.20626 -1.5 9.20637C-1.5 9.20648 -1.5 9.20659 -1.5 9.2067C-1.5 9.20681 -1.5 9.20691 -1.5 9.20702C-1.5 9.20713 -1.5 9.20724 -1.5 9.20735C-1.5 9.20745 -1.5 9.20756 -1.5 9.20767C-1.5 9.20778 -1.5 9.20789 -1.5 9.208C-1.5 9.2081 -1.5 9.20821 -1.5 9.20832C-1.5 9.20843 -1.5 9.20854 -1.5 9.20864C-1.5 9.20875 -1.5 9.20886 -1.5 9.20897C-1.5 9.20908 -1.5 9.20918 -1.5 9.20929C-1.5 9.2094 -1.5 9.20951 -1.5 9.20962C-1.5 9.20972 -1.5 9.20983 -1.5 9.20994C-1.5 9.21005 -1.5 9.21015 -1.5 9.21026C-1.5 9.21037 -1.5 9.21048 -1.5 9.21058C-1.5 9.21069 -1.5 9.2108 -1.5 9.21091C-1.5 9.21101 -1.5 9.21112 -1.5 9.21123C-1.5 9.21133 -1.5 9.21144 -1.5 9.21155C-1.5 9.21166 -1.5 9.21176 -1.5 9.21187C-1.5 9.21198 -1.5 9.21208 -1.5 9.21219C-1.5 9.2123 -1.5 9.2124 -1.5 9.21251C-1.5 9.21262 -1.5 9.21272 -1.5 9.21283C-1.5 9.21293 -1.5 9.21304 -1.5 9.21315C-1.5 9.21325 -1.5 9.21336 -1.5 9.21346C-1.5 9.21357 -1.5 9.21368 -1.5 9.21378C-1.5 9.21389 -1.5 9.21399 -1.5 9.2141C-1.5 9.2142 -1.5 9.21431 -1.5 9.21441C-1.5 9.21452 -1.5 9.21462 -1.5 9.21473C-1.5 9.21483 -1.5 9.21494 -1.5 9.21504C-1.5 9.21515 -1.5 9.21525 -1.5 9.21535C-1.5 9.21546 -1.5 9.21556 -1.5 9.21567C-1.5 9.21577 -1.5 9.21588 -1.5 9.21598C-1.5 9.21608 -1.5 9.21619 -1.5 9.21629C-1.5 9.21639 -1.5 9.2165 -1.5 9.2166C-1.5 9.2167 -1.5 9.21681 -1.5 9.21691C-1.5 9.21701 -1.5 9.21711 -1.5 9.21722C-1.5 9.21732 -1.5 9.21742 -1.5 9.21752C-1.5 9.21762 -1.5 9.21773 -1.5 9.21783C-1.5 9.21793 -1.5 9.21803 -1.5 9.21813C-1.5 9.21823 -1.5 9.21834 -1.5 9.21844C-1.5 9.21854 -1.5 9.21864 -1.5 9.21874C-1.5 9.21884 -1.5 9.21894 -1.5 9.21904C-1.5 9.21914 -1.5 9.21924 -1.5 9.21934C-1.5 9.21944 -1.5 9.21954 -1.5 9.21964C-1.5 9.21974 -1.5 9.21984 -1.5 9.21994C-1.5 9.22003 -1.5 9.22013 -1.5 9.22023C-1.5 9.22033 -1.5 9.22043 -1.5 9.22053C-1.5 9.22062 -1.5 9.22072 -1.5 9.22082C-1.5 9.22092 -1.5 9.22101 -1.5 9.22111C-1.5 9.22121 -1.5 9.22131 -1.5 9.2214C-1.5 9.2215 -1.5 9.22159 -1.5 9.22169C-1.5 9.22179 -1.5 9.22188 -1.5 9.22198C-1.5 9.22207 -1.5 9.22217 -1.5 9.22227C-1.5 9.22236 -1.5 9.22246 -1.5 9.22255C-1.5 9.22264 -1.5 9.22274 -1.5 9.22283C-1.5 9.22293 -1.5 9.22302 -1.5 9.22311C-1.5 9.22321 -1.5 9.2233 -1.5 9.22339C-1.5 9.22349 -1.5 9.22358 -1.5 9.22367C-1.5 9.22377 -1.5 9.22386 -1.5 9.22395C-1.5 9.22404 -1.5 9.22413 -1.5 9.22422C-1.5 9.22432 -1.5 9.22441 -1.5 9.2245C-1.5 9.22459 -1.5 9.22468 -1.5 9.22477C-1.5 9.22486 -1.5 9.22495 -1.5 9.22504C-1.5 9.22513 -1.5 9.22522 -1.5 9.22531C-1.5 9.22539 -1.5 9.22548 -1.5 9.22557C-1.5 9.22566 -1.5 9.22575 -1.5 9.22583C-1.5 9.22592 -1.5 9.22601 -1.5 9.2261C-1.5 9.22618 -1.5 9.22627 -1.5 9.22636C-1.5 9.22644 -1.5 9.22653 -1.5 9.22661C-1.5 9.2267 -1.5 9.22679 -1.5 9.22687C-1.5 9.22696 -1.5 9.22704 -1.5 9.22713C-1.5 9.22721 -1.5 9.22729 -1.5 9.22738C-1.5 9.22746 -1.5 9.22754 -1.5 9.22763C-1.5 9.22771 -1.5 9.22779 -1.5 9.22787C-1.5 9.22796 -1.5 9.22804 -1.5 9.22812C-1.5 9.2282 -1.5 9.22828 -1.5 9.22836C-1.5 9.22845 -1.5 9.22853 -1.5 9.22861C-1.5 9.22869 -1.5 9.22876 -1.5 9.22884C-1.5 9.22892 -1.5 9.229 -1.5 9.22908C-1.5 9.22916 -1.5 9.22924 -1.5 9.22931C-1.5 9.22939 -1.5 9.22947 -1.5 9.22955C-1.5 9.22962 -1.5 9.2297 -1.5 9.22978C-1.5 9.22985 -1.5 9.22993 -1.5 9.23C-1.5 9.23008 -1.5 9.23015 -1.5 9.23023C-1.5 9.2303 -1.5 9.23038 -1.5 9.23045C-1.5 9.23053 -1.5 9.2306 -1.5 9.23067C-1.5 9.23074 -1.5 9.23082 -1.5 9.23089C-1.5 9.23096 -1.5 9.23103 -1.5 9.2311C-1.5 9.23117 -1.5 9.23125 -1.5 9.23132C-1.5 9.23139 -1.5 9.23146 -1.5 9.23153C-1.5 9.23159 -1.5 9.23166 -1.5 9.23173C-1.5 9.2318 -1.5 9.23187 -1.5 9.23194C-1.5 9.232 -1.5 9.23207 -1.5 9.23214C-1.5 9.2322 -1.5 9.23227 -1.5 9.23234C-1.5 9.2324 -1.5 9.23247 -1.5 9.23253C-1.5 9.2326 -1.5 9.23266 -1.5 9.23273C-1.5 9.23279 -1.5 9.23285 -1.5 9.23292C-1.5 9.23298 -1.5 9.23304 -1.5 9.2331C-1.5 9.23317 -1.5 9.23323 -1.5 9.23329C-1.5 9.23335 -1.5 9.23341 -1.5 9.23347C-1.5 9.23353 -1.5 9.23359 -1.5 9.23365C-1.5 9.23371 -1.5 9.23377 -1.5 9.23383C-1.5 9.23388 -1.5 9.23394 -1.5 9.234C-1.5 9.23406 -1.5 9.23411 -1.5 9.23417C-1.5 9.23423 -1.5 9.23428 -1.5 9.23434C-1.5 9.23439 -1.5 9.23445 -1.5 9.2345C-1.5 9.23456 -1.5 9.23461 -1.5 9.23466C-1.5 9.23471 -1.5 9.23477 -1.5 9.23482C-1.5 9.23487 -1.5 9.23492 -1.5 9.23497C-1.5 9.23502 -1.5 9.23507 -1.5 9.23512C-1.5 9.23518 -1.5 9.23522 -1.5 9.23527C-1.5 9.23532 -1.5 9.23537 -1.5 9.23542C-1.5 9.23547 -1.5 9.23551 -1.5 9.23556C-1.5 9.23561 -1.5 9.23565 -1.5 9.2357C-1.5 9.23574 -1.5 9.23579 -1.5 9.23583C-1.5 9.23588 -1.5 9.23592 -1.5 9.23596C-1.5 9.23601 -1.5 9.23605 -1.5 9.23609C-1.5 9.23613 -1.5 9.23618 -1.5 9.23622C-1.5 9.23626 -1.5 9.2363 -1.5 9.23634C-1.5 9.23638 -1.5 9.23642 -1.5 9.23646C-1.5 9.23649 -1.5 9.23653 -1.5 9.23657C-1.5 9.23661 -1.5 9.23664 -1.5 9.23668C-1.5 9.23672 -1.5 9.23675 -1.5 9.23679C-1.5 9.23682 -1.5 9.23686 -1.5 9.23689C-1.5 9.23692 -1.5 9.23696 -1.5 9.23699C-1.5 9.23702 -1.5 9.23705 -1.5 9.23709C-1.5 9.23712 -1.5 9.23715 -1.5 9.23718C-1.5 9.23721 -1.5 9.23724 -1.5 9.23727C-1.5 9.2373 -1.5 9.23732 -1.5 9.23735C-1.5 9.23738 -1.5 9.23741 -1.5 9.23743C-1.5 9.23746 -1.5 9.23749 -1.5 9.23751C-1.5 9.23754 -1.5 9.23756 -1.5 9.23758C-1.5 9.23761 -1.5 9.23763 -1.5 9.23765C-1.5 9.23768 -1.5 9.2377 -1.5 9.23772C-1.5 9.23774 -1.5 9.23776 -1.5 9.23778C-1.5 9.2378 -1.5 9.23782 -1.5 9.23784C-1.5 9.23786 -1.5 9.23787 -1.5 9.23789C-1.5 9.23791 -1.5 9.23793 -1.5 9.23794C-1.5 9.23796 -1.5 9.23797 -1.5 9.23799C-1.5 9.238 -1.5 9.23802 -1.5 9.23803C-1.5 9.23804 -1.5 9.23805 -1.5 9.23807C-1.5 9.23808 -1.5 9.23809 -1.5 9.2381C-1.5 9.23811 -1.5 9.23812 -1.5 9.23813C-1.5 9.23814 -1.5 9.23815 -1.5 9.23815C-1.5 9.23816 -1.5 9.23817 -1.5 9.23817C-1.5 9.23818 -1.5 9.23819 -1.5 9.23819C-1.5 9.23819 -1.5 9.2382 -1.5 9.2382C-1.5 9.23821 -1.5 9.23821 -1.5 9.23821C-1.5 9.23821 -1.5 9.23821 -1.5 9.23821C0 9.23821 1.5 9.23821 1.5 9.23821C1.5 9.23821 1.5 9.23821 1.5 9.23821C1.5 9.2382 1.5 9.2382 1.5 9.2382C1.5 9.23819 1.5 9.23819 1.5 9.23818C1.5 9.23818 1.5 9.23817 1.5 9.23816C1.5 9.23816 1.5 9.23815 1.5 9.23814C1.5 9.23813 1.5 9.23812 1.5 9.23811C1.5 9.2381 1.5 9.23809 1.5 9.23808C1.5 9.23807 1.5 9.23806 1.5 9.23804C1.5 9.23803 1.5 9.23802 1.5 9.238C1.5 9.23799 1.5 9.23797 1.5 9.23795C1.5 9.23794 1.5 9.23792 1.5 9.2379C1.5 9.23788 1.5 9.23787 1.5 9.23785C1.5 9.23783 1.5 9.23781 1.5 9.23779C1.5 9.23776 1.5 9.23774 1.5 9.23772C1.5 9.2377 1.5 9.23767 1.5 9.23765C1.5 9.23763 1.5 9.2376 1.5 9.23757C1.5 9.23755 1.5 9.23752 1.5 9.23749C1.5 9.23747 1.5 9.23744 1.5 9.23741C1.5 9.23738 1.5 9.23735 1.5 9.23732C1.5 9.23729 1.5 9.23726 1.5 9.23722C1.5 9.23719 1.5 9.23716 1.5 9.23712C1.5 9.23709 1.5 9.23705 1.5 9.23702C1.5 9.23698 1.5 9.23695 1.5 9.23691C1.5 9.23687 1.5 9.23683 1.5 9.23679C1.5 9.23675 1.5 9.23671 1.5 9.23667C1.5 9.23663 1.5 9.23659 1.5 9.23655C1.5 9.2365 1.5 9.23646 1.5 9.23642C1.5 9.23637 1.5 9.23633 1.5 9.23628C1.5 9.23623 1.5 9.23619 1.5 9.23614C1.5 9.23609 1.5 9.23604 1.5 9.23599C1.5 9.23594 1.5 9.23589 1.5 9.23584C1.5 9.23579 1.5 9.23574 1.5 9.23568C1.5 9.23563 1.5 9.23558 1.5 9.23552C1.5 9.23547 1.5 9.23541 1.5 9.23535C1.5 9.2353 1.5 9.23524 1.5 9.23518C1.5 9.23512 1.5 9.23506 1.5 9.235C1.5 9.23494 1.5 9.23488 1.5 9.23482C1.5 9.23475 1.5 9.23469 1.5 9.23463C1.5 9.23456 1.5 9.2345 1.5 9.23443C1.5 9.23436 1.5 9.2343 1.5 9.23423C1.5 9.23416 1.5 9.23409 1.5 9.23402C1.5 9.23395 1.5 9.23388 1.5 9.23381C1.5 9.23374 1.5 9.23367 1.5 9.23359C1.5 9.23352 1.5 9.23344 1.5 9.23337C1.5 9.23329 1.5 9.23322 1.5 9.23314C1.5 9.23306 1.5 9.23298 1.5 9.2329C1.5 9.23283 1.5 9.23275 1.5 9.23266C1.5 9.23258 1.5 9.2325 1.5 9.23242C1.5 9.23233 1.5 9.23225 1.5 9.23216C1.5 9.23208 1.5 9.23199 1.5 9.23191C1.5 9.23182 1.5 9.23173 1.5 9.23164C1.5 9.23155 1.5 9.23146 1.5 9.23137C1.5 9.23128 1.5 9.23119 1.5 9.2311C1.5 9.231 1.5 9.23091 1.5 9.23081C1.5 9.23072 1.5 9.23062 1.5 9.23053C1.5 9.23043 1.5 9.23033 1.5 9.23023C1.5 9.23013 1.5 9.23003 1.5 9.22993C1.5 9.22983 1.5 9.22973 1.5 9.22962C1.5 9.22952 1.5 9.22942 1.5 9.22931C1.5 9.22921 1.5 9.2291 1.5 9.22899C1.5 9.22888 1.5 9.22878 1.5 9.22867C1.5 9.22856 1.5 9.22845 1.5 9.22834C1.5 9.22822 1.5 9.22811 1.5 9.228C1.5 9.22788 1.5 9.22777 1.5 9.22765C1.5 9.22754 1.5 9.22742 1.5 9.2273C1.5 9.22719 1.5 9.22707 1.5 9.22695C1.5 9.22683 1.5 9.22671 1.5 9.22659C1.5 9.22646 1.5 9.22634 1.5 9.22622C1.5 9.22609 1.5 9.22597 1.5 9.22584C1.5 9.22571 1.5 9.22559 1.5 9.22546C1.5 9.22533 1.5 9.2252 1.5 9.22507C1.5 9.22494 1.5 9.22481 1.5 9.22467C1.5 9.22454 1.5 9.22441 1.5 9.22427C1.5 9.22414 1.5 9.224 1.5 9.22386C1.5 9.22373 1.5 9.22359 1.5 9.22345C1.5 9.22331 1.5 9.22317 1.5 9.22303C1.5 9.22289 1.5 9.22274 1.5 9.2226C1.5 9.22246 1.5 9.22231 1.5 9.22216C1.5 9.22202 1.5 9.22187 1.5 9.22172C1.5 9.22157 1.5 9.22142 1.5 9.22127C1.5 9.22112 1.5 9.22097 1.5 9.22082C1.5 9.22066 1.5 9.22051 1.5 9.22036C1.5 9.2202 1.5 9.22004 1.5 9.21989C1.5 9.21973 1.5 9.21957 1.5 9.21941C1.5 9.21925 1.5 9.21909 1.5 9.21893C1.5 9.21877 1.5 9.2186 1.5 9.21844C1.5 9.21827 1.5 9.21811 1.5 9.21794C1.5 9.21777 1.5 9.21761 1.5 9.21744C1.5 9.21727 1.5 9.2171 1.5 9.21693C1.5 9.21676 1.5 9.21658 1.5 9.21641C1.5 9.21624 1.5 9.21606 1.5 9.21588C1.5 9.21571 1.5 9.21553 1.5 9.21535C1.5 9.21517 1.5 9.21499 1.5 9.21481C1.5 9.21463 1.5 9.21445 1.5 9.21427C1.5 9.21408 1.5 9.2139 1.5 9.21371C1.5 9.21353 1.5 9.21334 1.5 9.21315C1.5 9.21296 1.5 9.21277 1.5 9.21258C1.5 9.21239 1.5 9.2122 1.5 9.21201C1.5 9.21182 1.5 9.21162 1.5 9.21143C1.5 9.21123 1.5 9.21103 1.5 9.21084C1.5 9.21064 1.5 9.21044 1.5 9.21024C1.5 9.21004 1.5 9.20984 1.5 9.20963C1.5 9.20943 1.5 9.20923 1.5 9.20902C1.5 9.20882 1.5 9.20861 1.5 9.2084C1.5 9.20819 1.5 9.20798 1.5 9.20777H-1.5ZM-1.5 9.20777C-1.5 13.8442 0.347343 16.2412 1.81524 19.3093L4.52145 18.0145C2.82941 14.478 1.5 12.961 1.5 9.20777H-1.5ZM1.81524 19.3093C2.43314 20.6007 2.67318 21.2456 2.79724 22.0317C2.93329 22.8938 2.93793 23.9621 2.9356 26.1501L5.9356 26.1533C5.93782 24.0689 5.94246 22.7166 5.76056 21.5641C5.56667 20.3355 5.17081 19.3717 4.52145 18.0145L1.81524 19.3093ZM2.9356 26.1501C2.92896 32.361 4.61612 36.3286 5.67586 38.1381L8.26458 36.622C7.46137 35.2506 5.92956 31.8044 5.9356 26.1533L2.9356 26.1501ZM5.68265 38.1496C6.71039 39.8692 8.22851 41.5632 10.0915 42.029L10.8191 39.1185C10.1475 38.9506 9.16904 38.1353 8.25779 36.6106L5.68265 38.1496ZM10.4553 42.0737C11.399 42.0737 12.7425 41.8037 13.7461 40.361C14.6457 39.0679 15.1236 37.0245 15.1236 33.9203H12.1236C12.1236 36.8359 11.6511 38.1192 11.2833 38.6478C11.0196 39.0269 10.779 39.0737 10.4553 39.0737V42.0737ZM15.1236 33.9203C15.1236 31.1677 15.431 29.6773 15.6803 28.9294C15.8035 28.5599 15.9074 28.3871 15.941 28.3367C15.9576 28.3117 15.9569 28.3169 15.933 28.3424C15.9212 28.3552 15.9037 28.3727 15.8801 28.394C15.8683 28.4046 15.855 28.4161 15.8402 28.4283C15.8327 28.4344 15.8249 28.4407 15.8167 28.4472C15.8126 28.4504 15.8084 28.4537 15.8041 28.457C15.802 28.4586 15.7998 28.4603 15.7976 28.462C15.7965 28.4628 15.7948 28.464 15.7943 28.4645C15.7926 28.4657 15.7909 28.467 14.8909 27.267C13.9909 26.067 13.9892 26.0682 13.9875 26.0695C13.987 26.07 13.9853 26.0712 13.9841 26.0721C13.9819 26.0738 13.9796 26.0756 13.9773 26.0773C13.9726 26.0809 13.968 26.0845 13.9633 26.0882C13.9538 26.0956 13.9442 26.1034 13.9344 26.1114C13.9147 26.1276 13.8943 26.1451 13.8732 26.1641C13.8311 26.2021 13.7864 26.2456 13.7399 26.2955C13.6467 26.3953 13.547 26.5193 13.4448 26.6725C13.2408 26.9786 13.0279 27.3998 12.8342 27.9807C12.4499 29.1338 12.1236 30.9701 12.1236 33.9203H15.1236ZM15.9516 28.3276C16.0515 28.2277 16.1604 28.1776 16.2488 28.1516C16.2928 28.1387 16.3254 28.1337 16.3379 28.1322C16.3437 28.1315 16.3432 28.1318 16.3352 28.1322C16.3312 28.1324 16.3251 28.1327 16.3168 28.1329C16.3127 28.133 16.308 28.1331 16.3027 28.1332C16.3001 28.1332 16.2973 28.1333 16.2943 28.1333C16.2929 28.1333 16.2913 28.1333 16.2898 28.1333C16.289 28.1333 16.2882 28.1333 16.2874 28.1333C16.287 28.1333 16.2864 28.1333 16.2862 28.1333C16.2856 28.1333 16.285 28.1333 16.285 26.6333C16.285 25.1333 16.2844 25.1333 16.2838 25.1333C16.2836 25.1333 16.283 25.1333 16.2825 25.1333C16.2817 25.1333 16.2808 25.1333 16.28 25.1333C16.2782 25.1333 16.2765 25.1334 16.2746 25.1334C16.2709 25.1334 16.267 25.1334 16.2629 25.1335C16.2547 25.1336 16.2457 25.1338 16.2358 25.134C16.2161 25.1346 16.1931 25.1355 16.167 25.1369C16.1149 25.1399 16.0501 25.1451 15.9747 25.1543C15.8248 25.1725 15.6277 25.2072 15.4024 25.2735C14.9521 25.4059 14.364 25.6726 13.8303 26.2063L15.9516 28.3276ZM16.285 26.6333C16.285 28.1333 16.2845 28.1333 16.2839 28.1333C16.2837 28.1333 16.2832 28.1333 16.2828 28.1333C16.2821 28.1333 16.2814 28.1333 16.2806 28.1333C16.2792 28.1333 16.2779 28.1333 16.2765 28.1333C16.2739 28.1333 16.2714 28.1333 16.269 28.1332C16.2644 28.1332 16.2603 28.1331 16.2569 28.133C16.2502 28.1328 16.2458 28.1326 16.2436 28.1325C16.2394 28.1323 16.2435 28.1324 16.2542 28.1336C16.2769 28.1362 16.3205 28.1428 16.3746 28.1578C16.4879 28.1893 16.5972 28.2432 16.6817 28.3276L18.803 26.2063C18.2538 25.6571 17.6345 25.3942 17.1776 25.2673C16.9465 25.2031 16.7446 25.1701 16.593 25.1528C16.5166 25.1441 16.4514 25.1393 16.3997 25.1366C16.3738 25.1352 16.3511 25.1344 16.3319 25.134C16.3223 25.1337 16.3136 25.1336 16.3058 25.1335C16.3019 25.1334 16.2982 25.1334 16.2947 25.1334C16.293 25.1333 16.2913 25.1333 16.2897 25.1333C16.2889 25.1333 16.2881 25.1333 16.2873 25.1333C16.2869 25.1333 16.2864 25.1333 16.2862 25.1333C16.2856 25.1333 16.285 25.1333 16.285 26.6333ZM17.7424 27.267C16.8424 28.467 16.8407 28.4657 16.839 28.4645C16.8385 28.4641 16.8368 28.4628 16.8357 28.462C16.8335 28.4603 16.8313 28.4586 16.8292 28.457C16.8249 28.4537 16.8207 28.4504 16.8166 28.4472C16.8084 28.4407 16.8005 28.4344 16.7931 28.4283C16.7783 28.4161 16.765 28.4046 16.7532 28.394C16.7296 28.3728 16.7121 28.3552 16.7003 28.3425C16.6764 28.3169 16.6757 28.3117 16.6923 28.3367C16.7259 28.3871 16.8298 28.5599 16.953 28.9294C17.2023 29.6773 17.5097 31.1677 17.5097 33.9203H20.5097C20.5097 30.97 20.1834 29.1338 19.799 27.9807C19.6054 27.3998 19.3925 26.9786 19.1884 26.6725C19.0863 26.5193 18.9866 26.3953 18.8934 26.2955C18.8469 26.2456 18.8022 26.202 18.76 26.1641C18.739 26.1451 18.7185 26.1276 18.6989 26.1114C18.6891 26.1033 18.6794 26.0956 18.67 26.0882C18.6653 26.0845 18.6606 26.0809 18.656 26.0773C18.6537 26.0756 18.6514 26.0738 18.6491 26.0721C18.648 26.0712 18.6463 26.0699 18.6457 26.0695C18.644 26.0682 18.6423 26.067 17.7424 27.267ZM17.5097 33.9203C17.5097 36.9561 18.1501 39.0592 19.1505 40.401C20.1273 41.7111 21.593 42.4072 22.9227 42.0114L22.0669 39.1361C22.3321 39.0571 22.0553 39.278 21.5556 38.6078C21.0796 37.9695 20.5097 36.5875 20.5097 33.9203H17.5097ZM22.9227 42.0114C24.6347 41.5019 26.106 40.104 27.2694 38.1464L24.6904 36.6137C23.7374 38.2173 22.7842 38.9226 22.0669 39.1361L22.9227 42.0114ZM27.2725 38.1411C28.4026 36.2214 29.3809 32.1144 29.3809 26.1517H26.3809C26.3809 31.9414 25.4074 35.3958 24.6873 36.6191L27.2725 38.1411ZM29.3809 26.1517C29.3809 24.2664 29.3562 23.1862 29.473 22.2151C29.5801 21.3237 29.8113 20.5191 30.3901 19.3093L27.6839 18.0145C26.9954 19.4534 26.6485 20.5751 26.4944 21.8571C26.3499 23.0594 26.3809 24.3998 26.3809 26.1517H29.3809ZM30.3901 19.3093C31.5076 16.9737 33.8165 14.0296 33.8165 9.20777H30.8165C30.8165 13.1289 29.101 15.0528 27.6839 18.0145L30.3901 19.3093ZM33.8097 9.06556C33.8087 9.05462 33.8076 9.04354 33.8065 9.0328C33.8055 9.02337 33.8039 9.0083 33.8018 8.99135C33.8008 8.98326 33.7989 8.96807 33.7961 8.94944C33.7947 8.94003 33.7923 8.92513 33.7891 8.90697C33.7874 8.89766 33.7852 8.88543 33.7823 8.87114C33.7795 8.85739 33.7752 8.83738 33.7693 8.81339C33.7663 8.80111 33.7625 8.78602 33.7577 8.76882C33.753 8.75191 33.7466 8.73003 33.7384 8.7047C33.7304 8.68014 33.7185 8.6457 33.702 8.60526C33.695 8.58826 33.6792 8.55186 33.6702 8.53247C33.6593 8.50973 33.6342 8.46063 33.6197 8.43437C33.6016 8.40292 33.5585 8.33469 33.5332 8.29818C33.5002 8.25366 33.4197 8.1578 33.3715 8.1074C33.3064 8.04622 33.1457 7.92228 33.0488 7.86271C32.921 7.7985 32.6242 7.70219 32.4568 7.67635C32.2724 7.66989 31.9148 7.72294 31.7465 7.7801C31.6059 7.846 31.3718 8.00068 31.2773 8.08348C31.2078 8.15424 31.0962 8.29091 31.0526 8.35471C31.0205 8.40668 30.9682 8.5031 30.9473 8.547C30.9314 8.58318 30.9049 8.65005 30.894 8.68057C30.8854 8.7063 30.8707 8.75407 30.8646 8.77607C30.8505 8.82786 30.8417 8.87134 30.8363 8.90102C30.8307 8.93188 30.8269 8.95823 30.8243 8.97807C30.8217 8.99831 30.8199 9.01591 30.8186 9.02997C30.816 9.05743 30.8146 9.0801 30.8139 9.09526C30.8131 9.1111 30.8127 9.12456 30.8124 9.13464C30.812 9.15431 30.812 9.17032 30.812 9.18017C30.8121 9.19073 30.8122 9.19967 30.8124 9.20621C30.8127 9.21901 30.8131 9.22963 30.8133 9.23637C30.8139 9.24994 30.8145 9.26175 30.815 9.26941C30.8159 9.28545 30.8169 9.30136 30.8179 9.31464C30.8188 9.32793 30.82 9.34382 30.8214 9.35981C30.8221 9.36745 30.8231 9.37918 30.8245 9.39261C30.8252 9.39929 30.8263 9.40976 30.8278 9.42232C30.8286 9.42875 30.8297 9.43747 30.8311 9.44776C30.8324 9.45739 30.8346 9.47287 30.8378 9.4918C30.8394 9.5015 30.8416 9.51437 30.8445 9.52944C30.8473 9.5439 30.8516 9.56526 30.8577 9.59095C30.8608 9.60411 30.8649 9.62043 30.8699 9.6391C30.8749 9.65742 30.8818 9.68146 30.8909 9.70939C30.8996 9.73635 30.913 9.77504 30.9319 9.8206C30.9401 9.83982 30.9587 9.8813 30.9693 9.90351C30.9823 9.92962 31.0129 9.98636 31.0307 10.0169C31.0533 10.0534 31.1079 10.1331 31.1404 10.1758C31.1833 10.2276 31.2893 10.3383 31.3536 10.3954C31.4401 10.4627 31.6523 10.5906 31.7789 10.6461C31.9365 10.697 32.2812 10.7457 32.4643 10.739C32.6417 10.7108 32.9617 10.6009 33.1017 10.5249C33.2095 10.4522 33.3854 10.2997 33.4551 10.224C33.5058 10.1617 33.5879 10.0439 33.6205 9.98958C33.6447 9.94546 33.6847 9.86359 33.701 9.82615C33.7136 9.7952 33.7348 9.73771 33.7437 9.71126C33.7508 9.6889 33.7631 9.64712 33.7683 9.62774C33.7804 9.58187 33.7882 9.54321 33.7932 9.51614C33.7983 9.48814 33.8019 9.46412 33.8043 9.44577C33.8068 9.42708 33.8087 9.41076 33.81 9.3976C33.8126 9.37187 33.8141 9.35056 33.815 9.33608C33.8159 9.32099 33.8165 9.30814 33.8168 9.29842C33.8175 9.27946 33.8177 9.26398 33.8177 9.2543C33.8179 9.2351 33.8176 9.21952 33.8175 9.2113C33.8171 9.19406 33.8166 9.1788 33.8162 9.16934C33.8158 9.15853 33.8153 9.14739 33.8148 9.13643L30.8181 9.27912C30.8184 9.28479 30.8185 9.28717 30.8185 9.28714C30.8185 9.28707 30.8185 9.28567 30.8184 9.28326C30.8183 9.28108 30.8182 9.27628 30.818 9.26974C30.8179 9.26438 30.8177 9.25107 30.8178 9.23361C30.8179 9.2248 30.8181 9.21005 30.8187 9.1917C30.819 9.18229 30.8196 9.16971 30.8205 9.15486C30.8213 9.14062 30.8228 9.11951 30.8254 9.09397C30.8268 9.08089 30.8286 9.06466 30.8311 9.04605C30.8335 9.02777 30.8371 9.00382 30.8422 8.97587C30.8472 8.94886 30.855 8.91025 30.867 8.86443C30.8723 8.84507 30.8845 8.80331 30.8916 8.78097C30.9005 8.75454 30.9218 8.69706 30.9343 8.66613C30.9506 8.6287 30.9906 8.54684 31.0148 8.50274C31.0474 8.44839 31.1295 8.3306 31.1801 8.26837C31.2499 8.19263 31.4258 8.04012 31.5335 7.96743C31.6735 7.89152 31.9935 7.78162 32.171 7.75337C32.354 7.74663 32.6987 7.7954 32.8563 7.84624C32.9829 7.90182 33.1951 8.02963 33.2816 8.09693C33.3459 8.15408 33.4519 8.2647 33.4948 8.31655C33.5272 8.35919 33.5818 8.43887 33.6044 8.47544C33.6222 8.50593 33.6528 8.56265 33.6658 8.58874C33.6764 8.61094 33.695 8.6524 33.7032 8.6716C33.722 8.71712 33.7354 8.75576 33.7442 8.78267C33.7532 8.81054 33.7601 8.83452 33.765 8.85277C33.7701 8.87138 33.7741 8.88763 33.7772 8.9007C33.7833 8.92624 33.7876 8.94742 33.7903 8.96166C33.7932 8.97653 33.7954 8.98915 33.7969 8.9986C33.8 9.01701 33.8021 9.03187 33.8033 9.04079C33.8046 9.05037 33.8056 9.0583 33.8063 9.06384C33.8076 9.07463 33.8085 9.08298 33.8089 9.08726C33.8098 9.09589 33.8103 9.10163 33.8104 9.10252C33.8106 9.10499 33.8105 9.10425 33.8103 9.1009C33.81 9.09755 33.81 9.09683 33.8101 9.09935C33.8102 9.10026 33.8105 9.10609 33.8109 9.11485C33.8111 9.11919 33.8114 9.1277 33.8116 9.13873C33.8118 9.14438 33.8119 9.15252 33.812 9.16237C33.812 9.17152 33.812 9.1869 33.8116 9.20605C33.8113 9.21588 33.8109 9.2291 33.8101 9.24473C33.8094 9.25968 33.8081 9.28216 33.8055 9.30946C33.8042 9.32345 33.8024 9.34097 33.7998 9.36115C33.7972 9.38091 33.7934 9.40721 33.7878 9.43801C33.7824 9.46764 33.7736 9.51107 33.7596 9.56282C33.7534 9.5848 33.7388 9.63256 33.7302 9.65827C33.7193 9.68878 33.6928 9.75563 33.6769 9.7918C33.656 9.83568 33.6037 9.93209 33.5716 9.98405C33.528 10.0478 33.4164 10.1845 33.3469 10.2553C33.2524 10.3381 33.0183 10.4927 32.8778 10.5586C32.7095 10.6158 32.3518 10.6688 32.1675 10.6624C32 10.6365 31.7032 10.5402 31.5755 10.476C31.4786 10.4164 31.3179 10.2925 31.2528 10.2313C31.2046 10.1809 31.1241 10.0851 31.0911 10.0406C31.0659 10.0041 31.0228 9.93588 31.0046 9.90445C30.9902 9.8782 30.965 9.82912 30.9541 9.80639C30.9452 9.78703 30.9294 9.75064 30.9224 9.73367C30.906 9.69327 30.8941 9.65889 30.8861 9.63438C30.8778 9.60911 30.8715 9.5873 30.8668 9.57046C30.8621 9.55334 30.8582 9.53833 30.8552 9.52614C30.8494 9.50233 30.8452 9.48253 30.8424 9.46902C30.8396 9.45496 30.8374 9.44301 30.8358 9.434C30.8326 9.41645 30.8304 9.40228 30.8292 9.39375C30.8266 9.37685 30.825 9.36393 30.8244 9.3587C30.8236 9.35232 30.823 9.34765 30.8228 9.34554C30.8226 9.3432 30.8224 9.34186 30.8224 9.34182C30.8224 9.34171 30.8225 9.34231 30.8226 9.34378C30.8228 9.34523 30.823 9.34727 30.8232 9.34999L33.8097 9.06556Z" fill="black" mask="url(#path-1-inside-1)"/>
<path d="M10.4925 39.5007C9.82588 35.1674 8.49282 30.0008 10.4925 23.5007C11.5527 20.0546 7.98801 16.0006 6.99191 13.0007C6.32773 11.0005 6.50191 4.00109 16.5 8.50098" stroke="black"/>
<path d="M22.2141 39.5007C22.8808 35.1674 24.2138 30.0008 22.2141 23.5007C21.1539 20.0546 24.7187 16.0006 25.7148 13.0007C26.3789 11.0005 25.9981 4.00109 16 8.50098" stroke="black"/>
</svg>
