<svg width="42" height="42" viewBox="0 0 42 42" fill="none" xmlns="http://www.w3.org/2000/svg">
<path d="M40.681 1.31974C40.558 1.19751 40.3917 1.12891 40.2183 1.12891C40.0449 1.12891 39.8786 1.19751 39.7557 1.31974L29.5444 11.531L29.0785 11.0651C28.9717 10.9576 28.831 10.8903 28.6803 10.8748C28.5296 10.8592 28.3781 10.8963 28.2516 10.9797L24.2813 13.631C22.9778 13.1136 21.5511 12.9902 20.178 13.276C18.805 13.5618 17.5461 14.2443 16.5572 15.2388L13.3022 11.9904C12.8757 11.5637 12.3692 11.2253 11.8119 10.9944C11.2545 10.7636 10.6571 10.6447 10.0538 10.6447C9.4505 10.6447 8.85311 10.7636 8.29574 10.9944C7.73837 11.2253 7.23193 11.5637 6.80536 11.9904L5.88005 12.9157C5.01853 13.7786 4.53465 14.9481 4.53465 16.1674C4.53465 17.3867 5.01853 18.5562 5.88005 19.4191L10.5197 24.0588L5.41411 29.1579L4.94817 28.6985C4.76793 28.5051 4.55058 28.3499 4.30908 28.2423C4.06759 28.1347 3.80689 28.0769 3.54254 28.0722C3.2782 28.0675 3.01562 28.1162 2.77048 28.2152C2.52533 28.3142 2.30265 28.4616 2.1157 28.6485C1.92875 28.8355 1.78137 29.0582 1.68235 29.3033C1.58333 29.5484 1.5347 29.811 1.53937 30.0754C1.54403 30.3397 1.60189 30.6004 1.7095 30.8419C1.8171 31.0834 1.97224 31.3008 2.16567 31.481L10.5197 39.8351C10.8929 40.1828 11.3866 40.3721 11.8966 40.3631C12.4066 40.3541 12.8933 40.1475 13.254 39.7868C13.6147 39.4261 13.8213 38.9395 13.8303 38.4294C13.8393 37.9194 13.65 37.4258 13.3022 37.0526L12.8363 36.5866L17.9419 31.481L22.5816 36.1207C23.0064 36.5478 23.5116 36.8866 24.068 37.1175C24.6244 37.3484 25.2211 37.4669 25.8235 37.466H25.83C26.4344 37.4669 27.033 37.3485 27.5916 37.1177C28.1502 36.8868 28.6577 36.548 29.085 36.1207L30.0104 35.1954C30.437 34.7688 30.7754 34.2624 31.0063 33.705C31.2372 33.1476 31.356 32.5502 31.356 31.9469C31.356 31.3436 31.2372 30.7462 31.0063 30.1889C30.7754 29.6315 30.437 29.1251 30.0104 28.6985L26.7619 25.4501C27.9441 24.2725 28.6796 22.7203 28.8422 21.0597C28.8619 20.8235 28.875 20.5872 28.875 20.3444C28.8735 19.4454 28.7021 18.5548 28.3697 17.7194L31.021 13.7491C31.1044 13.6226 31.1415 13.4712 31.1259 13.3204C31.1104 13.1697 31.0432 13.029 30.9357 12.9222L30.4697 12.4563L40.681 2.24505C40.8032 2.1221 40.8718 1.95577 40.8718 1.7824C40.8718 1.60902 40.8032 1.4427 40.681 1.31974ZM6.81192 18.4872C6.50471 18.185 6.2611 17.8243 6.09542 17.4265C5.92974 17.0286 5.84536 16.6016 5.84723 16.1707C5.84657 15.7389 5.93148 15.3113 6.09706 14.9126C6.26264 14.5138 6.50561 14.1518 6.81192 13.8476L7.73723 12.9222C8.0406 12.6165 8.40148 12.3739 8.79907 12.2083C9.19667 12.0427 9.6231 11.9574 10.0538 11.9574C10.4845 11.9574 10.9109 12.0427 11.3085 12.2083C11.7061 12.3739 12.067 12.6165 12.3704 12.9222L15.7107 16.256C14.9248 17.3975 14.4871 18.7425 14.4507 20.1279L11.4516 23.1269L6.81192 18.4872ZM12.3769 38.9032C12.3159 38.9647 12.2433 39.0135 12.1634 39.0468C12.0834 39.0801 11.9976 39.0973 11.911 39.0973C11.8243 39.0973 11.7386 39.0801 11.6586 39.0468C11.5786 39.0135 11.5061 38.9647 11.445 38.9032L3.09755 30.5557C2.97397 30.433 2.9042 30.2662 2.90359 30.0921C2.90297 29.9179 2.97156 29.7507 3.09427 29.6271C3.21697 29.5035 3.38374 29.4337 3.55788 29.4331C3.73203 29.4325 3.89928 29.5011 4.02286 29.6238L12.3769 37.9779C12.4991 38.1008 12.5678 38.2672 12.5678 38.4405C12.5678 38.6139 12.4991 38.7802 12.3769 38.9032ZM11.911 35.6547L6.34598 30.0897L14.595 21.8341C14.8791 23.205 15.5579 24.4629 16.5478 25.4529C17.5378 26.4429 18.7957 27.1217 20.1666 27.4057L11.911 35.6547ZM29.0785 29.6304C29.3842 29.9337 29.6269 30.2946 29.7924 30.6922C29.958 31.0898 30.0433 31.5162 30.0433 31.9469C30.0433 32.3776 29.958 32.8041 29.7924 33.2017C29.6269 33.5992 29.3842 33.9601 29.0785 34.2635L28.1532 35.1888C27.8491 35.4946 27.4877 35.7372 27.0896 35.9028C26.6914 36.0684 26.2645 36.1536 25.8333 36.1536C25.4021 36.1536 24.9752 36.0684 24.5771 35.9028C24.179 35.7372 23.8175 35.4946 23.5135 35.1888L18.8738 30.5491L21.8729 27.5501C23.2608 27.5168 24.6088 27.0789 25.7513 26.2901L29.0785 29.6304ZM27.5363 20.9351C27.3909 22.3921 26.7094 23.7432 25.624 24.7262C24.5387 25.7092 23.1269 26.2539 21.6625 26.2547C20.1982 26.2555 18.7858 25.7124 17.6994 24.7306C16.6129 23.7489 15.9299 22.3985 15.7829 20.9416C15.6984 20.1432 15.7776 19.336 16.0156 18.5693C16.2537 17.8026 16.6455 17.0924 17.1672 16.4822C17.6889 15.872 18.3296 15.3746 19.05 15.0203C19.7704 14.666 20.5555 14.4623 21.3573 14.4217C22.1591 14.381 22.9608 14.5043 23.7133 14.7839C24.4659 15.0635 25.1536 15.4936 25.7343 16.0479C26.3151 16.6022 26.7767 17.2691 27.091 18.0078C27.4054 18.7466 27.5658 19.5416 27.5625 20.3444C27.5625 20.5479 27.5494 20.7447 27.5363 20.9351ZM27.6872 16.3807C27.1429 15.5607 26.44 14.8578 25.62 14.3135L28.5338 12.371L29.6297 13.4669L27.6872 16.3807Z" fill="black"/>
<path d="M21.6563 16.4062C20.8775 16.4062 20.1162 16.6372 19.4687 17.0698C18.8212 17.5025 18.3165 18.1174 18.0185 18.8369C17.7205 19.5564 17.6425 20.3481 17.7944 21.1119C17.9463 21.8757 18.3213 22.5773 18.872 23.128C19.4227 23.6787 20.1243 24.0537 20.8881 24.2056C21.6519 24.3575 22.4436 24.2795 23.1631 23.9815C23.8826 23.6835 24.4975 23.1788 24.9302 22.5313C25.3628 21.8838 25.5937 21.1225 25.5937 20.3437C25.5927 19.2998 25.1775 18.2989 24.4393 17.5607C23.7011 16.8225 22.7002 16.4073 21.6563 16.4062ZM21.6563 22.9687C21.1371 22.9687 20.6296 22.8148 20.1979 22.5264C19.7662 22.2379 19.4297 21.8279 19.2311 21.3483C19.0324 20.8686 18.9804 20.3408 19.0817 19.8316C19.183 19.3224 19.433 18.8547 19.8001 18.4876C20.1672 18.1205 20.6349 17.8705 21.1441 17.7692C21.6533 17.6679 22.1811 17.7199 22.6608 17.9186C23.1405 18.1172 23.5504 18.4537 23.8389 18.8854C24.1273 19.3171 24.2812 19.8246 24.2812 20.3437C24.2812 21.0399 24.0047 21.7076 23.5124 22.1999C23.0201 22.6922 22.3524 22.9687 21.6563 22.9687Z" fill="black"/>
</svg>
